<svg xmlns="http://www.w3.org/2000/svg" xmlns:xlink="http://www.w3.org/1999/xlink" width="398.019" height="398.11" viewBox="0 0 398.019 398.11">
  <defs>
    <linearGradient id="linear-gradient" x1="0.627" y1="-0.033" x2="-0.384" y2="4.016" gradientUnits="objectBoundingBox">
      <stop offset="0" stop-color="#ffd080"/>
      <stop offset="0.06" stop-color="#e3d390"/>
      <stop offset="0.19" stop-color="#b2d8ad"/>
      <stop offset="0.32" stop-color="#88dcc6"/>
      <stop offset="0.45" stop-color="#66e0db"/>
      <stop offset="0.58" stop-color="#4be2eb"/>
      <stop offset="0.71" stop-color="#38e4f6"/>
      <stop offset="0.85" stop-color="#2de6fd"/>
      <stop offset="1" stop-color="#29e6ff"/>
    </linearGradient>
    <linearGradient id="linear-gradient-2" x1="0.086" y1="0.029" x2="1.011" y2="1.181" gradientUnits="objectBoundingBox">
      <stop offset="0" stop-color="#ffd5ff"/>
      <stop offset="0.06" stop-color="#e3d7ff"/>
      <stop offset="0.19" stop-color="#b2dbff"/>
      <stop offset="0.32" stop-color="#88deff"/>
      <stop offset="0.45" stop-color="#66e1ff"/>
      <stop offset="0.58" stop-color="#4be3ff"/>
      <stop offset="0.71" stop-color="#38e5ff"/>
      <stop offset="0.85" stop-color="#2de6ff"/>
      <stop offset="1" stop-color="#29e6ff"/>
    </linearGradient>
    <linearGradient id="linear-gradient-3" x1="0.909" y1="-0.049" x2="-0.055" y2="1.142" xlink:href="#linear-gradient-2"/>
    <linearGradient id="linear-gradient-4" x1="1.039" y1="0.55" x2="-0.625" y2="0.347" xlink:href="#linear-gradient-2"/>
    <linearGradient id="linear-gradient-5" x1="-0.467" y1="0.098" x2="0.957" y2="1.041" xlink:href="#linear-gradient-2"/>
  </defs>
  <g id="front_spaceman" data-name="front spaceman" transform="translate(-13692.856 -158.316)">
    <path id="Path_2205" data-name="Path 2205" d="M385.428,294.625s-3.125-23.152,0-27.835,80.84-24.636,102.918-21.8,10.786,96.516,10.37,100.676-43.691,29.656-79.114,23.124S385.428,294.625,385.428,294.625Z" transform="translate(13447.901 15.178)" fill="#449fd9"/>
    <path id="Path_2212" data-name="Path 2212" d="M508.351,336.329c0,1.214-3.592,12.119-8.667,22.146-.416.815-.837,1.63-1.27,2.434s-.86,1.563-1.3,2.321-.95,1.608-1.445,2.372c-3.423,5.435-7.245,9.589-10.927,10.073l-1.169.157h0c-1.849.247-4.351.562-7.341.961-18.217,2.321-54.4,6.307-69.053,2.248l-.894-.253c-16.975-4.9-24.642-12.928-28.329-15.48h0c-2.608-1.821-3.766-11.461-3.423-22.714,4.5-3.474,7.751-6.852,8.757-9.308,1.422-3.457,4.62-13.417,5.008-22.27l-.112-.2a71.766,71.766,0,0,0-6.784-3.373c3.17-8.01,6.8-14.7,8.948-18.954,3.777-7.487,22.6-13.175,22.6-13.175s58.682-13.8,61.875-13.754,22.3-3.047,29.791,1.827S508.351,334.08,508.351,336.329Z" transform="translate(13452.089 9.082)" fill="#dedede"/>
    <path id="Path_2213" data-name="Path 2213" d="M466.723,510.591s-.472,3.564-1.124,8.712c-1.124,8.651-2.855,21.792-3.935,30.072-.961,7.538-1.012,17.363-1.81,24.777-.607,5.582-1.641,9.792-3.811,10.635-5.059,1.967-13.676-12.18-16.863-38.407-2.417-19.9,3.041-40.51,5.818-49.29.523-1.658.95-2.895,1.209-3.626.18-.5.281-.764.281-.764l3.316,2.934,14.052,12.433Z" transform="translate(13424.018 -93.418)" fill="#ededed"/>
    <path id="Path_2214" data-name="Path 2214" d="M472.491,516.792s-.472,3.564-1.124,8.712c-1.124,8.651-2.855,21.792-3.935,30.072-.961,7.537-1.012,17.363-1.81,24.777a3.835,3.835,0,0,1-.444,0c-1.686-.14-3.373-23.091-3.552-36.873s-4.115-17.509-7.228-21.815-2.619-14.805-2.619-14.805,10.68,4.345,17.858,7.408Z" transform="translate(13418.25 -99.619)" fill="#dedede"/>
    <path id="Path_2215" data-name="Path 2215" d="M541.809,569.821a12.929,12.929,0,0,1-1.428-1.8c-6.25-9.089-19.111-40.47-24.08-52.932-1.276-3.187-2.035-5.132-2.035-5.132a6.813,6.813,0,0,1-.489-2.76c.219-8,13.872-16.042,18.661-19.819a17.423,17.423,0,0,1,3.715-2.248,18.273,18.273,0,0,1,5.368-1.461l.349-.034h0c1.647-.135,2.81.056,2.928.354a18.775,18.775,0,0,1,.292,1.894c.163,1.237.388,3.03.658,5.25,2.023,16.762,6.565,57.923,7.015,68.013C553.331,571.8,548.554,576.566,541.809,569.821Z" transform="translate(13391.089 -89.43)" fill="#ededed"/>
    <path id="Path_2216" data-name="Path 2216" d="M471.713,510.938s-.472,3.564-1.124,8.712c-3.063-1.074-11.523-4.5-16.374-10.775a19.4,19.4,0,0,1-4.227-11.438,14.31,14.31,0,0,1,.365-3.935c.09-.045.388.067.843.3.787.4,2.052,1.175,3.6,2.17Z" transform="translate(13419.027 -93.766)" fill="#807d7f"/>
    <path id="Path_2217" data-name="Path 2217" d="M540.381,579.691c-6.25-9.089-19.111-40.47-24.08-52.932-1.276-3.187-2.035-5.132-2.035-5.132a6.814,6.814,0,0,1-.489-2.76c1.49-4.39,3.429-7.566,5.733-8.667,0,0,20.151,55.27,20.8,67.355C540.353,578.308,540.375,579.022,540.381,579.691Z" transform="translate(13391.089 -101.082)" fill="#dedede"/>
    <path id="Path_2218" data-name="Path 2218" d="M545.752,491.18a7.621,7.621,0,0,0-3.805-1.428c-5-.444-19.712,17.74-25.648,25.367-1.276-3.187-2.035-5.132-2.035-5.132-3.536-8.853,12.833-18.363,18.172-22.579a17.425,17.425,0,0,1,3.715-2.248l5.368-1.461.287-.079.062.045h0c.309.214,1.641,1.124,3.221,2.248C545.258,487.167,545.482,488.96,545.752,491.18Z" transform="translate(13391.091 -89.442)" fill="#807d7f"/>
    <path id="Path_2219" data-name="Path 2219" d="M516.534,483.46s-4.171-7.633-10.775-.326c-5.745,6.352-15.952,21.764-22.006,25.642a4.755,4.755,0,0,1-2.428.916c-5.34,0-17.425-7.729-22.343-10.118S448.3,482.993,447.6,481.447s2.428-5.745,2.428-5.745l2.248-.208,57.5-5.334s1.5-3,5.43,0S516.534,483.46,516.534,483.46Z" transform="translate(13420.112 -82.964)" fill="#dedede"/>
    <path id="Path_2220" data-name="Path 2220" d="M483.753,513.971a4.756,4.756,0,0,1-2.428.916c-5.34,0-17.425-7.729-22.343-10.118S448.3,488.188,447.6,486.643s2.428-5.745,2.428-5.745l2.248-.208c2.631,1.5,6.4,3.985,6.4,3.985S470.263,510.273,483.753,513.971Z" transform="translate(13420.112 -88.159)" fill="#ededed"/>
    <path id="Path_2221" data-name="Path 2221" d="M521.186,440.59q-.641,1.18-1.3,2.321c-.472.815-.95,1.608-1.445,2.372a158.272,158.272,0,0,1-12.1,10.23h0a106.567,106.567,0,0,1-11.472,7.982c-6.745,3.693-34.006,6.992-40.751,6.29-5.272-.562-19.229-8.06-25.064-11.309-1.624-.9-2.619-1.478-2.619-1.478s55.855.141,64.781-2.3C498.528,452.68,515.374,443.732,521.186,440.59Z" transform="translate(13429.333 -70.599)" fill="#303030"/>
    <path id="Path_2222" data-name="Path 2222" d="M506.165,251.054S501.9,265.387,489.4,271.149a52.68,52.68,0,0,1-7.785,2.765c-12.731,3.552-29.139,4.542-31.938,3.277-3.417-1.546-7.521-4.075-9.881-6.745s1.405-5.9,1.405-5.9l53.32-22.517,8.184-3.457a25.034,25.034,0,0,0-.748,3.457h0c-.275,2-.309,4.334.753,5.492,0,0,1.686-.236,1.31,1.124,0,0,1.591.281,1.029,1.405C505.041,250.053,506.261,249.694,506.165,251.054Z" transform="translate(13423.826 17.868)" fill="#807d7f"/>
    <path id="Path_2223" data-name="Path 2223" d="M501.97,244.391h0c-.2.714-5.621,19.3-20.336,31.865-12.731,3.552-29.139,4.542-31.938,3.277-3.417-1.546-7.521-4.075-9.882-6.745s1.405-5.9,1.405-5.9l53.32-22.517C497.878,243.863,500.48,243.8,501.97,244.391Z" transform="translate(13423.817 15.504)" fill="#303030"/>
    <path id="Path_2224" data-name="Path 2224" d="M726.922,285.921a72.583,72.583,0,0,1-3.564,6.644c-7.122,11.989-49.093,34.849-100.052,17.234-11.641-4.025-18.875-8.577-23.107-13.209-14.283-15.648,5.683-32.191,5.683-32.191s57.519-22.062,95.741-12.686C733.38,259.5,732.284,274.269,726.922,285.921Z" transform="translate(13355.497 13.129)" fill="#dedede"/>
    <path id="Path_2225" data-name="Path 2225" d="M726.93,285.921a243.572,243.572,0,0,1-29.037-3.462c-40.352-7-76.843,4.84-97.674,14.131C585.936,280.941,605.9,264.4,605.9,264.4s57.519-22.062,95.74-12.686C733.389,259.5,732.293,274.269,726.93,285.921Z" transform="translate(13355.488 13.129)" fill="#ededed"/>
    <path id="Path_2226" data-name="Path 2226" d="M502.392,436.26c-.821,1.619-1.686,3.221-2.569,4.755a165.389,165.389,0,0,1-20.887,13.563,46.958,46.958,0,0,1-9.752,4.019c-14.614,3.693-43,5.1-64.078-2.209-20.747-7.195-24.338-15.025-24.445-15.266C381.413,441.358,434.457,459.761,502.392,436.26Z" transform="translate(13449.381 -68.703)" fill="#807d7f"/>
    <path id="Path_2227" data-name="Path 2227" d="M488.954,185.025c-7.442,33.512-28.588,37.733-46.591,38.986l-1.748.112a37.723,37.723,0,0,1-10.449-.877c-15.176-3.373-29.229-16.1-27.542-38.222,2.035-27.228,2.406-32.208,12.9-44.332,0,0,9.494-10.365,29.926-10.815,1.686-.039,3.373,0,5.2.1A47.323,47.323,0,0,1,464,132.694C481.978,139.2,495.165,157.016,488.954,185.025Z" transform="translate(13439.823 65.472)" fill="#dedede"/>
    <path id="Path_2228" data-name="Path 2228" d="M454.378,223.972l-1.748.112a37.721,37.721,0,0,1-10.449-.86c-20.235-15.429-9.657-49.548-8.2-70.536.877-12.591,12.512-19.313,23.462-22.86,1.686-.039,3.373,0,5.2.1a47.322,47.322,0,0,1,13.35,2.72c-36.125,5.458-28.206,15.03-36.114,49.835C434.615,205.676,445.485,217.992,454.378,223.972Z" transform="translate(13427.809 65.494)" fill="#fff"/>
    <path id="Path_2229" data-name="Path 2229" d="M355.184,335.842c-.36,8.887-3.586,18.937-5.014,22.41-2.81,6.874-23.046,20.972-40.195,24.243q-1.608.315-3.181.489c-17.706,1.967-1.686-32.6,8.712-44.124s24.17-17.886,24.17-17.886C352.5,317.652,355.583,326.05,355.184,335.842Z" transform="translate(13485.199 -17.894)" fill="#ededed"/>
    <path id="Path_2230" data-name="Path 2230" d="M407.729,152.072s6.6-5.9,9.415-6.745,33.675-3.676,44.546,1.439,15.362,24.226,14.985,32.848S472.932,201.16,466,207.157s-35.22,11.989-45.529,10.489S403.149,207.6,402.721,204,407.729,152.072,407.729,152.072Z" transform="translate(13439.73 59.376)" fill="#ed5b9c"/>
    <path id="Path_2231" data-name="Path 2231" d="M466.756,181.574a39.616,39.616,0,0,1-10.269,26.649c-10.46,5.559-24.428,7.791-29.453,8.577-3.176.495-11.034.467-17.723.326a39.757,39.757,0,0,1-20.173-47.463c1.815-5.778,7.8-10.949,11.854-15.255,6.97-3.305,21.4-8.729,52.7-2.282A39.61,39.61,0,0,1,466.756,181.574Z" transform="translate(13446.469 57.041)" fill="url(#linear-gradient)"/>
    <ellipse id="Ellipse_103" data-name="Ellipse 103" cx="13.451" cy="13.451" rx="13.451" ry="13.451" transform="translate(13906.333 292.53)" fill="#fff"/>
    <ellipse id="Ellipse_104" data-name="Ellipse 104" cx="10.045" cy="10.045" rx="10.045" ry="10.045" transform="translate(13909.739 295.936)" fill="#ffd080"/>
    <ellipse id="Ellipse_105" data-name="Ellipse 105" cx="7.83" cy="7.83" rx="7.83" ry="7.83" transform="translate(13911.954 298.151)" fill="#807d7f"/>
    <path id="Path_2232" data-name="Path 2232" d="M461.944,216.54a39.687,39.687,0,0,1-5.458,7.689c-10.46,5.559-24.428,7.791-29.453,8.577-3.176.495-11.034.467-17.723.326a39.757,39.757,0,0,1-20.173-47.463c-.6,6.3-.309,13.232,3.238,15.845,7.116,5.25,6.368-1.405,10.208,0s.281,5.059,3.654,6.279,13.3-.562,19.864,14.052,27.351,2.929,29.229-2.985C456.571,214.944,460.455,214.078,461.944,216.54Z" transform="translate(13446.469 41.034)" fill="#ffd080"/>
    <path id="Path_2233" data-name="Path 2233" d="M363.843,344.576v.141c-.388,8.853-3.586,18.813-5.008,22.27-1.124,2.7-4.907,6.515-10.146,10.354-8.1,5.924-19.645,11.905-30.049,13.889,7.931-5.857,17.852-14.193,21.652-21.635,2.434-4.772,4.8-9.719,6.835-14.17,3.6-7.869,6.183-14.159,6.374-15.058s5.756,1.641,10.23,4.148Z" transform="translate(13476.54 -26.629)" fill="#dedede"/>
    <path id="Path_2234" data-name="Path 2234" d="M379.13,341.188a89.556,89.556,0,0,0-5.565,20,136.778,136.778,0,0,0-1.3,15.131c-.45.348-.911.7-1.388,1.045-.635-6.644-1.124-14.277-1.563-21.921,3.6-7.869,6.183-14.159,6.374-15.058C375.768,339.974,377.179,340.373,379.13,341.188Z" transform="translate(13454.352 -26.647)" fill="#807d7f" opacity="0.33"/>
    <path id="Path_2235" data-name="Path 2235" d="M401.383,218.158s-6.38,9.218,5.587,22.59c0,0-9.392-6.6-10.59-15.946S401.383,218.158,401.383,218.158Z" transform="translate(13442.563 26.965)" fill="#fff" opacity="0.53"/>
    <path id="Path_2236" data-name="Path 2236" d="M424.49,399.665s20.319,32.8,33.815,38.492c0,0,23.046-35.547,26.446-43.309s1.49,2.293,1.49,2.293l-28.076,53.837s-20.173-7.611-25.755-19.111S424.49,399.665,424.49,399.665Z" transform="translate(13430.188 -49.28)" fill="#807d7f"/>
    <ellipse id="Ellipse_106" data-name="Ellipse 106" cx="4.851" cy="12.13" rx="4.851" ry="12.13" transform="translate(13840.166 251.813) rotate(-30)" fill="#fff" opacity="0.59"/>
    <path id="Path_2237" data-name="Path 2237" d="M447.65,155.5s23.889-.562,32.18,2.951c0,0,7.307,8.291,9.134,16.582,0,0-6.042-11.523-11.944-14.052S454.817,156.331,447.65,155.5Z" transform="translate(13420.045 54.258)" fill="#fff"/>
    <path id="Path_2238" data-name="Path 2238" d="M517.249,688.381c-.719-.388-57.631-31.668-48.278-39.549s17.931.95,23.608,4.868,31.038,29.184,29.229,32.359S517.249,688.381,517.249,688.381Z" transform="translate(13411.163 -160.404)" fill="#ededed"/>
    <path id="Path_2239" data-name="Path 2239" d="M363.506,301.447a5.621,5.621,0,0,1,2.406-5.537c4.924-3.328,14.957-9.556,19.139-8.325,5.621,1.686-.978,18.729,2.395,33.062s13.872,47.536,39.06,74.387c14.541,15.5,12.99,20.308,12.99,20.308s-27.036-16.3-41.37-34.287C384.685,364.193,366.637,320.913,363.506,301.447Z" transform="translate(13456.923 -3.527)" fill="url(#linear-gradient-2)"/>
    <path id="Path_2240" data-name="Path 2240" d="M526.361,256.391s1.686-2.586,6.043-2.867,19.533,7.869,20.8,9.4.422,10.55-3.232,20.387-58.12,117.179-58.12,117.179-8.291-5.621-8.853-10.382S524.112,319.4,526.361,256.391Z" transform="translate(13404.569 11.322)" fill="url(#linear-gradient-3)"/>
    <path id="Path_2241" data-name="Path 2241" d="M474.451,660.307a3.367,3.367,0,0,1-.669.641c-4.918,3.654-16.863-7.729-20.8-11.523,0,0-2.985-6.183.562-6.453s3.878,1.535,8.167-.292c.478-.208.911-.377,1.3-.517,3.08-1.124,3.479-.349,4.6,1.124C468.78,644.923,477.672,656.024,474.451,660.307Z" transform="translate(13418.224 -158.635)" fill="#46a0dc"/>
    <path id="Path_2242" data-name="Path 2242" d="M631.283,652.042c-.815-.079-65.4-6.863-59.829-17.751s16.9-6.07,23.608-4.66,39.908,14.878,39.476,18.515S631.283,652.042,631.283,652.042Z" transform="translate(13365.979 -152.383)" fill="#ededed"/>
    <path id="Path_2243" data-name="Path 2243" d="M673.036,658.875s-1.225-4.367,1.624-5.565,8.358-2.895,9.482-1.54c.809.978,7.543,17.222,8.611,26.789.416,3.7-2.867,5.244-3.434,6.245C687.279,688.4,679.309,680.347,673.036,658.875Z" transform="translate(13321.461 -162.858)" fill="#ededed"/>
    <path id="Path_2244" data-name="Path 2244" d="M703.133,678.675c-.523,6.014-1.95,7.307-3.963,7.611s-3.243-.1-3.991-1.411,4.109-2.3,4.328-3.76-2-13.945-4.463-20.235c-2.063-5.25-3.328-8.932-3.687-10a.326.326,0,0,1,.225-.416,11.715,11.715,0,0,1,2.293-.416,5.22,5.22,0,0,1,1.911.152C697.568,650.744,703.65,672.655,703.133,678.675Z" transform="translate(13313.33 -162.31)" fill="#807d7f"/>
    <path id="Path_2245" data-name="Path 2245" d="M705.108,678.683c-.523,6.014-1.951,7.307-3.963,7.611,3.372-4.255,3.187-8.246.438-19.611a86.867,86.867,0,0,0-5.733-16.615,5.223,5.223,0,0,1,1.911.152C699.543,650.753,705.625,672.663,705.108,678.683Z" transform="translate(13311.355 -162.319)" fill="#303030"/>
    <path id="Path_2246" data-name="Path 2246" d="M483.165,660.32c-.742-5.767-8.257-14.614-11.455-18.127,3.08-1.124,3.479-.349,4.6,1.124C477.494,644.936,486.386,656.037,483.165,660.32Z" transform="translate(13409.509 -158.649)" fill="#1191d3"/>
    <path id="Path_2247" data-name="Path 2247" d="M459.94,657.675s8.139-.832,10.46-2.625C470.4,655.05,463.667,655.865,459.94,657.675Z" transform="translate(13414.663 -164.513)" fill="#0d759c"/>
    <path id="Path_2248" data-name="Path 2248" d="M456.45,652.658s6.841-.7,8.791-2.2C465.241,650.46,459.57,651.14,456.45,652.658Z" transform="translate(13416.191 -162.503)" fill="#0d759c"/>
    <path id="Path_2249" data-name="Path 2249" d="M468,663.754s5.879-.6,7.56-1.894A30.164,30.164,0,0,0,468,663.754Z" transform="translate(13411.134 -167.496)" fill="#0d759c"/>
    <path id="Path_2250" data-name="Path 2250" d="M586.452,643.7a3.43,3.43,0,0,1-.511.787c-4.019,4.626-18.127-3.935-22.787-6.79,0,0-4.238-5.379-.854-6.419s4.12.663,7.914-2.04c.422-.3.809-.562,1.158-.781,2.766-1.759,3.322-1.09,4.744.129C577.627,629.888,588.678,638.825,586.452,643.7Z" transform="translate(13370.413 -152.398)" fill="#46a0dc"/>
    <path id="Path_2251" data-name="Path 2251" d="M594.541,643.7c-1.962-5.475-11.2-12.478-15.081-15.244,2.765-1.759,3.322-1.09,4.744.129C585.716,629.888,596.767,638.825,594.541,643.7Z" transform="translate(13362.324 -152.398)" fill="#1191d3"/>
    <path id="Path_2252" data-name="Path 2252" d="M573.65,645.516s7.768-2.558,9.651-4.806C583.3,640.71,576.9,642.953,573.65,645.516Z" transform="translate(13364.868 -158.234)" fill="#0d759c"/>
    <path id="Path_2253" data-name="Path 2253" d="M569.1,641.646s6.526-2.147,8.111-4.036C577.211,637.61,571.854,639.515,569.1,641.646Z" transform="translate(13366.861 -156.876)" fill="#0d759c"/>
    <path id="Path_2254" data-name="Path 2254" d="M582.68,650.214s5.621-1.849,6.975-3.474A30.643,30.643,0,0,0,582.68,650.214Z" transform="translate(13360.914 -160.874)" fill="#0d759c"/>
    <path id="Path_2255" data-name="Path 2255" d="M553.048,710.277s.562-4.5,3.654-4.5,8.814.562,9.325,2.248c.365,1.214.287,18.8-2.44,28.031-1.057,3.575-4.677,3.721-5.587,4.429C554.734,743,550.519,732.479,553.048,710.277Z" transform="translate(13374.229 -186.729)" fill="#ededed"/>
    <path id="Path_2256" data-name="Path 2256" d="M568.066,738.534c-2.81,5.34-4.626,5.975-6.6,5.48s-2.951-1.343-3.131-2.85,4.677-.523,5.447-1.787S567.346,725.747,567.5,719c.135-5.621.393-9.522.478-10.646a.326.326,0,0,1,.365-.3,12.3,12.3,0,0,1,2.276.506,5.268,5.268,0,0,1,1.686.883C573.754,710.638,570.876,733.195,568.066,738.534Z" transform="translate(13371.576 -187.725)" fill="#807d7f"/>
    <path id="Path_2257" data-name="Path 2257" d="M570.509,738.948c-2.81,5.34-4.626,5.975-6.6,5.48,4.733-2.625,6.132-6.368,8-17.908A86.871,86.871,0,0,0,573.066,709a5.268,5.268,0,0,1,1.686.882C576.2,711.052,573.319,733.608,570.509,738.948Z" transform="translate(13369.134 -188.139)" fill="#303030"/>
    <path id="Path_2258" data-name="Path 2258" d="M779.3,75.805c-1.686.742-8.853,3.974-8.853,3.974s-8.291,9.7-12.788,10.961c-2.81.787-5.329,4.193-8.06,6.745a15.374,15.374,0,0,1-2.333,1.844.056.056,0,0,0-.028,0,6.514,6.514,0,0,1-2.9,1.051c-1.237.1-3.108.326-5.059.382-6.02.163-12.7-1.327-3.063-13.265,0,0,14.614-9.556,19.864-12.175S776.5,64.08,776.5,64.08a3.434,3.434,0,0,1,2.023.18c1.006.4,2.158,1.377,2.895,3.659C782.955,72.731,780.988,75.047,779.3,75.805Z" transform="translate(13295.805 94.313)" fill="#ededed"/>
    <path id="Path_2259" data-name="Path 2259" d="M785.182,76.005c-1.686.742-8.853,3.974-8.853,3.974s-8.291,9.7-12.787,10.961c-2.81.787-5.329,4.193-8.06,6.745-.77.624-1.557,1.253-2.333,1.844a.057.057,0,0,0-.028,0,6.514,6.514,0,0,1-2.9,1.051c-1.237.1-3.108.326-5.059.382-.9-1.714-.382-4.238,4.2-6.284,0,0,19.954-11.944,22.062-13.49s3.373-6.886,8.01-7.588,1.951-7.307,3.479-8.488a3.254,3.254,0,0,1,1.5-.652c1.006.4,2.158,1.377,2.895,3.659C788.836,72.931,786.868,75.246,785.182,76.005Z" transform="translate(13289.924 94.113)" fill="#dedede"/>
    <path id="Path_2260" data-name="Path 2260" d="M701.265,141.358s-10.494,56.125-5.621,67.8,40.47,49.52,71.194,28.161-16.486-94.431-16.486-94.431S714,99.73,701.265,141.358Z" transform="translate(13312.011 68.37)" fill="#ededed" stroke="#fff" stroke-miterlimit="10" stroke-width="2"/>
    <path id="Path_2261" data-name="Path 2261" d="M807.473,142.131c-2.428,1.827-7.5,2.754-9.05,2.248,0,0-4.266,6.026-11.112,6.9a5.3,5.3,0,0,1-5.941-3.165c-1.029-2.552-.051-5.913,3.547-7.346,0,0,11.427-2.85,13.878-3.5s5.924-2.153,7.06-2.5,3.479-1.512,3.935-.1a1.043,1.043,0,0,0,.056.208C810.221,136.476,809.8,140.388,807.473,142.131Z" transform="translate(13274.074 63.663)" fill="#ededed"/>
    <path id="Path_2262" data-name="Path 2262" d="M807.773,142.79c-2.428,1.827-7.5,2.754-9.05,2.248,0,0-4.266,6.026-11.112,6.9a5.3,5.3,0,0,1-5.941-3.165c2.248.309,6.857.613,9.668-1.422a29.337,29.337,0,0,1,8.538-4.233c.753-.2,5.295.163,6.475-.956s.5-5.419,2.338-6.335a1.849,1.849,0,0,1,1.456-.281C810.522,137.135,810.1,141.048,807.773,142.79Z" transform="translate(13273.774 63.004)" fill="#dedede"/>
    <path id="Path_2263" data-name="Path 2263" d="M814.5,117.429c-2.248,2.737-7.729,5.194-9.623,5.059,0,0-3.165,8-10.68,10.888-3.339,1.282-6.121.135-7.605-1.945-1.866-2.6-1.686-6.678,1.984-9.3,0,0,12.152-6.391,14.749-7.8s6.116-4.081,7.307-4.778,3.519-2.676,4.429-1.2c.039.067.084.141.124.219C816.035,110.268,816.664,114.81,814.5,117.429Z" transform="translate(13272.129 75.122)" fill="#ededed"/>
    <path id="Path_2264" data-name="Path 2264" d="M815.408,118.009c-2.248,2.737-7.729,5.194-9.623,5.059,0,0-3.165,8-10.68,10.888-3.339,1.282-6.121.135-7.605-1.945,2.659-.275,7.937-1.2,10.556-4.283a34.1,34.1,0,0,1,8.5-7.15c.8-.438,6.042-1.282,7.071-2.878s-.933-6.273.894-7.819c.68-.562,1.192-.781,1.574-.719C816.942,110.848,817.572,115.39,815.408,118.009Z" transform="translate(13271.221 74.542)" fill="#dedede"/>
    <path id="Path_2265" data-name="Path 2265" d="M806.174,87.875c-6.278,5.267-7.588,4.609-7.588,4.609s-4.216,5.716-8.431,6.841a57.853,57.853,0,0,1-6.745,5.705h0a38.172,38.172,0,0,1-5.5,3.373c-2.715,1.321-5.525,2.119-8.015,1.714a7.058,7.058,0,0,1-1.484-.4c-8.336-3.277-3.232-8.027-3.232-8.027a20.076,20.076,0,0,1,8.712-6.655c6.043-2.529,12.523-7.982,13.783-9.106s15.693-11.281,17.661-11.871c.562-.174,1.428.495,2.187,1.653C809.366,78.51,810.6,84.159,806.174,87.875Z" transform="translate(13281.675 89.921)" fill="#ededed"/>
    <path id="Path_2266" data-name="Path 2266" d="M808.009,88.826c-6.279,5.267-7.588,4.609-7.588,4.609s-4.216,5.716-8.431,6.841a57.854,57.854,0,0,1-6.745,5.705h0c-1.686,1.057-3.6,2.248-5.5,3.373-5.52,3.322-11.028,6.43-11.8,6.093-.613-.27,1.231-2.153,3.772-4.379,4.019-3.524,9.775-7.909,10.252-8.128.77-.354,16.79-11.242,17.987-13.136s3.721-1.551,6.037-3.727.719-8.3,1.366-9.477c.349-.658,1.186-.4,2,.062C811.2,79.462,812.438,85.111,808.009,88.826Z" transform="translate(13279.839 88.97)" fill="#dedede"/>
    <path id="Path_2267" data-name="Path 2267" d="M730.6,152.6s17.678,1.821,24.282-5.345a3.416,3.416,0,0,0,4.918,2.777c4.356-1.512,8.993-7.976,10.4-14.3s.562-14.333-6.886-17.565c-2.681-1.164-7.712-2.31-13.2-3.007-9.763-1.231-20.983-1.04-23.046,3.007C723.8,124.491,723.857,147.554,730.6,152.6Z" transform="translate(13298.609 72.202)" fill="#dedede"/>
    <path id="Path_2268" data-name="Path 2268" d="M143.887,284.278s3.373-8.667,17.869-6.745c0,0,14.907,5.508,19.555,9.376s13.749,8.549,13.895,8.92-5.621,14.086-7.155,14.3-12.731,7.4-12.731,7.4-33.062-8.814-31.988-12.433S143.887,284.278,143.887,284.278Z" transform="translate(13553.321 0.927)" fill="#cacaca"/>
    <path id="Path_2269" data-name="Path 2269" d="M715.453,138.151c-2.625,2.406-24.17-3.7-31.707-14.744a11.36,11.36,0,0,1,1.383-14.322c3.609-3.687,9.331-9.488,14.659-14.738,6.368-6.279,12.18-11.765,13.136-11.871,2.248-.253,9.275,9.82,3.091,16.61-.7.764-1.383,1.506-2.035,2.248-5.182,5.683-8.6,10.05-1.619,13.794C720.231,119.3,718.826,135.043,715.453,138.151Z" transform="translate(13317.496 86.225)" fill="#449fd9"/>
    <path id="Path_2270" data-name="Path 2270" d="M730.025,99.073c-.7.764-1.383,1.506-2.035,2.248-.393.112-.8.214-1.242.3C719.171,103.21,714.7,96,713.82,94.357c6.368-6.279,12.181-11.765,13.136-11.871C729.182,82.21,736.208,92.328,730.025,99.073Z" transform="translate(13303.486 86.222)" fill="url(#linear-gradient-4)"/>
    <path id="Path_2271" data-name="Path 2271" d="M258.061,370.9c-2.372.18-6.43-1.2-11.354-3.637-18.307-9.061-48.621-32.764-49.065-45.8-.27-7.909,4.66-16.031,12.09-21.432,8.117-5.9,19.218-8.544,29.791-4.109C259.758,304.42,269.876,347,269.876,347,272.624,356.492,269.224,370.061,258.061,370.9Z" transform="translate(13529.531 -6.275)" fill="#ededed" stroke="#fff" stroke-miterlimit="10" stroke-width="2"/>
    <path id="Path_2272" data-name="Path 2272" d="M246.766,372.2h0c-18.307-9.061-48.621-32.764-49.065-45.8-.27-7.909,4.66-16.031,12.091-21.432C212,318.872,220.652,359.415,246.766,372.2Z" transform="translate(13529.505 -11.205)" fill="#dedede"/>
    <path id="Path_2273" data-name="Path 2273" d="M207.285,307.107s6.841,5.733,3,10.876-4.283,8.628-10.337,7.774-10.275-4.879-8.212-10.314S203.457,305.516,207.285,307.107Z" transform="translate(13532.344 -12.003)" fill="#cacaca"/>
    <path id="Path_2274" data-name="Path 2274" d="M192.79,331.511c-1.074,2.7-12.664,10.522-17.548,9.314-2.187-.562-3.755-2.507-4.811-4.5a22.381,22.381,0,0,1-1.861-5.059c4.958-2.81,21.022-4.84,21.708-4.542a4.133,4.133,0,0,1,.635.36C191.975,327.8,193.645,329.358,192.79,331.511Z" transform="translate(13542.258 -20.724)" fill="#ededed"/>
    <path id="Path_2275" data-name="Path 2275" d="M195.286,265.577a18.181,18.181,0,0,1-12.608-13.271c-.708-3.991-6.548-5.233-6.548-5.233l8.375.1s4,1.124-4.367-9.668a16.469,16.469,0,0,1-3.614-10.309c0-7.38,4.62-14.052,6.869-17.3,3.277-4.7,17.374-1.411,12.883,5.621-3.856,6.02,2.2,21.607,5.9,27.542a9.764,9.764,0,0,0,1.608,2.091c2.99,2.529,9.994,14.581,9.364,16.964S203.133,267.73,195.286,265.577Z" transform="translate(13538.947 31.387)" fill="#449fd9"/>
    <path id="Path_2276" data-name="Path 2276" d="M202.478,243.052a9.325,9.325,0,0,1-3.193-.714c-2.541-2.85-4.941-11.871-4.941-11.871l-2.2.562c-4.958,1.31-10.966-1.3-15.317-3.862,0-7.38,4.62-14.052,6.869-17.3,3.277-4.7,17.374-1.411,12.883,5.621C192.726,221.519,198.785,237.083,202.478,243.052Z" transform="translate(13538.641 31.4)" fill="url(#linear-gradient-5)"/>
    <path id="Path_2277" data-name="Path 2277" d="M190.935,327.08c-3.1,2.434-8.431,6.324-12.928,7.965a19.459,19.459,0,0,1-7.526,1.253,22.38,22.38,0,0,1-1.861-5.059c4.958-2.81,21.022-4.84,21.708-4.542A4.142,4.142,0,0,1,190.935,327.08Z" transform="translate(13542.235 -20.711)" fill="#b5b5b5"/>
    <path id="Path_2278" data-name="Path 2278" d="M170.088,295.559a3.176,3.176,0,0,1-1.27,1.557c-2.248,1.315-17.515-5.188-21.753-5.655s-8.729,2.782-10.241,1.068c-.292-.332-.326-2.917.045-5.829.483-3.749,1.653-8.038,3.85-8.724,3.9-1.214,24.383,4.176,29.229,11.371C170.69,290.455,170.959,293.535,170.088,295.559Z" transform="translate(13556.259 0.686)" fill="#ededed"/>
    <path id="Path_2279" data-name="Path 2279" d="M174.978,317.613c-1.686,1.225-23.1,6.79-28.667,5.486a8.019,8.019,0,0,1-6.183-7.15,7.453,7.453,0,0,1,.028-2.175l.461-2.456s-3.086-5.711-.708-6.992,8-.354,17.481,2.754,13.406,2.068,15.913,4.289S176.664,316.393,174.978,317.613Z" transform="translate(13555.202 -10.682)" fill="#ededed"/>
    <path id="Path_2280" data-name="Path 2280" d="M170.088,302.488a3.175,3.175,0,0,1-1.27,1.557c-2.248,1.315-17.515-5.188-21.753-5.655s-8.729,2.782-10.241,1.068c-.292-.332-.326-2.917.045-5.829a41.085,41.085,0,0,0,11.607,2.67C155.845,296.946,166.052,300.836,170.088,302.488Z" transform="translate(13556.259 -6.243)" fill="#dedede"/>
    <path id="Path_2281" data-name="Path 2281" d="M152.5,322.011a10.552,10.552,0,0,1-11.523-.18,7.453,7.453,0,0,1,.028-2.175l.461-2.456S144.57,321.584,152.5,322.011Z" transform="translate(13554.369 -16.565)" fill="#dedede"/>
    <path id="Path_2285" data-name="Path 2285" d="M429.038,329.078s-3.114.613-6.846,1.568c-1.793.467-3.721,1-5.5,1.591a22.46,22.46,0,0,0-5.621,2.5s-.883-8.993-.59-10.028c.129-.461,2.248-1.776,5.244-3.063a44.175,44.175,0,0,1,5.424-1.945,24.794,24.794,0,0,1,6.919-1.062Z" transform="translate(13436.347 -17.196)" fill="#fff"/>
    <path id="Path_2286" data-name="Path 2286" d="M416.695,334.57a22.461,22.461,0,0,0-5.621,2.5s-.883-8.993-.59-10.028c.129-.461,2.248-1.776,5.244-3.063Z" transform="translate(13436.347 -19.534)" fill="#1cab80"/>
    <path id="Path_2287" data-name="Path 2287" d="M437.409,329.078s-3.114.613-6.846,1.568L429.54,319.7a24.8,24.8,0,0,1,6.919-1.062Z" transform="translate(13427.976 -17.196)" fill="#1cab80"/>
  </g>
</svg>
