<svg xmlns="http://www.w3.org/2000/svg" width="52.07" height="59.625" viewBox="0 0 52.07 59.625">
  <path id="mission_idea_bulb" data-name="mission idea bulb" d="M22.316,0A21.481,21.481,0,0,0,6.567,6.567,21.481,21.481,0,0,0,0,22.316a21.81,21.81,0,0,0,2.5,10.17,22.1,22.1,0,0,0,6.916,7.962l.232.232a2.7,2.7,0,0,1,1.162,1.743,5.367,5.367,0,0,1,.232,2.092V52.07a3.291,3.291,0,0,0,2.092,3.254l7.439,3.836a3.457,3.457,0,0,0,1.743.465,3.6,3.6,0,0,0,1.627-.349l7.671-3.836A3.54,3.54,0,0,0,33.59,52.07V44.748a6.052,6.052,0,0,1,.639-2.848,5.855,5.855,0,0,1,1.046-1.569,3.555,3.555,0,0,1,.639-.465,7.6,7.6,0,0,0,.814-.465,21.485,21.485,0,0,0,7.9-17.086A21.481,21.481,0,0,0,38.065,6.567,21.481,21.481,0,0,0,22.316,0ZM14.761,44.748v-.116h15.11v3.719H14.761Zm7.555,11.158L14.761,52.07h15.11ZM34.287,36.5a7.7,7.7,0,0,0-3.719,4.417H14.18a6.464,6.464,0,0,0-2.673-3.487,18.451,18.451,0,0,1-5.7-6.509,18.1,18.1,0,0,1-2.092-8.6A17.907,17.907,0,0,1,9.182,9.182,17.907,17.907,0,0,1,22.316,3.719,17.907,17.907,0,0,1,35.45,9.182a17.907,17.907,0,0,1,5.463,13.134A17.731,17.731,0,0,1,34.287,36.5ZM24.175,7.439a1.79,1.79,0,0,0-1.86,1.86,1.79,1.79,0,0,0,1.86,1.86,9.226,9.226,0,0,1,6.334,2.731,8.868,8.868,0,0,1,2.964,6.8A1.871,1.871,0,0,0,34,21.967a1.828,1.828,0,0,0,2.673,0,1.871,1.871,0,0,0,.523-1.279,12.418,12.418,0,0,0-3.952-9.647A13.067,13.067,0,0,0,24.175,7.439ZM52.07,55.789" fill="#64caf4"/>
</svg>
