<svg xmlns="http://www.w3.org/2000/svg" xmlns:xlink="http://www.w3.org/1999/xlink" width="629.285" height="314.565" viewBox="0 0 629.285 314.565">
  <defs>
    <linearGradient id="linear-gradient" x1="1.036" y1="0.002" x2="-0.366" y2="1.542" gradientUnits="objectBoundingBox">
      <stop offset="0" stop-color="#ffd5ff"/>
      <stop offset="0.06" stop-color="#e3d7ff"/>
      <stop offset="0.19" stop-color="#b2dbff"/>
      <stop offset="0.32" stop-color="#88deff"/>
      <stop offset="0.45" stop-color="#66e1ff"/>
      <stop offset="0.58" stop-color="#4be3ff"/>
      <stop offset="0.71" stop-color="#38e5ff"/>
      <stop offset="0.85" stop-color="#2de6ff"/>
      <stop offset="1" stop-color="#29e6ff"/>
    </linearGradient>
    <linearGradient id="linear-gradient-2" x1="1.447" y1="-0.148" x2="-1.063" y2="1.676" gradientUnits="objectBoundingBox">
      <stop offset="0" stop-color="#ffbdff"/>
      <stop offset="0.1" stop-color="#f5bfff"/>
      <stop offset="0.26" stop-color="#dbc4ff"/>
      <stop offset="0.343" stop-color="#cac7ff"/>
      <stop offset="0.47" stop-color="#b0ccff"/>
      <stop offset="0.72" stop-color="#75d8ff"/>
      <stop offset="0.798" stop-color="#2ae6ff"/>
      <stop offset="1" stop-color="#29e6ff"/>
    </linearGradient>
    <linearGradient id="linear-gradient-3" x1="0.07" y1="0.85" x2="1.629" y2="-0.424" xlink:href="#linear-gradient"/>
    <linearGradient id="linear-gradient-4" x1="0" y1="0.5" x2="1" y2="0.5" xlink:href="#linear-gradient"/>
    <linearGradient id="linear-gradient-5" x1="1.051" y1="-0.361" x2="0.122" y2="1.09" xlink:href="#linear-gradient"/>
  </defs>
  <g id="planet" transform="translate(-13616.077 -292.196)">
    <path id="Path_2129" data-name="Path 2129" d="M943.612,363.566C907.818,411.714,844.5,454.81,806.276,466.956c-30.679,9.747-79.344,7.077-60.447-.129,4.648-1.771,13.383-3.817,27.486-6.02C844.735,449.644,882.31,355.05,882.31,355.05l30.027,4.171Z" transform="translate(13291.324 -33.14)" fill="#449fd9" opacity="0.09"/>
    <path id="Path_2130" data-name="Path 2130" d="M915.626,359.221c-22.95,36.732-71.11,102.2-127.785,112-19.729,3.412-31.764,1.062-38.711-4.4,4.648-1.771,13.383-3.817,27.486-6.02C848.035,449.644,885.611,355.05,885.611,355.05Z" transform="translate(13288.023 -33.14)" opacity="0.19" fill="url(#linear-gradient)"/>
    <path id="Path_2131" data-name="Path 2131" d="M1087.354,311.419l-.995-.849-.933.989L1060.66,321.9a1.27,1.27,0,0,0-.674.68l-11.6,28.3-1.22,1.293,1.04.854h0a1.231,1.231,0,0,0,1.287.422l28.172-7.538a1.231,1.231,0,0,0,.877-.86l9.258-32.286a1.231,1.231,0,0,0-.455-1.343Z" transform="translate(13157.509 -13.662)" fill="#46a0dc"/>
    <path id="Path_2132" data-name="Path 2132" d="M988.824,329.978l19.224-26.828a2.3,2.3,0,0,1,3.063-.63l22.557,13.614a2.3,2.3,0,0,1,.916,2.9l-12.928,29.431a2.3,2.3,0,0,1-3.243,1.079l-28.846-16.211a2.31,2.31,0,0,1-.742-3.356Z" transform="translate(13183.248 -9.99)" fill="#5abff0"/>
    <path id="Path_2133" data-name="Path 2133" d="M1021.327,349.244a.669.669,0,0,1-.832.152L991.654,333.18a.686.686,0,0,1-.326-.433.669.669,0,0,1,.112-.534l19.218-26.828.034-.045a.663.663,0,0,1,.849-.135l22.557,13.614a.675.675,0,0,1,.264.837l-12.928,29.425A.668.668,0,0,1,1021.327,349.244Z" transform="translate(13181.969 -11.27)" fill="url(#linear-gradient-2)"/>
    <path id="Path_2134" data-name="Path 2134" d="M1048.07,352.192l28.172-7.538a1.248,1.248,0,0,0,.882-.86l9.258-32.286a1.248,1.248,0,0,0-1.686-1.5l-25.468,10.629a1.271,1.271,0,0,0-.674.68L1046.6,350.511a1.248,1.248,0,0,0,1.473,1.681Z" transform="translate(13157.801 -13.374)" fill="#5abff0"/>
    <path id="Path_2135" data-name="Path 2135" d="M1049.83,355.791l11.6-28.3,9.527-3.98-10.3,29.386Z" transform="translate(13156.344 -19.328)" fill="#449fd9"/>
    <path id="Path_2136" data-name="Path 2136" d="M1077.3,344.852l4.6-13.209a.63.63,0,0,1,.349-.371l11.6-4.963a.624.624,0,0,1,.843.77l-4.62,14.007a.618.618,0,0,1-.382.393l-11.579,4.171a.63.63,0,0,1-.81-.8Z" transform="translate(13144.328 -20.53)" fill="#46a0dc"/>
    <path id="Path_2206" data-name="Path 2206" d="M490.272,692.014q-5.295.995-10.578,1.647A168.392,168.392,0,0,1,293.367,557.445c-1.416-7.538,9.837-16.863,29.942-26.418A340.78,340.78,0,0,1,362.3,515.85c25.586-8.431,56.7-16.385,90.564-22.753,91.536-17.211,168.531-16.3,172,2C642.053,586.64,581.808,674.814,490.272,692.014Z" transform="translate(13487.66 -88.189)" fill="url(#linear-gradient-3)"/>
    <path id="Path_2207" data-name="Path 2207" d="M503.142,721.018a169.163,169.163,0,0,1-18.74,1.276C387.049,674.826,356.151,595.611,346.73,558.406a340.76,340.76,0,0,1,38.992-15.176l31.741,3.907C422.96,638.583,471.609,694.246,503.142,721.018Z" transform="translate(13464.239 -115.546)" fill="#fff" opacity="0.24"/>
    <path id="Path_2208" data-name="Path 2208" d="M614.094,510.585c-10.241,7.4-27.267,15.339-49.048,23.006-5.891,2.074-12.13,4.131-18.673,6.155-7.8,2.406-16.036,4.761-24.642,7.037-17.464,4.626-36.446,8.926-56.389,12.675-46.76,8.791-89.726,12.861-121.035,12.293a219.845,219.845,0,0,1-22.056-1.4c-11.72-1.422-20.359-3.884-25.03-7.38a9.1,9.1,0,0,1-3.856-5.5c-.4-2.142.219-4.424,1.776-6.818,5.621-8.662,23.507-18.734,49.5-28.554,28.256-10.68,66.113-21.05,108.225-28.97,91.536-17.211,168.531-16.3,172,2C625.707,499.726,621.834,505,614.094,510.585Z" transform="translate(13487.66 -88.202)" fill="#5abff0" stroke="#fff" stroke-miterlimit="10" stroke-width="1"/>
    <path id="Path_2209" data-name="Path 2209" d="M422.129,541.43c-9.37,3.417-80.834,10.163-80.834,10.163s-38.88,11.287-14.468-13.49c2.355-2.389,5.306-5.115,8.932-8.218,0,0,19.673-5.469,24.17-22.051,2.248-8.381,4.93-9.938,7.583-8.948s5.188,4.379,7.408,6.234c4.019,3.344,6.745,6.4,9.19,5.666a3,3,0,0,0,.866-.422c2.423-1.686,2.917-5.4,5-4.789a2.569,2.569,0,0,1,.748.36c2.743,1.8,6.239,11.517,14.232,10.876s12.141,3.108,15.036,5.919a17.487,17.487,0,0,0,8.392,4.873C431.684,528.547,431.5,538.007,422.129,541.43Z" transform="translate(13476.481 -96.012)" fill="#5abff0"/>
    <path id="Path_2282" data-name="Path 2282" d="M215.893,622.485a219.846,219.846,0,0,1-22.056-1.4,120.511,120.511,0,0,0-25.03-7.38c-36.884-6.453-66.647,8.752-81.8,36.48-19.859,36.333-58.828,52.072-82.436,41.207-8.06-3.71-4.9-14.929,5.109-28.4h0a163.02,163.02,0,0,1,23.9-25.058c22.169-19.156,51.988-36.783,78.906-40.212a145.686,145.686,0,0,1,54.236,3.665A170.341,170.341,0,0,1,215.893,622.485Z" transform="translate(13616.075 -138.935)" fill="#45ffad"/>
    <path id="Path_2283" data-name="Path 2283" d="M76.924,653.712c-12.45,28.931-52.179,44.782-60.987,42.719-5.688-1.332-3.249-9.151-.8-14.524h0a163.025,163.025,0,0,1,23.9-25.058C62.917,638.356,86.44,631.588,76.924,653.712Z" transform="translate(13610.622 -157.847)" fill="#fff" opacity="0.63"/>
    <path id="Path_2284" data-name="Path 2284" d="M64.27,665.928c-6.11,14.215-25.62,21.994-29.948,20.977-2.81-.652-1.6-4.5-.393-7.133h0a79.958,79.958,0,0,1,11.736-12.293C57.4,658.384,68.947,655.062,64.27,665.928Z" transform="translate(13601.798 -166.291)" fill="#fff" opacity="0.88"/>
    <path id="Path_2288" data-name="Path 2288" d="M680.185,464.393a33.523,33.523,0,1,1-37.1-33.326,33.147,33.147,0,0,1,3.6-.2A33.523,33.523,0,0,1,680.185,464.393Z" transform="translate(13347.576 -66.342)" fill="#46a0dc"/>
    <path id="Path_2289" data-name="Path 2289" d="M626.282,569.967a6.183,6.183,0,0,1-8.117,5.9h-.09a6.183,6.183,0,0,1,1.338-12.034,5.281,5.281,0,0,1,.669-.039,5.626,5.626,0,0,1,.927.073A6.183,6.183,0,0,1,626.282,569.967Z" transform="translate(13347.282 -124.55)" fill="#45ffad"/>
    <path id="Path_2290" data-name="Path 2290" d="M694,464.41a33.54,33.54,0,0,1-44.36,31.752,69.463,69.463,0,0,1,7.234-65.056,33.166,33.166,0,0,1,3.6-.2A33.523,33.523,0,0,1,694,464.41Z" transform="translate(13333.759 -66.36)" opacity="0.29" fill="url(#linear-gradient-4)"/>
    <path id="Path_2291" data-name="Path 2291" d="M665.208,474.4c-8.639,3.935-19.932,8.493-32.427,12.962-10.612,3.794-20.584,6.987-28.976,9.348-14.052,3.935-23.641,5.587-24.293,3.766s7.465-6.453,20.376-12.135h0c-9.87,4.39-15.918,7.869-15.452,9.156s7.509.107,18.15-2.81c8.145-2.248,18.4-5.514,29.431-9.46,13.08-4.677,24.732-9.392,32.815-13.192,7.684-3.581,12.18-6.346,11.765-7.465s-5.492-.427-13.49,1.585a.061.061,0,0,0,0-.039c11.242-2.928,18.622-3.968,19.19-2.378S676.174,469.39,665.208,474.4Z" transform="translate(13362.317 -80.411)" fill="url(#linear-gradient-5)"/>
    <path id="Path_2292" data-name="Path 2292" d="M665.084,474.313c-8.69,3.963-17.565,7.5-26.514,10.831s-17.987,6.453-27.1,9.269c-4.559,1.405-9.145,2.743-13.771,3.935-2.31.6-4.637,1.158-6.97,1.653a64.141,64.141,0,0,1-7.082,1.169c-.6.051-1.2.09-1.8.09a6.33,6.33,0,0,1-1.821-.214,1.214,1.214,0,0,1-.787-.618,1.169,1.169,0,0,1,.191-.989,6.234,6.234,0,0,1,1.27-1.332,41.977,41.977,0,0,1,6.071-3.839c4.21-2.248,8.544-4.283,12.928-6.222l.18-.079.09.259h0l.034.107-.146.067c-2.5,1.124-4.98,2.248-7.42,3.5-1.214.613-2.428,1.248-3.609,1.922a26.246,26.246,0,0,0-3.372,2.248,4.726,4.726,0,0,0-.691.691c-.2.253-.3.528-.157.646a1.512,1.512,0,0,0,.821.259,6.522,6.522,0,0,0,.995.028,29.065,29.065,0,0,0,4.041-.495c2.681-.483,5.34-1.124,7.987-1.8,10.584-2.76,20.988-6.183,31.3-9.814s20.539-7.56,30.549-11.961c2.5-1.124,4.986-2.248,7.436-3.44a53.363,53.363,0,0,0,7.11-4.008,5.4,5.4,0,0,0,1.394-1.343c.36-.5-.5-.663-1.124-.691a21.421,21.421,0,0,0-4.041.349c-2.687.438-5.357,1.051-8.01,1.686l-.208-.157a.079.079,0,0,0,.034.073l.073-.275c3.26-.832,6.526-1.613,9.837-2.248,1.653-.3,3.311-.562,4.991-.736a17.251,17.251,0,0,1,2.529-.073,4.667,4.667,0,0,1,1.265.219,1.26,1.26,0,0,1,.562.354.764.764,0,0,1,.141.68,2.68,2.68,0,0,1-.731,1.124,9.661,9.661,0,0,1-.955.843,24.81,24.81,0,0,1-2.069,1.445c-1.422.9-2.895,1.714-4.379,2.5C671.177,471.486,668.142,472.925,665.084,474.313Zm0-.051c3.047-1.411,6.071-2.867,9.033-4.452,1.473-.8,2.934-1.624,4.345-2.529a23.981,23.981,0,0,0,2.052-1.445,10.887,10.887,0,0,0,.927-.832,2.467,2.467,0,0,0,.652-1c.118-.388-.2-.691-.59-.8a4.357,4.357,0,0,0-1.208-.2,17.642,17.642,0,0,0-2.5.1c-1.686.163-3.322.45-4.969.764-3.288.646-6.548,1.445-9.8,2.3l.079-.275a.31.31,0,0,1,.067.152l-.208-.157c2.653-.674,5.317-1.31,8.027-1.771a21.877,21.877,0,0,1,4.126-.388,3.563,3.563,0,0,1,1.079.2.866.866,0,0,1,.489.455.838.838,0,0,1-.073.669,5.683,5.683,0,0,1-1.518,1.506,54.42,54.42,0,0,1-7.15,4.1q-3.682,1.838-7.442,3.491c-10.028,4.412-20.269,8.313-30.589,11.972s-20.758,7-31.37,9.741c-2.659.669-5.329,1.3-8.032,1.782a29.217,29.217,0,0,1-4.1.495,7.3,7.3,0,0,1-1.051-.034,2.6,2.6,0,0,1-.562-.1,1.186,1.186,0,0,1-.562-.292.686.686,0,0,1-.152-.68,1.573,1.573,0,0,1,.281-.517,5.329,5.329,0,0,1,.759-.753,25.13,25.13,0,0,1,3.462-2.248c1.192-.68,2.406-1.315,3.631-1.928,2.451-1.231,4.941-2.378,7.442-3.491l-.112.18h0l.27.174c-4.367,1.922-8.707,3.935-12.9,6.183a41.2,41.2,0,0,0-6.031,3.788,5.948,5.948,0,0,0-1.2,1.242.86.86,0,0,0-.169.7.9.9,0,0,0,.562.427,6.027,6.027,0,0,0,1.726.2c.562,0,1.18-.034,1.771-.084a65.263,65.263,0,0,0,7.049-1.124c2.333-.495,4.648-1.046,6.964-1.636,4.62-1.18,9.213-2.49,13.777-3.878q13.7-4.176,27.132-9.156C647.485,481.727,656.366,478.208,665.084,474.263Z" transform="translate(13362.441 -80.298)" fill="#fff"/>
    <path id="Path_2293" data-name="Path 2293" d="M778.488,533.8c-10.247,7.42-27.267,15.339-49.031,23.006C708.84,556.615,671,555.53,671,550.247,671,544.682,744.285,537.055,778.488,533.8Z" transform="translate(13322.237 -111.417)" fill="#46a0dc" opacity="0.53"/>
    <path id="Path_2294" data-name="Path 2294" d="M689.248,585.952c-7.8,2.406-16.036,4.761-24.642,7.037-17.155-.562-36.7-1.686-40.572-3.935C618.195,585.676,670.047,585.794,689.248,585.952Z" transform="translate(13343.004 -134.227)" fill="#46a0dc" opacity="0.53"/>
    <path id="Path_2295" data-name="Path 2295" d="M629.142,570a6.183,6.183,0,0,1-8.117,5.9,11,11,0,0,1,2.844-12.029A6.183,6.183,0,0,1,629.142,570Z" transform="translate(13344.423 -124.585)" fill="#35ee95"/>
    <path id="Path_2296" data-name="Path 2296" d="M373.778,498.905c-.112,1.54-.18,3.569-.18,6.234,0,11.989-11.242,22.686-13.766,25.631s-15.935,7.38-19.072,8.111c-1.979.461-5.233-.039-7.661-.759,2.355-2.389,5.306-5.115,8.932-8.218,0,0,19.673-5.469,24.17-22.051C368.455,499.473,371.125,497.916,373.778,498.905Z" transform="translate(13470.208 -96.021)" fill="#46a0dc"/>
    <path id="Path_2297" data-name="Path 2297" d="M407.554,490.5h-.124a.163.163,0,0,1,.124,0Z" transform="translate(13437.658 -92.45)" fill="#46a0dc"/>
    <path id="Path_2298" data-name="Path 2298" d="M436.249,510.949a4.289,4.289,0,0,0-.259.759c-.146.787-1.686,7.5-3.181,15.553s-8.808,8.9-8.336,7.212,4.783-15.918,4.783-15.918a17.989,17.989,0,0,1,1.124-2.389,3,3,0,0,0,.866-.422C433.669,514.057,434.163,510.348,436.249,510.949Z" transform="translate(13430.204 -101.381)" fill="#46a0dc"/>
  </g>
</svg>
