<svg xmlns="http://www.w3.org/2000/svg" xmlns:xlink="http://www.w3.org/1999/xlink" width="629.285" height="484.438" viewBox="0 0 629.285 484.438"><defs><style>.a,.f{fill:#449fd9;}.a{opacity:0.09;}.b{opacity:0.19;fill:url(#a);}.ay,.c{fill:#46a0dc;}.ae,.d{fill:#5abff0;}.e{fill:url(#b);}.g{fill:#dedede;}.ai,.h{fill:#807d7f;}.i{fill:#303030;}.ap,.j,.p{fill:#ededed;}.k{fill:none;stroke:#ededed;stroke-width:10px;}.ae,.ap,.k,.p{stroke-miterlimit:10;}.ab,.ad,.aj,.ak,.au,.av,.l,.r{fill:#fff;}.m{fill:#1cab80;}.n{fill:#ed5b9c;}.o{fill:url(#c);}.ae,.ap,.p{stroke:#fff;}.q{fill:#ffd080;}.r{opacity:0.55;}.s{fill:#cacaca;}.t{fill:url(#d);}.u{fill:url(#e);}.v{fill:url(#f);}.w{fill:url(#g);}.x{fill:url(#h);}.y{fill:url(#i);}.z{fill:url(#j);}.aa{fill:url(#k);}.ab{opacity:0.58;}.ac{fill:url(#l);}.ad{opacity:0.24;}.af{opacity:0.602;fill:url(#m);}.ag{fill:url(#n);}.ah{fill:url(#o);}.ai{opacity:0.33;}.aj,.ay{opacity:0.53;}.ak{opacity:0.59;}.al{fill:url(#p);}.am{fill:url(#q);}.an{fill:#1191d3;}.ao{fill:#0d759c;}.ap{stroke-width:2px;}.aq{fill:url(#r);}.ar{fill:url(#s);}.as{fill:#b5b5b5;}.at{fill:#45ffad;}.au{opacity:0.63;}.av{opacity:0.88;}.aw{opacity:0.29;fill:url(#t);}.ax{fill:url(#u);}.az{fill:#35ee95;}</style><linearGradient id="a" x1="1.036" y1="0.002" x2="-0.366" y2="1.542" gradientUnits="objectBoundingBox"><stop offset="0" stop-color="#ffd5ff"/><stop offset="0.06" stop-color="#e3d7ff"/><stop offset="0.19" stop-color="#b2dbff"/><stop offset="0.32" stop-color="#88deff"/><stop offset="0.45" stop-color="#66e1ff"/><stop offset="0.58" stop-color="#4be3ff"/><stop offset="0.71" stop-color="#38e5ff"/><stop offset="0.85" stop-color="#2de6ff"/><stop offset="1" stop-color="#29e6ff"/></linearGradient><linearGradient id="b" x1="1.447" y1="-0.148" x2="-1.063" y2="1.676" gradientUnits="objectBoundingBox"><stop offset="0" stop-color="#ffbdff"/><stop offset="0.1" stop-color="#f5bfff"/><stop offset="0.26" stop-color="#dbc4ff"/><stop offset="0.343" stop-color="#cac7ff"/><stop offset="0.47" stop-color="#b0ccff"/><stop offset="0.72" stop-color="#75d8ff"/><stop offset="0.798" stop-color="#2ae6ff"/><stop offset="1" stop-color="#29e6ff"/></linearGradient><linearGradient id="c" x1="0.617" y1="-0.197" x2="0.048" y2="3.634" gradientUnits="objectBoundingBox"><stop offset="0" stop-color="#ffd080"/><stop offset="0.06" stop-color="#e3d390"/><stop offset="0.19" stop-color="#b2d8ad"/><stop offset="0.32" stop-color="#88dcc6"/><stop offset="0.45" stop-color="#66e0db"/><stop offset="0.58" stop-color="#4be2eb"/><stop offset="0.71" stop-color="#38e4f6"/><stop offset="0.85" stop-color="#2de6fd"/><stop offset="1" stop-color="#29e6ff"/></linearGradient><linearGradient id="d" x1="0.002" y1="0.501" x2="1.001" y2="0.501" gradientUnits="objectBoundingBox"><stop offset="0" stop-color="#ffd5ff"/><stop offset="0.12" stop-color="#ffbce2"/><stop offset="0.29" stop-color="#ff9ec0"/><stop offset="0.46" stop-color="#ff87a5"/><stop offset="0.63" stop-color="#ff7792"/><stop offset="0.81" stop-color="#ff6d87"/><stop offset="1" stop-color="#ff6a83"/></linearGradient><linearGradient id="e" x1="1.048" y1="0.062" x2="-1.772" y2="2.669" gradientUnits="objectBoundingBox"><stop offset="0" stop-color="#ffd5ff"/><stop offset="0.02" stop-color="#fdd1fb"/><stop offset="0.21" stop-color="#edafdb"/><stop offset="0.4" stop-color="#e094c3"/><stop offset="0.59" stop-color="#d781b1"/><stop offset="0.79" stop-color="#d276a6"/><stop offset="1" stop-color="#d072a3"/></linearGradient><linearGradient id="f" x1="0.889" y1="0.808" x2="-0.776" y2="-0.217" xlink:href="#d"/><linearGradient id="g" x1="1.295" y1="0.526" x2="-1.067" y2="0.451" xlink:href="#e"/><linearGradient id="h" x1="-0.22" y1="-0.011" x2="0.831" y2="0.636" xlink:href="#e"/><linearGradient id="i" x1="0.221" y1="-0.122" x2="0.622" y2="0.702" xlink:href="#e"/><linearGradient id="j" x1="-0.002" y1="0.5" x2="1" y2="0.5" xlink:href="#e"/><linearGradient id="k" x1="0.812" y1="0.211" x2="-0.281" y2="2.279" xlink:href="#a"/><linearGradient id="l" x1="0.07" y1="0.85" x2="1.629" y2="-0.424" xlink:href="#a"/><linearGradient id="m" x1="0" y1="0.5" x2="1" y2="0.5" xlink:href="#a"/><linearGradient id="n" x1="0" y1="0.5" x2="1" y2="0.5" xlink:href="#a"/><linearGradient id="o" x1="0.627" y1="-0.033" x2="-0.384" y2="4.016" xlink:href="#c"/><linearGradient id="p" x1="0.086" y1="0.029" x2="1.011" y2="1.181" xlink:href="#a"/><linearGradient id="q" x1="0.909" y1="-0.049" x2="-0.055" y2="1.142" xlink:href="#a"/><linearGradient id="r" x1="1.039" y1="0.55" x2="-0.625" y2="0.347" xlink:href="#a"/><linearGradient id="s" x1="-0.467" y1="0.098" x2="0.957" y2="1.041" xlink:href="#a"/><linearGradient id="t" x1="0" y1="0.5" x2="1" y2="0.5" xlink:href="#a"/><linearGradient id="u" x1="1.051" y1="-0.361" x2="0.122" y2="1.09" xlink:href="#a"/></defs><g transform="translate(0 0)"><path class="a" d="M943.612,363.566C907.818,411.714,844.5,454.81,806.276,466.956c-30.679,9.747-79.344,7.077-60.447-.129,4.648-1.771,13.383-3.817,27.486-6.02C844.735,449.644,882.31,355.05,882.31,355.05l30.027,4.171Z" transform="translate(-324.753 -155.462)"/><path class="b" d="M915.626,359.221c-22.95,36.732-71.11,102.2-127.785,112-19.729,3.412-31.764,1.062-38.711-4.4,4.648-1.771,13.383-3.817,27.486-6.02C848.035,449.644,885.611,355.05,885.611,355.05Z" transform="translate(-328.054 -155.462)"/><path class="c" d="M1087.354,311.419l-.995-.849-.933.989L1060.66,321.9a1.27,1.27,0,0,0-.674.68l-11.6,28.3-1.22,1.293,1.04.854h0a1.231,1.231,0,0,0,1.287.422l28.172-7.538a1.231,1.231,0,0,0,.877-.86l9.258-32.286a1.231,1.231,0,0,0-.455-1.343Z" transform="translate(-458.569 -135.984)"/><path class="d" d="M988.824,329.978l19.224-26.828a2.3,2.3,0,0,1,3.063-.63l22.557,13.614a2.3,2.3,0,0,1,.916,2.9l-12.928,29.431a2.3,2.3,0,0,1-3.243,1.079l-28.846-16.211a2.31,2.31,0,0,1-.742-3.356Z" transform="translate(-432.829 -132.313)"/><path class="e" d="M1021.327,349.244a.669.669,0,0,1-.832.152L991.654,333.18a.686.686,0,0,1-.326-.433.669.669,0,0,1,.112-.534l19.218-26.828.034-.045a.663.663,0,0,1,.849-.135l22.557,13.614a.675.675,0,0,1,.264.837l-12.928,29.425A.668.668,0,0,1,1021.327,349.244Z" transform="translate(-434.108 -133.592)"/><path class="d" d="M1048.07,352.192l28.172-7.538a1.248,1.248,0,0,0,.882-.86l9.258-32.286a1.248,1.248,0,0,0-1.686-1.5l-25.468,10.629a1.271,1.271,0,0,0-.674.68L1046.6,350.511a1.248,1.248,0,0,0,1.473,1.681Z" transform="translate(-458.277 -135.696)"/><path class="f" d="M1049.83,355.791l11.6-28.3,9.527-3.98-10.3,29.386Z" transform="translate(-459.733 -141.65)"/><path class="c" d="M1077.3,344.852l4.6-13.209a.63.63,0,0,1,.349-.371l11.6-4.963a.624.624,0,0,1,.843.77l-4.62,14.007a.618.618,0,0,1-.382.393l-11.579,4.171a.63.63,0,0,1-.81-.8Z" transform="translate(-471.749 -142.853)"/><path class="g" d="M929.223,196.223s.135-1.686-1-1.928-3.271-.461-3.586.118a39.464,39.464,0,0,0-1.231,10.46c.118,1.394,1.433,1.72,1.686,2.046C926.126,208.072,928.47,204.553,929.223,196.223Z" transform="translate(-404.351 -84.956)"/><path class="h" d="M921.853,205.268c.624,2.17,1.242,2.541,2,2.507s1.186-.264,1.366-.8-1.686-.562-1.861-1.068a33.19,33.19,0,0,1,.18-7.751c.377-2.08.562-3.524.63-3.935a.118.118,0,0,0-.107-.135,4.218,4.218,0,0,0-.877,0,2,2,0,0,0-.691.191C921.881,194.627,921.229,203.115,921.853,205.268Z" transform="translate(-403.58 -84.963)"/><path class="i" d="M921.853,205.29c.624,2.17,1.242,2.541,2,2.507-1.534-1.321-1.765-2.81-1.574-7.167a32.725,32.725,0,0,1,.9-6.52,2,2,0,0,0-.691.191C921.881,194.65,921.229,203.137,921.853,205.29Z" transform="translate(-403.58 -84.985)"/><path class="g" d="M955.03,195.974a3.822,3.822,0,0,1-3.372,1.579c-5.109-.287-21.758-1.377-24.277-3.659-2.985-2.7,22.523-4.356,23.349-4.435C953.377,189.195,957.3,192.7,955.03,195.974Z" transform="translate(-406.005 -82.942)"/><path class="j" d="M1026.438,211.992s-1.939-.2-2.248,1.124-.613,3.744.045,4.12a46.07,46.07,0,0,0,11.978,1.686c1.6-.1,2.007-1.6,2.389-1.917C1039.985,215.848,1035.977,213.071,1026.438,211.992Z" transform="translate(-448.354 -92.811)"/><path class="h" d="M1036.676,222.881c2.507-.663,2.951-1.366,2.934-2.248s-.281-1.366-.894-1.585-.669,1.905-1.27,2.108a37.238,37.238,0,0,1-8.892-.4c-2.378-.483-4.025-.748-4.5-.821a.135.135,0,0,0-.157.124,4.775,4.775,0,0,0,0,1,2.171,2.171,0,0,0,.2.8C1024.45,222.583,1034.174,223.544,1036.676,222.881Z" transform="translate(-448.367 -95.898)"/><path class="i" d="M1036.683,224.128c2.507-.663,2.951-1.366,2.934-2.248-1.557,1.731-3.26,1.956-8.274,1.63a37.233,37.233,0,0,1-7.453-1.2,2.164,2.164,0,0,0,.2.8C1024.458,223.83,1034.182,224.792,1036.683,224.128Z" transform="translate(-448.374 -97.146)"/><path class="j" d="M1031.453,167.083c-.45,5.851-.922,27.441-4.795,27.767-1.079.1-1.827-1.467-2.338-3.884a83.3,83.3,0,0,1-1.046-14.294c-.039-4.885.112-9.038.084-9.4-.219-3.035,2.67-6.779,6.369-4.092A4.368,4.368,0,0,1,1031.453,167.083Z" transform="translate(-448.102 -71.037)"/><path class="k" d="M825.43,43.394c4.1,3.625-26.244-27.053-66.18-19.313-39.2,7.605-36.019,61.667-9.19,69.665S800,107.332,803.222,129.495s-18.032,59.3,19.016,31.477" transform="translate(-319.607 -9.976)"/><rect class="h" width="32.05" height="47.48" rx="6.22" transform="translate(499.659 36.878) rotate(-29.1)"/><rect class="j" width="40.993" height="60.728" rx="7.96" transform="translate(497.812 42.75) rotate(-29.1)"/><rect class="h" width="32.05" height="7.391" transform="translate(501.178 39.596) rotate(-29.1)"/><path class="g" d="M912.48,96.467s17.138,30.915,19.083,32.039c0,0,15.5-8.431,16.66-10.483s-16.3-22.933-16.3-22.933S921.513,95.6,912.48,96.467Z" transform="translate(-399.586 -41.623)"/><path class="g" d="M1013.741,149.329a9.2,9.2,0,0,1-1.507-.826c-4.232-2.81-12.169-9.044-14.935-12.017a7.141,7.141,0,0,1-.764-.933c-1.124-1.686-2.333-7.476-1.686-11.512a5.407,5.407,0,0,1,1.686-3.581l.045.039a7.372,7.372,0,0,1,.675.562c.483.4,1.22,1.057,2.248,2.057,2.417,2.316,6.464,6.5,12.726,13.788C1022.773,149.155,1018.215,151.307,1013.741,149.329Z" transform="translate(-435.577 -52.733)"/><path class="j" d="M1014.45,149.78c-1.124-2.035-3.227-4.57-7.077-7.47-6.217-4.688-10.117-13.428-10.117-13.428-1.922-2.035-.607-5.312.719-7.391,1.6,1.355,6.031,5.43,14.98,15.845C1023.483,149.606,1018.924,151.758,1014.45,149.78Z" transform="translate(-436.287 -53.184)"/><path class="h" d="M999.509,123.127c-.916,4.188-1.984,11.8-2.209,13.389a7.147,7.147,0,0,1-.764-.933c-1.124-1.686-2.333-7.476-1.686-11.512.8-1.574,1.726-2.608,1.686-3.063a1.551,1.551,0,0,1,.045-.478,7.4,7.4,0,0,1,.674.562C997.738,121.474,998.474,122.126,999.509,123.127Z" transform="translate(-435.577 -52.763)"/><path class="j" d="M976.043,144.645s-3.238,27.728-8.549,28.948a1.31,1.31,0,0,1-.416,0c-4.277-.5-7.352-23.54-8.01-32.135-.1-1.237-.141-2.181-.129-2.709v-.225h0v-.118a.8.8,0,0,1,0-.112c.337-1.647,3-4.07,7-3.625a9.946,9.946,0,0,1,1.124.2,10.509,10.509,0,0,1,1.439.45,14.518,14.518,0,0,1,3.131,1.726c3.508,2.49,4.238,5.154,4.356,6.571h0A4.4,4.4,0,0,1,976.043,144.645Z" transform="translate(-419.93 -58.931)"/><path class="g" d="M967.076,173.631c-5-.562-8.347-31.943-8.133-35.069h0v-.118a.768.768,0,0,1,0-.112c.4-1.686,5.621-2.917,8.15-3.423.838-.169,1.388-.259,1.388-.259s0,.253.051.708C968.908,139.72,970.527,163.1,967.076,173.631Z" transform="translate(-419.929 -58.947)"/><path class="h" d="M976.054,143.7c-3.013-4.047-9.218-5.154-11.332-4.615a35.609,35.609,0,0,0-5.655,2.468c-.1-1.237-.14-2.181-.129-2.709,1.827-1.889,4.637-3.732,5.969-3.935.337-.056.7-.107,1.068-.146a9.94,9.94,0,0,1,1.124.2,10.513,10.513,0,0,1,1.439.45,14.516,14.516,0,0,1,3.131,1.726C975.205,139.616,975.936,142.281,976.054,143.7Z" transform="translate(-419.93 -58.995)"/><path class="j" d="M955.418,130.08s2.614-3.153,7.644-1.686,7.009,6.784,9.246,6.318,3.794-.354,3.721-4.379c-.045-2.715.444-9.274.562-11.8.112-2.355-.787-6.408-3.142-5.525-3.041,1.124-.6,7.594-21,10.118,0,0-7.751-1.759-7.661.107s5.621,9.106,7.195,8.892A3.827,3.827,0,0,0,955.418,130.08Z" transform="translate(-413.735 -49.413)"/><path class="j" d="M993.292,55.93c-1.872,4.294-7.684,7.869-15.4,6.981l-.242-.034c-13.743-1.686-19.988-10.809-15.351-16.739,0,0,16.587-5.463,26.9,0C993.787,48.572,994.81,52.484,993.292,55.93Z" transform="translate(-420.738 -19.123)"/><path class="g" d="M1005.333,65.093c-1.872,4.294-7.684,7.869-15.4,6.981l-.242-.034a8.519,8.519,0,0,1-.287-.9c-1.754-6.56-.933-6.054-.933-6.054s8.2,2.248,13.49,0C1003.58,64.413,1004.636,64.559,1005.333,65.093Z" transform="translate(-432.779 -28.286)"/><path class="j" d="M1004.186,35.033s3.935-14.614,6.678-15.738,12.293-1.787,13.411,4.075S1018.193,48.326,1009,50,1004.186,35.033,1004.186,35.033Z" transform="translate(-439.288 -8.102)"/><path class="g" d="M960.4,82.645a4.917,4.917,0,0,1-.742,1.563,17.521,17.521,0,0,0-1.248,2.063c-1.242,2.513-8.19,7.639-19.9,8.268-.388,0-.781.039-1.175.051h-2.254l-.332-.028-.309-.034-.264-.039-.348-.056c-.259-.045-.523-.1-.781-.157l-.562-.135-.562-.174-.506-.169c-.534-.191-1.057-.41-1.568-.652l-.18-.09c-.112-.051-.23-.112-.343-.174l-.5-.264a15.875,15.875,0,0,1-1.478-.911l-.478-.332-.348-.253-.27-.2-.63-.495-.433-.36-.512-.444-.506-.455c-.663-.618-1.3-1.27-1.9-1.934l-.332-.365c-.185-.214-.371-.422-.562-.641s-.455-.562-.669-.8-.506-.63-.742-.944c-.112-.146-.225-.287-.332-.438-.219-.292-.427-.562-.635-.866A52.869,52.869,0,0,1,914.229,75c-8.072-10.68,8.943-23.849,21.241-27.7s20.589,9.938,20.589,9.938,2.456,13.063,3.794,21.719C960.061,80.313,960.247,81.566,960.4,82.645Z" transform="translate(-399.435 -20.398)"/><path class="h" d="M943.816,26.129a6.082,6.082,0,0,1-.3,1.45c-.264.764-.455,2.389-.967,2.979-1.546,1.754-4.789,3.013-6.886,3.631-1.518.45-2.749.5-3.406.68a11.76,11.76,0,0,1-1.8.259c-4.008.365-12.456.36-13.383-1.265-.337-.562-.956-1.608-1.653-2.81a43.779,43.779,0,0,1-2.04-3.98,14.119,14.119,0,0,1-1.523-5.57s-.933-11.242,6.61-15.356,15.469-2.906,19.566.607c2.479,2.136,4.238,6.6,5.149,11.1.084.438.163.882.242,1.315a30.617,30.617,0,0,1,.388,6.959Z" transform="translate(-399.299 -1.536)"/><path class="l" d="M954.874,66.421s-.939.36-2,.854c-.506.242-1.04.517-1.506.8a3.541,3.541,0,0,0-1.287,1.09s-2.878-2.855-3.063-3.2c-.084-.152.309-.686,1-1.253a8.18,8.18,0,0,1,1.383-.9,6.4,6.4,0,0,1,2.164-.7Z" transform="translate(-414.707 -27.618)"/><path class="m" d="M951.332,69.291a3.541,3.541,0,0,0-1.287,1.09s-2.878-2.855-3.063-3.2c-.084-.152.309-.686,1-1.253Z" transform="translate(-414.69 -28.853)"/><path class="m" d="M956.739,66.421s-.939.36-2,.854l-3.474-3.468a6.4,6.4,0,0,1,2.164-.7Z" transform="translate(-416.573 -27.618)"/><path class="i" d="M943.958,29.973s.309-.152,0,.7c-1.214,3.373-4.323,11.8-12.282,15.7-4.008.365-12.456.36-13.383-1.265-.337-.562-.956-1.608-1.653-2.81a43.749,43.749,0,0,1-2.04-3.98c6.245-2.732,20.331-8.319,28.813-9.078C943.649,29.2,943.733,29.985,943.958,29.973Z" transform="translate(-400.515 -12.789)"/><path class="g" d="M943.816,26.1a6.082,6.082,0,0,1-.3,1.45,15.3,15.3,0,0,1-3.035,2.557,23.047,23.047,0,0,1-5.43,2.529l-.714.23c-8,2.434-15.176-.034-18.914-1.872-1.608-2.861-3.642-6.9-3.564-9.556,0,0-.933-11.242,6.61-15.356a19.3,19.3,0,0,1,1.748-.854A20.235,20.235,0,0,1,927.841,3.5a15.142,15.142,0,0,1,10.2,3.226C942.135,10.269,944.277,20.145,943.816,26.1Z" transform="translate(-399.299 -1.51)"/><path class="l" d="M947.023,30.119a23.049,23.049,0,0,1-5.43,2.529c.866-8.471-2.81-19.229-7.206-24.383a9.033,9.033,0,0,0-7.628-3.018,20.236,20.236,0,0,1,7.622-1.737,21.323,21.323,0,0,1,4.384,2.726C945.646,11.7,947.242,23.908,947.023,30.119Z" transform="translate(-405.84 -1.519)"/><path class="n" d="M926,22.172s.871-8.51,4.345-10.994a17.3,17.3,0,0,1,9.5-3.047c2.67-.191,5.261,1.962,6.672,4.418s2.99,10.68,2.248,13.237a7.987,7.987,0,0,1-5.475,5.655c-2.923.815-9.2,1.422-11.618,0A11.084,11.084,0,0,1,926,22.172Z" transform="translate(-405.507 -3.537)"/><path class="o" d="M949.444,19.678c.236,1.624.393,8.673-3.9,10.629s-15.559,5.312-18.909-6.52c0,0,1.023-12.574,11.365-13.6a10.387,10.387,0,0,1,6.346,1.124C948.764,13.764,949.326,19.042,949.444,19.678Z" transform="translate(-405.787 -4.41)"/><path class="j" d="M905.718,61.635s-11.607,4.783-15.238,12.889-3.727,16.863,4.193,15,17.138-6.8,19.561-10.157S926.308,56.042,905.718,61.635Z" transform="translate(-388.913 -26.542)"/><path class="p" d="M891.9,124.249c-2.417.332-4.71-.292-5.986-2.451-3.024-5.1-3.794-22.877,1.124-29.723a6.093,6.093,0,0,1,3.485-2.574c5.312-1.3,5.34,4.469,5.34,4.469s4.845,16.9,5.1,22.36C901.1,119.859,896.3,123.647,891.9,124.249Z" transform="translate(-386.895 -39.091)"/><path class="h" d="M965.743,107.85a4.915,4.915,0,0,1-.742,1.563,17.536,17.536,0,0,0-1.248,2.063c-1.242,2.513-8.19,7.639-19.9,8.268-.388,0-.781.039-1.175.051h-2.254l-.332-.028-.309-.034-.264-.039-.349-.056c-.258-.045-.523-.1-.781-.157l-.562-.135-.562-.174-.506-.169a16.486,16.486,0,0,1-1.568-.652l-.18-.09c-.112-.051-.23-.112-.343-.174l-.5-.264a15.9,15.9,0,0,1-1.478-.911l-.478-.332-.349-.253-.27-.2-.63-.495-.433-.36-.511-.444-.506-.455c-.663-.618-1.3-1.27-1.9-1.934l-.332-.365c-.185-.214-.371-.422-.562-.641s-.455-.562-.669-.8-.506-.63-.742-.944c-.112-.146-.225-.287-.332-.438-.219-.292-.427-.562-.635-.866,5.5,3.569,4.457,7.015,15.176,9.252,3,.624,7.83-4.6,10.5-5.621a72.427,72.427,0,0,0,15.176-7.869,33.972,33.972,0,0,1,.562,3.7Z" transform="translate(-404.78 -45.586)"/><path class="q" d="M942.772,12.9c-2.973-1.237-6.661,1.18-7.65,6.149s-4.294,4.041-5.908,3.232-.871,1.8-2.574,1.49a20.291,20.291,0,0,1,.877-4.07c1.214-3.766,4.041-8.892,10.489-9.556a13.456,13.456,0,0,1,2.777,0,9.14,9.14,0,0,1,3.569,1.124,6.284,6.284,0,0,1,1.012,1.3C946.021,13.674,945.734,14.146,942.772,12.9Z" transform="translate(-405.787 -4.392)"/><path class="r" d="M941.465,10.175a20.474,20.474,0,0,1-4.131,1.4c-4.424,1.124-3.676,7.965-5.216,8.707s-.09-3.935-1.164-3.625-1.49,3.12-2.754,3.052c1.214-3.766,4.041-8.892,10.489-9.556a13.457,13.457,0,0,1,2.777.022Z" transform="translate(-406.47 -4.401)"/><path class="i" d="M976.687,110.74a4.918,4.918,0,0,1-.742,1.563,17.5,17.5,0,0,0-1.248,2.063c-1.242,2.513-8.19,7.639-19.9,8.268-.388,0-.776.039-1.175.051h-2.254l-.332-.028-.309-.034-.264-.039-.349-.056c-.258-.045-.523-.1-.781-.157,3.035.242,6.7.3,8.4-.562C960.527,120.391,971.976,112.623,976.687,110.74Z" transform="translate(-415.723 -48.476)"/><path class="j" d="M1023.82,10.283S1026,3.33,1029.654,2.15s3.788-.433,4.165.562.062,1.619-.933,1.8-1.124-.438-2.81,2.046-2.052,5.16-2.3,5.345A2.638,2.638,0,0,1,1023.82,10.283Z" transform="translate(-448.343 -0.659)"/><path class="j" d="M1029.227,12.088s4.188-5.48,7.824-5.34,3.507.843,3.519,1.844-.466,1.456-1.411,1.3-.854-.748-3.148.916-3.49,3.935-3.772,4A2.519,2.519,0,0,1,1029.227,12.088Z" transform="translate(-450.709 -2.936)"/><path class="j" d="M1032.637,16.329s5.267-4.452,8.791-3.536,3.243,1.574,3.041,2.558-.77,1.321-1.686.967-.674-.916-3.271.219-4.249,3.075-4.547,3.1A2.492,2.492,0,0,1,1032.637,16.329Z" transform="translate(-452.147 -5.53)"/><path class="g" d="M891.9,126.4c-2.417.332-4.71-.292-5.986-2.451-3.024-5.1-3.794-22.877,1.124-29.723-.944,5.475-1.877,13.293-.613,17.987A89.906,89.906,0,0,0,891.9,126.4Z" transform="translate(-386.895 -41.246)"/><path class="j" d="M1032.8,21.288s5.2-2.732,7.965-1.315,2.406,1.905,2.057,2.687-.888.956-1.557.495-.393-.882-2.766-.422a19.583,19.583,0,0,0-4.351,1.742A2.145,2.145,0,0,1,1032.8,21.288Z" transform="translate(-452.131 -8.55)"/><path class="s" d="M1021.024,14.07s1.332-1.394,4.148-.4c1.748.618,1.411,2.153,2.81,3.041s3.373,1.883,2.811,3.569.972,4.66-2.518,5.374c-3.311.675-3.991-2.1-3.991-2.1s-2.642-.169-3.5-.242C1015.218,22.861,1017.511,15.206,1021.024,14.07Z" transform="translate(-445.548 -5.812)"/><path class="h" d="M977.3,101.6s5.773,4.137,6.829,9.235c0,0,.613-9.69,1.332-12.237s.1,20.308-.028,22.141C985.433,120.737,981.707,106.15,977.3,101.6Z" transform="translate(-427.972 -43.071)"/><path class="t" d="M1017.4,17.152c-7.307,2.091-6.183-6.5-5.143-8.583.506-1.012,1.355-2.81,2.17-4.5A27.731,27.731,0,0,1,1016.48.261a1,1,0,0,1,.6-.275,7.128,7.128,0,0,1,3.069.719l.118.056c.809.371-.371,2.917-.989,4.5a2.247,2.247,0,0,0-.146.562c-.118,1.175,1.068,1.939,1.45,5.362C1021.033,15.061,1017.4,17.152,1017.4,17.152Z" transform="translate(-442.949 0.032)"/><path class="j" d="M902.246,160.462c-2.563.461-8.431-1.866-8.712-2.248a2.461,2.461,0,0,0-.163-.242c-1.017-1.557-6.183-10.118-2.541-13.456a7.425,7.425,0,0,1,8.246-1.394l9.033,6.8a14.893,14.893,0,0,0,1.091,3.755,5.507,5.507,0,0,0,.365.624C910.6,155.8,904.8,160,902.246,160.462Z" transform="translate(-389.544 -62.359)"/><path class="u" d="M1021.591,5.286a2.249,2.249,0,0,0-.146.562c-1.225-.191-4.249-.641-4.7-1.686a27.71,27.71,0,0,1,2.052-3.811,1,1,0,0,1,.6-.275,7.128,7.128,0,0,1,3.069.719l.118.056C1023.389,1.189,1022.209,3.735,1021.591,5.286Z" transform="translate(-445.243 -0.007)"/><path class="v" d="M921.12,147.869c-.5,1.608-1.686,3.165-2.608,3.165-.635,0-1.945-.933-3.153-1.456a2.99,2.99,0,0,0-1.6-.315c-1.394.281-.562,1.866-3.165,0s-4.5-7.729-4.5-7.729-2.563-4.008,3.17-2.333a32.547,32.547,0,0,1,5.014,1.979C918.332,143.181,921.727,145.9,921.12,147.869Z" transform="translate(-396.54 -60.76)"/><path class="w" d="M926.115,149.729c-.5,1.608-1.686,3.165-2.608,3.165-.635,0-1.945-.933-3.153-1.456-.056-.365-.135-.776-.253-1.242-.512-2.1-3.024-1.726-3.165-2.333-.1-.444,1.439-3.328,2.316-4.823C923.327,145.041,926.722,147.762,926.115,149.729Z" transform="translate(-401.536 -62.621)"/><path class="g" d="M905.225,169.193c-2.563.461-8.431-1.866-8.712-2.248a2.455,2.455,0,0,0-.163-.242,26.84,26.84,0,0,1,15.828-4.294,5.528,5.528,0,0,0,.365.624C913.578,164.533,907.783,168.726,905.225,169.193Z" transform="translate(-392.523 -71.09)"/><path class="x" d="M967.38,47.344s15.637,8.206,13.4,41.741L981,99.557s4.255-19.212,1.321-31.882-8.651-22.59-11.416-23.1S967.729,46,967.729,46Z" transform="translate(-423.628 -19.463)"/><path class="y" d="M918.407,59.455s-.624-.112,2.462.343,24.732,5.093,35.541,41.364a7.793,7.793,0,0,1,.191,2.513c-.112,1.461-.09,2.428-.09,2.428s-9.409-26.9-25.154-34.816-17.908-8.853-19.516-9.128,2.276-1.124,3.862-2.04A4.238,4.238,0,0,1,918.407,59.455Z" transform="translate(-399.14 -26.01)"/><path class="z" d="M911.1,63.78s-.185.056-.393.826a2.671,2.671,0,0,0-.157,1.006l2.181-1.225S911.364,63.836,911.1,63.78Z" transform="translate(-398.74 -27.912)"/><path class="j" d="M888.69,71.883l1.456-5.947s1.242-1.225,1.8-1.085,1.54,2.248,1.54,2.248a8.84,8.84,0,0,0-2.1,1.276c-.511.562-1.259,4.688-1.259,4.688Z" transform="translate(-389.168 -28.376)"/><path class="g" d="M1024.325,202.194a83.312,83.312,0,0,1-1.045-14.294,7.585,7.585,0,0,0,1.388,2.9C1026.748,193.139,1025.933,200.238,1024.325,202.194Z" transform="translate(-448.107 -82.265)"/><path class="f" d="M827.013,282.335a147.266,147.266,0,0,1-36.137-38.672,11.4,11.4,0,0,1,.663-12.141A226.624,226.624,0,0,1,837.9,188.179a11.38,11.38,0,0,1,12.158.157,147.127,147.127,0,0,1,36.159,38.672,11.4,11.4,0,0,1-.658,12.141A226.608,226.608,0,0,1,839.2,282.492,11.427,11.427,0,0,1,827.013,282.335Z" transform="translate(-345.704 -81.651)"/><path class="aa" d="M831.724,282.092a172.737,172.737,0,0,1-32.1-34.332,10.613,10.613,0,0,1,.6-12.141A260.388,260.388,0,0,1,839,199.082a10.424,10.424,0,0,1,12.107.27,187,187,0,0,1,32.382,34.641,10.371,10.371,0,0,1-.562,12.091,260.4,260.4,0,0,1-39.059,36.232A10.587,10.587,0,0,1,831.724,282.092Z" transform="translate(-349.453 -86.371)"/><path class="ab" d="M927.459,225.224a2.248,2.248,0,1,1,.982-2.265A2.248,2.248,0,0,1,927.459,225.224Z" transform="translate(-404.374 -96.802)"/><path class="l" d="M927.736,225.434a1.445,1.445,0,1,1,.5-1.412A1.445,1.445,0,0,1,927.736,225.434Z" transform="translate(-405.174 -97.58)"/><path class="l" d="M875.119,220.224l-1.366-1.315-2.535,2.2c-.809-.787-1.613-1.568-2.428-2.35q3.609-3.1,7.307-6.127,1.231,1.124,2.445,2.248l-2.709,2.288c.461.427.916.86,1.372,1.3q1.349-1.164,2.709-2.316c.8.759,1.6,1.512,2.4,2.248q-3.682,3.181-7.307,6.413-1.2-1.2-2.395-2.378Z" transform="translate(-380.454 -93.095)"/><path class="l" d="M888.211,224c1.714,1.653,3.412,3.333,5.059,5.031l-2.012,1.821c-.905-.922-1.81-1.838-2.726-2.749l-.624.562q1.068,1.074,2.125,2.147l-1.99,1.8c-.708-.725-1.416-1.45-2.13-2.164l-.652.562c.916.927,1.827,1.855,2.732,2.81l-1.973,1.81q-2.529-2.631-5.109-5.216Q884.53,227.176,888.211,224Z" transform="translate(-385.761 -98.074)"/><path class="l" d="M890.81,240.4q3.637-3.328,7.307-6.633,1.124,1.18,2.288,2.378-2.6,2.394-5.2,4.806l2.158,2.3-2.057,1.889Q893.081,242.763,890.81,240.4Z" transform="translate(-390.097 -102.352)"/><path class="l" d="M899.5,249.505l7.195-6.745c.747.809,1.5,1.619,2.248,2.439l-5.121,4.885q1.062,1.164,2.113,2.338l-2,1.922Q901.726,251.888,899.5,249.505Z" transform="translate(-393.902 -106.289)"/><path class="l" d="M912.289,256.059c2.574-2.484,4.581-2.541,6.638-.129s1.866,4.564-.607,7.071-4.469,2.49-6.621.062S909.708,258.566,912.289,256.059Zm3.839,4.373c1.062-1.057,1.574-1.731.854-2.569s-1.388-.332-2.462.72-1.568,1.754-.86,2.563S915.071,261.477,916.128,260.432Z" transform="translate(-398.591 -111.28)"/><path class="l" d="M858.593,227.33q1.2,1.18,2.4,2.378-2.17,2.248-4.317,4.5l.185.191q2.49-1.821,5.008-3.62,1.31,1.31,2.608,2.625-2.052,2.327-4.07,4.682l.185.191q2.44-2.035,4.89-4.053,1.2,1.214,2.383,2.439-4,2.912-7.965,5.834l-3.429-3.625q2.023-2.2,4.053-4.373l-.09-.112q-2.389,1.821-4.744,3.659l-3.373-3.536Q855.44,230.871,858.593,227.33Z" transform="translate(-373.242 -99.532)"/><path class="l" d="M872.211,248.728c2.625-2.411,4.738-2.428,6.987-.079s2.085,4.435-.562,6.886-4.71,2.468-6.959.073S869.586,251.14,872.211,248.728Zm4.086,4.3c1.124-1.029,1.647-1.686.871-2.5s-1.478-.337-2.586.691-1.613,1.686-.866,2.507S875.2,254.051,876.3,253.028Z" transform="translate(-381.031 -108.104)"/><path class="l" d="M884.47,265.235l-.562-.607-1.855,1.742-2.333-2.5,7.212-6.745q1.411,1.5,2.81,3.018c1.934,2.091,2.366,3.581.225,5.621a3.382,3.382,0,0,1-2.81,1.169c-.59,1.006-1.186,2.007-1.776,3.007l-2.372-2.546,1.478-2.147ZM887.78,262l-.511-.562-1.405,1.321.562.613c.326.36.753.275,1.2-.146S888.157,262.414,887.78,262Z" transform="translate(-385.24 -112.582)"/><path class="l" d="M890.74,275.745q3.586-3.372,7.133-6.745l2.277,2.518q-2.53,2.434-5.059,4.851,1.085,1.18,2.17,2.366l-1.99,1.889Q893,278.151,890.74,275.745Z" transform="translate(-390.066 -117.78)"/><path class="l" d="M899.45,285.1q3.53-3.333,7.015-6.745c.911,1.029,1.827,2.069,2.732,3.1,2.248,2.569,2.091,4.626-.163,6.824s-4.328,2.484-6.661-.034Zm7.712-1.821-.4-.45q-1.512,1.461-3.024,2.912l.4.444c.939,1.04,1.6.528,2.6-.444s1.287-1.478.416-2.462Z" transform="translate(-393.88 -121.874)"/><path class="f" d="M385.428,294.625s-3.125-23.152,0-27.835,80.84-24.636,102.918-21.8,10.786,96.516,10.37,100.676-43.691,29.656-79.114,23.124S385.428,294.625,385.428,294.625Z" transform="translate(-168.176 -107.144)"/><path class="ac" d="M490.272,692.014q-5.295.995-10.578,1.647A168.392,168.392,0,0,1,293.367,557.445c-1.416-7.538,9.837-16.863,29.942-26.418A340.78,340.78,0,0,1,362.3,515.85c25.586-8.431,56.7-16.385,90.564-22.753,91.536-17.211,168.531-16.3,172,2C642.053,586.64,581.808,674.814,490.272,692.014Z" transform="translate(-128.417 -210.511)"/><path class="ad" d="M503.142,721.018a169.163,169.163,0,0,1-18.74,1.276C387.049,674.826,356.151,595.611,346.73,558.406a340.76,340.76,0,0,1,38.992-15.176l31.741,3.907C422.96,638.583,471.609,694.246,503.142,721.018Z" transform="translate(-151.838 -237.868)"/><path class="ae" d="M614.094,510.585c-10.241,7.4-27.267,15.339-49.048,23.006-5.891,2.074-12.13,4.131-18.673,6.155-7.8,2.406-16.036,4.761-24.642,7.037-17.464,4.626-36.446,8.926-56.389,12.675-46.76,8.791-89.726,12.861-121.035,12.293a219.845,219.845,0,0,1-22.056-1.4c-11.72-1.422-20.359-3.884-25.03-7.38a9.1,9.1,0,0,1-3.856-5.5c-.4-2.142.219-4.424,1.776-6.818,5.621-8.662,23.507-18.734,49.5-28.554,28.256-10.68,66.113-21.05,108.225-28.97,91.536-17.211,168.531-16.3,172,2C625.707,499.726,621.834,505,614.094,510.585Z" transform="translate(-128.417 -210.524)"/><path class="d" d="M422.129,541.43c-9.37,3.417-80.834,10.163-80.834,10.163s-38.88,11.287-14.468-13.49c2.355-2.389,5.306-5.115,8.932-8.218,0,0,19.673-5.469,24.17-22.051,2.248-8.381,4.93-9.938,7.583-8.948s5.188,4.379,7.408,6.234c4.019,3.344,6.745,6.4,9.19,5.666a3,3,0,0,0,.866-.422c2.423-1.686,2.917-5.4,5-4.789a2.569,2.569,0,0,1,.748.36c2.743,1.8,6.239,11.517,14.232,10.876s12.141,3.108,15.036,5.919a17.487,17.487,0,0,0,8.392,4.873C431.684,528.547,431.5,538.007,422.129,541.43Z" transform="translate(-139.596 -218.334)"/><path class="af" d="M709.65,380.708s17.987-.843,18.549-5.9-6.464-12.085,0-11.242,10.961,7.8,16.582,8.532,11.242,2.445,14.333-12.6,16.75-9.983,24.816-4.643,11.438,12.664,20.713,10.264,14.614,2.934,11.8,3.935,11.719,5.2,21.314,3.7,18.965,6.931-10.264,7.965S709.65,380.708,709.65,380.708Z" transform="translate(-310.765 -153.044)"/><path class="ag" d="M191.5,477S33.555,490.12,29.058,481.874s11.8-35.063,44.967-25.03,23.237-8.325,35.884-10.573,27.632,0,33.253,13.867S191.5,477,191.5,477Z" transform="translate(-12.404 -195.078)"/><path class="g" d="M508.351,336.329c0,1.214-3.592,12.119-8.667,22.146-.416.815-.837,1.63-1.27,2.434s-.86,1.563-1.3,2.321-.95,1.608-1.445,2.372c-3.423,5.435-7.245,9.589-10.927,10.073l-1.169.157h0c-1.849.247-4.351.562-7.341.961-18.217,2.321-54.4,6.307-69.053,2.248l-.894-.253c-16.975-4.9-24.642-12.928-28.329-15.48h0c-2.608-1.821-3.766-11.461-3.423-22.714,4.5-3.474,7.751-6.852,8.757-9.308,1.422-3.457,4.62-13.417,5.008-22.27l-.112-.2a71.766,71.766,0,0,0-6.784-3.373c3.17-8.01,6.8-14.7,8.948-18.954,3.777-7.487,22.6-13.175,22.6-13.175s58.682-13.8,61.875-13.754,22.3-3.047,29.791,1.827S508.351,334.08,508.351,336.329Z" transform="translate(-163.988 -113.24)"/><path class="j" d="M466.723,510.591s-.472,3.564-1.124,8.712c-1.124,8.651-2.855,21.792-3.935,30.072-.961,7.538-1.012,17.363-1.81,24.777-.607,5.582-1.641,9.792-3.811,10.635-5.059,1.967-13.676-12.18-16.863-38.407-2.417-19.9,3.041-40.51,5.818-49.29.523-1.658.95-2.895,1.209-3.626.18-.5.281-.764.281-.764l3.316,2.934,14.052,12.433Z" transform="translate(-192.06 -215.741)"/><path class="g" d="M472.491,516.792s-.472,3.564-1.124,8.712c-1.124,8.651-2.855,21.792-3.935,30.072-.961,7.537-1.012,17.363-1.81,24.777a3.835,3.835,0,0,1-.444,0c-1.686-.14-3.373-23.091-3.552-36.873s-4.115-17.509-7.228-21.815-2.619-14.805-2.619-14.805,10.68,4.345,17.858,7.408Z" transform="translate(-197.827 -221.942)"/><path class="j" d="M541.809,569.821a12.929,12.929,0,0,1-1.428-1.8c-6.25-9.089-19.111-40.47-24.08-52.932-1.276-3.187-2.035-5.132-2.035-5.132a6.813,6.813,0,0,1-.489-2.76c.219-8,13.872-16.042,18.661-19.819a17.423,17.423,0,0,1,3.715-2.248,18.273,18.273,0,0,1,5.368-1.461l.349-.034h0c1.647-.135,2.81.056,2.928.354a18.775,18.775,0,0,1,.292,1.894c.163,1.237.388,3.03.658,5.25,2.023,16.762,6.565,57.923,7.015,68.013C553.331,571.8,548.554,576.566,541.809,569.821Z" transform="translate(-224.988 -211.752)"/><path class="h" d="M471.713,510.938s-.472,3.564-1.124,8.712c-3.063-1.074-11.523-4.5-16.374-10.775a19.4,19.4,0,0,1-4.227-11.438,14.31,14.31,0,0,1,.365-3.935c.09-.045.388.067.843.3.787.4,2.052,1.175,3.6,2.17Z" transform="translate(-197.049 -216.088)"/><path class="g" d="M540.381,579.691c-6.25-9.089-19.111-40.47-24.08-52.932-1.276-3.187-2.035-5.132-2.035-5.132a6.814,6.814,0,0,1-.489-2.76c1.49-4.39,3.429-7.566,5.733-8.667,0,0,20.151,55.27,20.8,67.355C540.353,578.308,540.375,579.022,540.381,579.691Z" transform="translate(-224.988 -223.404)"/><path class="h" d="M545.752,491.18a7.621,7.621,0,0,0-3.805-1.428c-5-.444-19.712,17.74-25.648,25.367-1.276-3.187-2.035-5.132-2.035-5.132-3.536-8.853,12.833-18.363,18.172-22.579a17.425,17.425,0,0,1,3.715-2.248l5.368-1.461.287-.079.062.045h0c.309.214,1.641,1.124,3.221,2.248C545.258,487.167,545.482,488.96,545.752,491.18Z" transform="translate(-224.986 -211.764)"/><path class="g" d="M516.534,483.46s-4.171-7.633-10.775-.326c-5.745,6.352-15.952,21.764-22.006,25.642a4.755,4.755,0,0,1-2.428.916c-5.34,0-17.425-7.729-22.343-10.118S448.3,482.993,447.6,481.447s2.428-5.745,2.428-5.745l2.248-.208,57.5-5.334s1.5-3,5.43,0S516.534,483.46,516.534,483.46Z" transform="translate(-195.965 -205.286)"/><path class="j" d="M483.753,513.971a4.756,4.756,0,0,1-2.428.916c-5.34,0-17.425-7.729-22.343-10.118S448.3,488.188,447.6,486.643s2.428-5.745,2.428-5.745l2.248-.208c2.631,1.5,6.4,3.985,6.4,3.985S470.263,510.273,483.753,513.971Z" transform="translate(-195.965 -210.481)"/><path class="i" d="M521.186,440.59q-.641,1.18-1.3,2.321c-.472.815-.95,1.608-1.445,2.372a158.272,158.272,0,0,1-12.1,10.23h0a106.567,106.567,0,0,1-11.472,7.982c-6.745,3.693-34.006,6.992-40.751,6.29-5.272-.562-19.229-8.06-25.064-11.309-1.624-.9-2.619-1.478-2.619-1.478s55.855.141,64.781-2.3C498.528,452.68,515.374,443.732,521.186,440.59Z" transform="translate(-186.744 -192.921)"/><path class="h" d="M506.165,251.054S501.9,265.387,489.4,271.149a52.68,52.68,0,0,1-7.785,2.765c-12.731,3.552-29.139,4.542-31.938,3.277-3.417-1.546-7.521-4.075-9.881-6.745s1.405-5.9,1.405-5.9l53.32-22.517,8.184-3.457a25.034,25.034,0,0,0-.748,3.457h0c-.275,2-.309,4.334.753,5.492,0,0,1.686-.236,1.31,1.124,0,0,1.591.281,1.029,1.405C505.041,250.053,506.261,249.694,506.165,251.054Z" transform="translate(-192.251 -104.454)"/><path class="i" d="M501.97,244.391h0c-.2.714-5.621,19.3-20.336,31.865-12.731,3.552-29.139,4.542-31.938,3.277-3.417-1.546-7.521-4.075-9.882-6.745s1.405-5.9,1.405-5.9l53.32-22.517C497.878,243.863,500.48,243.8,501.97,244.391Z" transform="translate(-192.26 -106.818)"/><path class="g" d="M726.922,285.921a72.583,72.583,0,0,1-3.564,6.644c-7.122,11.989-49.093,34.849-100.052,17.234-11.641-4.025-18.875-8.577-23.107-13.209-14.283-15.648,5.683-32.191,5.683-32.191s57.519-22.062,95.741-12.686C733.38,259.5,732.284,274.269,726.922,285.921Z" transform="translate(-260.58 -109.193)"/><path class="j" d="M726.93,285.921a243.572,243.572,0,0,1-29.037-3.462c-40.352-7-76.843,4.84-97.674,14.131C585.936,280.941,605.9,264.4,605.9,264.4s57.519-22.062,95.74-12.686C733.389,259.5,732.293,274.269,726.93,285.921Z" transform="translate(-260.589 -109.193)"/><path class="h" d="M502.392,436.26c-.821,1.619-1.686,3.221-2.569,4.755a165.389,165.389,0,0,1-20.887,13.563,46.958,46.958,0,0,1-9.752,4.019c-14.614,3.693-43,5.1-64.078-2.209-20.747-7.195-24.338-15.025-24.445-15.266C381.413,441.358,434.457,459.761,502.392,436.26Z" transform="translate(-166.696 -191.025)"/><path class="g" d="M488.954,185.025c-7.442,33.512-28.588,37.733-46.591,38.986l-1.748.112a37.723,37.723,0,0,1-10.449-.877c-15.176-3.373-29.229-16.1-27.542-38.222,2.035-27.228,2.406-32.208,12.9-44.332,0,0,9.494-10.365,29.926-10.815,1.686-.039,3.373,0,5.2.1A47.323,47.323,0,0,1,464,132.694C481.978,139.2,495.165,157.016,488.954,185.025Z" transform="translate(-176.254 -56.85)"/><path class="l" d="M454.378,223.972l-1.748.112a37.721,37.721,0,0,1-10.449-.86c-20.235-15.429-9.657-49.548-8.2-70.536.877-12.591,12.512-19.313,23.462-22.86,1.686-.039,3.373,0,5.2.1a47.322,47.322,0,0,1,13.35,2.72c-36.125,5.458-28.206,15.03-36.114,49.835C434.615,205.676,445.485,217.992,454.378,223.972Z" transform="translate(-188.269 -56.828)"/><path class="j" d="M355.184,335.842c-.36,8.887-3.586,18.937-5.014,22.41-2.81,6.874-23.046,20.972-40.195,24.243q-1.608.315-3.181.489c-17.706,1.967-1.686-32.6,8.712-44.124s24.17-17.886,24.17-17.886C352.5,317.652,355.583,326.05,355.184,335.842Z" transform="translate(-130.878 -140.217)"/><path class="n" d="M407.729,152.072s6.6-5.9,9.415-6.745,33.675-3.676,44.546,1.439,15.362,24.226,14.985,32.848S472.932,201.16,466,207.157s-35.22,11.989-45.529,10.489S403.149,207.6,402.721,204,407.729,152.072,407.729,152.072Z" transform="translate(-176.347 -62.946)"/><path class="ah" d="M466.756,181.574a39.616,39.616,0,0,1-10.269,26.649c-10.46,5.559-24.428,7.791-29.453,8.577-3.176.495-11.034.467-17.723.326a39.757,39.757,0,0,1-20.173-47.463c1.815-5.778,7.8-10.949,11.854-15.255,6.97-3.305,21.4-8.729,52.7-2.282A39.61,39.61,0,0,1,466.756,181.574Z" transform="translate(-169.608 -65.282)"/><ellipse class="l" cx="13.451" cy="13.451" rx="13.451" ry="13.451" transform="translate(290.256 170.207)"/><ellipse class="q" cx="10.045" cy="10.045" rx="10.045" ry="10.045" transform="translate(293.662 173.614)"/><ellipse class="h" cx="7.83" cy="7.83" rx="7.83" ry="7.83" transform="translate(295.877 175.828)"/><path class="q" d="M461.944,216.54a39.687,39.687,0,0,1-5.458,7.689c-10.46,5.559-24.428,7.791-29.453,8.577-3.176.495-11.034.467-17.723.326a39.757,39.757,0,0,1-20.173-47.463c-.6,6.3-.309,13.232,3.238,15.845,7.116,5.25,6.368-1.405,10.208,0s.281,5.059,3.654,6.279,13.3-.562,19.864,14.052,27.351,2.929,29.229-2.985C456.571,214.944,460.455,214.078,461.944,216.54Z" transform="translate(-169.608 -81.289)"/><path class="g" d="M363.843,344.576v.141c-.388,8.853-3.586,18.813-5.008,22.27-1.124,2.7-4.907,6.515-10.146,10.354-8.1,5.924-19.645,11.905-30.049,13.889,7.931-5.857,17.852-14.193,21.652-21.635,2.434-4.772,4.8-9.719,6.835-14.17,3.6-7.869,6.183-14.159,6.374-15.058s5.756,1.641,10.23,4.148Z" transform="translate(-139.537 -148.951)"/><path class="ai" d="M379.13,341.188a89.556,89.556,0,0,0-5.565,20,136.778,136.778,0,0,0-1.3,15.131c-.45.348-.911.7-1.388,1.045-.635-6.644-1.124-14.277-1.563-21.921,3.6-7.869,6.183-14.159,6.374-15.058C375.768,339.974,377.179,340.373,379.13,341.188Z" transform="translate(-161.726 -148.97)"/><path class="aj" d="M401.383,218.158s-6.38,9.218,5.587,22.59c0,0-9.392-6.6-10.59-15.946S401.383,218.158,401.383,218.158Z" transform="translate(-173.513 -95.357)"/><path class="h" d="M424.49,399.665s20.319,32.8,33.815,38.492c0,0,23.046-35.547,26.446-43.309s1.49,2.293,1.49,2.293l-28.076,53.837s-20.173-7.611-25.755-19.111S424.49,399.665,424.49,399.665Z" transform="translate(-185.89 -171.602)"/><ellipse class="ak" cx="4.851" cy="12.13" rx="4.851" ry="12.13" transform="translate(224.089 129.491) rotate(-30)"/><path class="l" d="M447.65,155.5s23.889-.562,32.18,2.951c0,0,7.307,8.291,9.134,16.582,0,0-6.042-11.523-11.944-14.052S454.817,156.331,447.65,155.5Z" transform="translate(-196.032 -68.064)"/><path class="j" d="M517.249,688.381c-.719-.388-57.631-31.668-48.278-39.549s17.931.95,23.608,4.868,31.038,29.184,29.229,32.359S517.249,688.381,517.249,688.381Z" transform="translate(-204.914 -282.726)"/><path class="al" d="M363.506,301.447a5.621,5.621,0,0,1,2.406-5.537c4.924-3.328,14.957-9.556,19.139-8.325,5.621,1.686-.978,18.729,2.395,33.062s13.872,47.536,39.06,74.387c14.541,15.5,12.99,20.308,12.99,20.308s-27.036-16.3-41.37-34.287C384.685,364.193,366.637,320.913,363.506,301.447Z" transform="translate(-159.154 -125.85)"/><path class="am" d="M526.361,256.391s1.686-2.586,6.043-2.867,19.533,7.869,20.8,9.4.422,10.55-3.232,20.387-58.12,117.179-58.12,117.179-8.291-5.621-8.853-10.382S524.112,319.4,526.361,256.391Z" transform="translate(-211.508 -111)"/><path class="c" d="M474.451,660.307a3.367,3.367,0,0,1-.669.641c-4.918,3.654-16.863-7.729-20.8-11.523,0,0-2.985-6.183.562-6.453s3.878,1.535,8.167-.292c.478-.208.911-.377,1.3-.517,3.08-1.124,3.479-.349,4.6,1.124C468.78,644.923,477.672,656.024,474.451,660.307Z" transform="translate(-197.854 -280.958)"/><path class="j" d="M631.283,652.042c-.815-.079-65.4-6.863-59.829-17.751s16.9-6.07,23.608-4.66,39.908,14.878,39.476,18.515S631.283,652.042,631.283,652.042Z" transform="translate(-250.098 -274.705)"/><path class="j" d="M673.036,658.875s-1.225-4.367,1.624-5.565,8.358-2.895,9.482-1.54c.809.978,7.543,17.222,8.611,26.789.416,3.7-2.867,5.244-3.434,6.245C687.279,688.4,679.309,680.347,673.036,658.875Z" transform="translate(-294.616 -285.18)"/><path class="h" d="M703.133,678.675c-.523,6.014-1.95,7.307-3.963,7.611s-3.243-.1-3.991-1.411,4.109-2.3,4.328-3.76-2-13.945-4.463-20.235c-2.063-5.25-3.328-8.932-3.687-10a.326.326,0,0,1,.225-.416,11.715,11.715,0,0,1,2.293-.416,5.22,5.22,0,0,1,1.911.152C697.568,650.744,703.65,672.655,703.133,678.675Z" transform="translate(-302.747 -284.632)"/><path class="i" d="M705.108,678.683c-.523,6.014-1.951,7.307-3.963,7.611,3.372-4.255,3.187-8.246.438-19.611a86.867,86.867,0,0,0-5.733-16.615,5.223,5.223,0,0,1,1.911.152C699.543,650.753,705.625,672.663,705.108,678.683Z" transform="translate(-304.722 -284.641)"/><path class="an" d="M483.165,660.32c-.742-5.767-8.257-14.614-11.455-18.127,3.08-1.124,3.479-.349,4.6,1.124C477.494,644.936,486.386,656.037,483.165,660.32Z" transform="translate(-206.568 -280.971)"/><path class="ao" d="M459.94,657.675s8.139-.832,10.46-2.625C470.4,655.05,463.667,655.865,459.94,657.675Z" transform="translate(-201.414 -286.836)"/><path class="ao" d="M456.45,652.658s6.841-.7,8.791-2.2C465.241,650.46,459.57,651.14,456.45,652.658Z" transform="translate(-199.886 -284.826)"/><path class="ao" d="M468,663.754s5.879-.6,7.56-1.894A30.164,30.164,0,0,0,468,663.754Z" transform="translate(-204.943 -289.818)"/><path class="c" d="M586.452,643.7a3.43,3.43,0,0,1-.511.787c-4.019,4.626-18.127-3.935-22.787-6.79,0,0-4.238-5.379-.854-6.419s4.12.663,7.914-2.04c.422-.3.809-.562,1.158-.781,2.766-1.759,3.322-1.09,4.744.129C577.627,629.888,588.678,638.825,586.452,643.7Z" transform="translate(-245.664 -274.72)"/><path class="an" d="M594.541,643.7c-1.962-5.475-11.2-12.478-15.081-15.244,2.765-1.759,3.322-1.09,4.744.129C585.716,629.888,596.767,638.825,594.541,643.7Z" transform="translate(-253.753 -274.72)"/><path class="ao" d="M573.65,645.516s7.768-2.558,9.651-4.806C583.3,640.71,576.9,642.953,573.65,645.516Z" transform="translate(-251.209 -280.556)"/><path class="ao" d="M569.1,641.646s6.526-2.147,8.111-4.036C577.211,637.61,571.854,639.515,569.1,641.646Z" transform="translate(-249.216 -279.198)"/><path class="ao" d="M582.68,650.214s5.621-1.849,6.975-3.474A30.643,30.643,0,0,0,582.68,650.214Z" transform="translate(-255.163 -283.197)"/><path class="j" d="M553.048,710.277s.562-4.5,3.654-4.5,8.814.562,9.325,2.248c.365,1.214.287,18.8-2.44,28.031-1.057,3.575-4.677,3.721-5.587,4.429C554.734,743,550.519,732.479,553.048,710.277Z" transform="translate(-241.849 -309.051)"/><path class="h" d="M568.066,738.534c-2.81,5.34-4.626,5.975-6.6,5.48s-2.951-1.343-3.131-2.85,4.677-.523,5.447-1.787S567.346,725.747,567.5,719c.135-5.621.393-9.522.478-10.646a.326.326,0,0,1,.365-.3,12.3,12.3,0,0,1,2.276.506,5.268,5.268,0,0,1,1.686.883C573.754,710.638,570.876,733.195,568.066,738.534Z" transform="translate(-244.501 -310.047)"/><path class="i" d="M570.509,738.948c-2.81,5.34-4.626,5.975-6.6,5.48,4.733-2.625,6.132-6.368,8-17.908A86.871,86.871,0,0,0,573.066,709a5.268,5.268,0,0,1,1.686.882C576.2,711.052,573.319,733.608,570.509,738.948Z" transform="translate(-246.944 -310.461)"/><path class="j" d="M779.3,75.805c-1.686.742-8.853,3.974-8.853,3.974s-8.291,9.7-12.788,10.961c-2.81.787-5.329,4.193-8.06,6.745a15.374,15.374,0,0,1-2.333,1.844.056.056,0,0,0-.028,0,6.514,6.514,0,0,1-2.9,1.051c-1.237.1-3.108.326-5.059.382-6.02.163-12.7-1.327-3.063-13.265,0,0,14.614-9.556,19.864-12.175S776.5,64.08,776.5,64.08a3.434,3.434,0,0,1,2.023.18c1.006.4,2.158,1.377,2.895,3.659C782.955,72.731,780.988,75.047,779.3,75.805Z" transform="translate(-320.273 -28.01)"/><path class="g" d="M785.182,76.005c-1.686.742-8.853,3.974-8.853,3.974s-8.291,9.7-12.787,10.961c-2.81.787-5.329,4.193-8.06,6.745-.77.624-1.557,1.253-2.333,1.844a.057.057,0,0,0-.028,0,6.514,6.514,0,0,1-2.9,1.051c-1.237.1-3.108.326-5.059.382-.9-1.714-.382-4.238,4.2-6.284,0,0,19.954-11.944,22.062-13.49s3.373-6.886,8.01-7.588,1.951-7.307,3.479-8.488a3.254,3.254,0,0,1,1.5-.652c1.006.4,2.158,1.377,2.895,3.659C788.836,72.931,786.868,75.246,785.182,76.005Z" transform="translate(-326.154 -28.21)"/><path class="ap" d="M701.265,141.358s-10.494,56.125-5.621,67.8,40.47,49.52,71.194,28.161-16.486-94.431-16.486-94.431S714,99.73,701.265,141.358Z" transform="translate(-304.066 -53.952)"/><path class="j" d="M807.473,142.131c-2.428,1.827-7.5,2.754-9.05,2.248,0,0-4.266,6.026-11.112,6.9a5.3,5.3,0,0,1-5.941-3.165c-1.029-2.552-.051-5.913,3.547-7.346,0,0,11.427-2.85,13.878-3.5s5.924-2.153,7.06-2.5,3.479-1.512,3.935-.1a1.043,1.043,0,0,0,.056.208C810.221,136.476,809.8,140.388,807.473,142.131Z" transform="translate(-342.003 -58.659)"/><path class="g" d="M807.773,142.79c-2.428,1.827-7.5,2.754-9.05,2.248,0,0-4.266,6.026-11.112,6.9a5.3,5.3,0,0,1-5.941-3.165c2.248.309,6.857.613,9.668-1.422a29.337,29.337,0,0,1,8.538-4.233c.753-.2,5.295.163,6.475-.956s.5-5.419,2.338-6.335a1.849,1.849,0,0,1,1.456-.281C810.522,137.135,810.1,141.048,807.773,142.79Z" transform="translate(-342.303 -59.318)"/><path class="j" d="M814.5,117.429c-2.248,2.737-7.729,5.194-9.623,5.059,0,0-3.165,8-10.68,10.888-3.339,1.282-6.121.135-7.605-1.945-1.866-2.6-1.686-6.678,1.984-9.3,0,0,12.152-6.391,14.749-7.8s6.116-4.081,7.307-4.778,3.519-2.676,4.429-1.2c.039.067.084.141.124.219C816.035,110.268,816.664,114.81,814.5,117.429Z" transform="translate(-343.949 -47.201)"/><path class="g" d="M815.408,118.009c-2.248,2.737-7.729,5.194-9.623,5.059,0,0-3.165,8-10.68,10.888-3.339,1.282-6.121.135-7.605-1.945,2.659-.275,7.937-1.2,10.556-4.283a34.1,34.1,0,0,1,8.5-7.15c.8-.438,6.042-1.282,7.071-2.878s-.933-6.273.894-7.819c.68-.562,1.192-.781,1.574-.719C816.942,110.848,817.572,115.39,815.408,118.009Z" transform="translate(-344.856 -47.781)"/><path class="j" d="M806.174,87.875c-6.278,5.267-7.588,4.609-7.588,4.609s-4.216,5.716-8.431,6.841a57.853,57.853,0,0,1-6.745,5.705h0a38.172,38.172,0,0,1-5.5,3.373c-2.715,1.321-5.525,2.119-8.015,1.714a7.058,7.058,0,0,1-1.484-.4c-8.336-3.277-3.232-8.027-3.232-8.027a20.076,20.076,0,0,1,8.712-6.655c6.043-2.529,12.523-7.982,13.783-9.106s15.693-11.281,17.661-11.871c.562-.174,1.428.495,2.187,1.653C809.366,78.51,810.6,84.159,806.174,87.875Z" transform="translate(-334.403 -32.401)"/><path class="g" d="M808.009,88.826c-6.279,5.267-7.588,4.609-7.588,4.609s-4.216,5.716-8.431,6.841a57.854,57.854,0,0,1-6.745,5.705h0c-1.686,1.057-3.6,2.248-5.5,3.373-5.52,3.322-11.028,6.43-11.8,6.093-.613-.27,1.231-2.153,3.772-4.379,4.019-3.524,9.775-7.909,10.252-8.128.77-.354,16.79-11.242,17.987-13.136s3.721-1.551,6.037-3.727.719-8.3,1.366-9.477c.349-.658,1.186-.4,2,.062C811.2,79.462,812.438,85.111,808.009,88.826Z" transform="translate(-336.238 -33.352)"/><path class="g" d="M730.6,152.6s17.678,1.821,24.282-5.345a3.416,3.416,0,0,0,4.918,2.777c4.356-1.512,8.993-7.976,10.4-14.3s.562-14.333-6.886-17.565c-2.681-1.164-7.712-2.31-13.2-3.007-9.763-1.231-20.983-1.04-23.046,3.007C723.8,124.491,723.857,147.554,730.6,152.6Z" transform="translate(-317.468 -50.12)"/><path class="s" d="M143.887,284.278s3.373-8.667,17.869-6.745c0,0,14.907,5.508,19.555,9.376s13.749,8.549,13.895,8.92-5.621,14.086-7.155,14.3-12.731,7.4-12.731,7.4-33.062-8.814-31.988-12.433S143.887,284.278,143.887,284.278Z" transform="translate(-62.756 -121.395)"/><path class="f" d="M715.453,138.151c-2.625,2.406-24.17-3.7-31.707-14.744a11.36,11.36,0,0,1,1.383-14.322c3.609-3.687,9.331-9.488,14.659-14.738,6.368-6.279,12.18-11.765,13.136-11.871,2.248-.253,9.275,9.82,3.091,16.61-.7.764-1.383,1.506-2.035,2.248-5.182,5.683-8.6,10.05-1.619,13.794C720.231,119.3,718.826,135.043,715.453,138.151Z" transform="translate(-298.581 -36.097)"/><path class="aq" d="M730.025,99.073c-.7.764-1.383,1.506-2.035,2.248-.393.112-.8.214-1.242.3C719.171,103.21,714.7,96,713.82,94.357c6.368-6.279,12.181-11.765,13.136-11.871C729.182,82.21,736.208,92.328,730.025,99.073Z" transform="translate(-312.591 -36.101)"/><path class="ap" d="M258.061,370.9c-2.372.18-6.43-1.2-11.354-3.637-18.307-9.061-48.621-32.764-49.065-45.8-.27-7.909,4.66-16.031,12.09-21.432,8.117-5.9,19.218-8.544,29.791-4.109C259.758,304.42,269.876,347,269.876,347,272.624,356.492,269.224,370.061,258.061,370.9Z" transform="translate(-86.546 -128.598)"/><path class="g" d="M246.766,372.2h0c-18.307-9.061-48.621-32.764-49.065-45.8-.27-7.909,4.66-16.031,12.091-21.432C212,318.872,220.652,359.415,246.766,372.2Z" transform="translate(-86.572 -133.527)"/><path class="s" d="M207.285,307.107s6.841,5.733,3,10.876-4.283,8.628-10.337,7.774-10.275-4.879-8.212-10.314S203.457,305.516,207.285,307.107Z" transform="translate(-83.733 -134.325)"/><path class="j" d="M192.79,331.511c-1.074,2.7-12.664,10.522-17.548,9.314-2.187-.562-3.755-2.507-4.811-4.5a22.381,22.381,0,0,1-1.861-5.059c4.958-2.81,21.022-4.84,21.708-4.542a4.133,4.133,0,0,1,.635.36C191.975,327.8,193.645,329.358,192.79,331.511Z" transform="translate(-73.82 -143.047)"/><path class="f" d="M195.286,265.577a18.181,18.181,0,0,1-12.608-13.271c-.708-3.991-6.548-5.233-6.548-5.233l8.375.1s4,1.124-4.367-9.668a16.469,16.469,0,0,1-3.614-10.309c0-7.38,4.62-14.052,6.869-17.3,3.277-4.7,17.374-1.411,12.883,5.621-3.856,6.02,2.2,21.607,5.9,27.542a9.764,9.764,0,0,0,1.608,2.091c2.99,2.529,9.994,14.581,9.364,16.964S203.133,267.73,195.286,265.577Z" transform="translate(-77.13 -90.935)"/><path class="ar" d="M202.478,243.052a9.325,9.325,0,0,1-3.193-.714c-2.541-2.85-4.941-11.871-4.941-11.871l-2.2.562c-4.958,1.31-10.966-1.3-15.317-3.862,0-7.38,4.62-14.052,6.869-17.3,3.277-4.7,17.374-1.411,12.883,5.621C192.726,221.519,198.785,237.083,202.478,243.052Z" transform="translate(-77.437 -90.922)"/><path class="as" d="M190.935,327.08c-3.1,2.434-8.431,6.324-12.928,7.965a19.459,19.459,0,0,1-7.526,1.253,22.38,22.38,0,0,1-1.861-5.059c4.958-2.81,21.022-4.84,21.708-4.542A4.142,4.142,0,0,1,190.935,327.08Z" transform="translate(-73.842 -143.034)"/><path class="j" d="M170.088,295.559a3.176,3.176,0,0,1-1.27,1.557c-2.248,1.315-17.515-5.188-21.753-5.655s-8.729,2.782-10.241,1.068c-.292-.332-.326-2.917.045-5.829.483-3.749,1.653-8.038,3.85-8.724,3.9-1.214,24.383,4.176,29.229,11.371C170.69,290.455,170.959,293.535,170.088,295.559Z" transform="translate(-59.819 -121.636)"/><path class="j" d="M174.978,317.613c-1.686,1.225-23.1,6.79-28.667,5.486a8.019,8.019,0,0,1-6.183-7.15,7.453,7.453,0,0,1,.028-2.175l.461-2.456s-3.086-5.711-.708-6.992,8-.354,17.481,2.754,13.406,2.068,15.913,4.289S176.664,316.393,174.978,317.613Z" transform="translate(-60.875 -133.005)"/><path class="g" d="M170.088,302.488a3.175,3.175,0,0,1-1.27,1.557c-2.248,1.315-17.515-5.188-21.753-5.655s-8.729,2.782-10.241,1.068c-.292-.332-.326-2.917.045-5.829a41.085,41.085,0,0,0,11.607,2.67C155.845,296.946,166.052,300.836,170.088,302.488Z" transform="translate(-59.819 -128.566)"/><path class="g" d="M152.5,322.011a10.552,10.552,0,0,1-11.523-.18,7.453,7.453,0,0,1,.028-2.175l.461-2.456S144.57,321.584,152.5,322.011Z" transform="translate(-61.708 -138.887)"/><path class="at" d="M215.893,622.485a219.846,219.846,0,0,1-22.056-1.4,120.511,120.511,0,0,0-25.03-7.38c-36.884-6.453-66.647,8.752-81.8,36.48-19.859,36.333-58.828,52.072-82.436,41.207-8.06-3.71-4.9-14.929,5.109-28.4h0a163.02,163.02,0,0,1,23.9-25.058c22.169-19.156,51.988-36.783,78.906-40.212a145.686,145.686,0,0,1,54.236,3.665A170.341,170.341,0,0,1,215.893,622.485Z" transform="translate(-0.002 -261.258)"/><path class="au" d="M76.924,653.712c-12.45,28.931-52.179,44.782-60.987,42.719-5.688-1.332-3.249-9.151-.8-14.524h0a163.025,163.025,0,0,1,23.9-25.058C62.917,638.356,86.44,631.588,76.924,653.712Z" transform="translate(-5.455 -280.169)"/><path class="av" d="M64.27,665.928c-6.11,14.215-25.62,21.994-29.948,20.977-2.81-.652-1.6-4.5-.393-7.133h0a79.958,79.958,0,0,1,11.736-12.293C57.4,658.384,68.947,655.062,64.27,665.928Z" transform="translate(-14.279 -288.613)"/><path class="l" d="M429.038,329.078s-3.114.613-6.846,1.568c-1.793.467-3.721,1-5.5,1.591a22.46,22.46,0,0,0-5.621,2.5s-.883-8.993-.59-10.028c.129-.461,2.248-1.776,5.244-3.063a44.175,44.175,0,0,1,5.424-1.945,24.794,24.794,0,0,1,6.919-1.062Z" transform="translate(-179.73 -139.518)"/><path class="m" d="M416.695,334.57a22.461,22.461,0,0,0-5.621,2.5s-.883-8.993-.59-10.028c.129-.461,2.248-1.776,5.244-3.063Z" transform="translate(-179.73 -141.856)"/><path class="m" d="M437.409,329.078s-3.114.613-6.846,1.568L429.54,319.7a24.8,24.8,0,0,1,6.919-1.062Z" transform="translate(-188.101 -139.518)"/><path class="c" d="M680.185,464.393a33.523,33.523,0,1,1-37.1-33.326,33.147,33.147,0,0,1,3.6-.2A33.523,33.523,0,0,1,680.185,464.393Z" transform="translate(-268.501 -188.665)"/><path class="at" d="M626.282,569.967a6.183,6.183,0,0,1-8.117,5.9h-.09a6.183,6.183,0,0,1,1.338-12.034,5.281,5.281,0,0,1,.669-.039,5.626,5.626,0,0,1,.927.073A6.183,6.183,0,0,1,626.282,569.967Z" transform="translate(-268.795 -246.872)"/><path class="aw" d="M694,464.41a33.54,33.54,0,0,1-44.36,31.752,69.463,69.463,0,0,1,7.234-65.056,33.166,33.166,0,0,1,3.6-.2A33.523,33.523,0,0,1,694,464.41Z" transform="translate(-282.318 -188.682)"/><path class="ax" d="M665.208,474.4c-8.639,3.935-19.932,8.493-32.427,12.962-10.612,3.794-20.584,6.987-28.976,9.348-14.052,3.935-23.641,5.587-24.293,3.766s7.465-6.453,20.376-12.135h0c-9.87,4.39-15.918,7.869-15.452,9.156s7.509.107,18.15-2.81c8.145-2.248,18.4-5.514,29.431-9.46,13.08-4.677,24.732-9.392,32.815-13.192,7.684-3.581,12.18-6.346,11.765-7.465s-5.492-.427-13.49,1.585a.061.061,0,0,0,0-.039c11.242-2.928,18.622-3.968,19.19-2.378S676.174,469.39,665.208,474.4Z" transform="translate(-253.76 -202.734)"/><path class="l" d="M665.084,474.313c-8.69,3.963-17.565,7.5-26.514,10.831s-17.987,6.453-27.1,9.269c-4.559,1.405-9.145,2.743-13.771,3.935-2.31.6-4.637,1.158-6.97,1.653a64.141,64.141,0,0,1-7.082,1.169c-.6.051-1.2.09-1.8.09a6.33,6.33,0,0,1-1.821-.214,1.214,1.214,0,0,1-.787-.618,1.169,1.169,0,0,1,.191-.989,6.234,6.234,0,0,1,1.27-1.332,41.977,41.977,0,0,1,6.071-3.839c4.21-2.248,8.544-4.283,12.928-6.222l.18-.079.09.259h0l.034.107-.146.067c-2.5,1.124-4.98,2.248-7.42,3.5-1.214.613-2.428,1.248-3.609,1.922a26.246,26.246,0,0,0-3.372,2.248,4.726,4.726,0,0,0-.691.691c-.2.253-.3.528-.157.646a1.512,1.512,0,0,0,.821.259,6.522,6.522,0,0,0,.995.028,29.065,29.065,0,0,0,4.041-.495c2.681-.483,5.34-1.124,7.987-1.8,10.584-2.76,20.988-6.183,31.3-9.814s20.539-7.56,30.549-11.961c2.5-1.124,4.986-2.248,7.436-3.44a53.363,53.363,0,0,0,7.11-4.008,5.4,5.4,0,0,0,1.394-1.343c.36-.5-.5-.663-1.124-.691a21.421,21.421,0,0,0-4.041.349c-2.687.438-5.357,1.051-8.01,1.686l-.208-.157a.079.079,0,0,0,.034.073l.073-.275c3.26-.832,6.526-1.613,9.837-2.248,1.653-.3,3.311-.562,4.991-.736a17.251,17.251,0,0,1,2.529-.073,4.667,4.667,0,0,1,1.265.219,1.26,1.26,0,0,1,.562.354.764.764,0,0,1,.141.68,2.68,2.68,0,0,1-.731,1.124,9.661,9.661,0,0,1-.955.843,24.81,24.81,0,0,1-2.069,1.445c-1.422.9-2.895,1.714-4.379,2.5C671.177,471.486,668.142,472.925,665.084,474.313Zm0-.051c3.047-1.411,6.071-2.867,9.033-4.452,1.473-.8,2.934-1.624,4.345-2.529a23.981,23.981,0,0,0,2.052-1.445,10.887,10.887,0,0,0,.927-.832,2.467,2.467,0,0,0,.652-1c.118-.388-.2-.691-.59-.8a4.357,4.357,0,0,0-1.208-.2,17.642,17.642,0,0,0-2.5.1c-1.686.163-3.322.45-4.969.764-3.288.646-6.548,1.445-9.8,2.3l.079-.275a.31.31,0,0,1,.067.152l-.208-.157c2.653-.674,5.317-1.31,8.027-1.771a21.877,21.877,0,0,1,4.126-.388,3.563,3.563,0,0,1,1.079.2.866.866,0,0,1,.489.455.838.838,0,0,1-.073.669,5.683,5.683,0,0,1-1.518,1.506,54.42,54.42,0,0,1-7.15,4.1q-3.682,1.838-7.442,3.491c-10.028,4.412-20.269,8.313-30.589,11.972s-20.758,7-31.37,9.741c-2.659.669-5.329,1.3-8.032,1.782a29.217,29.217,0,0,1-4.1.495,7.3,7.3,0,0,1-1.051-.034,2.6,2.6,0,0,1-.562-.1,1.186,1.186,0,0,1-.562-.292.686.686,0,0,1-.152-.68,1.573,1.573,0,0,1,.281-.517,5.329,5.329,0,0,1,.759-.753,25.13,25.13,0,0,1,3.462-2.248c1.192-.68,2.406-1.315,3.631-1.928,2.451-1.231,4.941-2.378,7.442-3.491l-.112.18h0l.27.174c-4.367,1.922-8.707,3.935-12.9,6.183a41.2,41.2,0,0,0-6.031,3.788,5.948,5.948,0,0,0-1.2,1.242.86.86,0,0,0-.169.7.9.9,0,0,0,.562.427,6.027,6.027,0,0,0,1.726.2c.562,0,1.18-.034,1.771-.084a65.263,65.263,0,0,0,7.049-1.124c2.333-.495,4.648-1.046,6.964-1.636,4.62-1.18,9.213-2.49,13.777-3.878q13.7-4.176,27.132-9.156C647.485,481.727,656.366,478.208,665.084,474.263Z" transform="translate(-253.636 -202.621)"/><path class="ay" d="M778.488,533.8c-10.247,7.42-27.267,15.339-49.031,23.006C708.84,556.615,671,555.53,671,550.247,671,544.682,744.285,537.055,778.488,533.8Z" transform="translate(-293.839 -233.739)"/><path class="ay" d="M689.248,585.952c-7.8,2.406-16.036,4.761-24.642,7.037-17.155-.562-36.7-1.686-40.572-3.935C618.195,585.676,670.047,585.794,689.248,585.952Z" transform="translate(-273.073 -256.55)"/><path class="az" d="M629.142,570a6.183,6.183,0,0,1-8.117,5.9,11,11,0,0,1,2.844-12.029A6.183,6.183,0,0,1,629.142,570Z" transform="translate(-271.654 -246.907)"/><path class="c" d="M373.778,498.905c-.112,1.54-.18,3.569-.18,6.234,0,11.989-11.242,22.686-13.766,25.631s-15.935,7.38-19.072,8.111c-1.979.461-5.233-.039-7.661-.759,2.355-2.389,5.306-5.115,8.932-8.218,0,0,19.673-5.469,24.17-22.051C368.455,499.473,371.125,497.916,373.778,498.905Z" transform="translate(-145.869 -218.343)"/><path class="c" d="M407.554,490.5h-.124a.163.163,0,0,1,.124,0Z" transform="translate(-178.419 -214.772)"/><path class="c" d="M436.249,510.949a4.289,4.289,0,0,0-.259.759c-.146.787-1.686,7.5-3.181,15.553s-8.808,8.9-8.336,7.212,4.783-15.918,4.783-15.918a17.989,17.989,0,0,1,1.124-2.389,3,3,0,0,0,.866-.422C433.669,514.057,434.163,510.348,436.249,510.949Z" transform="translate(-185.873 -223.704)"/></g></svg>