<svg xmlns="http://www.w3.org/2000/svg" xmlns:xlink="http://www.w3.org/1999/xlink" width="187.2" height="202.523" viewBox="0 0 187.2 202.523">
  <defs>
    <linearGradient id="linear-gradient" x1="0.617" y1="-0.197" x2="0.048" y2="3.634" gradientUnits="objectBoundingBox">
      <stop offset="0" stop-color="#ffd080"/>
      <stop offset="0.06" stop-color="#e3d390"/>
      <stop offset="0.19" stop-color="#b2d8ad"/>
      <stop offset="0.32" stop-color="#88dcc6"/>
      <stop offset="0.45" stop-color="#66e0db"/>
      <stop offset="0.58" stop-color="#4be2eb"/>
      <stop offset="0.71" stop-color="#38e4f6"/>
      <stop offset="0.85" stop-color="#2de6fd"/>
      <stop offset="1" stop-color="#29e6ff"/>
    </linearGradient>
    <linearGradient id="linear-gradient-2" x1="0.002" y1="0.501" x2="1.001" y2="0.501" gradientUnits="objectBoundingBox">
      <stop offset="0" stop-color="#ffd5ff"/>
      <stop offset="0.12" stop-color="#ffbce2"/>
      <stop offset="0.29" stop-color="#ff9ec0"/>
      <stop offset="0.46" stop-color="#ff87a5"/>
      <stop offset="0.63" stop-color="#ff7792"/>
      <stop offset="0.81" stop-color="#ff6d87"/>
      <stop offset="1" stop-color="#ff6a83"/>
    </linearGradient>
    <linearGradient id="linear-gradient-3" x1="1.048" y1="0.062" x2="-1.772" y2="2.669" gradientUnits="objectBoundingBox">
      <stop offset="0" stop-color="#ffd5ff"/>
      <stop offset="0.02" stop-color="#fdd1fb"/>
      <stop offset="0.21" stop-color="#edafdb"/>
      <stop offset="0.4" stop-color="#e094c3"/>
      <stop offset="0.59" stop-color="#d781b1"/>
      <stop offset="0.79" stop-color="#d276a6"/>
      <stop offset="1" stop-color="#d072a3"/>
    </linearGradient>
    <linearGradient id="linear-gradient-4" x1="0.889" y1="0.808" x2="-0.776" y2="-0.217" xlink:href="#linear-gradient-2"/>
    <linearGradient id="linear-gradient-5" x1="1.295" y1="0.526" x2="-1.067" y2="0.451" xlink:href="#linear-gradient-3"/>
    <linearGradient id="linear-gradient-6" x1="-0.22" y1="-0.011" x2="0.831" y2="0.636" xlink:href="#linear-gradient-3"/>
    <linearGradient id="linear-gradient-7" x1="0.221" y1="-0.122" x2="0.622" y2="0.702" xlink:href="#linear-gradient-3"/>
    <linearGradient id="linear-gradient-8" x1="-0.002" y1="0.5" x2="1" y2="0.5" xlink:href="#linear-gradient-3"/>
    <linearGradient id="linear-gradient-9" x1="0.812" y1="0.211" x2="-0.281" y2="2.279" gradientUnits="objectBoundingBox">
      <stop offset="0" stop-color="#ffd5ff"/>
      <stop offset="0.06" stop-color="#e3d7ff"/>
      <stop offset="0.19" stop-color="#b2dbff"/>
      <stop offset="0.32" stop-color="#88deff"/>
      <stop offset="0.45" stop-color="#66e1ff"/>
      <stop offset="0.58" stop-color="#4be3ff"/>
      <stop offset="0.71" stop-color="#38e5ff"/>
      <stop offset="0.85" stop-color="#2de6ff"/>
      <stop offset="1" stop-color="#29e6ff"/>
    </linearGradient>
  </defs>
  <g id="spaceman_back_set" data-name="spaceman back set" transform="translate(-14021.306 -122.322)">
    <path id="Path_2137" data-name="Path 2137" d="M929.223,196.223s.135-1.686-1-1.928-3.271-.461-3.586.118a39.464,39.464,0,0,0-1.231,10.46c.118,1.394,1.433,1.72,1.686,2.046C926.126,208.072,928.47,204.553,929.223,196.223Z" transform="translate(13211.726 37.366)" fill="#dedede"/>
    <path id="Path_2138" data-name="Path 2138" d="M921.853,205.268c.624,2.17,1.242,2.541,2,2.507s1.186-.264,1.366-.8-1.686-.562-1.861-1.068a33.19,33.19,0,0,1,.18-7.751c.377-2.08.562-3.524.63-3.935a.118.118,0,0,0-.107-.135,4.218,4.218,0,0,0-.877,0,2,2,0,0,0-.691.191C921.881,194.627,921.229,203.115,921.853,205.268Z" transform="translate(13212.497 37.36)" fill="#807d7f"/>
    <path id="Path_2139" data-name="Path 2139" d="M921.853,205.29c.624,2.17,1.242,2.541,2,2.507-1.534-1.321-1.765-2.81-1.574-7.167a32.725,32.725,0,0,1,.9-6.52,2,2,0,0,0-.691.191C921.881,194.65,921.229,203.137,921.853,205.29Z" transform="translate(13212.497 37.338)" fill="#303030"/>
    <path id="Path_2140" data-name="Path 2140" d="M955.03,195.974a3.822,3.822,0,0,1-3.372,1.579c-5.109-.287-21.758-1.377-24.277-3.659-2.985-2.7,22.523-4.356,23.349-4.435C953.377,189.195,957.3,192.7,955.03,195.974Z" transform="translate(13210.072 39.38)" fill="#dedede"/>
    <path id="Path_2141" data-name="Path 2141" d="M1026.438,211.992s-1.939-.2-2.248,1.124-.613,3.744.045,4.12a46.07,46.07,0,0,0,11.978,1.686c1.6-.1,2.007-1.6,2.389-1.917C1039.985,215.848,1035.977,213.071,1026.438,211.992Z" transform="translate(13167.724 29.511)" fill="#ededed"/>
    <path id="Path_2142" data-name="Path 2142" d="M1036.676,222.881c2.507-.663,2.951-1.366,2.934-2.248s-.281-1.366-.894-1.585-.669,1.905-1.27,2.108a37.238,37.238,0,0,1-8.892-.4c-2.378-.483-4.025-.748-4.5-.821a.135.135,0,0,0-.157.124,4.775,4.775,0,0,0,0,1,2.171,2.171,0,0,0,.2.8C1024.45,222.583,1034.174,223.544,1036.676,222.881Z" transform="translate(13167.711 26.424)" fill="#807d7f"/>
    <path id="Path_2143" data-name="Path 2143" d="M1036.683,224.128c2.507-.663,2.951-1.366,2.934-2.248-1.557,1.731-3.26,1.956-8.274,1.63a37.233,37.233,0,0,1-7.453-1.2,2.164,2.164,0,0,0,.2.8C1024.458,223.83,1034.182,224.792,1036.683,224.128Z" transform="translate(13167.703 25.177)" fill="#303030"/>
    <path id="Path_2144" data-name="Path 2144" d="M1031.453,167.083c-.45,5.851-.922,27.441-4.795,27.767-1.079.1-1.827-1.467-2.338-3.884a83.3,83.3,0,0,1-1.046-14.294c-.039-4.885.112-9.038.084-9.4-.219-3.035,2.67-6.779,6.369-4.092A4.368,4.368,0,0,1,1031.453,167.083Z" transform="translate(13167.976 51.285)" fill="#ededed"/>
    <path id="Path_2145" data-name="Path 2145" d="M825.43,43.394c4.1,3.625-26.244-27.053-66.18-19.313-39.2,7.605-36.019,61.667-9.19,69.665S800,107.332,803.222,129.495s-18.032,59.3,19.016,31.477" transform="translate(13296.47 112.346)" fill="none" stroke="#ededed" stroke-miterlimit="10" stroke-width="10"/>
    <rect id="Rectangle_272" data-name="Rectangle 272" width="32.05" height="47.48" rx="6.22" transform="translate(14115.736 159.2) rotate(-29.1)" fill="#807d7f"/>
    <rect id="Rectangle_273" data-name="Rectangle 273" width="40.993" height="60.728" rx="7.96" transform="translate(14113.89 165.072) rotate(-29.1)" fill="#ededed"/>
    <rect id="Rectangle_274" data-name="Rectangle 274" width="32.05" height="7.391" transform="translate(14117.255 161.918) rotate(-29.1)" fill="#807d7f"/>
    <path id="Path_2146" data-name="Path 2146" d="M912.48,96.467s17.138,30.915,19.083,32.039c0,0,15.5-8.431,16.66-10.483s-16.3-22.933-16.3-22.933S921.513,95.6,912.48,96.467Z" transform="translate(13216.491 80.7)" fill="#dedede"/>
    <path id="Path_2147" data-name="Path 2147" d="M1013.741,149.329a9.2,9.2,0,0,1-1.507-.826c-4.232-2.81-12.169-9.044-14.935-12.017a7.141,7.141,0,0,1-.764-.933c-1.124-1.686-2.333-7.476-1.686-11.512a5.407,5.407,0,0,1,1.686-3.581l.045.039a7.372,7.372,0,0,1,.675.562c.483.4,1.22,1.057,2.248,2.057,2.417,2.316,6.464,6.5,12.726,13.788C1022.773,149.155,1018.215,151.307,1013.741,149.329Z" transform="translate(13180.5 69.59)" fill="#dedede"/>
    <path id="Path_2148" data-name="Path 2148" d="M1014.45,149.78c-1.124-2.035-3.227-4.57-7.077-7.47-6.217-4.688-10.117-13.428-10.117-13.428-1.922-2.035-.607-5.312.719-7.391,1.6,1.355,6.031,5.43,14.98,15.845C1023.483,149.606,1018.924,151.758,1014.45,149.78Z" transform="translate(13179.79 69.139)" fill="#ededed"/>
    <path id="Path_2149" data-name="Path 2149" d="M999.509,123.127c-.916,4.188-1.984,11.8-2.209,13.389a7.147,7.147,0,0,1-.764-.933c-1.124-1.686-2.333-7.476-1.686-11.512.8-1.574,1.726-2.608,1.686-3.063a1.551,1.551,0,0,1,.045-.478,7.4,7.4,0,0,1,.674.562C997.738,121.474,998.474,122.126,999.509,123.127Z" transform="translate(13180.5 69.559)" fill="#807d7f"/>
    <path id="Path_2150" data-name="Path 2150" d="M976.043,144.645s-3.238,27.728-8.549,28.948a1.31,1.31,0,0,1-.416,0c-4.277-.5-7.352-23.54-8.01-32.135-.1-1.237-.141-2.181-.129-2.709v-.225h0v-.118a.8.8,0,0,1,0-.112c.337-1.647,3-4.07,7-3.625a9.946,9.946,0,0,1,1.124.2,10.509,10.509,0,0,1,1.439.45,14.518,14.518,0,0,1,3.131,1.726c3.508,2.49,4.238,5.154,4.356,6.571h0A4.4,4.4,0,0,1,976.043,144.645Z" transform="translate(13196.146 63.391)" fill="#ededed"/>
    <path id="Path_2151" data-name="Path 2151" d="M967.076,173.631c-5-.562-8.347-31.943-8.133-35.069h0v-.118a.768.768,0,0,1,0-.112c.4-1.686,5.621-2.917,8.15-3.423.838-.169,1.388-.259,1.388-.259s0,.253.051.708C968.908,139.72,970.527,163.1,967.076,173.631Z" transform="translate(13196.148 63.376)" fill="#dedede"/>
    <path id="Path_2152" data-name="Path 2152" d="M976.054,143.7c-3.013-4.047-9.218-5.154-11.332-4.615a35.609,35.609,0,0,0-5.655,2.468c-.1-1.237-.14-2.181-.129-2.709,1.827-1.889,4.637-3.732,5.969-3.935.337-.056.7-.107,1.068-.146a9.94,9.94,0,0,1,1.124.2,10.513,10.513,0,0,1,1.439.45,14.516,14.516,0,0,1,3.131,1.726C975.205,139.616,975.936,142.281,976.054,143.7Z" transform="translate(13196.146 63.328)" fill="#807d7f"/>
    <path id="Path_2153" data-name="Path 2153" d="M955.418,130.08s2.614-3.153,7.644-1.686,7.009,6.784,9.246,6.318,3.794-.354,3.721-4.379c-.045-2.715.444-9.274.562-11.8.112-2.355-.787-6.408-3.142-5.525-3.041,1.124-.6,7.594-21,10.118,0,0-7.751-1.759-7.661.107s5.621,9.106,7.195,8.892A3.827,3.827,0,0,0,955.418,130.08Z" transform="translate(13202.343 72.909)" fill="#ededed"/>
    <path id="Path_2154" data-name="Path 2154" d="M993.292,55.93c-1.872,4.294-7.684,7.869-15.4,6.981l-.242-.034c-13.743-1.686-19.988-10.809-15.351-16.739,0,0,16.587-5.463,26.9,0C993.787,48.572,994.81,52.484,993.292,55.93Z" transform="translate(13195.339 103.199)" fill="#ededed"/>
    <path id="Path_2155" data-name="Path 2155" d="M1005.333,65.093c-1.872,4.294-7.684,7.869-15.4,6.981l-.242-.034a8.519,8.519,0,0,1-.287-.9c-1.754-6.56-.933-6.054-.933-6.054s8.2,2.248,13.49,0C1003.58,64.413,1004.636,64.559,1005.333,65.093Z" transform="translate(13183.298 94.036)" fill="#dedede"/>
    <path id="Path_2156" data-name="Path 2156" d="M1004.186,35.033s3.935-14.614,6.678-15.738,12.293-1.787,13.411,4.075S1018.193,48.326,1009,50,1004.186,35.033,1004.186,35.033Z" transform="translate(13176.789 114.221)" fill="#ededed"/>
    <path id="Path_2157" data-name="Path 2157" d="M960.4,82.645a4.917,4.917,0,0,1-.742,1.563,17.521,17.521,0,0,0-1.248,2.063c-1.242,2.513-8.19,7.639-19.9,8.268-.388,0-.781.039-1.175.051h-2.254l-.332-.028-.309-.034-.264-.039-.348-.056c-.259-.045-.523-.1-.781-.157l-.562-.135-.562-.174-.506-.169c-.534-.191-1.057-.41-1.568-.652l-.18-.09c-.112-.051-.23-.112-.343-.174l-.5-.264a15.875,15.875,0,0,1-1.478-.911l-.478-.332-.348-.253-.27-.2-.63-.495-.433-.36-.512-.444-.506-.455c-.663-.618-1.3-1.27-1.9-1.934l-.332-.365c-.185-.214-.371-.422-.562-.641s-.455-.562-.669-.8-.506-.63-.742-.944c-.112-.146-.225-.287-.332-.438-.219-.292-.427-.562-.635-.866A52.869,52.869,0,0,1,914.229,75c-8.072-10.68,8.943-23.849,21.241-27.7s20.589,9.938,20.589,9.938,2.456,13.063,3.794,21.719C960.061,80.313,960.247,81.566,960.4,82.645Z" transform="translate(13216.643 101.924)" fill="#dedede"/>
    <path id="Path_2158" data-name="Path 2158" d="M943.816,26.129a6.082,6.082,0,0,1-.3,1.45c-.264.764-.455,2.389-.967,2.979-1.546,1.754-4.789,3.013-6.886,3.631-1.518.45-2.749.5-3.406.68a11.76,11.76,0,0,1-1.8.259c-4.008.365-12.456.36-13.383-1.265-.337-.562-.956-1.608-1.653-2.81a43.779,43.779,0,0,1-2.04-3.98,14.119,14.119,0,0,1-1.523-5.57s-.933-11.242,6.61-15.356,15.469-2.906,19.566.607c2.479,2.136,4.238,6.6,5.149,11.1.084.438.163.882.242,1.315a30.617,30.617,0,0,1,.388,6.959Z" transform="translate(13216.777 120.786)" fill="#807d7f"/>
    <path id="Path_2159" data-name="Path 2159" d="M954.874,66.421s-.939.36-2,.854c-.506.242-1.04.517-1.506.8a3.541,3.541,0,0,0-1.287,1.09s-2.878-2.855-3.063-3.2c-.084-.152.309-.686,1-1.253a8.18,8.18,0,0,1,1.383-.9,6.4,6.4,0,0,1,2.164-.7Z" transform="translate(13201.37 94.704)" fill="#fff"/>
    <path id="Path_2160" data-name="Path 2160" d="M951.332,69.291a3.541,3.541,0,0,0-1.287,1.09s-2.878-2.855-3.063-3.2c-.084-.152.309-.686,1-1.253Z" transform="translate(13201.388 93.469)" fill="#1cab80"/>
    <path id="Path_2161" data-name="Path 2161" d="M956.739,66.421s-.939.36-2,.854l-3.474-3.468a6.4,6.4,0,0,1,2.164-.7Z" transform="translate(13199.504 94.704)" fill="#1cab80"/>
    <path id="Path_2162" data-name="Path 2162" d="M943.958,29.973s.309-.152,0,.7c-1.214,3.373-4.323,11.8-12.282,15.7-4.008.365-12.456.36-13.383-1.265-.337-.562-.956-1.608-1.653-2.81a43.749,43.749,0,0,1-2.04-3.98c6.245-2.732,20.331-8.319,28.813-9.078C943.649,29.2,943.733,29.985,943.958,29.973Z" transform="translate(13215.563 109.533)" fill="#303030"/>
    <path id="Path_2163" data-name="Path 2163" d="M943.816,26.1a6.082,6.082,0,0,1-.3,1.45,15.3,15.3,0,0,1-3.035,2.557,23.047,23.047,0,0,1-5.43,2.529l-.714.23c-8,2.434-15.176-.034-18.914-1.872-1.608-2.861-3.642-6.9-3.564-9.556,0,0-.933-11.242,6.61-15.356a19.3,19.3,0,0,1,1.748-.854A20.235,20.235,0,0,1,927.841,3.5a15.142,15.142,0,0,1,10.2,3.226C942.135,10.269,944.277,20.145,943.816,26.1Z" transform="translate(13216.778 120.812)" fill="#dedede"/>
    <path id="Path_2164" data-name="Path 2164" d="M947.023,30.119a23.049,23.049,0,0,1-5.43,2.529c.866-8.471-2.81-19.229-7.206-24.383a9.033,9.033,0,0,0-7.628-3.018,20.236,20.236,0,0,1,7.622-1.737,21.323,21.323,0,0,1,4.384,2.726C945.646,11.7,947.242,23.908,947.023,30.119Z" transform="translate(13210.237 120.803)" fill="#fff"/>
    <path id="Path_2165" data-name="Path 2165" d="M926,22.172s.871-8.51,4.345-10.994a17.3,17.3,0,0,1,9.5-3.047c2.67-.191,5.261,1.962,6.672,4.418s2.99,10.68,2.248,13.237a7.987,7.987,0,0,1-5.475,5.655c-2.923.815-9.2,1.422-11.618,0A11.084,11.084,0,0,1,926,22.172Z" transform="translate(13210.57 118.785)" fill="#ed5b9c"/>
    <path id="Path_2166" data-name="Path 2166" d="M949.444,19.678c.236,1.624.393,8.673-3.9,10.629s-15.559,5.312-18.909-6.52c0,0,1.023-12.574,11.365-13.6a10.387,10.387,0,0,1,6.346,1.124C948.764,13.764,949.326,19.042,949.444,19.678Z" transform="translate(13210.29 117.912)" fill="url(#linear-gradient)"/>
    <path id="Path_2167" data-name="Path 2167" d="M905.718,61.635s-11.607,4.783-15.238,12.889-3.727,16.863,4.193,15,17.138-6.8,19.561-10.157S926.308,56.042,905.718,61.635Z" transform="translate(13227.165 95.78)" fill="#ededed"/>
    <path id="Path_2168" data-name="Path 2168" d="M891.9,124.249c-2.417.332-4.71-.292-5.986-2.451-3.024-5.1-3.794-22.877,1.124-29.723a6.093,6.093,0,0,1,3.485-2.574c5.312-1.3,5.34,4.469,5.34,4.469s4.845,16.9,5.1,22.36C901.1,119.859,896.3,123.647,891.9,124.249Z" transform="translate(13229.183 83.231)" fill="#ededed" stroke="#fff" stroke-miterlimit="10" stroke-width="1"/>
    <path id="Path_2169" data-name="Path 2169" d="M965.743,107.85a4.915,4.915,0,0,1-.742,1.563,17.536,17.536,0,0,0-1.248,2.063c-1.242,2.513-8.19,7.639-19.9,8.268-.388,0-.781.039-1.175.051h-2.254l-.332-.028-.309-.034-.264-.039-.349-.056c-.258-.045-.523-.1-.781-.157l-.562-.135-.562-.174-.506-.169a16.486,16.486,0,0,1-1.568-.652l-.18-.09c-.112-.051-.23-.112-.343-.174l-.5-.264a15.9,15.9,0,0,1-1.478-.911l-.478-.332-.349-.253-.27-.2-.63-.495-.433-.36-.511-.444-.506-.455c-.663-.618-1.3-1.27-1.9-1.934l-.332-.365c-.185-.214-.371-.422-.562-.641s-.455-.562-.669-.8-.506-.63-.742-.944c-.112-.146-.225-.287-.332-.438-.219-.292-.427-.562-.635-.866,5.5,3.569,4.457,7.015,15.176,9.252,3,.624,7.83-4.6,10.5-5.621a72.427,72.427,0,0,0,15.176-7.869,33.972,33.972,0,0,1,.562,3.7Z" transform="translate(13211.297 76.736)" fill="#807d7f"/>
    <path id="Path_2170" data-name="Path 2170" d="M942.772,12.9c-2.973-1.237-6.661,1.18-7.65,6.149s-4.294,4.041-5.908,3.232-.871,1.8-2.574,1.49a20.291,20.291,0,0,1,.877-4.07c1.214-3.766,4.041-8.892,10.489-9.556a13.456,13.456,0,0,1,2.777,0,9.14,9.14,0,0,1,3.569,1.124,6.284,6.284,0,0,1,1.012,1.3C946.021,13.674,945.734,14.146,942.772,12.9Z" transform="translate(13210.29 117.93)" fill="#ffd080"/>
    <path id="Path_2171" data-name="Path 2171" d="M941.465,10.175a20.474,20.474,0,0,1-4.131,1.4c-4.424,1.124-3.676,7.965-5.216,8.707s-.09-3.935-1.164-3.625-1.49,3.12-2.754,3.052c1.214-3.766,4.041-8.892,10.489-9.556a13.457,13.457,0,0,1,2.777.022Z" transform="translate(13209.606 117.921)" fill="#fff" opacity="0.55"/>
    <path id="Path_2172" data-name="Path 2172" d="M976.687,110.74a4.918,4.918,0,0,1-.742,1.563,17.5,17.5,0,0,0-1.248,2.063c-1.242,2.513-8.19,7.639-19.9,8.268-.388,0-.776.039-1.175.051h-2.254l-.332-.028-.309-.034-.264-.039-.349-.056c-.258-.045-.523-.1-.781-.157,3.035.242,6.7.3,8.4-.562C960.527,120.391,971.976,112.623,976.687,110.74Z" transform="translate(13200.354 73.846)" fill="#303030"/>
    <path id="Path_2173" data-name="Path 2173" d="M1023.82,10.283S1026,3.33,1029.654,2.15s3.788-.433,4.165.562.062,1.619-.933,1.8-1.124-.438-2.81,2.046-2.052,5.16-2.3,5.345A2.638,2.638,0,0,1,1023.82,10.283Z" transform="translate(13167.733 121.664)" fill="#ededed"/>
    <path id="Path_2174" data-name="Path 2174" d="M1029.227,12.088s4.188-5.48,7.824-5.34,3.507.843,3.519,1.844-.466,1.456-1.411,1.3-.854-.748-3.148.916-3.49,3.935-3.772,4A2.519,2.519,0,0,1,1029.227,12.088Z" transform="translate(13165.368 119.387)" fill="#ededed"/>
    <path id="Path_2175" data-name="Path 2175" d="M1032.637,16.329s5.267-4.452,8.791-3.536,3.243,1.574,3.041,2.558-.77,1.321-1.686.967-.674-.916-3.271.219-4.249,3.075-4.547,3.1A2.492,2.492,0,0,1,1032.637,16.329Z" transform="translate(13163.931 116.793)" fill="#ededed"/>
    <path id="Path_2176" data-name="Path 2176" d="M891.9,126.4c-2.417.332-4.71-.292-5.986-2.451-3.024-5.1-3.794-22.877,1.124-29.723-.944,5.475-1.877,13.293-.613,17.987A89.906,89.906,0,0,0,891.9,126.4Z" transform="translate(13229.183 81.076)" fill="#dedede"/>
    <path id="Path_2177" data-name="Path 2177" d="M1032.8,21.288s5.2-2.732,7.965-1.315,2.406,1.905,2.057,2.687-.888.956-1.557.495-.393-.882-2.766-.422a19.583,19.583,0,0,0-4.351,1.742A2.145,2.145,0,0,1,1032.8,21.288Z" transform="translate(13163.945 113.773)" fill="#ededed"/>
    <path id="Path_2178" data-name="Path 2178" d="M1021.024,14.07s1.332-1.394,4.148-.4c1.748.618,1.411,2.153,2.81,3.041s3.373,1.883,2.811,3.569.972,4.66-2.518,5.374c-3.311.675-3.991-2.1-3.991-2.1s-2.642-.169-3.5-.242C1015.218,22.861,1017.511,15.206,1021.024,14.07Z" transform="translate(13170.529 116.511)" fill="#cacaca"/>
    <path id="Path_2179" data-name="Path 2179" d="M977.3,101.6s5.773,4.137,6.829,9.235c0,0,.613-9.69,1.332-12.237s.1,20.308-.028,22.141C985.433,120.737,981.707,106.15,977.3,101.6Z" transform="translate(13188.105 79.251)" fill="#807d7f"/>
    <path id="Path_2180" data-name="Path 2180" d="M1017.4,17.152c-7.307,2.091-6.183-6.5-5.143-8.583.506-1.012,1.355-2.81,2.17-4.5A27.731,27.731,0,0,1,1016.48.261a1,1,0,0,1,.6-.275,7.128,7.128,0,0,1,3.069.719l.118.056c.809.371-.371,2.917-.989,4.5a2.247,2.247,0,0,0-.146.562c-.118,1.175,1.068,1.939,1.45,5.362C1021.033,15.061,1017.4,17.152,1017.4,17.152Z" transform="translate(13173.129 122.355)" fill="url(#linear-gradient-2)"/>
    <path id="Path_2181" data-name="Path 2181" d="M902.246,160.462c-2.563.461-8.431-1.866-8.712-2.248a2.461,2.461,0,0,0-.163-.242c-1.017-1.557-6.183-10.118-2.541-13.456a7.425,7.425,0,0,1,8.246-1.394l9.033,6.8a14.893,14.893,0,0,0,1.091,3.755,5.507,5.507,0,0,0,.365.624C910.6,155.8,904.8,160,902.246,160.462Z" transform="translate(13226.533 59.963)" fill="#ededed"/>
    <path id="Path_2182" data-name="Path 2182" d="M1021.591,5.286a2.249,2.249,0,0,0-.146.562c-1.225-.191-4.249-.641-4.7-1.686a27.71,27.71,0,0,1,2.052-3.811,1,1,0,0,1,.6-.275,7.128,7.128,0,0,1,3.069.719l.118.056C1023.389,1.189,1022.209,3.735,1021.591,5.286Z" transform="translate(13170.834 122.315)" fill="url(#linear-gradient-3)"/>
    <path id="Path_2183" data-name="Path 2183" d="M921.12,147.869c-.5,1.608-1.686,3.165-2.608,3.165-.635,0-1.945-.933-3.153-1.456a2.99,2.99,0,0,0-1.6-.315c-1.394.281-.562,1.866-3.165,0s-4.5-7.729-4.5-7.729-2.563-4.008,3.17-2.333a32.547,32.547,0,0,1,5.014,1.979C918.332,143.181,921.727,145.9,921.12,147.869Z" transform="translate(13219.537 61.562)" fill="url(#linear-gradient-4)"/>
    <path id="Path_2184" data-name="Path 2184" d="M926.115,149.729c-.5,1.608-1.686,3.165-2.608,3.165-.635,0-1.945-.933-3.153-1.456-.056-.365-.135-.776-.253-1.242-.512-2.1-3.024-1.726-3.165-2.333-.1-.444,1.439-3.328,2.316-4.823C923.327,145.041,926.722,147.762,926.115,149.729Z" transform="translate(13214.541 59.702)" fill="url(#linear-gradient-5)"/>
    <path id="Path_2185" data-name="Path 2185" d="M905.225,169.193c-2.563.461-8.431-1.866-8.712-2.248a2.455,2.455,0,0,0-.163-.242,26.84,26.84,0,0,1,15.828-4.294,5.528,5.528,0,0,0,.365.624C913.578,164.533,907.783,168.726,905.225,169.193Z" transform="translate(13223.555 51.232)" fill="#dedede"/>
    <path id="Path_2186" data-name="Path 2186" d="M967.38,47.344s15.637,8.206,13.4,41.741L981,99.557s4.255-19.212,1.321-31.882-8.651-22.59-11.416-23.1S967.729,46,967.729,46Z" transform="translate(13192.449 102.859)" fill="url(#linear-gradient-6)"/>
    <path id="Path_2187" data-name="Path 2187" d="M918.407,59.455s-.624-.112,2.462.343,24.732,5.093,35.541,41.364a7.793,7.793,0,0,1,.191,2.513c-.112,1.461-.09,2.428-.09,2.428s-9.409-26.9-25.154-34.816-17.908-8.853-19.516-9.128,2.276-1.124,3.862-2.04A4.238,4.238,0,0,1,918.407,59.455Z" transform="translate(13216.938 96.313)" fill="url(#linear-gradient-7)"/>
    <path id="Path_2188" data-name="Path 2188" d="M911.1,63.78s-.185.056-.393.826a2.671,2.671,0,0,0-.157,1.006l2.181-1.225S911.364,63.836,911.1,63.78Z" transform="translate(13217.337 94.411)" fill="url(#linear-gradient-8)"/>
    <path id="Path_2189" data-name="Path 2189" d="M888.69,71.883l1.456-5.947s1.242-1.225,1.8-1.085,1.54,2.248,1.54,2.248a8.84,8.84,0,0,0-2.1,1.276c-.511.562-1.259,4.688-1.259,4.688Z" transform="translate(13226.909 93.946)" fill="#ededed"/>
    <path id="Path_2190" data-name="Path 2190" d="M1024.325,202.194a83.312,83.312,0,0,1-1.045-14.294,7.585,7.585,0,0,0,1.388,2.9C1026.748,193.139,1025.933,200.238,1024.325,202.194Z" transform="translate(13167.971 40.057)" fill="#dedede"/>
    <path id="Path_2191" data-name="Path 2191" d="M827.013,282.335a147.266,147.266,0,0,1-36.137-38.672,11.4,11.4,0,0,1,.663-12.141A226.624,226.624,0,0,1,837.9,188.179a11.38,11.38,0,0,1,12.158.157,147.127,147.127,0,0,1,36.159,38.672,11.4,11.4,0,0,1-.658,12.141A226.608,226.608,0,0,1,839.2,282.492,11.427,11.427,0,0,1,827.013,282.335Z" transform="translate(13270.373 40.671)" fill="#449fd9"/>
    <path id="Path_2192" data-name="Path 2192" d="M831.724,282.092a172.737,172.737,0,0,1-32.1-34.332,10.613,10.613,0,0,1,.6-12.141A260.388,260.388,0,0,1,839,199.082a10.424,10.424,0,0,1,12.107.27,187,187,0,0,1,32.382,34.641,10.371,10.371,0,0,1-.562,12.091,260.4,260.4,0,0,1-39.059,36.232A10.587,10.587,0,0,1,831.724,282.092Z" transform="translate(13266.624 35.951)" fill="url(#linear-gradient-9)"/>
    <path id="Path_2193" data-name="Path 2193" d="M927.459,225.224a2.248,2.248,0,1,1,.982-2.265A2.248,2.248,0,0,1,927.459,225.224Z" transform="translate(13211.703 25.52)" fill="#fff" opacity="0.58"/>
    <path id="Path_2194" data-name="Path 2194" d="M927.736,225.434a1.445,1.445,0,1,1,.5-1.412A1.445,1.445,0,0,1,927.736,225.434Z" transform="translate(13210.903 24.742)" fill="#fff"/>
    <path id="Path_2195" data-name="Path 2195" d="M875.119,220.224l-1.366-1.315-2.535,2.2c-.809-.787-1.613-1.568-2.428-2.35q3.609-3.1,7.307-6.127,1.231,1.124,2.445,2.248l-2.709,2.288c.461.427.916.86,1.372,1.3q1.349-1.164,2.709-2.316c.8.759,1.6,1.512,2.4,2.248q-3.682,3.181-7.307,6.413-1.2-1.2-2.395-2.378Z" transform="translate(13235.623 29.227)" fill="#fff"/>
    <path id="Path_2196" data-name="Path 2196" d="M888.211,224c1.714,1.653,3.412,3.333,5.059,5.031l-2.012,1.821c-.905-.922-1.81-1.838-2.726-2.749l-.624.562q1.068,1.074,2.125,2.147l-1.99,1.8c-.708-.725-1.416-1.45-2.13-2.164l-.652.562c.916.927,1.827,1.855,2.732,2.81l-1.973,1.81q-2.529-2.631-5.109-5.216Q884.53,227.176,888.211,224Z" transform="translate(13230.315 24.248)" fill="#fff"/>
    <path id="Path_2197" data-name="Path 2197" d="M890.81,240.4q3.637-3.328,7.307-6.633,1.124,1.18,2.288,2.378-2.6,2.394-5.2,4.806l2.158,2.3-2.057,1.889Q893.081,242.763,890.81,240.4Z" transform="translate(13225.98 19.97)" fill="#fff"/>
    <path id="Path_2198" data-name="Path 2198" d="M899.5,249.505l7.195-6.745c.747.809,1.5,1.619,2.248,2.439l-5.121,4.885q1.062,1.164,2.113,2.338l-2,1.922Q901.726,251.888,899.5,249.505Z" transform="translate(13222.175 16.033)" fill="#fff"/>
    <path id="Path_2199" data-name="Path 2199" d="M912.289,256.059c2.574-2.484,4.581-2.541,6.638-.129s1.866,4.564-.607,7.071-4.469,2.49-6.621.062S909.708,258.566,912.289,256.059Zm3.839,4.373c1.062-1.057,1.574-1.731.854-2.569s-1.388-.332-2.462.72-1.568,1.754-.86,2.563S915.071,261.477,916.128,260.432Z" transform="translate(13217.486 11.042)" fill="#fff"/>
    <path id="Path_2200" data-name="Path 2200" d="M858.593,227.33q1.2,1.18,2.4,2.378-2.17,2.248-4.317,4.5l.185.191q2.49-1.821,5.008-3.62,1.31,1.31,2.608,2.625-2.052,2.327-4.07,4.682l.185.191q2.44-2.035,4.89-4.053,1.2,1.214,2.383,2.439-4,2.912-7.965,5.834l-3.429-3.625q2.023-2.2,4.053-4.373l-.09-.112q-2.389,1.821-4.744,3.659l-3.373-3.536Q855.44,230.871,858.593,227.33Z" transform="translate(13242.836 22.79)" fill="#fff"/>
    <path id="Path_2201" data-name="Path 2201" d="M872.211,248.728c2.625-2.411,4.738-2.428,6.987-.079s2.085,4.435-.562,6.886-4.71,2.468-6.959.073S869.586,251.14,872.211,248.728Zm4.086,4.3c1.124-1.029,1.647-1.686.871-2.5s-1.478-.337-2.586.691-1.613,1.686-.866,2.507S875.2,254.051,876.3,253.028Z" transform="translate(13235.046 14.219)" fill="#fff"/>
    <path id="Path_2202" data-name="Path 2202" d="M884.47,265.235l-.562-.607-1.855,1.742-2.333-2.5,7.212-6.745q1.411,1.5,2.81,3.018c1.934,2.091,2.366,3.581.225,5.621a3.382,3.382,0,0,1-2.81,1.169c-.59,1.006-1.186,2.007-1.776,3.007l-2.372-2.546,1.478-2.147ZM887.78,262l-.511-.562-1.405,1.321.562.613c.326.36.753.275,1.2-.146S888.157,262.414,887.78,262Z" transform="translate(13230.837 9.74)" fill="#fff"/>
    <path id="Path_2203" data-name="Path 2203" d="M890.74,275.745q3.586-3.372,7.133-6.745l2.277,2.518q-2.53,2.434-5.059,4.851,1.085,1.18,2.17,2.366l-1.99,1.889Q893,278.151,890.74,275.745Z" transform="translate(13226.011 4.542)" fill="#fff"/>
    <path id="Path_2204" data-name="Path 2204" d="M899.45,285.1q3.53-3.333,7.015-6.745c.911,1.029,1.827,2.069,2.732,3.1,2.248,2.569,2.091,4.626-.163,6.824s-4.328,2.484-6.661-.034Zm7.712-1.821-.4-.45q-1.512,1.461-3.024,2.912l.4.444c.939,1.04,1.6.528,2.6-.444s1.287-1.478.416-2.462Z" transform="translate(13222.197 0.448)" fill="#fff"/>
  </g>
</svg>
