<svg xmlns="http://www.w3.org/2000/svg" viewBox="0 0 19.261 19.261">
  <defs>
    <style>
      .cls-1 {
        fill:  rgba(32, 165, 222, 1);
      }
    </style>
  </defs>
  <path id="facebook" class="cls-1" d="M16.436,2.8a9.306,9.306,0,0,1,2.825,6.831,9.276,9.276,0,0,1-2.825,6.806,9.276,9.276,0,0,1-6.806,2.825A9.306,9.306,0,0,1,2.8,16.436,9.264,9.264,0,0,1,0,9.631,9.3,9.3,0,0,1,2.8,2.8,9.24,9.24,0,0,1,9.631,0,9.264,9.264,0,0,1,16.436,2.8ZM8.552,8.372a3.1,3.1,0,0,1,.8-2.144,2.579,2.579,0,0,1,2-.886h1.49V7.5h-1.49a.658.658,0,0,0-.642.642v1.49h2.132v2.132H10.709v5.29a7.131,7.131,0,0,0,4.212-2.132,7.217,7.217,0,0,0,2.209-5.29,7.193,7.193,0,0,0-2.209-5.316,7.26,7.26,0,0,0-5.29-2.183A7.235,7.235,0,0,0,4.315,4.315,7.235,7.235,0,0,0,2.132,9.631a7.26,7.26,0,0,0,2.183,5.29,7.149,7.149,0,0,0,4.238,2.132v-5.29H6.42V9.631H8.552Zm10.709,8.963" transform="translate(0 0)"/>
</svg>
