<svg xmlns="http://www.w3.org/2000/svg" viewBox="0 0 18.96 18.96">
  <defs>
    <style>
      .cls-1 {
        fill:rgba(32, 165, 222, 1);
      }
    </style>
  </defs>
  <path id="twitter" class="cls-1" d="M9.48,0a9.133,9.133,0,0,0-6.7,2.777A9.133,9.133,0,0,0,0,9.48a9.133,9.133,0,0,0,2.777,6.7,9.133,9.133,0,0,0,6.7,2.777,9.133,9.133,0,0,0,6.7-2.777,9.133,9.133,0,0,0,2.777-6.7,9.133,9.133,0,0,0-2.777-6.7A9.133,9.133,0,0,0,9.48,0Zm4.7,7.369a1.217,1.217,0,0,1,.037.3,6.745,6.745,0,0,1-1.815,4.573,6.149,6.149,0,0,1-4.851,2.055A6.493,6.493,0,0,1,4,13.257a3.933,3.933,0,0,0,.555.037,4.614,4.614,0,0,0,2.888-1,2.421,2.421,0,0,1-1.37-.481,2.248,2.248,0,0,1-.815-1.148A2.7,2.7,0,0,0,5.7,10.7a2.907,2.907,0,0,0,.63-.074,2.442,2.442,0,0,1-1.352-.815,2.21,2.21,0,0,1-.537-1.481V8.295a2.008,2.008,0,0,0,1.074.3A2.19,2.19,0,0,1,4.444,6.666a2.265,2.265,0,0,1,.333-1.185A6.329,6.329,0,0,0,9.591,7.925a2.014,2.014,0,0,1-.074-.555A2.339,2.339,0,0,1,11.85,5.036a2.189,2.189,0,0,1,1.7.741,4.282,4.282,0,0,0,1.481-.555,2.205,2.205,0,0,1-1,1.3,4.5,4.5,0,0,0,1.333-.37A5.059,5.059,0,0,1,14.183,7.369ZM18.96,17.775" transform="translate(0 0)"/>
</svg>
