<svg xmlns="http://www.w3.org/2000/svg" xmlns:xlink="http://www.w3.org/1999/xlink" viewBox="0 0 1609.177 538.368">
  <defs>
    <style>
      .cls-1 {
        fill: #5ac5f6;
      }

      .cls-2 {
        fill: #e6faff;
      }

      .cls-3 {
        fill: #f4dfce;
      }

      .cls-4 {
        fill: #555655;
      }

      .cls-5 {
        fill: #ff8e8e;
      }

      .cls-6 {
        fill: #80bf85;
      }

      .cls-7 {
        fill: #ffd680;
      }

      .cls-8 {
        fill: #45ffb3;
        opacity: 0.32;
      }

      .cls-9 {
        fill: url(#linear-gradient);
      }

      .cls-10 {
        fill: url(#linear-gradient-2);
      }

      .cls-11 {
        fill: #4cb6a3;
      }

      .cls-12 {
        fill: #d8a980;
      }

      .cls-12, .cls-19 {
        stroke: #fff;
        stroke-width: 2px;
      }

      .cls-13 {
        fill: url(#linear-gradient-3);
      }

      .cls-14 {
        fill: #866037;
      }

      .cls-15, .cls-19 {
        fill: #bc8b66;
      }

      .cls-16 {
        fill: #fff;
      }

      .cls-17 {
        fill: url(#linear-gradient-4);
      }

      .cls-18 {
        fill: #2b2b2b;
      }
    </style>
    <linearGradient id="linear-gradient" x1="0.991" y1="-0.173" x2="0.268" y2="0.967" gradientUnits="objectBoundingBox">
      <stop offset="0" stop-color="#ffb0ff"/>
      <stop offset="0.1" stop-color="#f5b2ff"/>
      <stop offset="0.26" stop-color="#dbb9ff"/>
      <stop offset="0.47" stop-color="#b0c4ff"/>
      <stop offset="0.72" stop-color="#75d3ff"/>
      <stop offset="0.99" stop-color="#2ae6ff"/>
      <stop offset="1" stop-color="#29e6ff"/>
    </linearGradient>
    <linearGradient id="linear-gradient-2" x1="1.393" y1="0.198" x2="-2.102" y2="1.765" xlink:href="#linear-gradient"/>
    <linearGradient id="linear-gradient-3" y1="0.5" x2="1" y2="0.5" gradientUnits="objectBoundingBox">
      <stop offset="0" stop-color="#ffdbff"/>
      <stop offset="0.06" stop-color="#e3dcff"/>
      <stop offset="0.19" stop-color="#b2dfff"/>
      <stop offset="0.32" stop-color="#88e1ff"/>
      <stop offset="0.45" stop-color="#66e3ff"/>
      <stop offset="0.58" stop-color="#4be4ff"/>
      <stop offset="0.71" stop-color="#38e5ff"/>
      <stop offset="0.85" stop-color="#2de6ff"/>
      <stop offset="1" stop-color="#29e6ff"/>
    </linearGradient>
    <linearGradient id="linear-gradient-4" x1="0.127" y1="0.5" x2="0.873" y2="0.5" xlink:href="#linear-gradient-3"/>
  </defs>
  <g id="Group_202" data-name="Group 202" transform="translate(-6806.526 995.217)">
    <g id="Group_201" data-name="Group 201">
      <path id="Path_1804" data-name="Path 1804" class="cls-1" d="M1218.712,221.93l8.13-47.33h-2.689l-8.583,47.33Z" transform="translate(6544.381 -1060.114)"/>
      <path id="Path_1805" data-name="Path 1805" class="cls-2" d="M92.871,213.193s278.566,43.014,453.135,139.893-373.968,59.871-424.861,19.936S-35.347,204.522,92.871,213.193Z" transform="translate(6984.38 -1074.303)"/>
      <path id="Path_1806" data-name="Path 1806" class="cls-3" d="M144.176,530.271S-6.377,402.182,80.079,314.236s323.144-1.364,467.369,36.267,185.232,86.456,294.785,52.678,407.885-18.148,577.831,53.409S1314.118,603.416,1273.237,606.4s-1056.006-.06-1076.13-34.284S144.176,530.271,144.176,530.271Z" transform="translate(6753.226 -1122.839)"/>
      <rect id="Rectangle_219" data-name="Rectangle 219" class="cls-4" width="234.032" height="133.66" transform="translate(7717.942 -804.13)"/>
      <path id="Path_1807" data-name="Path 1807" class="cls-5" d="M1234.16,467.562l18.057-24.2,18.592,24.2Z" transform="translate(6537.472 -1160.01)"/>
      <path id="Path_1808" data-name="Path 1808" class="cls-5" d="M1292.49,467.562l18.051-24.2,18.592,24.2Z" transform="translate(6515.791 -1160.01)"/>
      <path id="Path_1809" data-name="Path 1809" class="cls-5" d="M1350.81,470.157l10.675-14.307,6.61-3.16,4.135-2.35,15.224,19.817Z" transform="translate(6494.114 -1162.605)"/>
      <path id="Path_1810" data-name="Path 1810" class="cls-5" d="M1409.13,467.562l18.057-24.2,18.592,24.2Z" transform="translate(6472.437 -1160.01)"/>
      <path id="Path_1811" data-name="Path 1811" class="cls-5" d="M1501.215,463.805v3.757H1467.45l18.058-24.2Z" transform="translate(6450.759 -1160.01)"/>
      <path id="Path_1812" data-name="Path 1812" class="cls-6" d="M1248.98,162.52s-123.437,63.9-139.484,88.975,5.592,8.419,5.592,8.419-8.168,19.93-1.885,17.5,23.876-13.628,23.876-13.628-2.513,25.981,4.4,18.906,38.955-25.3,38.955-25.3-2.513,27.344,1.885,25.3,24.5-9.161,24.5-9.161,3.77,12.478,11.938,9.167,21.362-6.541,21.362-6.541,3.368,10.053,8.8,6.534,18-11.693,18-11.693,6.7,18.56,14.658,11.693S1291.812,271,1291.812,271s14.451,19.314,17.831,12.7,5.862-16.688,7.961-12.7,16.336,10.153,18.007,3.091,6.861-12.51,10.342-11.253,14.634,18.259,17.3,13.32,7.54-13.32,8.8-11.643,13.823,4.606,18.849,0-18.849-20.941-18.849-20.941,21.784,12.478,21.784,7.917S1306.344,172.366,1248.98,162.52Z" transform="translate(6586.01 -1055.624)"/>
      <path id="Path_1813" data-name="Path 1813" class="cls-7" d="M1382.745,423.33v1.954c-9.745,2.758-21.5-1.527-33.74-5.994-3.079-1.118-6.283-2.281-9.425-3.343-14.413-4.8-23.876,1.181-35.908,8.752a145.175,145.175,0,0,1-15.557,8.872,16.8,16.8,0,0,1-7.276,1.7c-6.61,0-12.6-4.09-18.849-8.363-9.821-6.7-19.968-13.622-34.136-6.069-20.935,11.165-31.9,5.228-43.51-1.062a97.788,97.788,0,0,0-11.938-5.755c-7.188-2.727-14.112-1.131-20.6,4.731a34.811,34.811,0,0,0-3.091,3.186v-2.8c.559-.584,1.156-1.169,1.791-1.747,6.955-6.314,14.759-8.086,22.563-5.127a98.088,98.088,0,0,1,12.164,5.862c11.636,6.283,21.689,11.737,41.719,1.056,15.18-8.093,26.288-.515,36.09,6.17,8.357,5.7,15.576,10.625,24.272,6.509a142.676,142.676,0,0,0,15.343-8.8c11.938-7.54,22.248-14.03,37.5-8.941,3.2,1.068,6.4,2.23,9.494,3.361C1362.244,422.111,1373.572,426.245,1382.745,423.33Z" transform="translate(6569.229 -1147.935)"/>
      <path id="Path_1814" data-name="Path 1814" class="cls-5" d="M1382.745,416.66v1.954c-9.745,2.765-21.5-1.527-33.74-5.988-3.079-1.125-6.283-2.287-9.425-3.343-14.413-4.807-23.876,1.175-35.908,8.746a145.146,145.146,0,0,1-15.544,8.9,16.814,16.814,0,0,1-7.288,1.734c-6.61,0-12.6-4.1-18.849-8.369-9.821-6.7-19.968-13.622-34.136-6.063-20.935,11.159-31.9,5.221-43.51-1.062a95.97,95.97,0,0,0-11.938-5.755c-7.188-2.727-14.112-1.137-20.6,4.725a34.814,34.814,0,0,0-3.091,3.185v-2.8c.559-.584,1.156-1.175,1.791-1.747,6.955-6.321,14.759-8.093,22.563-5.133a98.99,98.99,0,0,1,12.164,5.862c11.636,6.283,21.689,11.743,41.719,1.056,15.18-8.093,26.288-.515,36.09,6.176,8.357,5.7,15.576,10.625,24.272,6.509a142.648,142.648,0,0,0,15.343-8.8c11.938-7.54,22.248-14.03,37.5-8.941,3.2,1.068,6.4,2.23,9.494,3.361C1362.244,415.466,1373.572,419.6,1382.745,416.66Z" transform="translate(6569.229 -1145.474)"/>
      <path id="Path_1815" data-name="Path 1815" class="cls-7" d="M1382.753,436.2v1.954c-9.745,2.765-21.5-1.527-33.74-5.988-3.079-1.125-6.283-2.287-9.425-3.343-14.413-4.807-23.876,1.175-35.908,8.746a145.152,145.152,0,0,1-15.544,8.9,16.815,16.815,0,0,1-7.276,1.709c-6.609,0-12.6-4.1-18.849-8.369-9.821-6.7-19.968-13.622-34.136-6.063-20.935,11.159-31.9,5.221-43.51-1.062a96.007,96.007,0,0,0-11.938-5.755c-7.188-2.727-14.112-1.137-20.6,4.725a34.774,34.774,0,0,0-3.091,3.186v-2.8c.559-.584,1.156-1.175,1.79-1.747,6.956-6.321,14.759-8.093,22.563-5.133a99.023,99.023,0,0,1,12.164,5.862c11.636,6.283,21.683,11.743,41.719,1.056,15.18-8.093,26.288-.515,36.09,6.176,8.356,5.7,15.569,10.625,24.271,6.509a142.6,142.6,0,0,0,15.343-8.8c11.938-7.54,22.249-14.03,37.5-8.941,3.2,1.068,6.4,2.237,9.494,3.361C1362.251,434.986,1373.579,439.12,1382.753,436.2Z" transform="translate(6569.222 -1152.73)"/>
      <path id="Path_1816" data-name="Path 1816" class="cls-5" d="M1382.738,429.615v1.954c-9.745,2.758-21.5-1.527-33.74-5.994-3.079-1.118-6.283-2.281-9.425-3.343-14.413-4.8-23.876,1.181-35.908,8.752a145.127,145.127,0,0,1-15.544,8.9,16.8,16.8,0,0,1-7.288,1.671c-6.61,0-12.6-4.09-18.849-8.363-9.833-6.717-19.98-13.628-34.149-6.088-20.935,11.165-31.9,5.228-43.51-1.062a97.791,97.791,0,0,0-11.938-5.755c-7.188-2.727-14.112-1.131-20.6,4.731a36.419,36.419,0,0,0-3.091,3.186v-2.8c.559-.584,1.156-1.169,1.791-1.747,6.955-6.314,14.759-8.086,22.562-5.127a98.09,98.09,0,0,1,12.164,5.862c11.636,6.283,21.683,11.737,41.72,1.056,15.18-8.093,26.288-.515,36.09,6.17,8.357,5.705,15.57,10.631,24.272,6.509a142.641,142.641,0,0,0,15.343-8.8c11.938-7.54,22.248-14.03,37.5-8.941,3.2,1.068,6.4,2.231,9.494,3.361C1362.236,428.358,1373.565,432.5,1382.738,429.615Z" transform="translate(6569.236 -1150.261)"/>
      <path id="Path_1817" data-name="Path 1817" class="cls-8" d="M1264.363,168.86s-124.229,76.685-118.574,76.911,91.55-49.687,91.55-49.687-81.919,70.628-69.742,65.6,72.255-54.468,71.445-52.074-54.035,74.021-35.185,61.869,43.981-50.616,43.981-50.616-31.415,81.592-13.823,52.5,23.662-53.186,23.662-53.186-3.556,49.215,3.141,50.893,5.969-49.429,7.226-57.8S1264.363,168.86,1264.363,168.86Z" transform="translate(6570.388 -1057.981)"/>
      <path id="Path_1818" data-name="Path 1818" class="cls-5" d="M1148.71,504.367l15.758-21.117,16.223,21.117Z" transform="translate(6569.233 -1174.837)"/>
      <path id="Path_1819" data-name="Path 1819" class="cls-5" d="M1175.84,467.562l18.051-24.2,18.592,24.2Z" transform="translate(6559.148 -1160.01)"/>
      <path id="Path_1820" data-name="Path 1820" class="cls-5" d="M1208.71,504.367l15.758-21.117,16.223,21.117Z" transform="translate(6546.931 -1174.837)"/>
      <path id="Path_1821" data-name="Path 1821" class="cls-7" d="M1180.358,448.36l-10.907,14.627-11.24-14.627Z" transform="translate(6565.702 -1161.869)"/>
      <path id="Path_1822" data-name="Path 1822" class="cls-7" d="M1297.008,448.36l-10.914,14.627L1274.86,448.36Z" transform="translate(6522.344 -1161.869)"/>
      <path id="Path_1823" data-name="Path 1823" class="cls-7" d="M1349.337,456.4l-4.913,6.591L1333.19,448.36l7.621,6.151Z" transform="translate(6500.663 -1161.869)"/>
      <path id="Path_1824" data-name="Path 1824" class="cls-7" d="M1413.658,448.36l-10.914,14.627L1391.51,448.36Z" transform="translate(6478.986 -1161.869)"/>
      <path id="Path_1825" data-name="Path 1825" class="cls-7" d="M1471.978,448.36l-10.914,14.627L1449.83,448.36Z" transform="translate(6457.309 -1161.869)"/>
      <path id="Path_1826" data-name="Path 1826" class="cls-7" d="M1236.134,445.041l-10.914,14.627-15.55-20.238,13.232,5.611Z" transform="translate(6546.574 -1158.55)"/>
      <path id="Path_1827" data-name="Path 1827" class="cls-5" d="M1268.71,504.367l15.758-21.117,16.223,21.117Z" transform="translate(6524.63 -1174.837)"/>
      <path id="Path_1828" data-name="Path 1828" class="cls-5" d="M1328.71,504.367l15.758-21.117,16.223,21.117Z" transform="translate(6502.328 -1174.837)"/>
      <path id="Path_1829" data-name="Path 1829" class="cls-5" d="M1388.71,504.367l15.758-21.117,16.223,21.117Z" transform="translate(6480.026 -1174.837)"/>
      <path id="Path_1830" data-name="Path 1830" class="cls-5" d="M1448.71,504.367l15.758-21.117,16.223,21.117Z" transform="translate(6457.725 -1174.837)"/>
      <path id="Path_1831" data-name="Path 1831" class="cls-7" d="M1272.574,442.7l-3.864-4.92s9-3.927,14.941-4.555,12.064,2.073,12.064,2.073l2.67,1.791-3.663,5.611Z" transform="translate(6524.63 -1156.208)"/>
      <path id="Path_1832" data-name="Path 1832" class="cls-7" d="M1391.068,440.618l-.748-1.15s12.956-7.935,16.569-9.192,11.309-3.142,13.578-2.67l3.23.4-10.48,12.616-9.073,4.8Z" transform="translate(6479.428 -1154.127)"/>
      <path id="Path_1833" data-name="Path 1833" class="cls-7" d="M1445.131,440.818l-7.942-9.651,3-3.1,9.016,2.073,16.883,6.051,3.77,1.464-2.583,3.142s-13.6,5.41-14.225,4.8S1445.131,440.818,1445.131,440.818Z" transform="translate(6462.007 -1154.327)"/>
      <path id="Path_1834" data-name="Path 1834" class="cls-7" d="M1177.291,439.966l6.283-7.829s-9.267-6.516-15.236-6.358-7.772.452-12.566,2.859-4.945,3.927-4.945,3.927l-.867.754,5.2,6.647,8.941,3.594Z" transform="translate(6568.768 -1153.474)"/>
      <path id="Path_1835" data-name="Path 1835" class="cls-9" d="M2005.561,431.324c-.05-.553,0-1.106,0-1.671V247.111c-.672,0-1.345-.044-2,0-1,.119-2.362-.528-2.727,1.112-.9,3.99-2.651,7.778-2.632,11.994.044,9.425-.038,18.912-.044,28.368v19.358c0,.93.333,2.1-1.257,2.18-1.715.075-1.621-1.081-1.646-2.224-.119-4.744.553-9.544-.986-14.187.333-14.451-.208-28.839-.993-43.24-.421-7.684.553-5.793-2.978-13.157a2.329,2.329,0,0,1-.1-.986c.044-2.714-1.64-4.781-2.715-7.056-.54-1.162-4.222-1.753-5.07-.968-.521.478-.245,1.03-.063,1.533.44,1.257.955,2.513,1.376,3.77.735,2.218.628,2.388-1.834,2.469-1.438.057-2.89.082-4.329,0-1.659-.1-2.626.44-2.369,2.237.245,1.665-.528,3.179-.6,4.781,0,.521-.044.735-.528.93-1.665.666-2.1,1.552-1.885,3.512.069.66-.038,1.332,0,1.992.509,5.121-.829,10.116-.98,15.174-.176,5.655-.082,11.347-.031,17.021,0,1.59-.358,2.67-2.2,2.457-.32-.038-.628-.075-.968-.1h0L1954.536,259.1h-48.776l-17.687,32.747a2.734,2.734,0,0,0-1.439.628c-1.615,1.477-.371,4.2-.628,6.365-.094.741.3,1.954-.5,2.1-2.13.4-1.452,1.935-1.47,3.1-.063,4.568,0,9.123-.038,13.685,0,.377.189,1.005-.352,1.056-.629.063-.5-.628-.541-.993-.069-.779-.037-1.565-.107-2.331-.057-.584-.314-1.087-1.018-1.043-.515.038-.71.4-.873.842-.421,1.175.541,2.639-.792,3.6-.515-1.156-.119-2.394-.289-3.581-.088-.628-.415-1.012-1.074-.968s-.886.553-.911,1.15c0,.886,0,1.772-.063,2.664s-.628,1.03-1.37,1.03-1.332-.163-1.414-1.024a17.445,17.445,0,0,1-.082-1.992v-9.676c0-1.137.057-2.249-1.583-2.394-1.389-.113-3.179.628-4.065-.666s-.245-3.035-.327-4.574a14.934,14.934,0,0,1,0-1.678c.063-1.294-.3-2.243-1.834-2.029-1.885.258-2.287-.628-2.237-2.3.044-1.772.628-4.009-2.463-3.9-.163,0-.415-.477-.484-.76-.49-1.828-1.885-1.257-2.513-.584-1.256,1.395-3.311,2.513-2.67,5.077a16.882,16.882,0,0,1,0,3.983c0,5.51,0,5.51-5.435,5.485-4.122,0-3.456-.044-3.462-3.374q-.057-21.871-.069-43.724c0-2.884-.038-2.922-2.922-2.928q-9.5-.038-19.019,0c-3.041,0-3.073.038-3.079,3.179v28.374c0,.886.251,1.941-.144,2.626a14.288,14.288,0,0,0-1.885,8.168c.063,1.043-.446,1.715-1.583,1.627-2.268-.17-2.469,1.219-2.438,2.972.063,3.443,0,6.911.044,10.348,0,1.288-.49,1.753-1.433,1.759V233.8h.32V217.461c0-2.281-.063-2.312-2.086-1.037-3.1,1.941-6.158,3.971-9.268,5.906-2.35,1.451-2.658,1.313-2.658-1.257,0-18.064.421-36.14-.867-54.2-.088-1.213-.107-2.432-.214-3.638,0-.3-.088-.754-.522-.71-.107,0-.232.534-.232.829,0,3.223.1,6.446,0,9.67-.283,7.734,1.03,15.557-1.257,23.191a10.166,10.166,0,0,0-.107,2.325c-.383,8.8-.81,17.517-1.1,26.288a3.849,3.849,0,0,1-2.174,3.7c-3.405,1.885-6.729,3.883-10.053,5.862-.874.528-1.734,1.049-2.79.628-1.885-.754-2.356,0-2.312,1.822.082,3.142.151,46.7.151,73.28h-4.586c-2.865,0-2.884.063-2.909,3.06V324.2c0,1.42-.628,1.954-2,1.96a2.105,2.105,0,0,1-1.351-.339V432.732h232.788a9.205,9.205,0,0,1,2,0C2005.68,433.084,2005.618,432.261,2005.561,431.324ZM1935.14,262.687v23.065h-10.053V262.687Zm-32.188,19.4,7.188-19.4h6.836l-5.127,19.478a3.97,3.97,0,0,0-1.049-.113q-3.921.038-7.841,0Zm46.175,2.9h0l-5.9-22.3h6.842l7.973,21.526h0c-2.959.245-5.937.584-8.916.773Z" transform="translate(6338.49 -1055.626)"/>
      <path id="Path_1836" data-name="Path 1836" class="cls-10" d="M2035.127,192.953h-2.155V177.183h2.155l-6.384-17.932H2025.8V120.5s0-11.473-9.318-11.473V9.827A5.026,5.026,0,0,0,2015.021,0V3.965c-1.432,0-1.432,2.513-1.432,2.513v5.711h-2.149V2.136h-.722V12.189h-2.149V5.315a3.627,3.627,0,0,0-1.432-.3,3.588,3.588,0,0,0-1.439,6.874V109.03c-10.052,0-9.318,11.473-9.318,11.473v38.729h-3.663l-6.4,17.951h2.149v15.771h-2.149v3.581h48.807Zm-11.479-4.3h-5.737V177.183h5.737Zm-5.737-63.842v34.425h-6.453V86.788h2.149V116.2s4.272,0,4.272,8.608Zm-9.324-94.686h2.149v25.8h-2.149Zm5.027,25.823h-2.149V30.121h2.149Zm-5.027,1.439h2.149V85.356h-2.149Zm2.872,0h2.149V85.356h-2.149ZM2016.1,4.1a1.428,1.428,0,1,1,1.081,2.356,1.464,1.464,0,0,1-.886-.3,1.425,1.425,0,0,1-.553-1.131,1.4,1.4,0,0,1,.327-.924Zm-2.513,9.531V28.707h-2.149V13.628Zm-2.871,0V28.707h-2.149V13.628Zm-4.3-5.743a.723.723,0,1,1-.682.339A.723.723,0,0,1,2006.413,7.885Zm-2.155,151.347V124.807c0-8.608,4.3-8.608,4.3-8.608V86.788h2.149v72.45h-6.453Zm-2.161,17.951v11.479h-5.737V177.183Z" transform="translate(6257.899 -995.217)"/>
      <path id="Path_1837" data-name="Path 1837" class="cls-11" d="M1498.261,114.19c-8.646-1.257-17.706,2.614-23.3,9.33s-7.766,15.953-6.509,24.6a23.093,23.093,0,0,1,.534,6.314c-.628,4.618-4.681,7.879-8.438,10.625l-9.833,7.207c-2.2,1.6-4.555,3.462-5.064,6.139-.685,3.613,2.419,6.911,5.755,8.463s7.125,2.061,10.292,3.927c7.062,4.153,8.941,13.716,7.671,21.809-.591,3.8-1.715,7.54-2.061,11.353s.182,7.948,2.513,10.989,6.911,4.587,10.248,2.67c2.513-1.426,3.77-4.3,4.518-7.068,3.55-12.937,0-28.318,8.388-38.811,3.77-4.769,10-8.52,10.323-14.614.226-4.4-2.859-8.237-6.214-11.064s-7.238-5.209-9.645-8.884a14.961,14.961,0,0,1-1.257-13.791c1.131-2.67,3.047-5.026,3.72-7.822,1.357-5.655-2.652-11.888-.478-17.31,1.96-4.895,8.438-6.7,13.433-5.026s8.67,5.931,11.586,10.323Z" transform="translate(6458.896 -1037.076)"/>
      <path id="Path_1838" data-name="Path 1838" class="cls-11" d="M1536.181,97.73c5.956-6.4,15.444-9.041,24.014-7.307a31.579,31.579,0,0,1,20.489,15.079,23.618,23.618,0,0,0,3.544,5.259c3.361,3.217,8.576,3.211,13.194,3.01l12.177-.54c2.72-.119,5.724-.145,7.791,1.621,2.8,2.394,2.444,6.911.81,10.2s-4.266,6.069-5.573,9.506c-2.9,7.659,1.615,16.292,7.665,21.809,2.84,2.595,6.044,4.794,8.715,7.571s4.825,6.283,4.895,10.16-2.513,7.892-6.315,8.488c-2.84.452-5.623-1-7.948-2.683-10.87-7.866-17.75-22.066-30.831-25.025-5.95-1.338-13.138-.383-17.2-4.932-2.922-3.28-2.928-8.218-2.08-12.522s2.381-8.6,1.96-12.962a14.949,14.949,0,0,0-7.665-11.536c-2.551-1.376-5.51-2-7.8-3.77-4.618-3.581-5.372-10.933-10.461-13.823-4.593-2.589-10.776.057-13.609,4.5s-3.054,10.053-2.576,15.306Z" transform="translate(6427.813 -1028.633)"/>
      <path id="Path_947" data-name="Path 947" class="cls-12" d="M277.23,473.636c0-14.452,18.163-27.727,47.262-34.548,121.988-28.6,458.763-91.971,756.8-4.341,267.323,78.6,548.735,16.836,548.735,16.836l35.9,30.27L317.791,491.11c-10.7.072-21.02-1.738-28.645-5.025s-11.918-7.775-11.916-12.459Z" transform="translate(6578.294 -1098.333)"/>
      <path id="Path_1839" data-name="Path 1839" class="cls-13" d="M856.526,543.27s-131.461,43.366-235.54,79.374c-59.356,20.539-109.822,38.685-121.923,45.031-33.3,17.473-132.265,47.751-232.97,36.442-52.489-5.893-122.765-12.472-177.905-19.559C37.527,678.055-.366,671.124,0,663.9c.773-15.079,21-63.7,37.215-67.857,0,0,138.435-38.741,297.29-38.848s221.371-8.9,291.29-7.647S856.526,543.27,856.526,543.27Z" transform="translate(6996.201 -1197.146)"/>
      <path id="Path_1840" data-name="Path 1840" class="cls-11" d="M1603.23,401.491l30.228-32.5,7.848,10.556,16-16.336,9.575,8.124,25.3-17.008s15.456,20.954,15.456,10.38,3.343-31.591,3.343-31.591l25.9-116.978L1763.8,330.906l17.354-26,5.07,13.791,8.878-6.095,26.075,22.807,19.974-18.881,15.708,13.546,30.479-25.17s29.153-3.3,31.038-5.315,20.665-31.415,20.665-31.415,7.609,21.771,10.436,24.177,17.907-12.3,17.907-12.3l31.095,39.747s21.916,46.9,8.131,72.657-55.247,51.565-106.14,58.741S1619.962,426.836,1603.23,401.491Z" transform="translate(6400.291 -1075.555)"/>
      <path id="Path_1841" data-name="Path 1841" class="cls-1" d="M673.158,645.172C613.8,665.711,563.336,683.857,551.235,690.2c-33.3,17.473-132.265,47.751-232.97,36.442-52.489-5.893-122.765-12.472-177.905-19.559,47.18-21.143,144.511-60.751,224.079-67.147,109.47-8.8,187.336-36.9,221.918-36.04C611.729,604.527,652.99,631.079,673.158,645.172Z" transform="translate(6944.029 -1219.674)"/>
      <path id="Path_1842" data-name="Path 1842" class="cls-14" d="M1618.489,304.673c-1.319,15.236-5.887,40.274-9.921,60.581-3.638,18.3-6.836,32.766-6.836,32.766s-26.81,8.8-35.185,3.77,23.04-60.732,23.04-60.732l11.372-38.415,7.7-1.225-7.226-2.23c4.084-22.619-.942-56.51-.942-56.51l5.3-5.064-6.245,1.257-4.712-22.3,4.712-5.341L1594.2,212.9c-9.217-23.461-38.955-72.048-38.955-72.048s4.712-4.084,5.183-4.084,9.268,13.716,14.922,19.163,19.478,30.712,19.478,30.712l-5.341,2.589,6.8-.628a108.848,108.848,0,0,1,8,17.712C1615.272,236.859,1620.55,280.916,1618.489,304.673Z" transform="translate(6418.125 -1046.053)"/>
      <path id="Path_1843" data-name="Path 1843" class="cls-15" d="M1642.021,345.8c-1.319,15.236-5.887,40.275-9.921,60.581-7.54.817-13.54,1.351-13.54,1.351S1642.436,347,1633.225,295.9c-4.631-25.66-5.6-40.275-5.41-48.468C1638.8,277.991,1644.082,322.048,1642.021,345.8Z" transform="translate(6394.593 -1087.185)"/>
      <path id="Path_1845" data-name="Path 1845" class="cls-16" d="M513.23,602.023s37.7-6.836,66.6-8.865,62.391-4.618,62.391-4.618,7.747,3.223-19.239,6-40.526,2.595-36.5,4.279,24.762-2.821,28.952-.358-31.415,8.57-41.468,7.986-18.667-2.155-12.277-4.8,12.924-3.726,10.153-4.071S504.1,607.314,513.23,602.023Z" transform="translate(6805.762 -1213.973)"/>
      <path id="Path_1846" data-name="Path 1846" class="cls-6" d="M1534.541,100.66s-7.54-22.619,1.885-35.814,33.721-15.394,52.363,5.969,15.808,38.013,15.808,38.013-34.557-15.356-40.526-27.017l14.137-8.5-18.849,5.284a32.718,32.718,0,0,1-11.624-8.111c-5.026-5.655-3.022,9.048-9.424,12.88l-3.456,2.042s-.628,11.674,4.4,19.32-3.456,5.5-3.613,5.026S1534.541,100.66,1534.541,100.66Z" transform="translate(6426.884 -1015.598)"/>
      <circle id="Ellipse_76" data-name="Ellipse 76" class="cls-3" cx="8.507" cy="8.507" r="8.507" transform="translate(7950.064 -934.88)"/>
      <circle id="Ellipse_77" data-name="Ellipse 77" class="cls-15" cx="8.507" cy="8.507" r="8.507" transform="translate(7962.788 -932.958)"/>
      <path id="Path_1851" data-name="Path 1851" class="cls-11" d="M1545.762,120.975s-10.681-15.394-16.336-15.708-11.938,16.964-2.2,36.743,1.256,40.538,15.708,52.476c0,0,10.053-9.11,8.8-28.274h-8.8l11.31-6.283s-2.042-21.677-4.084-28.274l-14.451,4.084,12.409-10.681Z" transform="translate(6430.427 -1034.342)"/>
      <ellipse id="Ellipse_78" data-name="Ellipse 78" class="cls-17" cx="47.921" cy="15.884" rx="47.921" ry="15.884" transform="translate(7690.407 -834.716) rotate(-45)"/>
      <ellipse id="Ellipse_79" data-name="Ellipse 79" class="cls-1" cx="45.76" cy="13.207" rx="45.76" ry="13.207" transform="translate(7692.367 -835.822) rotate(-45)"/>
      <rect id="Rectangle_220" data-name="Rectangle 220" class="cls-18" width="77.703" height="20.106" rx="3.67" transform="translate(7798.825 -764.804)"/>
      <path id="Path_1852" data-name="Path 1852" class="cls-7" d="M1298.037,385.69a16.93,16.93,0,0,1-3.537.427c-3.619,0-4.7-1.257-4.7-5.755,0-4.342,1.049-5.692,4.87-5.692a22.109,22.109,0,0,1,3.368.446l-.094,2.941a24.738,24.738,0,0,0-2.513-.163c-1.464,0-1.778.3-1.778,2.469s.333,2.513,1.778,2.513c1.169,0,2.57-.1,2.57-.1Z" transform="translate(6516.791 -1134.479)"/>
      <path id="Path_1853" data-name="Path 1853" class="cls-7" d="M1303.47,380.394c0-4.015,1.577-5.724,5.246-5.724s5.246,1.709,5.246,5.724-1.577,5.724-5.246,5.724S1303.47,384.409,1303.47,380.394Zm6.641,0c0-1.7-.132-2.633-1.395-2.633s-1.4.936-1.4,2.633.183,2.633,1.4,2.633,1.37-.955,1.37-2.633Z" transform="translate(6511.709 -1134.479)"/>
      <path id="Path_1854" data-name="Path 1854" class="cls-7" d="M1321.369,375h5.655l.854,4.21.71-4.21h5.837V386.02h-3.814v-5.655h-.182l-.955,5.561h-3.192l-.936-5.561h-.182v5.655h-3.814Z" transform="translate(6505.063 -1134.602)"/>
      <path id="Path_1855" data-name="Path 1855" class="cls-7" d="M1343.77,375h8.256v3.041h-4.442v.942h3.455v3.01h-3.455v.986h4.442v3.041h-8.256Z" transform="translate(6496.73 -1134.602)"/>
      <path id="Path_1856" data-name="Path 1856" class="cls-7" d="M1363.77,375h3.82V386.02h-3.82Z" transform="translate(6489.296 -1134.602)"/>
      <path id="Path_1857" data-name="Path 1857" class="cls-7" d="M1371.409,375h3.77l2.513,4.178h.233V375h3.814V386.02h-3.77l-2.513-4.492h-.245v4.492h-3.82Z" transform="translate(6486.464 -1134.602)"/>
    </g>
    <g id="Group_200" data-name="Group 200">
      <path id="Path_1844" data-name="Path 1844" class="cls-19" d="M619.915,549.61s382.554-119.484,582.267-108.787,320.505-26.461,394.835-67.585,114.14-11.528,134.041,39.091,55.438,215.634-55.438,234.114-1163.76,0-1163.76,0S511.86,578.743,619.915,549.61Z" transform="translate(6662.019 -1124.737)"/>
      <path id="Path_1847" data-name="Path 1847" class="cls-1" d="M549.37,795.214S389.346,807.573,421.05,774.292s53.771-31.133,159.59-38.81,590.32,0,590.32,0-6.233,34.557-84.193,52.093S572.454,824.914,549.37,795.214Z" transform="translate(6841.244 -1267.322)"/>
    </g>
  </g>
</svg>
