<svg xmlns="http://www.w3.org/2000/svg" viewBox="0 0 477.588 420.237">
  <defs>
    <style>
      .cls-1 {
        fill: #80bf85;
      }

      .cls-2 {
        fill: #666;
      }
    </style>
  </defs>
  <g id="Group_199" data-name="Group 199" transform="translate(-7900.648 892.319)">
    <path id="Path_1848" data-name="Path 1848" class="cls-1" d="M1954.145,499.079s-12.083,1.923-25.956,4.631c-14.552,2.846-31.082,6.56-37.7,9.827-9.148,4.505-40.212-11.787-62.893-21.991-9.456-4.266-17.442-7.471-21.758-7.665-14.665-.66-77.709,19.044-77.709,19.044l37.818-94.416,13.194,7.646,34.871-69.843,10.26,13.785,53.249-196.327Z" transform="translate(6353.867 -1056.089)"/>
    <path id="Path_1849" data-name="Path 1849" class="cls-2" d="M1987.032,560.995c-14.552,2.846-31.082,6.56-37.7,9.827-9.148,4.5-40.212-11.787-62.893-21.991l40.727-230.941,21.363,209.032,12.566-61.128Z" transform="translate(6295.023 -1113.374)"/>
    <path id="Path_1850" data-name="Path 1850" class="cls-2" d="M1449.113,746.726s148.551-69.164,208.868-74.14,100.529,7.81,124.4,6.428,140.741,23.467,134.458,58.8-273.383,36.586-354.083,34.073S1413.608,762.572,1449.113,746.726Z" transform="translate(6461.148 -1244.782)"/>
  </g>
</svg>
