<svg xmlns="http://www.w3.org/2000/svg" viewBox="0 0 14.106 14.107">
  <defs>
    <style>
      .cls-1 {
        fill: #848e9a;
      }
    </style>
  </defs>
  <path id="link_d_in_grey" data-name="link&apos;d in grey" class="cls-1" d="M0,7.053A6.908,6.908,0,0,1,.558,4.313,6.915,6.915,0,0,1,4.313.558a7,7,0,0,1,5.481,0,6.915,6.915,0,0,1,3.754,3.754,7,7,0,0,1,0,5.481,6.915,6.915,0,0,1-3.754,3.754,7,7,0,0,1-5.481,0A6.915,6.915,0,0,1,.558,9.794,6.908,6.908,0,0,1,0,7.053Zm3.416,2.27a1.3,1.3,0,0,0,.4.962,1.323,1.323,0,0,0,.966.4H9.331a1.323,1.323,0,0,0,.966-.4,1.3,1.3,0,0,0,.4-.962V4.776a1.3,1.3,0,0,0-.4-.962,1.323,1.323,0,0,0-.966-.4H4.783a1.323,1.323,0,0,0-.966.4,1.3,1.3,0,0,0-.4.962Zm1.22,0V6.3A.153.153,0,0,1,4.68,6.19a.136.136,0,0,1,.1-.048h.911a.136.136,0,0,1,.1.048.153.153,0,0,1,.044.107V9.324A.153.153,0,0,1,5.8,9.43a.136.136,0,0,1-.1.048H4.783a.136.136,0,0,1-.1-.048A.153.153,0,0,1,4.636,9.324Zm0-4.114A.57.57,0,0,1,4.809,4.8a.552.552,0,0,1,.408-.176.59.59,0,0,1,.588.588.56.56,0,0,1-.169.411.572.572,0,0,1-.419.176.583.583,0,0,1-.58-.588ZM6.15,9.324V6.275a.109.109,0,0,1,.07-.1.291.291,0,0,1,.136-.037h.838a.149.149,0,0,1,.169.169q0-.022.059-.059a1.39,1.39,0,0,1,.757-.213,1.37,1.37,0,0,1,.959.312,1.177,1.177,0,0,1,.342.915V9.324a.153.153,0,0,1-.044.107.136.136,0,0,1-.1.048H8.449a.181.181,0,0,1-.121-.048.139.139,0,0,1-.055-.107V7.465A.606.606,0,0,0,8.2,7.112a.354.354,0,0,0-.3-.1q-.536,0-.536.661V9.324a.153.153,0,0,1-.044.107.129.129,0,0,1-.1.048H6.355a.241.241,0,0,1-.136-.048A.133.133,0,0,1,6.15,9.324Zm7.957,3.1"/>
</svg>
