<svg xmlns="http://www.w3.org/2000/svg" viewBox="0 0 13.921 13.921">
  <defs>
    <style>
      .cls-1 {
        fill: #848e9a;
      }
    </style>
  </defs>
  <path id="twitter_grey" data-name="twitter grey" class="cls-1" d="M6.96,0A6.706,6.706,0,0,0,2.039,2.039,6.706,6.706,0,0,0,0,6.96a6.706,6.706,0,0,0,2.039,4.921A6.706,6.706,0,0,0,6.96,13.921a6.706,6.706,0,0,0,4.921-2.039A6.706,6.706,0,0,0,13.921,6.96a6.706,6.706,0,0,0-2.039-4.921A6.706,6.706,0,0,0,6.96,0Zm3.453,5.411a.894.894,0,0,1,.027.218A4.953,4.953,0,0,1,9.108,8.986a4.515,4.515,0,0,1-3.562,1.509,4.767,4.767,0,0,1-2.61-.761,2.888,2.888,0,0,0,.408.027,3.388,3.388,0,0,0,2.121-.734,1.778,1.778,0,0,1-1.006-.353,1.651,1.651,0,0,1-.6-.843,1.981,1.981,0,0,0,.326.027A2.134,2.134,0,0,0,4.649,7.8a1.793,1.793,0,0,1-.992-.6,1.623,1.623,0,0,1-.394-1.088V6.09a1.474,1.474,0,0,0,.788.218,1.608,1.608,0,0,1-.788-1.414,1.663,1.663,0,0,1,.245-.87A4.647,4.647,0,0,0,7.042,5.818a1.479,1.479,0,0,1-.054-.408A1.717,1.717,0,0,1,8.7,3.7a1.608,1.608,0,0,1,1.251.544,3.144,3.144,0,0,0,1.088-.408,1.619,1.619,0,0,1-.734.952,3.3,3.3,0,0,0,.979-.272A3.715,3.715,0,0,1,10.413,5.411Zm3.507,7.64"/>
</svg>
