<svg xmlns="http://www.w3.org/2000/svg" viewBox="0 0 18.755 18.755">
  <defs>
    <style>
      .cls-1 {
        fill: rgba(32, 165, 222, 1);
      }
    </style>
  </defs>
  <path id="instagram" class="cls-1" d="M9.377,0a9.035,9.035,0,0,0-6.63,2.747A9.035,9.035,0,0,0,0,9.377a9.035,9.035,0,0,0,2.747,6.63,9.035,9.035,0,0,0,6.63,2.747,9.035,9.035,0,0,0,6.63-2.747,9.035,9.035,0,0,0,2.747-6.63,9.035,9.035,0,0,0-2.747-6.63A9.035,9.035,0,0,0,9.377,0Zm5.861,11.758a3.44,3.44,0,0,1-3.48,3.48H7a3.289,3.289,0,0,1-2.418-.989,3.561,3.561,0,0,1-1.062-2.418V6.923A3.357,3.357,0,0,1,4.579,4.506,3.368,3.368,0,0,1,7,3.517h4.762A3.44,3.44,0,0,1,15.238,7Zm-3.48-7.07H7A2.314,2.314,0,0,0,4.689,7v4.762A2.314,2.314,0,0,0,7,14.066h4.762a2.314,2.314,0,0,0,2.308-2.308V7a2.212,2.212,0,0,0-.7-1.612A2.212,2.212,0,0,0,11.758,4.689ZM9.524,12.6a2.956,2.956,0,0,1-2.161-.916,3.008,3.008,0,0,1,0-4.322,3.008,3.008,0,0,1,4.322,0,3.008,3.008,0,0,1,0,4.322A2.956,2.956,0,0,1,9.524,12.6Zm2.93-5.568a.751.751,0,1,1,.513-.22A.7.7,0,0,1,12.454,7.033ZM11.392,9.524A1.865,1.865,0,0,0,8.205,8.205a1.865,1.865,0,1,0,2.637,2.637A1.8,1.8,0,0,0,11.392,9.524Zm7.363,9.231" transform="translate(0 0)"/>
</svg>
