<svg xmlns="http://www.w3.org/2000/svg" width="22.779" height="20.692" viewBox="0 0 22.779 20.692">
  <path id="e9ae" d="M20.4,18.922l-4.658-4.658a8.618,8.618,0,0,0,1.358-2.5,8.832,8.832,0,0,0,.509-2.984,8.408,8.408,0,0,0-.7-3.42,8.617,8.617,0,0,0-1.88-2.79,9.206,9.206,0,0,0-2.8-1.892A8.666,8.666,0,0,0,8.806,0a8.666,8.666,0,0,0-3.42.679,9.206,9.206,0,0,0-2.8,1.892A8.617,8.617,0,0,0,.7,5.361,8.408,8.408,0,0,0,0,8.782a8.467,8.467,0,0,0,.7,3.445,8.617,8.617,0,0,0,1.88,2.79,9.206,9.206,0,0,0,2.8,1.892,8.666,8.666,0,0,0,3.42.679,8.423,8.423,0,0,0,2.935-.509,10.4,10.4,0,0,0,2.547-1.358l4.658,4.658a1,1,0,0,0,.376.243.886.886,0,0,0,.7,0,1.016,1.016,0,0,0,.376-1.7ZM2.086,8.782A6.813,6.813,0,0,1,2.6,6.162,7.056,7.056,0,0,1,4.039,4.027,6.408,6.408,0,0,1,6.186,2.6a6.432,6.432,0,0,1,2.62-.534,6.432,6.432,0,0,1,2.62.534,6.408,6.408,0,0,1,2.147,1.431,7.056,7.056,0,0,1,1.443,2.135,6.813,6.813,0,0,1,.509,2.62A6.617,6.617,0,0,1,13.56,13.56h0A6.774,6.774,0,0,1,11.426,15a6.561,6.561,0,0,1-2.62.522,6.432,6.432,0,0,1-2.62-.534A6.727,6.727,0,0,1,2.6,11.4,6.7,6.7,0,0,1,2.086,8.782ZM22.779,20.692" fill="#555655"/>
</svg>
