<svg xmlns="http://www.w3.org/2000/svg" width="22.843" height="24.209" viewBox="0 0 22.843 24.209">
  <path id="e891" d="M18.432,15.649a4.089,4.089,0,0,1-1.287,1.287,9.3,9.3,0,0,1-2.048,1,15.1,15.1,0,0,1-2.639.656,19.1,19.1,0,0,1-3.059.236,19.1,19.1,0,0,1-3.059-.236A15.1,15.1,0,0,1,3.7,17.933a9.3,9.3,0,0,1-2.048-1A4.089,4.089,0,0,1,.368,15.649q-.184-.289-.276-.21A.294.294,0,0,0,0,15.675v2.678A3.136,3.136,0,0,0,.735,20.3,6.979,6.979,0,0,0,2.744,21.99a12.353,12.353,0,0,0,2.993,1.221,13.769,13.769,0,0,0,3.663.473,13.769,13.769,0,0,0,3.663-.473,12.353,12.353,0,0,0,2.993-1.221A6.979,6.979,0,0,0,18.065,20.3a3.136,3.136,0,0,0,.735-1.943V15.675a.294.294,0,0,0-.092-.236Q18.616,15.36,18.432,15.649Zm.026-6.879a3.874,3.874,0,0,1-1.287,1.142,9.67,9.67,0,0,1-2.048.88,17.135,17.135,0,0,1-2.639.578,21.632,21.632,0,0,1-3.085.21,21.632,21.632,0,0,1-3.085-.21,17.135,17.135,0,0,1-2.639-.578,9.67,9.67,0,0,1-2.048-.88A3.874,3.874,0,0,1,.341,8.77Q.158,8.533.079,8.6A.212.212,0,0,0,0,8.77v3.177a2.389,2.389,0,0,0,.735,1.667A6.513,6.513,0,0,0,2.744,14.98a12.84,12.84,0,0,0,2.993.919,19.527,19.527,0,0,0,3.663.328,19.527,19.527,0,0,0,3.663-.328,12.84,12.84,0,0,0,2.993-.919,6.513,6.513,0,0,0,2.009-1.365,2.389,2.389,0,0,0,.735-1.667V8.77a.212.212,0,0,0-.079-.171Q18.642,8.533,18.459,8.77ZM9.4,0A22.118,22.118,0,0,0,5.737.289a16.523,16.523,0,0,0-2.993.761A6.436,6.436,0,0,0,.735,2.166,1.839,1.839,0,0,0,0,3.545V5.251A1.975,1.975,0,0,0,.735,6.7,6.486,6.486,0,0,0,2.744,7.89,15.028,15.028,0,0,0,5.737,8.7a21.178,21.178,0,0,0,3.663.3,21.178,21.178,0,0,0,3.663-.3,15.028,15.028,0,0,0,2.993-.814A6.486,6.486,0,0,0,18.065,6.7,1.975,1.975,0,0,0,18.8,5.251V3.545a1.839,1.839,0,0,0-.735-1.378A6.436,6.436,0,0,0,16.056,1.05,16.523,16.523,0,0,0,13.063.289,22.118,22.118,0,0,0,9.4,0ZM22.843,24.209" fill="#536477"/>
</svg>
