<svg xmlns="http://www.w3.org/2000/svg" viewBox="0 0 139.285 632.375">
  <defs>
    <style>
      .cls-1 {
        fill: #33a3e1;
      }

      .cls-2 {
        fill: #bf8e66;
      }

      .cls-3 {
        fill: #dbac82;
      }

      .cls-4 {
        fill: #efefef;
      }

      .cls-5 {
        fill: #5ac8f9;
      }
    </style>
  </defs>
  <g id="bottom_hand" data-name="bottom hand" transform="translate(-7929.378 -5891.494)">
    <path id="Path_1423" data-name="Path 1423" class="cls-1" d="M416.687,1943.032a8.49,8.49,0,0,1-6.8-13.57c.165-.217,16.65-22.485,35.5-60.587,17.353-35.079,40.333-91.156,51.238-159.111,6-37.39,12.664-92.246,10.377-141.239-1.382-29.277-16.292-44.578-16.334-44.71-1.415-4.476,12.014-7.363,16.509-8.759s18.867.509,20.249,4.986c.712,2.283,7.57,58.016-13.995,192.411-11.273,70.252-35.041,128.169-52.993,164.38-19.513,39.352-36.206,61.851-36.9,62.79a8.49,8.49,0,0,1-6.853,3.411Z" transform="translate(7521.176 4580.837)"/>
    <path id="Path_1434" data-name="Path 1434" class="cls-2" d="M468.806,1137.14c.066-13.056,7.745-13.311,1-30.687s-.8-14.749-.8-14.749-2.552-7.1-1.033-9.151,6.306,5,15.414,27.537,13.811,38.39,13.811,38.39,14.358,22.787,38.678,79.162q1.047,2.42,2.113,4.924c25.579,59.974-41.324-.608-41.324-.608s-16.079-78.157-15.929-79.133S468.74,1150.2,468.806,1137.14Z" transform="translate(7490.334 4809.278)"/>
    <path id="Path_1435" data-name="Path 1435" class="cls-3" d="M488.7,1164.516c-5.509-9.047-2.8-11.273-1.656-16.448s-3.547-23.787-7.25-35.489a93.759,93.759,0,0,0-9.768-20.876s-2.552-7.1-1.033-9.151,6.306,5,15.414,27.537,13.811,38.39,13.811,38.39,14.358,22.787,38.678,79.162c-7.372,5.632-17.745,11.716-25.155,8.547-12.735-5.443-13.207-23.862-15.565-34.857C495.2,1196.67,494.21,1173.563,488.7,1164.516Z" transform="translate(7489.316 4809.279)"/>
    <rect id="Rectangle_193" data-name="Rectangle 193" class="cls-4" width="20.98" height="2.99" transform="translate(7990.928 5961.702) rotate(160.22)"/>
    <path id="Path_1436" data-name="Path 1436" class="cls-3" d="M465.049,1158.783s2.24-5.528-4.245-11.834-.259-7.429-.259-7.429,7.915,4,11.622,8.019,6.132,9.33,8.391,12.858,4.811,20.282.368,19.81S459.809,1184.608,465.049,1158.783Z" transform="translate(7494.945 4779.003)"/>
    <path id="Path_1437" data-name="Path 1437" class="cls-1" d="M514.439,1412.657l-9.2-48.262c-.08-.439-.156-.882-.226-1.321l81.27-15.495c.094.429.189.868.274,1.311l9.2,48.257a41.391,41.391,0,1,1-81.317,15.509Z" transform="translate(7470.031 4669.081)"/>
    <path id="Path_1438" data-name="Path 1438" class="cls-5" d="M608.469,1442.443l-13.155-68.992a6.316,6.316,0,0,1,5.019-7.386l21.763-4.151a6.316,6.316,0,0,1,7.386,5.023l7.957,41.725a34.843,34.843,0,0,1-20.282,38.409,6.311,6.311,0,0,1-8.688-4.627Z" transform="translate(7422.381 4661.567)"/>
    <path id="Path_1439" data-name="Path 1439" class="cls-1" d="M652.822,1777.65H623.95a5.66,5.66,0,1,1,0-11.32h28.871a5.66,5.66,0,0,1,0,11.32Z" transform="translate(7410.182 4447.846)"/>
    <path id="Path_1440" data-name="Path 1440" class="cls-1" d="M540.343,2049.45H511.49a5.66,5.66,0,0,1,0-11.32h28.852a5.66,5.66,0,1,1,0,11.32Z" transform="translate(7469.597 4304.248)"/>
    <path id="Path_1441" data-name="Path 1441" class="cls-1" d="M509.752,2321.45H480.88a5.66,5.66,0,0,1,0-11.32h28.871a5.66,5.66,0,0,1,0,11.32Z" transform="translate(7485.769 4160.544)"/>
  </g>
</svg>
