<svg xmlns="http://www.w3.org/2000/svg" xmlns:xlink="http://www.w3.org/1999/xlink" viewBox="0 0 436.536 167.089">
  <defs>
    <style>
      .cls-1 {
        fill: url(#linear-gradient);
      }

      .cls-2 {
        fill: #936037;
      }

      .cls-3 {
        fill: #555655;
      }

      .cls-4 {
        fill: #666;
      }

      .cls-5 {
        fill: url(#linear-gradient-2);
      }

      .cls-6 {
        fill: #9e5b49;
      }

      .cls-7 {
        fill: #894e3a;
      }

      .cls-8 {
        fill: #663927;
      }

      .cls-9 {
        stroke: #f4f5f8;
        stroke-miterlimit: 10;
        fill: url(#linear-gradient-3);
      }

      .cls-10 {
        fill: url(#linear-gradient-4);
      }

      .cls-11 {
        fill: #f4f5f8;
      }

      .cls-12 {
        fill: #bbbcbb;
      }

      .cls-13 {
        fill: #f2f2f2;
      }

      .cls-14 {
        fill: none;
        stroke: #663927;
        stroke-linecap: round;
      }
    </style>
    <linearGradient id="linear-gradient" x1="0.637" y1="0.542" x2="-0.724" y2="1.336" gradientUnits="objectBoundingBox">
      <stop offset="0" stop-color="#fff" stop-opacity="0"/>
      <stop offset="0.02" stop-color="#fff" stop-opacity="0.039"/>
      <stop offset="0.14" stop-color="#fff" stop-opacity="0.259"/>
      <stop offset="0.25" stop-color="#fff" stop-opacity="0.459"/>
      <stop offset="0.37" stop-color="#fff" stop-opacity="0.631"/>
      <stop offset="0.49" stop-color="#fff" stop-opacity="0.761"/>
      <stop offset="0.61" stop-color="#fff" stop-opacity="0.871"/>
      <stop offset="0.74" stop-color="#fff" stop-opacity="0.941"/>
      <stop offset="0.87" stop-color="#fff" stop-opacity="0.988"/>
      <stop offset="1" stop-color="#fff"/>
    </linearGradient>
    <linearGradient id="linear-gradient-2" x1="0.826" y1="-0.162" x2="0.368" y2="1.103" gradientUnits="objectBoundingBox">
      <stop offset="0" stop-color="#ffe8ff"/>
      <stop offset="0.1" stop-color="#f9d1f1"/>
      <stop offset="0.27" stop-color="#f1afdc"/>
      <stop offset="0.44" stop-color="#eb94cb"/>
      <stop offset="0.62" stop-color="#e781bf"/>
      <stop offset="0.8" stop-color="#e476b8"/>
      <stop offset="1" stop-color="#e372b6"/>
    </linearGradient>
    <linearGradient id="linear-gradient-3" x1="0.001" y1="0.5" x2="1" y2="0.5" gradientUnits="objectBoundingBox">
      <stop offset="0" stop-color="#ffe8ff"/>
      <stop offset="0.06" stop-color="#e3e8ff"/>
      <stop offset="0.19" stop-color="#b2e7ff"/>
      <stop offset="0.32" stop-color="#88e7ff"/>
      <stop offset="0.45" stop-color="#66e7ff"/>
      <stop offset="0.58" stop-color="#4be6ff"/>
      <stop offset="0.71" stop-color="#38e6ff"/>
      <stop offset="0.85" stop-color="#2de6ff"/>
      <stop offset="1" stop-color="#29e6ff"/>
    </linearGradient>
    <linearGradient id="linear-gradient-4" x1="0.857" y1="1.652" x2="-0.019" y2="-0.324" xlink:href="#linear-gradient-2"/>
  </defs>
  <g id="baby_girl_on_laptop" data-name="baby girl on laptop" transform="translate(-601.716 -310.379)">
    <path id="Path_420" data-name="Path 420" class="cls-1" d="M325.078,1130.031l180.67-98.761L543.6,1148.586,358.77,1185.347S317.931,1154.952,325.078,1130.031Z" transform="translate(288.204 -720.891)"/>
    <path id="Path_421" data-name="Path 421" class="cls-2" d="M887.007,1140.328s-6.5-10.222-4.177-12.875,15.923-10.733,15.923-10.733,2.3-13.745,16.535-17.669c4.393-1.213.86,2.278-.923,6.593s-11.023,15.095-12.379,18.064-1.909,11.15-1.909,11.15S891.295,1140.049,887.007,1140.328Z" transform="translate(24.466 -752.807)"/>
    <path id="Path_422" data-name="Path 422" class="cls-3" d="M867.707,1233.041s15.253.121,19.947-3.634a116.656,116.656,0,0,1-5.8-24.372c-1.667-13.476-2.3-16.54-2.3-16.54s10.6-1.155,12.01-2.864c0,0,6.624,17.827,14.715,31.767,9.657,16.646,7.3,25.928,3.745,27.774s-44.436-3.824-45.491-5.406S862.069,1233.99,867.707,1233.041Z" transform="translate(33.333 -793.837)"/>
    <path id="Path_423" data-name="Path 423" class="cls-4" d="M733.748,1241.042s20.38-24.7,43.55-8.776c0,0,8.4,4.082,19.736,15.3a67.653,67.653,0,0,0,35.206,13.634c20.965,1.646,30.448-1.26,40.48,0s26.139,8.966,37.88,14.335,18.6,2.284,18.6,2.284-32.906,3.281-62.236.886-59.641-2.933-67.025-2.933-43.513,1.187-48.655,1.055-13.149,0-17.252-1.767S719.776,1245.889,733.748,1241.042Z" transform="translate(98.052 -813.347)"/>
    <path id="Path_424" data-name="Path 424" class="cls-2" d="M441.078,1298.811l17.236-10.079a140.237,140.237,0,0,1,24.262-4.6c12.922-1.208,21.055-2.031,25.032-5.137,0,0,5.274,11.672,5.206,14.04s-4.657,2.943-4.657,2.943-11.166.7-14.726.306-16.35-4.879-20.438-4.615-6.593.675-8.5,1.624-13.914,4.42-18.924,6.213S440.287,1300.688,441.078,1298.811Z" transform="translate(233.148 -837.956)"/>
    <path id="Path_425" data-name="Path 425" class="cls-5" d="M567.391,1219.106s4.219-17.458,8.439-30.944c2.11-6.772,4.256-12.547,5.86-14.594,4.789-6.118,10.364-7.057,15.338,4.652s13.017,36.123,24.441,39.557,16.793.612,20.216-.527,11.076-6.577,13.882-4.462,3.84,20.206,2.526,27.569-2.405,9.383-6.567,9.061-18.133-2.11-33.919-.77-44.494,3.56-51.35-3.935-.417-18.6.628-24.826Z" transform="translate(175.305 -786.042)"/>
    <path id="Path_426" data-name="Path 426" class="cls-2" d="M528.353,1102.93a29.327,29.327,0,0,0-4.631,8.439c-1.208,4.167-2.11,8.908-8.439,10.738s-7.384,4.794-5.127,6.213,3.1.823,3.692,6.1.464,11.962.86,12.51,8.819,2.068,15.491-.311c0,0,2.178,2.505,8.043,5.274s4.879,24,4.552,26.108-.923,8.5-.923,8.5a135.431,135.431,0,0,0,5.274-16.746c2.3-9.425,6.493-24.657,9.019-28.339,0,0-.385,2.463-4.968.6s-5.021-5.723-4.647-6.677,1.582-.259,2.442-2.437a5.675,5.675,0,0,0-3.017-6.983c-3.049-1.456-9.114-9.7-9.114-9.7Z" transform="translate(200.857 -754.755)"/>
    <path id="Path_427" data-name="Path 427" class="cls-6" d="M615.638,1098.962s7.2-6.9,2.8-12.1-2.827-8.529-5.464-11.6-2.516-8.518-5.2-9.968-7.7,1.983-9.7-1.35-1.64-5.8-7.2-4.351-4.13,7.147-4.473,8.861,1.055,16.878,1.756,18.46,5.063,5.949,5.723,6.4S615.638,1098.962,615.638,1098.962Z" transform="translate(164.337 -734.073)"/>
    <path id="Path_428" data-name="Path 428" class="cls-7" d="M593.973,1094.254s3.924-2.3,7.126-.527.443,2.31,3.845,4.6,5.079-.649,10.364,6.725,5.274,6.329,3.692,11.139,3.644,5.385,1.123,9.277-4.219,11.514-11.909,11.878-8.571-4.362-11.73-4.32-8.286,1.751-11.013-1.524-2.674-8.2-2.674-8.2l-.427-4.873Z" transform="translate(166.218 -750.088)"/>
    <path id="Path_429" data-name="Path 429" class="cls-8" d="M546.114,1080.638c.206-.723-4.847-9.014-1.508-9.03a19.13,19.13,0,0,1,5.058.527s-4.182-9.035,3.755-8.592l2.326-3.291s-.723-6.2,4.488-1.693c0,0,5.564-1.878,6.055,1.477,0,0,.454-.211,1.055,1.123s-.105,4.008,3.871,6.909c0,0-1.086,2.337,1.92,7.495s11.973,7.384,11.835,12.025-.237,7.273,1.055,8.645-1.535,9.019-12.658,8.5-9.81,2.859-15.121-3.945S546.114,1080.638,546.114,1080.638Z" transform="translate(184.605 -733.012)"/>
    <path id="Path_430" data-name="Path 430" class="cls-9" d="M556.7,1120.189s-12.078-22.975-14.241-24.109c0,0-3.608,2.236-3.507,3.038S552.3,1115.669,556.7,1120.189Z" transform="translate(186.739 -751.518)"/>
    <path id="Path_431" data-name="Path 431" class="cls-10" d="M583.9,1218.673s-.074-29.156,10.76-33.94c0,0,4.884-5.8,9.3,3.339a170.436,170.436,0,0,1,7.806,19.953,64.069,64.069,0,0,0-6.688,3.3c-4.615,2.505-9.694,7.057-17.062,7.352S583.9,1218.673,583.9,1218.673Z" transform="translate(165.832 -792.555)"/>
    <path id="Path_432" data-name="Path 432" class="cls-11" d="M692.349,1119.019a.659.659,0,1,0-.659-.659A.659.659,0,0,0,692.349,1119.019Z" transform="translate(114.556 -761.735)"/>
    <path id="Path_433" data-name="Path 433" class="cls-11" d="M525.839,1109.218c-3.555,2.8-3.982,6.967-5.749,10.844a9.056,9.056,0,0,1-5.174,4.937,22.283,22.283,0,0,0-4.858,2.068,3.308,3.308,0,0,0-1.762,2.669c.095,1.751,2,1.582,2.964,2.685,1.619,1.82,1.656,5.559,1.872,7.843.269,2.822.411,5.649.823,8.439.121.833,1.392.48,1.271-.354-.733-5.026-.375-10.4-2.068-15.253-.454-1.3-1.261-1.661-2.178-2.637-.137-.142-.475-.074-.6-.216-1.055-1.208-.2-1.714.564-2.2a14.476,14.476,0,0,1,2.917-1.308c3.2-1.166,5.68-2.563,7.231-5.76,1.841-3.787,2.147-8.075,5.675-10.849.67-.527-.269-1.45-.934-.928Z" transform="translate(201.224 -757.641)"/>
    <path id="Path_434" data-name="Path 434" class="cls-11" d="M572.987,1144.329c1.74,1,3.692,2.147,4.71,3.966a3.692,3.692,0,0,1-4.831,5.216c-.77-.348-1.44.786-.665,1.134,3.107,1.4,6.857-.127,7.326-3.729.491-3.692-3.091-6.129-5.876-7.727a.659.659,0,0,0-.665,1.139Z" transform="translate(171.186 -773.738)"/>
    <path id="Path_435" data-name="Path 435" class="cls-11" d="M517.3,1178.662c-1.25.527-1.266,1.825-.121,2.558,2.215,1.419,6.551,1.287,9.061,1.166a28.776,28.776,0,0,0,17.6-7.147c.638-.564-.3-1.492-.934-.933a27.121,27.121,0,0,1-18.307,6.788,26.093,26.093,0,0,1-3.9-.337,21.132,21.132,0,0,0-3.049-.823C518.429,1179.616,518.086,1178.35,517.3,1178.662Z" transform="translate(197.421 -788.403)"/>
    <path id="Path_436" data-name="Path 436" class="cls-11" d="M548.805,1187.443c2.247,2.015,5.206,2.679,7.574,4.473,2.859,2.162,3.254,5.844,4.119,9.087a.66.66,0,1,0,1.271-.353c-.765-2.864-1.171-6.044-3.117-8.439-2.321-2.827-6.245-3.333-8.914-5.728-.633-.564-1.582.364-.934.934Z" transform="translate(182.182 -794.157)"/>
    <path id="Path_437" data-name="Path 437" class="cls-11" d="M578.34,1162c.053,4.43,4.119,7.584,8.138,8.529a.659.659,0,0,0,.348-1.271c-3.428-.8-7.12-3.418-7.168-7.257a.659.659,0,0,0-1.319,0Z" transform="translate(168.122 -782.358)"/>
    <path id="Path_438" data-name="Path 438" class="cls-11" d="M566.921,1209.581c3.75,12.932-.622,25.733-2.9,38.444-.791,4.409-1.619,9.916,1.245,13.776,1.983,2.669,5.227,4.051,8.323,4.953,8.966,2.595,19.1,2.853,28.291,1.978,6.15-.585,12.242-1.387,18.428-1.371,6.44,0,12.875.079,19.309.137,2.637,0,5.19.09,7.806.348a23.794,23.794,0,0,0,6.445.148c4.172-.775,4.277-5.459,4.277-8.882a.659.659,0,1,0-1.319,0c0,1.851.153,4.167-.781,5.839-1.255,2.231-3.972,1.941-6.187,1.793-4.457-.3-8.808-.527-13.291-.591-5.754-.047-11.519-.127-17.273-.116a163.616,163.616,0,0,0-16.45,1.282,84.658,84.658,0,0,1-26.719-1.287c-3.423-.759-7.3-1.92-9.594-4.747-3.534-4.378-1.582-11.672-.475-16.619,2.637-11.482,5.512-23.771,2.11-35.422a.659.659,0,0,0-1.271.348Z" transform="translate(175.243 -804.776)"/>
    <path id="Path_439" data-name="Path 439" class="cls-2" d="M524.067,1242.106a102.953,102.953,0,0,1,3.465,11.34c1.514,6.255,5.032,20.622,5.032,20.622s-3.834.8-13.217,3.47-23.513,4.124-25.427,3.66-18.523-8.766-19.051-8.9-11.187-.9-12.331-.67-7.073,2.542-12.347,10.438,3.075-.364,6.15-1.155,6.693-2.732,8.1-2.595,14.451,9.367,16.013,9.8a27.735,27.735,0,0,0,14.362.28,137.626,137.626,0,0,1,13.655,2.447c4.689,1.282,30.591,2.489,43.391-4.119,0,0,5.575-2.932,2.41-21.693a245.77,245.77,0,0,0-8.091-33.439,18.05,18.05,0,0,0-4.747,2.727C538.972,1236.262,529.98,1241.711,524.067,1242.106Z" transform="translate(229.489 -815.561)"/>
    <path id="Path_440" data-name="Path 440" class="cls-11" d="M585.834,1237.964c-1.055,5.227,11.6.053,13.376-.765a31.975,31.975,0,0,0,4.7-2.579c1.493-1.018,2.7-2.395,4.188-3.412,2.547-1.735,5.586-.981,7.7-3.47.527-.643-.38-1.582-.934-.933-1.682,1.988-3.935,1.524-6.092,2.489-1.92.86-3.323,2.558-4.99,3.792a30.917,30.917,0,0,1-7.553,3.935c-.707.264-9.394,2.669-9.119,1.3C587.269,1237.484,586,1237.131,585.834,1237.964Z" transform="translate(164.61 -813.191)"/>
    <path id="Path_441" data-name="Path 441" class="cls-11" d="M585.163,1219.437c-1.9-10.823-.185-23.676,6.588-32.648,1.92-2.542,5.274-5.865,8.645-3.692,2.273,1.466,3.639,4.372,4.863,6.683a69.333,69.333,0,0,1,6.123,16.25c.2.828,1.472.48,1.271-.348a68.041,68.041,0,0,0-7.911-19.467c-2.748-4.478-6.793-6.941-11.361-3.122-4.784,4-7.384,10.77-8.85,16.656a47.832,47.832,0,0,0-.659,20.042c.148.833,1.419.48,1.271-.348Z" transform="translate(165.867 -791.747)"/>
    <path id="Path_442" data-name="Path 442" class="cls-11" d="M591.827,1255.126a214.925,214.925,0,0,1,8.439,29.684c.174.833,1.445.48,1.271-.348a214.489,214.489,0,0,0-8.439-29.684C592.808,1253.987,591.516,1254.33,591.827,1255.126Z" transform="translate(161.771 -826.302)"/>
    <path id="Path_443" data-name="Path 443" class="cls-11" d="M560.283,1242.2a131.851,131.851,0,0,1,6.741,29.388c.49,4.483,1.25,9.494.153,13.929-1.4,5.659-6.545,6.946-11.6,8.064A97.854,97.854,0,0,1,525.9,1295.4c-5.037-.433-9.979-1.377-14.979-2.041a50.532,50.532,0,0,0-6.8-.527c-2.352,0-4.747.58-7.083.211-3.908-.617-7.094-3.307-10.116-5.654s-5.934-4.415-9.52-5.554c-.812-.259-1.16,1.013-.353,1.271,7.21,2.289,11.83,9.673,19.325,11.145a19.253,19.253,0,0,0,5.311,0,41.359,41.359,0,0,1,8.2.285c5.522.665,10.96,1.756,16.514,2.215a98.816,98.816,0,0,0,31.023-2.247c3.829-.912,7.838-2.057,9.884-5.733,1.9-3.407,1.756-7.563,1.519-11.329a132.754,132.754,0,0,0-7.294-35.6c-.28-.791-1.556-.448-1.271.354Z" transform="translate(216.206 -820.188)"/>
    <path id="Path_444" data-name="Path 444" class="cls-11" d="M469.181,1318.288c-2.358,1.846-5.538,2.331-8.281,3.37-.786.3-.448,1.582.348,1.271,2.991-1.129,6.3-1.7,8.866-3.692.665-.527-.274-1.45-.934-.934Z" transform="translate(223.832 -856.463)"/>
    <path id="Path_445" data-name="Path 445" class="cls-11" d="M452.976,1316.857a25.2,25.2,0,0,1,3.956-4.6c1.851-1.614,4.008-3.94,6.361-4.694,2.669-.849,6.392.527,9.2.665a46.008,46.008,0,0,0,9.13-.469c.833-.121.48-1.392-.353-1.271a43.447,43.447,0,0,1-12.569.042c-2.637-.39-4.91-.923-7.331.5a32.278,32.278,0,0,0-9.525,9.167c-.49.7.649,1.355,1.134.665Z" transform="translate(227.958 -850.765)"/>
    <path id="Path_446" data-name="Path 446" class="cls-11" d="M494.526,1306.83q10.28,5.4,20.876,10.105c.77.343,1.445-.791.67-1.139q-10.607-4.71-20.876-10.1C494.441,1305.3,493.777,1306.44,494.526,1306.83Z" transform="translate(207.886 -850.538)"/>
    <path id="Path_447" data-name="Path 447" class="cls-11" d="M532.318,1322.566a103.182,103.182,0,0,0,25.164-3.4.66.66,0,1,0-.353-1.271,101.571,101.571,0,0,1-24.789,3.349.659.659,0,1,0,0,1.318Z" transform="translate(190.172 -856.332)"/>
    <path id="Path_448" data-name="Path 448" class="cls-11" d="M574.985,1316.3a7.068,7.068,0,0,0,1.25.037.7.7,0,0,0,.638-.485,32.67,32.67,0,0,1,4.219-.818c1.461-.264,2.932-.48,4.394-.744a27.479,27.479,0,0,0,7.553-2.505c.754-.385.09-1.519-.665-1.139-3.37,1.7-6.857,2.294-10.517,2.922-1.756.3-4.135.374-5.7,1.255-.174.1-.343.406-.48.469-.306.137.29-.079.2-.047.912-.306-1.123-.274-.87-.264-.849-.047-.844,1.271,0,1.318Z" transform="translate(170 -852.878)"/>
    <path id="Path_449" data-name="Path 449" class="cls-11" d="M625.013,1179.974c3.608,8.513,7.236,17.015,10.818,25.538,2.11,5.079,4.177,10.549,8.74,14a21.305,21.305,0,0,0,8.966,3.592,38.509,38.509,0,0,0,11.076.744,34.4,34.4,0,0,0,9.694-3.075c2.526-1.1,9.573-5.19,10.8-.754a37.1,37.1,0,0,1,.738,5.923c.274,2.21.527,4.42.665,6.646a42,42,0,0,1-1.334,14.768.659.659,0,0,0,1.271.348c2.4-8.1,1.35-16.35.348-24.583-.206-1.719-.026-4.219-1.471-5.469-1.909-1.661-5.164-.759-7.21,0-3.623,1.4-7.036,3.333-10.818,4.325-4.462,1.171-9.393.633-13.866-.253a18.072,18.072,0,0,1-10.327-5.369,30.757,30.757,0,0,1-4.921-8.613c-4.04-9.494-8.022-18.987-12.036-28.449-.332-.781-1.466-.111-1.139.665Z" transform="translate(146.096 -790.676)"/>
    <path id="Path_450" data-name="Path 450" class="cls-11" d="M738.539,1252.029a.659.659,0,1,0-.659-.659A.659.659,0,0,0,738.539,1252.029Z" transform="translate(92.728 -824.592)"/>
    <path id="Path_451" data-name="Path 451" class="cls-11" d="M739.134,1240.515c6.946-6.435,14.731-12.727,24.583-13.339s19.32,3.692,26.772,9.815c6.762,5.533,12.184,12.263,20.137,16.2a89.729,89.729,0,0,0,56.962,7.347c.833-.169.48-1.44-.348-1.276-19.388,3.9-41.366,1.292-58.676-8.671-8.006-4.61-13.571-12.426-21.208-17.605-7.083-4.8-15.881-7.864-24.51-7.062-9.847.912-17.637,7.178-24.631,13.66-.622.575.311,1.508.934.928Z" transform="translate(92.666 -812.82)"/>
    <path id="Path_452" data-name="Path 452" class="cls-11" d="M739.591,1319.389c13.233,1.835,26.545.939,39.837.491q20.285-.7,40.612-.222c27.062.633,54.019,4.219,81.092,4.03a231.746,231.746,0,0,0,44.51-4.341c.833-.169.48-1.44-.348-1.271-26.24,5.274-53.022,4.9-79.583,2.79a766.428,766.428,0,0,0-80.016-2.489c-15.216.38-30.591,1.846-45.728-.258-.833-.116-1.192,1.155-.353,1.271Z" transform="translate(92.135 -856.42)"/>
    <path id="Path_453" data-name="Path 453" class="cls-11" d="M981.931,1291.047a67.026,67.026,0,0,1,49.051,18.175c.617.585,1.551-.348.933-.934a68.37,68.37,0,0,0-49.974-18.56c-.844.037-.849,1.355,0,1.319Z" transform="translate(-22.309 -842.999)"/>
    <path id="Path_455" data-name="Path 455" class="cls-11" d="M870.992,1234.253a34.947,34.947,0,0,0,19.641-2.89.664.664,0,0,0,.306-.744,177.744,177.744,0,0,1-7.811-41.788c-.053-.844-1.371-.849-1.319,0a178.729,178.729,0,0,0,4.293,29.188q.844,3.629,1.857,7.231a34.219,34.219,0,0,1,1.118,3.819c.269,1.825-.037,1.651-1.973,2.347a33.066,33.066,0,0,1-15.76,1.582c-.833-.116-1.192,1.155-.353,1.271Z" transform="translate(30.049 -795.05)"/>
    <path id="Path_456" data-name="Path 456" class="cls-11" d="M908.7,1150.808c-1.419,7.579,2.02,15.211,4.747,22.11a159.7,159.7,0,0,0,9.494,19.968c3.043,5.332,6.329,10.548,8.629,16.292,2.189,5.475,3.692,11.872.343,17.2-.448.723.691,1.382,1.139.665,6.086-9.742-1.714-22.31-6.64-30.807a183.371,183.371,0,0,1-9.4-18.286q-2.785-6.329-5.053-12.864c-1.582-4.5-2.875-9.125-1.978-13.913.153-.833-1.118-1.187-1.271-.354Z" transform="translate(12.158 -777.164)"/>
    <path id="Path_457" data-name="Path 457" class="cls-3" d="M886.818,1172.186s7.869-5.2,15.5-6.5l2.864-.443s-.96.839-.912,6.329-2.78,4.694-5.981,5.8-9.752,3.038-10.548,2.263S884.882,1173.663,886.818,1172.186Z" transform="translate(22.725 -784.201)"/>
    <path id="Path_458" data-name="Path 458" class="cls-11" d="M884.917,1177.856a9.492,9.492,0,0,0,1.4,6.646c.891,1.213,2.542,2.2,3.919,1.166.67-.527,0-1.651-.665-1.139-1.519,1.15-2.727-1.63-3.043-2.637a9.526,9.526,0,0,1-.29-4.024c.105-.844-1.213-.833-1.319,0Z" transform="translate(23.286 -789.871)"/>
    <rect id="Rectangle_64" data-name="Rectangle 64" class="cls-12" width="82.115" height="6.35" rx="3.175" transform="translate(632.032 466.508)"/>
    <path id="Path_459" data-name="Path 459" class="cls-11" d="M885.933,1171.532a79.965,79.965,0,0,1,18.739-7.453.66.66,0,0,0-.353-1.271,81.31,81.31,0,0,0-19.051,7.584C884.525,1170.8,885.189,1171.943,885.933,1171.532Z" transform="translate(23.23 -783.041)"/>
    <path id="Path_460" data-name="Path 460" class="cls-11" d="M887.1,1181.823l-.227.274a.68.68,0,0,0,0,.933c.934,1.155,4.172.068,5.422-.169a44.1,44.1,0,0,0,8.36-2.479c1.535-.628,4.3-1.371,5.327-2.722s-.527-3.913-1-5.316c-.274-.8-1.545-.454-1.271.354.6,1.772,1.962,3.544.185,4.747a24.17,24.17,0,0,1-5.311,2.336,45.662,45.662,0,0,1-4.847,1.44c-.781.179-5.469,1.466-5.939.886v.918l.232-.28c.527-.649-.4-1.582-.934-.928Z" transform="translate(22.405 -787.345)"/>
    <path id="Path_461" data-name="Path 461" class="cls-11" d="M920.534,1168.266a7.637,7.637,0,0,1,.137-5.427c.316-.791-.96-1.134-1.271-.353a8.755,8.755,0,0,0-.137,6.129C919.537,1169.415,920.809,1169.073,920.534,1168.266Z" transform="translate(7.242 -782.691)"/>
    <path id="Path_462" data-name="Path 462" class="cls-11" d="M886.738,1153.381c-1.007-2.184-2.057-4.346-3.017-6.545-1.661-3.824.459-5.448,3.407-7.384l12.089-7.911c.707-.464.047-1.609-.665-1.139l-8.333,5.469c-2.352,1.54-5.185,2.927-7.162,4.953a4.594,4.594,0,0,0-1.261,4.673c.775,2.948,2.532,5.8,3.8,8.565.353.77,1.493.1,1.139-.665Z" transform="translate(24.809 -767.685)"/>
    <path id="Path_463" data-name="Path 463" class="cls-11" d="M514.138,1277.1c-4.256,3.323-9.673,3.9-14.889,4.219-4.847.28-9.668.686-14.467,1.445-9.757,1.551-19.43,4.346-27.954,9.415a.659.659,0,0,0,.665,1.134c9.314-5.522,19.995-8.307,30.659-9.71,8.84-1.155,19.515.264,26.941-5.548.67-.527-.269-1.445-.933-.933Z" transform="translate(225.679 -837.004)"/>
    <path id="Path_464" data-name="Path 464" class="cls-11" d="M484.243,1305.138c3.645-3.038,7.748-2.78,12.036-1.408a90.311,90.311,0,0,0,10.7,2.917,69.616,69.616,0,0,0,21.44.649c.833-.1.844-1.419,0-1.319a68.437,68.437,0,0,1-25.844-1.672c-6.719-1.783-13.149-5.206-19.277-.1-.649.527.285,1.472.934.934Z" transform="translate(213.142 -848.603)"/>
    <path id="Path_465" data-name="Path 465" class="cls-11" d="M568.822,1218.226c-.891,1.73,1.466,2.052,2.252.369a50.812,50.812,0,0,0,2.379-7.991c.759-2.816,1.461-5.649,2.157-8.481,1.35-5.5,2.637-11.018,4.272-16.445,1.582-5.222,3.043-12.247,7.595-15.717.665-.527,0-1.656-.665-1.139-2.764,2.11-4.219,5.047-5.427,8.228a132.617,132.617,0,0,0-4.219,13.412c-1.208,4.541-2.278,9.114-3.412,13.671-.527,2.2-1.108,4.4-1.7,6.588q-.527,1.872-1.055,3.739c-.185.617-.369,1.239-.564,1.857a6.6,6.6,0,0,0-.464,2.579c.385-.754-.749-1.424-1.139-.67Z" transform="translate(172.714 -785.831)"/>
    <path id="Path_466" data-name="Path 466" class="cls-11" d="M593.11,1176.881a2.273,2.273,0,0,0,2.579-.332c.633-.564-.3-1.493-.934-.934a.891.891,0,0,1-.981.126C593.021,1175.357,592.351,1176.5,593.11,1176.881Z" transform="translate(161.3 -789.023)"/>
    <path id="Path_467" data-name="Path 467" class="cls-13" d="M353.479,1282.317H334.318l-30.063-59.04a3.27,3.27,0,0,1,2.911-4.747h8.318a8.966,8.966,0,0,1,8.006,4.905Z" transform="translate(297.814 -809.385)"/>
    <path id="Path_529" data-name="Path 529" class="cls-11" d="M692.241,1343.07h-.691a1.319,1.319,0,0,0,0,2.637h.691a1.319,1.319,0,0,0,0-2.637h-.691a1.319,1.319,0,0,0,0,2.637h.691A1.319,1.319,0,0,0,692.241,1343.07Z" transform="translate(115.223 -868.239)"/>
    <path id="Path_557" data-name="Path 557" class="cls-14" d="M2466.812,313.621s2.919,5.2,8.689,1.86" transform="translate(-1742 52)"/>
  </g>
</svg>
