<svg xmlns="http://www.w3.org/2000/svg" xmlns:xlink="http://www.w3.org/1999/xlink" viewBox="0 0 1249.908 1339.373">
  <defs>
    <style>
      .cls-1 {
        fill: url(#linear-gradient);
      }

      .cls-2 {
        fill: url(#linear-gradient-2);
      }

      .cls-3 {
        fill: url(#linear-gradient-3);
      }

      .cls-4 {
        fill: url(#linear-gradient-4);
      }

      .cls-5 {
        fill: url(#linear-gradient-5);
      }

      .cls-6 {
        fill: #ffe1e1;
      }

      .cls-7 {
        fill: url(#radial-gradient);
      }

      .cls-8 {
        fill: #b5b5b5;
      }

      .cls-9 {
        fill: url(#linear-gradient-6);
      }

      .cls-10 {
        fill: url(#linear-gradient-7);
      }

      .cls-11 {
        fill: #64caf4;
      }

      .cls-12 {
        fill: #fff;
      }

      .cls-13 {
        fill: none;
        stroke: #fff;
        stroke-width: 2px;
      }
    </style>
    <linearGradient id="linear-gradient" x1="1" y1="0.235" x2="-0.226" y2="1.293" gradientUnits="objectBoundingBox">
      <stop offset="0" stop-color="#ffc09f"/>
      <stop offset="1" stop-color="#fef3e1"/>
    </linearGradient>
    <linearGradient id="linear-gradient-2" x1="1" y1="0.235" x2="-0.226" y2="1.293" gradientUnits="objectBoundingBox">
      <stop offset="0" stop-color="#fff7ea"/>
      <stop offset="1" stop-color="#fef3e1"/>
    </linearGradient>
    <linearGradient id="linear-gradient-3" x1="0.991" y1="-0.173" x2="0.268" y2="0.967" gradientUnits="objectBoundingBox">
      <stop offset="0" stop-color="#ffbdff"/>
      <stop offset="0.1" stop-color="#f5bfff"/>
      <stop offset="0.26" stop-color="#dbc4ff"/>
      <stop offset="0.47" stop-color="#b0ccff"/>
      <stop offset="0.72" stop-color="#75d8ff"/>
      <stop offset="0.99" stop-color="#2ae6ff"/>
      <stop offset="1" stop-color="#29e6ff"/>
    </linearGradient>
    <linearGradient id="linear-gradient-4" x1="1.394" y1="0.198" x2="-2.101" y2="1.766" xlink:href="#linear-gradient-3"/>
    <linearGradient id="linear-gradient-5" x1="1" y1="0.235" x2="-0.226" y2="1.293" gradientUnits="objectBoundingBox">
      <stop offset="0" stop-color="#ffebcb"/>
      <stop offset="1" stop-color="#fef3e1"/>
    </linearGradient>
    <radialGradient id="radial-gradient" cx="0.5" cy="0.5" r="0.5" gradientUnits="objectBoundingBox">
      <stop offset="0" stop-color="#ffb15c"/>
      <stop offset="1" stop-color="#ffd896"/>
    </radialGradient>
    <linearGradient id="linear-gradient-6" y1="0.5" x2="1" y2="0.5" gradientUnits="objectBoundingBox">
      <stop offset="0" stop-color="#ffe8ff"/>
      <stop offset="0.1" stop-color="#f9d1f1"/>
      <stop offset="0.27" stop-color="#f1afdc"/>
      <stop offset="0.44" stop-color="#eb94cb"/>
      <stop offset="0.62" stop-color="#e781bf"/>
      <stop offset="0.8" stop-color="#e476b8"/>
      <stop offset="1" stop-color="#e372b6"/>
    </linearGradient>
    <linearGradient id="linear-gradient-7" x1="0.062" y1="0.778" x2="1.513" y2="-0.076" gradientUnits="objectBoundingBox">
      <stop offset="0" stop-color="#ffe8ff"/>
      <stop offset="0.06" stop-color="#e3e8ff"/>
      <stop offset="0.19" stop-color="#b2e7ff"/>
      <stop offset="0.32" stop-color="#88e7ff"/>
      <stop offset="0.45" stop-color="#66e7ff"/>
      <stop offset="0.58" stop-color="#4be6ff"/>
      <stop offset="0.71" stop-color="#38e6ff"/>
      <stop offset="0.85" stop-color="#2de6ff"/>
      <stop offset="1" stop-color="#29e6ff"/>
    </linearGradient>
  </defs>
  <g id="background" transform="translate(-441.45 233.538)">
    <g id="Group_115" data-name="Group 115">
      <path id="Path_542" data-name="Path 542" class="cls-1" d="M603.824,66.41c-5.438,2.942-4.239,4.543-7.373,9.039-18.329,26.288-19.255,63.574-2.253,90.739,22.7,36.273,71.967,52.859,86.295,93.181,4.09,11.512,4.818,23.9,6.929,35.932s5.984,24.4,14.831,32.823c8.982,8.55,22.109,11.818,34.457,10.7s24.03-6.2,34.7-12.519c24.82-14.706,45.628-37,55.837-63.969s9.042-58.662-5.674-83.476c-13.508-22.778-36.626-37.976-59.628-51.1-18.884-10.781-40.149-23.069-45.39-44.172-4.489-18.083,4.4-38.161-2.716-55.382-2.753-6.659-7.726-12.228-13.458-16.594a57.543,57.543,0,0,0-92.1,39.745C607.593,57.861,609.837,63.816,603.824,66.41Z" transform="translate(474.773 616.796)"/>
      <path id="Path_379" data-name="Path 379" class="cls-2" d="M656.522,227.117c-18.6,10.063-14.5,15.538-25.216,30.912-62.685,89.905-65.855,217.426-7.706,310.333,77.643,124.056,246.129,180.781,295.132,318.682,13.987,39.372,16.477,81.751,23.7,122.89s20.464,83.45,50.723,112.258c30.717,29.241,75.612,40.417,117.843,36.609s82.184-21.208,118.671-42.817c84.884-50.3,156.05-126.53,190.965-218.777s30.923-200.628-19.4-285.491c-46.2-77.9-125.264-129.879-203.93-174.779-64.583-36.872-137.31-78.9-155.238-151.071-15.353-61.846,15.058-130.512-9.288-189.41-9.415-22.774-26.424-41.82-46.029-56.751C931.512-2.382,853.258-11.96,789.513,15.55S679.07,106.542,671.759,175.635C669.412,197.877,677.086,218.246,656.522,227.117Z" transform="translate(166.37 -233.542)"/>
      <g id="uyo" transform="translate(1078.386 57.178)">
        <g id="Layer_1" data-name="Layer 1" transform="translate(0 0)">
          <path id="Path_552" data-name="Path 552" class="cls-3" d="M122.679,225.86V130.143h-1.04c-.517.062-1.231-.277-1.416.572-.474,2.075-1.379,4.044-1.367,6.236v24.8c0,.48.172,1.09-.665,1.133s-.837-.56-.856-1.157c-.055-2.462.289-4.925-.511-7.387.172-7.5-.1-14.983-.517-22.469-.215-3.989.289-3.01-1.545-6.839a1.164,1.164,0,0,1-.049-.511c0-1.41-.856-2.462-1.41-3.663-.283-.616-2.2-.911-2.641-.5-.271.246-.123.536-.031.8.228.646.5,1.293.714,1.945.382,1.157.314,1.231-.954,1.287-.745,0-1.5.037-2.247,0-.862-.055-1.367.228-1.231,1.163a11.042,11.042,0,0,1-.308,2.462c0,.271,0,.382-.277.486-.862.339-1.09.8-.985,1.847a9.659,9.659,0,0,1,0,1.034c.265,2.659-.431,5.257-.511,7.886-.086,2.949-.043,5.9,0,8.846,0,.819-.185,1.385-1.145,1.274l-.5-.055h0l-7.03-12.952H70.792l-9.184,17.015a1.447,1.447,0,0,0-.751.339c-.837.769-.191,2.185-.32,3.312-.049.382.154,1.01-.259,1.09-1.108.2-.757,1-.763,1.613v7.11c0,.2.1.523-.185.554s-.259-.326-.283-.517c-.037-.406,0-.819-.055-1.231s-.16-.566-.529-.542c-.265,0-.369.209-.449.437-.222.616.277,1.373-.412,1.847-.271-.616-.062-1.231-.154-1.847-.043-.339-.209-.523-.554-.5s-.462.289-.474.616c0,.456,0,.917-.037,1.385s-.326.536-.708.536-.7-.086-.739-.536a9.625,9.625,0,0,1-.037-1.034V161c0-.616,0-1.163-.819-1.231-.72-.062-1.656.339-2.111-.351s-.129-1.576-.172-2.376a6.808,6.808,0,0,1,0-.868c0-.677-.154-1.17-.954-1.059-.966.135-1.188-.339-1.163-1.194s.32-2.087-1.28-2.025c-.08,0-.215-.252-.252-.4-.252-.948-.979-.665-1.311-.3-.671.726-1.724,1.293-1.391,2.641a8.292,8.292,0,0,1,0,2.068c0,2.862,0,2.862-2.826,2.85-2.142,0-1.791,0-1.8-1.754q0-11.37-.037-22.715c0-1.5,0-1.52-1.514-1.52H29.382c-1.576,0-1.594,0-1.6,1.65v14.743a3.035,3.035,0,0,1-.074,1.367,7.424,7.424,0,0,0-.991,4.241c.031.542-.234.893-.825.843-1.176-.086-1.28.616-1.231,1.545v5.374c0,.671-.259.911-.745.917V123.248h.166V114.76c0-1.188-.031-1.231-1.083-.542-1.613,1.01-3.195,2.068-4.814,3.078-1.231.751-1.379.683-1.379-.665,0-9.388.222-18.781-.449-28.163-.049-.616-.055-1.231-.111-1.89,0-.154-.049-.394-.271-.369-.055,0-.123.283-.123.431,0,1.674.049,3.349,0,5.023-.154,4.02.536,8.083-.616,12.053a5.226,5.226,0,0,0-.055,1.231c-.2,4.555-.425,9.1-.572,13.66a1.982,1.982,0,0,1-1.127,1.921c-1.773.973-3.5,2.019-5.232,3.047A1.588,1.588,0,0,1,6.8,123.9c-.966-.394-1.231,0-1.231.948.043,1.637.08,24.26.08,38.074h-2.4c-1.484,0-1.5.031-1.508,1.588v5.725c0,.733-.314,1.016-1.04,1.022a1.17,1.17,0,0,1-.7-.228v55.538H120.98a4.817,4.817,0,0,1,1.034,0C122.747,226.771,122.716,226.34,122.679,225.86ZM86.1,138.238v11.985h-5.22V138.238ZM69.37,148.315l3.737-10.077h3.552l-2.665,10.126a2.038,2.038,0,0,0-.548-.062H69.37Zm24.008,1.508h0L90.33,138.238h3.552l4.143,11.185h0c-1.57.123-3.115.3-4.666.4Z" transform="translate(0 -33.14)"/>
          <path id="Path_553" data-name="Path 553" class="cls-4" d="M140.362,100.254h-1.114v-8.2h1.114l-3.318-9.32h-1.527V62.611s0-5.965-4.838-5.965V5.109A2.61,2.61,0,0,0,129.928,0V2.062c-.745,0-.745,1.293-.745,1.293V6.334h-1.12V1.114h-.369v5.22h-1.12V2.764a1.852,1.852,0,1,0-1.49,3.392V56.633c-5.214,0-4.845,5.965-4.845,5.965V82.734h-1.9L115,92.054h1.12v8.2H115V102.1h25.362ZM134.4,98.013h-2.986V92.054H134.4Zm-2.986-33.168V82.734h-3.355V45.091h1.1V60.376s2.259,0,2.259,4.469Zm-4.845-49.191h1.12V29.068h-1.12Zm2.585,13.414h-1.12V15.654h1.12Zm-2.61.745h1.12V44.322h-1.1Zm1.49,0h1.12V44.322h-1.12Zm2.413-27.7a.746.746,0,1,1,.572,1.225.763.763,0,0,1-.462-.16.733.733,0,0,1-.111-1.065Zm-1.293,4.925v7.873h-1.12V7.079Zm-1.49,0v7.873h-1.1V7.079Zm-2.2-2.936a.369.369,0,0,1,.369.369.376.376,0,0,1-.369.376.382.382,0,0,1-.375-.376.376.376,0,0,1,.376-.369Zm-1.127,78.634V64.845c0-4.469,2.235-4.469,2.235-4.469V45.091h1.12V82.734Zm-1.12,9.32v5.959h-2.979V92.054Z" transform="translate(-44.208 0)"/>
        </g>
      </g>
      <path id="Path_548" data-name="Path 548" class="cls-5" d="M633.968,158.336c-12.965,7.016-10.108,10.832-17.58,21.551-43.7,62.677-45.91,151.579-5.372,216.349C665.145,482.721,782.605,522.267,816.768,618.4c9.751,27.448,11.487,56.993,16.521,85.673s14.266,58.177,35.361,78.26c21.415,20.385,52.713,28.177,82.154,25.522s57.294-14.785,82.732-29.849c59.177-35.063,108.79-88.21,133.132-152.52s21.558-139.868-13.527-199.03c-32.207-54.309-87.328-90.545-142.17-121.847-45.024-25.706-95.726-55-108.224-105.319-10.7-43.116,10.5-90.986-6.475-132.047-6.563-15.877-18.422-29.155-32.089-39.564-38.505-29.342-93.06-36.019-137.5-16.84s-77,63.435-82.092,111.6C642.954,137.951,648.3,152.151,633.968,158.336Z" transform="translate(508.748 147.473)"/>
      <path id="Path_380" data-name="Path 380" class="cls-6" d="M680.673,1035.578a413.335,413.335,0,0,1,156.255,26.735c29.436,11.181,59.91,28.217,71.277,57.579,14.24,36.751-7.79,78.808-38.5,103.476-57.247,45.96-138.186,48.782-210.443,35.633S517.3,1218.99,444.143,1212.888c-115.4-9.631-228.471,32.927-343.882,42.326-32.1,2.637-69.146.57-89.42-24.462-8.855-10.933-13.186-25.96-9.467-39.557,2.753-10.021,9.657-18.629,18.149-24.647,29.926-21.208,70.633-9.615,106.867-3.913,82.843,13.033,167.015-10.053,245.675-39.114s155.907-64.568,238.713-77.853c31.292-5.026,38.228-9.267,69.916-10.09" transform="translate(441.412 -722.873)"/>
      <circle id="Ellipse_1" data-name="Ellipse 1" class="cls-7" cx="76.229" cy="76.229" r="76.229" transform="translate(1005.308 150.595)"/>
      <path id="Path_384" data-name="Path 384" class="cls-8" d="M1476.277,865.987a1.319,1.319,0,0,0,0-2.637A1.319,1.319,0,0,0,1476.277,865.987Z" transform="translate(-255.616 -641.536)"/>
      <path id="Path_385" data-name="Path 385" class="cls-8" d="M1479.149,888.967a1.319,1.319,0,0,0,0-2.637A1.319,1.319,0,0,0,1479.149,888.967Z" transform="translate(-256.974 -652.396)"/>
      <path id="Path_386" data-name="Path 386" class="cls-8" d="M1482.017,888.967a1.319,1.319,0,0,0,0-2.637A1.319,1.319,0,0,0,1482.017,888.967Z" transform="translate(-258.328 -652.396)"/>
      <path id="Path_387" data-name="Path 387" class="cls-8" d="M1482.017,888.967a1.319,1.319,0,0,0,0-2.637A1.319,1.319,0,0,0,1482.017,888.967Z" transform="translate(-258.328 -652.396)"/>
      <path id="Path_388" data-name="Path 388" class="cls-8" d="M1482.017,897.637a1.319,1.319,0,0,0,0-2.637A1.319,1.319,0,0,0,1482.017,897.637Z" transform="translate(-258.328 -656.493)"/>
      <path id="Path_389" data-name="Path 389" class="cls-8" d="M1447.547,900.467a1.319,1.319,0,0,0,0-2.637A1.319,1.319,0,0,0,1447.547,900.467Z" transform="translate(-242.039 -657.831)"/>
      <path id="Path_390" data-name="Path 390" class="cls-8" d="M1496.389,865.987a1.319,1.319,0,0,0,0-2.637A1.319,1.319,0,0,0,1496.389,865.987Z" transform="translate(-265.121 -641.536)"/>
      <path id="Path_391" data-name="Path 391" class="cls-8" d="M1493.517,883.227a1.319,1.319,0,0,0,0-2.637A1.319,1.319,0,0,0,1493.517,883.227Z" transform="translate(-263.763 -649.683)"/>
      <path id="Path_392" data-name="Path 392" class="cls-8" d="M1493.517,880.347a1.319,1.319,0,0,0,0-2.637A1.319,1.319,0,0,0,1493.517,880.347Z" transform="translate(-263.763 -648.322)"/>
      <path id="Path_393" data-name="Path 393" class="cls-8" d="M1493.517,880.347a1.319,1.319,0,0,0,0-2.637A1.319,1.319,0,0,0,1493.517,880.347Z" transform="translate(-263.763 -648.322)"/>
      <path id="Path_394" data-name="Path 394" class="cls-8" d="M1493.517,877.477a1.319,1.319,0,0,0,0-2.637A1.319,1.319,0,0,0,1493.517,877.477Z" transform="translate(-263.763 -646.966)"/>
      <path id="Path_395" data-name="Path 395" class="cls-8" d="M1490.637,857.367a1.319,1.319,0,0,0,0-2.637A1.319,1.319,0,0,0,1490.637,857.367Z" transform="translate(-262.402 -637.463)"/>
      <path id="Path_396" data-name="Path 396" class="cls-8" d="M1490.637,834.387a1.319,1.319,0,0,0,0-2.637A1.319,1.319,0,0,0,1490.637,834.387Z" transform="translate(-262.402 -626.603)"/>
      <path id="Path_397" data-name="Path 397" class="cls-8" d="M1502.127,822.887a1.319,1.319,0,0,0,0-2.637A1.319,1.319,0,0,0,1502.127,822.887Z" transform="translate(-267.832 -621.168)"/>
      <path id="Path_398" data-name="Path 398" class="cls-8" d="M1536.609,820.017a1.319,1.319,0,0,0,0-2.637A1.319,1.319,0,0,0,1536.609,820.017Z" transform="translate(-284.128 -619.812)"/>
      <path id="Path_399" data-name="Path 399" class="cls-8" d="M1510.747,897.637a1.319,1.319,0,0,0,0-2.637A1.319,1.319,0,0,0,1510.747,897.637Z" transform="translate(-271.905 -656.493)"/>
      <path id="Path_400" data-name="Path 400" class="cls-8" d="M1502.127,900.467a1.319,1.319,0,0,0,0-2.637A1.319,1.319,0,0,0,1502.127,900.467Z" transform="translate(-267.832 -657.831)"/>
      <path id="Path_401" data-name="Path 401" class="cls-8" d="M1464.083,905.147l-7.563-1.514c-1.656-.332-2.368,2.21-.7,2.542l7.579,1.519c1.656.327,2.363-2.21.7-2.547Z" transform="translate(-246.102 -660.559)"/>
      <path id="Path_402" data-name="Path 402" class="cls-8" d="M1414.409,909.344l-4.546,1.514c-1.582.527-.912,3.08.7,2.542l4.546-1.514C1416.693,911.358,1416.028,908.806,1414.409,909.344Z" transform="translate(-224.407 -663.236)"/>
      <path id="Path_403" data-name="Path 403" class="cls-8" d="M1433.179,909.077a1.319,1.319,0,0,0,0-2.637A1.319,1.319,0,0,0,1433.179,909.077Z" transform="translate(-235.25 -661.899)"/>
      <path id="Path_404" data-name="Path 404" class="cls-8" d="M1407.317,923.447a1.319,1.319,0,0,0,0-2.637A1.319,1.319,0,0,0,1407.317,923.447Z" transform="translate(-223.027 -668.69)"/>
      <path id="Path_405" data-name="Path 405" class="cls-9" d="M1415.634,756.946c-18.26-15.169-37.9-29.889-60.923-35.649-24.947-6.245-51.888-1.139-74.71,10.723s-41.836,30.063-57.8,50.237c-7.236,9.13-14.241,18.987-24.362,24.715-21.393,12.094-50.448,2.484-71.277,15.517-16.3,10.2-22.094,34.1-12.278,50.633,3.439,5.8,8.391,10.549,11.893,16.313,11.524,18.919,5.005,43.681-5.517,63.175s-24.921,37.548-29.415,59.241c-2.11,10.121-1.055,22.426,7.537,28.212,7.226,4.873,16.946,3.2,25.2.39a115.506,115.506,0,0,0,64.641-55.717c12.015-23.286,17.405-52.426,39.489-66.566,19.546-12.521,49.7-11.361,59.784-32.273,7.284-15.106-.949-32.653-2.964-49.3-4.177-34.61,20.454-67.463,51.013-84.235,12.315-6.762,26.171-11.646,40.19-10.654,11.371.807,22.8,6.1,29.689,14.958a6.408,6.408,0,0,0,9.815.29Z" transform="translate(-73.823 -573.139)"/>
      <path id="Path_406" data-name="Path 406" class="cls-6" d="M1119.485,1026.533c20.538-18.6,35.928-41.857,48.687-66.282,13.186-25.227,23.824-51.688,35.949-77.389,12.4-26.319,26.572-51.767,45.622-73.914a252.059,252.059,0,0,1,70.823-57.168c14.926-8.085,31.324-15.269,48.623-15.074,15.607.179,29.6,10.021,42.395,17.89,3.692,2.268,7.384,4.52,11.076,6.7a1.32,1.32,0,0,0,1.329-2.278c-13.845-8.07-27.3-18.4-42.817-23.075-15.243-4.589-31.857-.2-46.065,5.8-28.481,12.052-54.547,31.2-76.118,53.207-20.9,21.313-37.078,46.145-50.448,72.727-12.991,25.844-23.734,52.711-36.392,78.7-12.41,25.506-26.862,50.422-46.82,70.823q-3.766,3.845-7.764,7.458c-1.26,1.139.612,3,1.867,1.862Z" transform="translate(-86.503 -580.425)"/>
      <path id="Path_407" data-name="Path 407" class="cls-8" d="M1533.739,894.717a1.319,1.319,0,0,0,0-2.637A1.319,1.319,0,0,0,1533.739,894.717Z" transform="translate(-282.771 -655.113)"/>
      <path id="Path_408" data-name="Path 408" class="cls-8" d="M1533.739,883.227a1.319,1.319,0,0,0,0-2.637A1.319,1.319,0,0,0,1533.739,883.227Z" transform="translate(-282.771 -649.683)"/>
      <path id="Path_409" data-name="Path 409" class="cls-8" d="M1527.989,865.987a1.319,1.319,0,0,0,0-2.637A1.319,1.319,0,0,0,1527.989,865.987Z" transform="translate(-280.054 -641.536)"/>
      <path id="Path_410" data-name="Path 410" class="cls-8" d="M1516.5,863.117a1.319,1.319,0,0,0,0-2.637A1.319,1.319,0,0,0,1516.5,863.117Z" transform="translate(-274.624 -640.18)"/>
      <path id="Path_412" data-name="Path 412" class="cls-6" d="M1304.24,942.863c-7.954,11.461-11.4,26.835-11.361,40.638.053,16.909,8.059,35.016.886,51.382-.675,1.54,1.582,2.885,2.278,1.329,6.978-15.923.469-32.917-.427-49.33-.786-14.378,2.637-30.738,10.9-42.685.97-1.4-1.318-2.721-2.278-1.334Z" transform="translate(-169.55 -678.834)"/>
      <path id="Path_413" data-name="Path 413" class="cls-6" d="M1382.653,852.831c-3.312,17.769,1.366,35.375,3.043,53.043a164.714,164.714,0,0,1-3.792,53.634c-.4,1.651,2.147,2.358,2.542.7a167.1,167.1,0,0,0,4.067-52.368c-1.493-18.054-6.693-36.192-3.318-54.325.311-1.661-2.231-2.373-2.542-.7Z" transform="translate(-211.427 -636.107)"/>
      <path id="Path_414" data-name="Path 414" class="cls-6" d="M1256.459,904.7c-7.721,5.517-15.628,11.2-24.62,14.446-9.773,3.528-19.931,2.136-29.974,3.95-16.64,3-29.114,16.065-38.407,29.33-.976,1.392,1.313,2.711,2.278,1.334,9.953-14.24,23.249-27.189,41.382-28.7,9.494-.786,18.507-.527,27.505-4.182,8.4-3.418,15.823-8.666,23.165-13.9,1.371-.976.053-3.265-1.329-2.278Z" transform="translate(-108.277 -660.965)"/>
      <path id="Path_530" data-name="Path 530" class="cls-10" d="M1427.793,816.551c-24.842-3.629-50.854,7.505-66.93,26.793s-22.4,45.833-18.76,70.675c.881,6.034,2.321,12.131,1.519,18.154-1.751,13.26-13.444,22.621-24.262,30.522l-28.249,20.686c-6.329,4.615-13.08,9.958-14.536,17.637-1.962,10.385,6.941,19.868,16.535,24.314s20.459,5.923,29.568,11.282c20.28,11.936,25.675,39.394,22.036,62.637-1.709,10.928-4.926,21.625-5.918,32.627s.528,22.822,7.289,31.566,19.826,13.186,29.42,7.669c7.162-4.093,10.791-12.352,12.98-20.306,10.206-37.157.09-81.345,24.1-111.482,10.912-13.713,28.729-24.483,29.652-41.978.659-12.59-8.207-23.671-17.843-31.8s-20.786-14.963-27.7-25.506a42.985,42.985,0,0,1-3.566-39.631c3.249-7.658,8.761-14.378,10.691-22.468,3.9-16.319-7.616-34.14-1.371-49.721,5.633-14.056,24.262-19.251,38.581-14.388s24.916,17.046,33.291,29.662Z" transform="translate(-161.715 -617.295)"/>
      <path id="Path_531" data-name="Path 531" class="cls-11" d="M1481,817.593c-1.9.823-3.418,2.743-4.747,4.277-2.358,2.764-4.5,5.717-6.588,8.687-5.274,7.511-10.169,15.3-14.9,23.159a164.777,164.777,0,0,0-9.088,16.123c-5.881,12.9-9.536,27.01-11.93,40.944-10.712,62.41,6.018,124.779,7.6,187.179.459,17.932-.258,36.081-3.492,53.8-2.864,15.649-8.054,31.245-18.46,43.565-1.086,1.287.77,3.165,1.867,1.862,18.46-21.9,21.872-53.1,22.679-80.7.981-32.8-3.407-65.4-6.957-97.943-3.291-30.063-5.8-60.475-2.9-90.717,2.215-22.9,7.384-46.113,18.987-66.161,4.963-8.581,10.185-17.036,15.717-25.274,2.547-3.8,5.153-7.584,8.022-11.155,1.466-1.83,3.222-4.425,5.453-5.39,1.582-.67.216-2.943-1.329-2.279Z" transform="translate(-229.182 -619.846)"/>
      <path id="Path_532" data-name="Path 532" class="cls-11" d="M1380.379,1074.325c-13.55,27.985-54.325,25.317-68.3,53.217-.76,1.508,1.514,2.848,2.273,1.329,13.892-27.706,54.652-25.026,68.3-53.217C1383.391,1074.135,1381.118,1072.8,1380.379,1074.325Z" transform="translate(-178.552 -740.918)"/>
      <path id="Path_533" data-name="Path 533" class="cls-11" d="M1445.131,1132.038c15.955,12.131,35.971,28.37,32.236,51.013-.269,1.661,2.268,2.373,2.547.7,3.961-24.056-16.387-41.044-33.449-53.993-1.355-1.023-2.669,1.266-1.334,2.278Z" transform="translate(-241.237 -767.312)"/>
      <path id="Path_534" data-name="Path 534" class="cls-11" d="M1438.644,1218.968c.944,6.187-3.133,11.535-6.619,16.2-3.038,4.056-5.976,8.254-6.677,13.391-.227,1.661,2.315,2.379,2.542.7,1.582-11.63,15.227-18.339,13.3-30.986-.253-1.677-2.8-.965-2.542.7Z" transform="translate(-232.144 -808.81)"/>
      <path id="Path_535" data-name="Path 535" class="cls-11" d="M1460.988,1360.925a45.068,45.068,0,0,1,9.842,24.536c.143,1.677,2.78,1.693,2.637,0a48.148,48.148,0,0,0-10.617-26.4C1461.795,1357.739,1459.927,1359.617,1460.988,1360.925Z" transform="translate(-248.844 -875.582)"/>
      <path id="Path_536" data-name="Path 536" class="cls-11" d="M1441.037,929.121c-6.292,3.344-12.869,6.4-18.871,10.237-4.367,2.8-8.254,6.387-9.568,11.566a1.322,1.322,0,0,0,2.547.7c1.34-5.274,5.8-8.576,10.317-11.187,5.522-3.2,11.271-6.044,16.878-9.04,1.5-.8.169-3.075-1.329-2.279Z" transform="translate(-226.104 -672.539)"/>
      <path id="Path_554" data-name="Path 554" class="cls-12" d="M3103.8,836.716c-7.993-.763-85.211,28.675-134.889-68.216s-36.793-207.609,28.718-126.094,62.42,126.23,164.938,145.712S3111.791,837.479,3103.8,836.716Z" transform="matrix(0.978, -0.208, 0.208, 0.978, -1879.148, 631.809)"/>
      <path id="Path_556" data-name="Path 556" class="cls-13" d="M3068.633,186.07c-25.476-22.992-70.561,6.642-60.676,67.044s2.862,56.321-10.533,89.936,14.31,75.741,39.005,85.489,57.466-29.875,49.854-63.678-45.14-41.934-28.879-79.895S3094.109,209.062,3068.633,186.07Z" transform="translate(-1742 52)"/>
    </g>
    <path id="Path_411" data-name="Path 411" class="cls-6" d="M1227.436,1094.424a267.593,267.593,0,0,0-10.591,41.25,96.242,96.242,0,0,0-1.63,19.446c.3,7.384,1.582,16-3.692,22.025-1.113,1.271.749,3.165,1.867,1.867,4.895-5.607,5-13.07,4.652-20.127a101.387,101.387,0,0,1,1.086-20.96,261.371,261.371,0,0,1,10.839-42.8c.528-1.614-2-2.3-2.542-.7Z" transform="translate(-130.942 -750.305)"/>
    <path id="Path_415" data-name="Path 415" class="cls-6" d="M1218.7,1044.043c-5.57,21.287-25.77,37.321-47.785,37.848-1.693.042-1.7,2.679,0,2.637,23.165-.554,44.457-17.352,50.327-39.784a1.319,1.319,0,0,0-2.542-.7Z" transform="translate(-111.31 -726.485)"/>
  </g>
</svg>
