<svg xmlns="http://www.w3.org/2000/svg" viewBox="0 0 646.349 411.138">
  <defs>
    <style>
      .cls-1, .cls-3 {
        fill: none;
        stroke-width: 2px;
      }

      .cls-1 {
        stroke: #47fdbf;
      }

      .cls-2 {
        fill: #64caf4;
      }

      .cls-3 {
        stroke: #fff;
        stroke-miterlimit: 10;
      }

      .cls-4 {
        fill: #f4f5f8;
      }

      .cls-5 {
        fill: #72e7ff;
      }
    </style>
  </defs>
  <g id="banana_pile" data-name="banana pile" transform="translate(198.036 -1675.364)">
    <path id="Path_555" data-name="Path 555" class="cls-1" d="M1707.311,1870.781s222.474-82.115,377.229,27.711,232,133.539,268.445,120.885" transform="translate(-1905 63)"/>
    <g id="banana" transform="translate(-74.999 1776.478)">
      <g id="Layer_1" data-name="Layer 1" transform="translate(-0.001)">
        <path id="Path_539" data-name="Path 539" class="cls-2" d="M216.282,359.966a7.066,7.066,0,0,0-3.831-1.156.56.56,0,0,0-.532.434l-.7,3.5a.567.567,0,0,0,1.1.252l.7-3.5-.532.434a6.03,6.03,0,0,1,3.285,1.03c.6.4,1.121-.6.518-.995Z" transform="translate(-63.293 -107.523)"/>
        <path id="Path_540" data-name="Path 540" class="cls-2" d="M14.546,74.32S33.714,11.57,62.5,0c0,0,35.052,3.586,49.724,13.523l-1.9,44.6,23.692-40.157s59.907,7.171,93.208,58.429l-29.239,40.9s45.865-21.563,55.361-14.805c0,0,44.471,39.611,44.821,111.612,0,0-85.042,54.234-144.969,13.061,0,0,8.236-71.994,11.773-75.237s-34.492,30.3-30.289,65.621c0,0-57.841-26.087-69.382-45.9s4.783-41.082,4.783-41.082-22.32,21.836-18.846,36.347L33.49,154.949l1.611-21.64s-5.862,2.059-8.026,11.345c0,0-21.9-17.333-26.165-30.556S8.4,91.324,14.546,74.32Z" transform="translate(0.001)"/>
        <path id="Path_541" data-name="Path 541" class="cls-3" d="M10.75,85.15s180.021,31.13,256.218,139.71" transform="translate(-3.221 -25.516)"/>
      </g>
    </g>
    <g id="banana-2" data-name="banana" transform="matrix(0.695, -0.719, 0.719, 0.695, -58.841, 1808.389)">
      <g id="Layer_1-2" data-name="Layer 1" transform="translate(-0.001)">
        <path id="Path_539-2" data-name="Path 539" class="cls-4" d="M214.357,359.527a4.383,4.383,0,0,0-2.376-.717.348.348,0,0,0-.33.269l-.434,2.172a.352.352,0,0,0,.682.156l.434-2.172-.33.269a3.74,3.74,0,0,1,2.037.639c.374.248.695-.369.321-.617Z" transform="translate(-119.472 -202.959)"/>
        <path id="Path_540-2" data-name="Path 540" class="cls-5" d="M9.021,46.094S20.91,7.176,38.766,0c0,0,21.739,2.224,30.839,8.387L68.424,36.052,83.118,11.146s37.155,4.448,57.808,36.238L122.792,72.75s28.446-13.374,34.336-9.182c0,0,27.582,24.567,27.8,69.223,0,0-52.744,33.636-89.912,8.1,0,0,5.108-44.652,7.3-46.663s-21.392,18.795-18.786,40.7c0,0-35.873-16.18-43.032-28.468s2.967-25.479,2.967-25.479S29.623,94.524,31.777,103.524L20.771,96.1l1-13.422s-3.636,1.277-4.978,7.037c0,0-13.582-10.75-16.228-18.951S5.212,56.64,9.021,46.094Z" transform="translate(0.001)"/>
        <path id="Path_541-2" data-name="Path 541" class="cls-3" d="M10.75,85.15S122.4,104.457,169.659,171.8" transform="translate(-6.08 -48.165)"/>
      </g>
    </g>
  </g>
</svg>
