<svg xmlns="http://www.w3.org/2000/svg" viewBox="0 0 298.168 255.858">
  <defs>
    <style>
      .cls-1 {
        fill: #64caf4;
      }

      .cls-2 {
        fill: none;
        stroke: #fff;
        stroke-miterlimit: 10;
        stroke-width: 2px;
      }
    </style>
  </defs>
  <g id="banana" transform="translate(0.001)">
    <g id="Layer_1" data-name="Layer 1" transform="translate(-0.001)">
      <path id="Path_539" data-name="Path 539" class="cls-1" d="M216.282,359.966a7.066,7.066,0,0,0-3.831-1.156.56.56,0,0,0-.532.434l-.7,3.5a.567.567,0,0,0,1.1.252l.7-3.5-.532.434a6.03,6.03,0,0,1,3.285,1.03c.6.4,1.121-.6.518-.995Z" transform="translate(-63.293 -107.523)"/>
      <path id="Path_540" data-name="Path 540" class="cls-1" d="M14.546,74.32S33.714,11.57,62.5,0c0,0,35.052,3.586,49.724,13.523l-1.9,44.6,23.692-40.157s59.907,7.171,93.208,58.429l-29.239,40.9s45.865-21.563,55.361-14.805c0,0,44.471,39.611,44.821,111.612,0,0-85.042,54.234-144.969,13.061,0,0,8.236-71.994,11.773-75.237s-34.492,30.3-30.289,65.621c0,0-57.841-26.087-69.382-45.9s4.783-41.082,4.783-41.082-22.32,21.836-18.846,36.347L33.49,154.949l1.611-21.64s-5.862,2.059-8.026,11.345c0,0-21.9-17.333-26.165-30.556S8.4,91.324,14.546,74.32Z" transform="translate(0.001)"/>
      <path id="Path_541" data-name="Path 541" class="cls-2" d="M10.75,85.15s180.021,31.13,256.218,139.71" transform="translate(-3.221 -25.516)"/>
    </g>
  </g>
</svg>
