<svg xmlns="http://www.w3.org/2000/svg" xmlns:xlink="http://www.w3.org/1999/xlink" viewBox="0 0 39.907 39.907">
  <defs>
    <style>
      .cls-1 {
        fill: url(#linear-gradient);
      }
    </style>
    <linearGradient id="linear-gradient" x1="0.5" x2="0.5" y2="1" gradientUnits="objectBoundingBox">
      <stop offset="0" stop-color="#ffbdff"/>
      <stop offset="0.1" stop-color="#f5bfff"/>
      <stop offset="0.26" stop-color="#dbc4ff"/>
      <stop offset="0.47" stop-color="#b0ccff"/>
      <stop offset="0.72" stop-color="#75d8ff"/>
      <stop offset="0.99" stop-color="#2ae6ff"/>
      <stop offset="1" stop-color="#29e6ff"/>
    </linearGradient>
  </defs>
  <path id="branding" class="cls-1" d="M19.953,6.235a8.546,8.546,0,0,0-3.391.682,8.7,8.7,0,0,0-4.657,4.657,8.769,8.769,0,0,0,0,6.781,8.7,8.7,0,0,0,4.657,4.657,8.769,8.769,0,0,0,6.781,0A8.7,8.7,0,0,0,28,18.356a8.769,8.769,0,0,0,0-6.781,8.7,8.7,0,0,0-4.657-4.657A8.546,8.546,0,0,0,19.953,6.235Zm0,14.965a6.254,6.254,0,0,1-6.235-6.235A6.254,6.254,0,0,1,19.953,8.73a6.254,6.254,0,0,1,6.235,6.235A6.254,6.254,0,0,1,19.953,21.2Zm13.757.546a15.868,15.868,0,0,0,1.15-3.2,14.569,14.569,0,0,0,.409-3.468,14.409,14.409,0,0,0-1.208-5.865,15.208,15.208,0,0,0-8.145-8.028,15.55,15.55,0,0,0-11.925,0A15.208,15.208,0,0,0,5.846,9.217a14.409,14.409,0,0,0-1.208,5.865,14.569,14.569,0,0,0,.409,3.468,15.868,15.868,0,0,0,1.15,3.2L0,32.346l2.475.507q2.475.507,5.475,1.13l3.644,4.073,1.656,1.851,5.729-9.743q.234,0,.487.019t.487.019q.234,0,.487-.019t.487-.019l5.729,9.743,1.656-1.851,3.644-4.073q3-.624,5.475-1.13l2.475-.507ZM12.977,35.386l-1.189-1.13Q10.6,33.126,9.236,31.8q-1.91-.546-3.507-.994l-1.6-.448,3.585-6.2A15.663,15.663,0,0,0,11.5,27.67a14.9,14.9,0,0,0,4.793,2.065Zm6.976-7.95a12.37,12.37,0,0,1-8.808-3.644,12.961,12.961,0,0,1-2.67-3.975,12.341,12.341,0,0,1,0-9.7,12.961,12.961,0,0,1,2.67-3.975,12.44,12.44,0,0,1,17.615,0,12.961,12.961,0,0,1,2.67,3.975,12.341,12.341,0,0,1,0,9.7,12.961,12.961,0,0,1-2.67,3.975,12.37,12.37,0,0,1-8.808,3.644ZM30.671,31.8q-1.364,1.325-2.553,2.455l-1.189,1.13-3.274-5.651A15.175,15.175,0,0,0,28.43,27.67a14.892,14.892,0,0,0,3.761-3.507l3.585,6.2-1.6.448Q32.58,31.255,30.671,31.8Zm9.236,5.612"/>
</svg>
