<svg xmlns="http://www.w3.org/2000/svg" viewBox="0 0 103.7 19.61"><defs><style>.cls-1{fill:#fff;}</style></defs><title>codekago logo white</title><g id="Layer_2" data-name="Layer 2"><g id="Layer_1-2" data-name="Layer 1"><path class="cls-1" d="M24.54,9.73l-.2-.08L16.81,6.78,10.26,4.29a.85.85,0,0,0-.39-.07c-.33,0-.67,0-1,.11A5.77,5.77,0,0,0,5.28,6.6a5.22,5.22,0,0,0-.94,4.53,5.8,5.8,0,0,0,5.14,4.3,1.67,1.67,0,0,0,.76-.08c4.7-1.86,9.41-3.69,14.11-5.53l.19-.09M10.12,0l.19,0a10.14,10.14,0,0,1,2.94.56c.31.11.61.23.91.37l7.11,3.19,8.06,3.6.15.08v3.89l-.2.1L14.84,18.36q-.36.16-.72.36a7.88,7.88,0,0,1-2.92.82c-.42,0-.85.07-1.27.07a9.8,9.8,0,0,1-5.62-1.76A9.76,9.76,0,0,1,.36,12.42,8.93,8.93,0,0,1,0,9.79,9.6,9.6,0,0,1,2.83,3,10,10,0,0,1,8,.23,9.07,9.07,0,0,1,9.65,0l.19,0Z"/><path class="cls-1" d="M101.59,9.72c0-.1,0-.29,0-.47a2.9,2.9,0,0,0-.35-1.15,1.94,1.94,0,0,0-3.36,0c-.06.11-.11.22-.16.33a4.07,4.07,0,0,0-.22,1.73,3.22,3.22,0,0,0,.32,1.28,1.92,1.92,0,0,0,2.26,1,1.82,1.82,0,0,0,1.26-1.12,3.85,3.85,0,0,0,.29-1.59m2.11.28c0,.11,0,.21,0,.32a3.88,3.88,0,0,1-3.32,3.79A4.93,4.93,0,0,1,98.08,14a3.54,3.54,0,0,1-2.35-2.11,5.22,5.22,0,0,1,0-4,3.65,3.65,0,0,1,2.74-2.26,4.8,4.8,0,0,1,2.44.08,3.67,3.67,0,0,1,2.59,2.62,3.74,3.74,0,0,1,.19,1.1,2.06,2.06,0,0,0,0,.26Z"/><path class="cls-1" d="M91.49,9.87V8.16a.33.33,0,0,0-.1-.25,2.55,2.55,0,0,0-1.22-.73,1.67,1.67,0,0,0-1.66.39,2,2,0,0,0-.56,1,4.8,4.8,0,0,0-.09,2.26,2.56,2.56,0,0,0,.34.92,1.58,1.58,0,0,0,1.29.79,2.4,2.4,0,0,0,1.88-.7.31.31,0,0,0,.12-.27c0-.56,0-1.12,0-1.69m.16-3.32.09-.89h1.79v8.55a5,5,0,0,1-.15,1.27A3.11,3.11,0,0,1,92,17.36,4.58,4.58,0,0,1,90.3,18a8.92,8.92,0,0,1-3.88-.16c-.29-.08-.29-.09-.29-.39V16.1l.17,0a8,8,0,0,0,2.57.33,4.19,4.19,0,0,0,1.4-.27,1.81,1.81,0,0,0,1.09-1.06,2.79,2.79,0,0,0,.13-.7c0-.35,0-.69,0-1l0-.06-.16.11a3.59,3.59,0,0,1-2.34.71,3.18,3.18,0,0,1-2.67-1.57,4.47,4.47,0,0,1-.62-1.95,6.71,6.71,0,0,1,.08-1.9A4.22,4.22,0,0,1,86.9,6.46a3.27,3.27,0,0,1,2.52-1,2.83,2.83,0,0,1,2.07,1l.12.14h0"/><path class="cls-1" d="M54.56,9.73V7.89c0-.08,0-.15-.07-.2a2.73,2.73,0,0,0-1.65-.61A1.72,1.72,0,0,0,51.29,8a2.72,2.72,0,0,0-.34.87,5.18,5.18,0,0,0-.06,1.71,3,3,0,0,0,.33,1.12,1.61,1.61,0,0,0,1.63.88,2.38,2.38,0,0,0,1.63-.76.31.31,0,0,0,.08-.24V9.73M56.65,14H54.81c0-.28-.06-.56-.09-.87l-.09.07a3.18,3.18,0,0,1-2.82,1A3.13,3.13,0,0,1,49.63,13a3.67,3.67,0,0,1-.73-1.56,6,6,0,0,1,.19-3.52,3.57,3.57,0,0,1,1.25-1.74,3.37,3.37,0,0,1,3.71-.3c.17.08.33.19.51.29V1.56h2c0,.05,0,.11,0,.18V3.79c0,2.67,0,5.34,0,8,0,.65,0,1.3,0,1.95V14"/><path class="cls-1" d="M70.11,14h-2c0-.13,0-12.2,0-12.4h2V9c.08,0,.11-.07.15-.12L72.69,6.3c.18-.19.36-.37.53-.57a.29.29,0,0,1,.2-.09h2.41L72.19,9.55,75.85,14h-2.3a.31.31,0,0,1-.27-.13l-3-3.57-.15-.18c0,.25,0,.46,0,.67V14Z"/><path class="cls-1" d="M81.77,10.43l-.12,0c-.32-.05-.63-.11-1-.14a2.86,2.86,0,0,0-1.2.12,1.06,1.06,0,0,0-.76,1,1,1,0,0,0,.81,1.1,1.91,1.91,0,0,0,.48.06,2.48,2.48,0,0,0,1.68-.78.27.27,0,0,0,.07-.21v-1s0-.08,0-.12M77.37,6a6.06,6.06,0,0,1,1.41-.44,7.05,7.05,0,0,1,2-.11,3.85,3.85,0,0,1,2,.79A2.45,2.45,0,0,1,83.79,8a3,3,0,0,1,0,.52c0,1.17,0,2.34,0,3.51,0,.58,0,1.16,0,1.73V14H82c0-.28-.06-.57-.09-.88l-.16.14a3.46,3.46,0,0,1-1.73.91,3.13,3.13,0,0,1-2-.27,2.41,2.41,0,0,1-1.34-2,2.86,2.86,0,0,1,.13-1.33,2.6,2.6,0,0,1,1.71-1.66,3.86,3.86,0,0,1,1.16-.23,7,7,0,0,1,2,.2h.09a2.14,2.14,0,0,0,0-.67,1.37,1.37,0,0,0-1-1,2.77,2.77,0,0,0-1-.09,6.77,6.77,0,0,0-2.14.46l-.24.08Z"/><path class="cls-1" d="M60.73,8.8H64a2,2,0,0,0-.51-1.37,1.22,1.22,0,0,0-.47-.3,1.61,1.61,0,0,0-1.65.33,2,2,0,0,0-.63,1.34m5.06,3.27a1,1,0,0,1,0,.15v1.32c0,.15,0,.16-.15.21a7.45,7.45,0,0,1-1.32.31,8.68,8.68,0,0,1-1.69.11A5.52,5.52,0,0,1,61,13.88a3.36,3.36,0,0,1-2.25-2.32,5.63,5.63,0,0,1,.12-3.67,3.65,3.65,0,0,1,1.91-2.08,3.78,3.78,0,0,1,2.07-.35,7.58,7.58,0,0,1,.83.15,3,3,0,0,1,1.85,1.5A4.65,4.65,0,0,1,66,8.56a8.39,8.39,0,0,1,.06,1.66,1.37,1.37,0,0,1,0,.19H60.65a2.11,2.11,0,0,0,.16.8,2,2,0,0,0,1.46,1.2,4.34,4.34,0,0,0,1.48.09,8.47,8.47,0,0,0,1.94-.4l.1,0"/><path class="cls-1" d="M45.25,9.81c0-.12,0-.25,0-.38a3,3,0,0,0-.38-1.35,1.76,1.76,0,0,0-1.08-.88,2.06,2.06,0,0,0-.74-.08,1.77,1.77,0,0,0-1.38.73,3,3,0,0,0-.32.61,4,4,0,0,0-.19,1.88,3,3,0,0,0,.3,1.09,1.94,1.94,0,0,0,2.4,1A1.89,1.89,0,0,0,45,11.27a3.29,3.29,0,0,0,.25-1.46m2.12-.07a4.89,4.89,0,0,1-.43,2.2,3.67,3.67,0,0,1-2.85,2.15A4.86,4.86,0,0,1,41.88,14a3.55,3.55,0,0,1-2.48-2.17,5.16,5.16,0,0,1,0-4.08,3.64,3.64,0,0,1,2.73-2.2,4.77,4.77,0,0,1,2.43.08,3.69,3.69,0,0,1,2.6,2.68,4.9,4.9,0,0,1,.19,1.43"/><path class="cls-1" d="M37.55,5.81V7.46l-.18-.06a4.16,4.16,0,0,0-1.71-.28,2.61,2.61,0,0,0-1.24.38,2,2,0,0,0-.84,1.08,3.62,3.62,0,0,0,0,2.45,2.18,2.18,0,0,0,2,1.46,4.54,4.54,0,0,0,1.9-.3l.21-.07v1.65a3.28,3.28,0,0,1-.75.24,5.66,5.66,0,0,1-3-.08,3.62,3.62,0,0,1-2.56-2.87,5.2,5.2,0,0,1,.11-2.74,3.88,3.88,0,0,1,3-2.74,5.24,5.24,0,0,1,3,.17l.15.06"/></g></g></svg>