<svg xmlns="http://www.w3.org/2000/svg" viewBox="0 0 154 29.11">
  <defs>
    <style>
      .cls-1 {
        fill: #20a5de;
      }
    </style>
  </defs>
  <g id="codekago_logo_blue" data-name="codekago logo blue" transform="translate(0.001)">
    <g id="Layer_1" data-name="Layer 1" transform="translate(-0.001)">
      <path id="Path_51" data-name="Path 51" class="cls-1" d="M36.429,14.444l-.3-.119-11.178-4.26-9.723-3.7a1.262,1.262,0,0,0-.579-.1,4.61,4.61,0,0,0-1.484.163A8.565,8.565,0,0,0,7.838,9.8a7.749,7.749,0,0,0-1.4,6.725,8.61,8.61,0,0,0,7.63,6.383,2.479,2.479,0,0,0,1.128-.119c6.977-2.761,13.969-5.478,20.946-8.209l.282-.134M15.023,0h.282A15.053,15.053,0,0,1,19.67.831c.46.163.906.341,1.351.549L31.575,6.116,43.54,11.46l.223.119v5.775l-.3.148L22.03,27.255q-.534.238-1.069.534a11.7,11.7,0,0,1-4.335,1.217c-.623,0-1.262.1-1.885.1A14.548,14.548,0,0,1,6.4,26.5,14.488,14.488,0,0,1,.535,18.437,13.256,13.256,0,0,1,0,14.533,14.251,14.251,0,0,1,4.2,4.453,14.845,14.845,0,0,1,11.876.341,13.464,13.464,0,0,1,14.326,0h.7Z" transform="translate(0.001)"/>
      <path id="Path_52" data-name="Path 52" class="cls-1" d="M104.622,11.76v-.7a4.3,4.3,0,0,0-.52-1.707,2.88,2.88,0,0,0-4.988,0c-.089.163-.163.327-.238.49a6.042,6.042,0,0,0-.327,2.568,4.78,4.78,0,0,0,.475,1.9A2.85,2.85,0,0,0,102.38,15.8a2.7,2.7,0,0,0,1.87-1.663,5.716,5.716,0,0,0,.43-2.36m3.132.416v.475a5.76,5.76,0,0,1-4.928,5.626,7.319,7.319,0,0,1-3.474-.178,5.255,5.255,0,0,1-3.488-3.132,7.749,7.749,0,0,1,0-5.938A5.418,5.418,0,0,1,99.99,5.688a7.125,7.125,0,0,1,3.622.119A5.448,5.448,0,0,1,107.457,9.7a5.552,5.552,0,0,1,.282,1.633,3.056,3.056,0,0,0,0,.386Z" transform="translate(46.186 2.669)"/>
      <path id="Path_53" data-name="Path 53" class="cls-1" d="M94.311,12.008V9.47a.49.49,0,0,0-.148-.371,3.785,3.785,0,0,0-1.811-1.084,2.479,2.479,0,0,0-2.464.579,2.969,2.969,0,0,0-.831,1.484,7.125,7.125,0,0,0-.134,3.355,3.8,3.8,0,0,0,.5,1.366,2.345,2.345,0,0,0,1.915,1.173,3.563,3.563,0,0,0,2.791-1.039.46.46,0,0,0,.178-.4V12.023m.238-4.928.134-1.321H97.34V18.466a7.422,7.422,0,0,1-.223,1.885,4.617,4.617,0,0,1-2.049,2.776,6.8,6.8,0,0,1-2.524.95,13.241,13.241,0,0,1-5.76-.238c-.431-.119-.431-.134-.431-.579v-2h.252a11.876,11.876,0,0,0,3.815.49,6.22,6.22,0,0,0,2.078-.4,2.687,2.687,0,0,0,1.618-1.574,4.143,4.143,0,0,0,.193-1.039c0-.52,0-1.024,0-1.484V17.16l-.238.163A5.329,5.329,0,0,1,90.6,18.377a4.721,4.721,0,0,1-3.964-2.331,6.636,6.636,0,0,1-.92-2.895,9.961,9.961,0,0,1,.119-2.82A6.265,6.265,0,0,1,87.5,6.946a4.854,4.854,0,0,1,3.741-1.484,4.2,4.2,0,0,1,3.073,1.484l.178.208h0" transform="translate(41.504 2.643)"/>
      <path id="Path_54" data-name="Path 54" class="cls-1" d="M57.388,13.688V10.957c0-.119,0-.223-.1-.3a4.053,4.053,0,0,0-2.449-.906,2.553,2.553,0,0,0-2.3,1.366,4.038,4.038,0,0,0-.5,1.291,7.69,7.69,0,0,0-.089,2.538,4.453,4.453,0,0,0,.49,1.663,2.39,2.39,0,0,0,2.42,1.306,3.533,3.533,0,0,0,2.42-1.128.46.46,0,0,0,.119-.356V13.688m3.1,6.339H57.759c0-.416-.089-.831-.134-1.291l-.134.1a4.721,4.721,0,0,1-4.186,1.484,4.646,4.646,0,0,1-3.236-1.781,5.448,5.448,0,0,1-1.084-2.316A8.907,8.907,0,0,1,49.268,11a5.3,5.3,0,0,1,1.856-2.583,5,5,0,0,1,5.507-.445c.252.119.49.282.757.43V1.56h2.969V20.027" transform="translate(23.605 0.756)"/>
      <path id="Path_55" data-name="Path 55" class="cls-1" d="M71.079,20.007H68.11V1.6h2.969V12.585c.119,0,.163-.1.223-.178l3.607-3.83c.267-.282.534-.549.787-.846a.43.43,0,0,1,.3-.134H79.57l-5.4,5.8L79.6,20.007H76.186a.46.46,0,0,1-.4-.193l-4.453-5.3-.223-.267v5.76Z" transform="translate(32.998 0.775)"/>
      <path id="Path_56" data-name="Path 56" class="cls-1" d="M84.249,12.856h-.178c-.475-.074-.935-.163-1.484-.208a4.246,4.246,0,0,0-1.781.178,1.574,1.574,0,0,0-1.128,1.484,1.484,1.484,0,0,0,1.2,1.633,2.836,2.836,0,0,0,.713.089,3.682,3.682,0,0,0,2.494-1.158.4.4,0,0,0,.1-.312V12.9M77.718,6.28a9,9,0,0,1,2.093-.653,10.465,10.465,0,0,1,2.969-.163,5.715,5.715,0,0,1,2.969,1.173,3.637,3.637,0,0,1,1.5,2.613,4.451,4.451,0,0,1,0,.772v8.135H84.591c0-.416-.089-.846-.134-1.306l-.238.208a5.136,5.136,0,0,1-2.568,1.351,4.646,4.646,0,0,1-2.969-.4,3.578,3.578,0,0,1-1.989-2.969,4.246,4.246,0,0,1,.193-1.974A3.86,3.86,0,0,1,79.425,10.6a5.73,5.73,0,0,1,1.722-.341,10.391,10.391,0,0,1,2.969.3h.134a3.176,3.176,0,0,0,0-.995,2.034,2.034,0,0,0-1.484-1.484,4.112,4.112,0,0,0-1.484-.134,10.05,10.05,0,0,0-3.177.683l-.356.119Z" transform="translate(37.137 2.627)"/>
      <path id="Path_57" data-name="Path 57" class="cls-1" d="M61.811,10.43h4.854A2.969,2.969,0,0,0,65.908,8.4a1.811,1.811,0,0,0-.7-.445,2.39,2.39,0,0,0-2.449.49,2.969,2.969,0,0,0-.935,1.989m7.511,4.854a1.484,1.484,0,0,1,0,.223v1.959c0,.223,0,.238-.223.312a11.059,11.059,0,0,1-1.959.46,12.885,12.885,0,0,1-2.509.163,8.194,8.194,0,0,1-2.435-.43,4.988,4.988,0,0,1-3.34-3.444,8.358,8.358,0,0,1,.178-5.448,5.418,5.418,0,0,1,2.835-3.088,5.611,5.611,0,0,1,3.073-.52,11.252,11.252,0,0,1,1.232.223,4.453,4.453,0,0,1,2.746,2.227,6.9,6.9,0,0,1,.7,2.152,12.456,12.456,0,0,1,.089,2.464,2.033,2.033,0,0,1,0,.282H61.692a3.132,3.132,0,0,0,.238,1.188A2.969,2.969,0,0,0,64.1,15.789a6.443,6.443,0,0,0,2.2.134,12.573,12.573,0,0,0,2.88-.594h.148" transform="translate(28.342 2.633)"/>
      <path id="Path_58" data-name="Path 58" class="cls-1" d="M48.288,11.932v-.564a4.453,4.453,0,0,0-.564-2,2.613,2.613,0,0,0-1.6-1.306,3.058,3.058,0,0,0-1.1-.119,2.628,2.628,0,0,0-2.049,1.084,4.454,4.454,0,0,0-.475.906,5.938,5.938,0,0,0-.282,2.791,4.454,4.454,0,0,0,.445,1.618,2.88,2.88,0,0,0,3.563,1.484A2.806,2.806,0,0,0,47.917,14.1a4.884,4.884,0,0,0,.371-2.167m3.147-.1a7.259,7.259,0,0,1-.638,3.266,5.448,5.448,0,0,1-4.231,3.192,7.215,7.215,0,0,1-3.281-.134A5.27,5.27,0,0,1,39.6,14.931a7.66,7.66,0,0,1,0-6.057,5.4,5.4,0,0,1,4.053-3.266,7.081,7.081,0,0,1,3.607.119,5.478,5.478,0,0,1,3.86,3.978,7.274,7.274,0,0,1,.282,2.123" transform="translate(18.886 2.631)"/>
      <path id="Path_59" data-name="Path 59" class="cls-1" d="M40.6,5.991V8.44l-.267-.089A6.175,6.175,0,0,0,37.8,7.935a3.874,3.874,0,0,0-1.841.564,2.969,2.969,0,0,0-1.247,1.6,5.374,5.374,0,0,0,0,3.637,3.236,3.236,0,0,0,2.969,2.167,6.739,6.739,0,0,0,2.82-.445l.312-.1v2.449a4.869,4.869,0,0,1-1.113.356,8.4,8.4,0,0,1-4.453-.119,5.374,5.374,0,0,1-3.8-4.26,7.719,7.719,0,0,1,.163-4.067,5.76,5.76,0,0,1,4.453-4.067,7.779,7.779,0,0,1,4.453.252l.223.089" transform="translate(15.139 2.634)"/>
    </g>
  </g>
</svg>
