<svg id="globe_hompage" data-name="globe hompage" xmlns="http://www.w3.org/2000/svg" xmlns:xlink="http://www.w3.org/1999/xlink" viewBox="0 0 464.73 514.481">
  <defs>
    <style>
      .cls-1 {
        fill: url(#linear-gradient);
      }

      .cls-12, .cls-14, .cls-2 {
        opacity: 0.52;
      }

      .cls-2, .cls-3 {
        fill: url(#linear-gradient-2);
      }

      .cls-4 {
        fill: #45ffc0;
      }

      .cls-5 {
        fill: url(#linear-gradient-4);
      }

      .cls-6 {
        fill: url(#linear-gradient-5);
      }

      .cls-7 {
        fill: url(#linear-gradient-6);
      }

      .cls-8 {
        fill: url(#linear-gradient-7);
      }

      .cls-14, .cls-9 {
        fill: url(#linear-gradient-8);
      }

      .cls-10, .cls-18 {
        fill: #fff;
      }

      .cls-10 {
        opacity: 0.62;
      }

      .cls-11 {
        fill: url(#linear-gradient-9);
      }

      .cls-12 {
        fill: url(#linear-gradient-11);
      }

      .cls-13 {
        fill: url(#linear-gradient-12);
      }

      .cls-15 {
        fill: url(#linear-gradient-15);
      }

      .cls-16 {
        fill: #47c2f7;
      }

      .cls-17 {
        fill: #ffb15c;
      }
    </style>
    <linearGradient id="linear-gradient" x1="0.5" x2="0.5" y2="1" gradientUnits="objectBoundingBox">
      <stop offset="0" stop-color="#ffbdff"/>
      <stop offset="0.1" stop-color="#f5bfff"/>
      <stop offset="0.26" stop-color="#dbc4ff"/>
      <stop offset="0.47" stop-color="#b0ccff"/>
      <stop offset="0.72" stop-color="#75d8ff"/>
      <stop offset="0.99" stop-color="#2ae6ff"/>
      <stop offset="1" stop-color="#29e6ff"/>
    </linearGradient>
    <linearGradient id="linear-gradient-2" x1="0.17" y1="0.022" x2="0.974" y2="1.186" xlink:href="#linear-gradient"/>
    <linearGradient id="linear-gradient-4" x1="-0.037" y1="-0.276" x2="1.194" y2="1.504" xlink:href="#linear-gradient"/>
    <linearGradient id="linear-gradient-5" x1="-0.037" y1="-0.276" x2="1.194" y2="1.504" xlink:href="#linear-gradient"/>
    <linearGradient id="linear-gradient-6" x1="0.107" y1="-1.991" x2="1.009" y2="3.572" xlink:href="#linear-gradient"/>
    <linearGradient id="linear-gradient-7" x1="-1.113" y1="-0.068" x2="2.736" y2="1.235" xlink:href="#linear-gradient"/>
    <linearGradient id="linear-gradient-8" x1="0" y1="0.5" x2="1" y2="0.5" xlink:href="#linear-gradient"/>
    <linearGradient id="linear-gradient-9" x1="0.733" y1="-0.433" x2="0.34" y2="1.141" xlink:href="#linear-gradient"/>
    <linearGradient id="linear-gradient-11" x1="0" y1="0.5" x2="1" y2="0.5" xlink:href="#linear-gradient"/>
    <linearGradient id="linear-gradient-12" x1="0" y1="0.5" x2="1" y2="0.5" xlink:href="#linear-gradient"/>
    <linearGradient id="linear-gradient-15" x1="0.839" y1="-0.135" x2="0.16" y2="1.136" xlink:href="#linear-gradient"/>
  </defs>
  <g id="Layer_1" data-name="Layer 1" transform="translate(0 0)">
    <path id="Path_961" data-name="Path 961" class="cls-1" d="M454.144,866.651c-15.973-4.63-24.8-19.727-25.174-20.367l1.864-1.074c.086.15,8.787,14.99,23.911,19.378Z" transform="translate(-198.573 -391.254)"/>
    <circle id="Ellipse_32" data-name="Ellipse 32" class="cls-2" cx="164.264" cy="164.264" r="164.264" transform="translate(61.653 66.53)"/>
    <circle id="Ellipse_33" data-name="Ellipse 33" class="cls-3" cx="143.554" cy="143.554" r="143.554" transform="translate(82.363 87.24)"/>
    <path id="Path_963" data-name="Path 963" class="cls-4" d="M186.276,303.727c.908-.274,1.611-.666,1.574-.908s-.537-.247-1.074-.038a2.739,2.739,0,0,1-2.025-.177c-.913-.537-1.117-.489-2.487.322-.166.1-.317.188-.457.258q-2.148,4.023-4.087,8.191c.36-.51.881-1.187,1.611-2.122C182.167,305.736,183.816,304.49,186.276,303.727Z" transform="translate(-82.268 -139.914)"/>
    <path id="Path_964" data-name="Path 964" class="cls-4" d="M160.425,307.6c.537.929.537,1.466.129,2.922-.634,2.089-.4,6.735.322,7.133.3.161.763-.333,1.241-1.327.655-1.332.806-2.342,1.123-6.225.371-4.146.537-4.759,1.472-6.445,1.037-1.885,5.339-5.978,8.293-7.8a11.387,11.387,0,0,0,5.371-6.8c.832-2.895,2.095-4.485,2.111-2.906,0,.849.075.816.628-.344a8.378,8.378,0,0,1,2.374-2.5,37.26,37.26,0,0,0,3.282-2.637,13.766,13.766,0,0,1,3.609-2.25c3.647-1.456,4.834-2.213,5.623-3.636.65-1.155,1.477-1.719,6.134-3.942a64.924,64.924,0,0,1,7.2-3.013c2.428-.628,2.379.285-.07,1.37-2.745,1.219-3.76,1.987-3.223,2.39.236.172,1.52-.252,2.916-.967a28.9,28.9,0,0,1,4.034-1.7,16.548,16.548,0,0,0,3.3-1.5l1.783-1.074-1.939.451c-2.444.58-4.017-.038-4.06-1.552-.027-1.01.134-1.268,1.171-1.95a15.439,15.439,0,0,0,2.2-1.81c.951-.978.908-1.015-.736-.87a20.98,20.98,0,0,0-5.124,1.7c-3.18,1.472-3.883,1.611-3.464.7a29.4,29.4,0,0,1,4.979-2.61c4.544-2.057,5.118-2.2,9.023-2.573a34.478,34.478,0,0,0,12.4-3.056c4.657-1.88,6.6-3.3,5.752-4.3-.569-.661-2.1-.623-3.829.1s-2.1,0-.414-.827c1.289-.628,1.278-.645,1.149-2.111a2.13,2.13,0,0,1,.709-2.084,1.81,1.81,0,0,0,.816-1.289,1.8,1.8,0,0,1,.6-1.171,2.847,2.847,0,0,0,.784-1.241l.193-.725L236,242.125c-1.257.537-3.223,1.38-4.42,1.821l-2.148.806c-.14-.258-.274-.537-.414-.768-.338-.628-.22-.886.677-1.541a4.372,4.372,0,0,0,1.294-1.359c.285-.784-1.638-1.665-3.76-1.762a9.843,9.843,0,0,0-6.773,2.293,25.45,25.45,0,0,1-3.7,2.326c-1.611.747-1.907,1-2.428,2.062-.795,1.638-3.223,3.308-7.584,5.263-2.938,1.327-3.507,1.708-5.4,3.76-1.977,2.148-3.948,3.577-5.371,3.76-.29.043-.537-.462-.5-1.1.027-1.074.183-1.353,2.014-3.308,2.148-2.261,2.181-2.277.537-2.471a11.123,11.123,0,0,1-2.868-1,9.994,9.994,0,0,0-2.745-.951.8.8,0,0,1-.8-1.074,1.539,1.539,0,0,0-.107-1.214c-.924-.72,5.575-4.458,12.1-6.585,2-.666,3.1-1.149,3.453-1.547s.908-.623,2.465-.795a39.884,39.884,0,0,0,4.189-.768l2.24-.537-.258-.639c-.3-.747.645-1.187,1.7-.822.569.2,1.112.124,2.54-.328a22.02,22.02,0,0,1,4.3-.752c2.89-.2,4.173-.585,7.578-2.025,2.863-1.192,3.18-1.353,2.465-1.52a9.269,9.269,0,0,0-4.8.773c-4.5,1.848-8.749,2.621-5.274.859,1.262-.623,1.4-.725,1-.822a3.481,3.481,0,0,0-1.251.075c-1.2.29-.72-.725.72-1.418.849-.414,1.133-.628,1.047-.806s-1.037,0-3.448.585c-3.223.832-3.3.875-2.868,1.2.618.462-1.015,1.305-3.545,1.848a26.766,26.766,0,0,0-3.55,1.074c-1.611.628-1.611.634-2.207.15-.446-.381-1.01-.419-2.557-.167a11.458,11.458,0,0,1-3.518.054,7.519,7.519,0,0,0-3.932.312,5.223,5.223,0,0,0-.537.15,144.215,144.215,0,0,0-24.352,31.458c.537-.156,1.289-.419,2.009-.7,3.045-1.192,4.248-1.219,4.512-.113a2.868,2.868,0,0,1-.365,1.917c-.9,1.413-.043,2.573,1.327,1.778,1.923-1.117,3.131.757,1.611,2.551a1.531,1.531,0,0,1-1.558.687c-.628-.124-.988.07-1.439.768a5.64,5.64,0,0,1-1.756,1.574c-.935.537-1.262.5-1.692-.075l-.537-.709,1.289-1.332c1.66-1.686,1.74-1.9.6-1.756-1.584.193-4.3,2.342-6.273,5.108a22.867,22.867,0,0,1-2.879,3.411c-.929.73-1.074.736-1.327.064a1.756,1.756,0,0,1-.086-.306,142.129,142.129,0,0,0-9,27.231A1.611,1.611,0,0,1,160.425,307.6Z" transform="translate(-73.894 -106.445)"/>
    <path id="Path_965" data-name="Path 965" class="cls-4" d="M240.268,501.474a13.792,13.792,0,0,1-5.489-3.389c-2.148-2.148-2.739-2.428-6.735-3.158-3.76-.693-4.463-.677-5.446.086-1.225.956-1.751.451-1.815-1.767,0-.8-.741-1.579-2.406-2.632-2.557-1.611-3.18-1.509-5.516.881-.892.918-1.38,1.021-2.4.537-.747-.354-.956-.612-.51-.618s1.192-.612,1.708-1.348c.875-1.246.881-1.423.038-2.326-1.38-1.493-2.181-1.235-4.3,1.321-1.445,1.756-2.062,2.148-2.54,1.643s-.22-1.219,1.074-2.852c2.03-2.562,2.927-4.651,2.148-5.2a9.351,9.351,0,0,1-1.337-3.051c-1.482-4.947-6.23-9.088-9.394-8.132-1.552.457-5.178-1.643-6.338-3.674-2.5-4.3-8.443-9-10.516-8.293-1.413.457-6.166-1.316-7.014-2.6-1.187-1.756-2.234-1.891-3.572-.494s-1.472,2.148-.773,3.131c.3.408.193,1-.312,1.923-.709,1.289-.736,1.294-1.165.209-.537-1.294-.134-5.451.634-6.751.908-1.547-.94-1.02-1.971.537-.5.779-1.273,1.418-1.713,1.423-1.074,0-2.288,1.536-2.975,3.684a7.691,7.691,0,0,1-1.391,2.562c-.773.779-.924.741-1.96-.5-.838-1.01-1.541-1.413-2.4-1.262.054.387.107.768.167,1.155a1.858,1.858,0,0,1,1.165.333c.806.564.9.832.6,1.772-.188.607-.2,1.106-.032,1.106s.344.322.381.7.3,1.815.6,3.19a14.673,14.673,0,0,1,0,6.676,143.828,143.828,0,0,0,73.029,92.632.709.709,0,0,0,.107-.537c-.124-.634-.537-1.037-2.272-2.3a17.927,17.927,0,0,0-3.459-2.052,4.588,4.588,0,0,1-1.611-.843c-.376-.537.978-.344,3.921.537,3.411,1,4.227.677,4.377-1.95a14.765,14.765,0,0,1,.537-3.11,3,3,0,0,0-.156-2.111,2.831,2.831,0,0,1-.279-1.858,5.74,5.74,0,0,0-1.45-5.07c-1.182-1.488-1.2-1.611-.166-2.739a9.178,9.178,0,0,1,2.793-1.88,4.027,4.027,0,0,0,1.853-1.208c.081-.285.875-.36,2.062-.124,1.45.285,2.148.177,2.745-.451,1.794-1.815,1.294-11.961-.7-18.089-1.074-3.078-1.074-3.416-.086-4.662a10.936,10.936,0,0,0,1.547-3.072,20.1,20.1,0,0,1,1.821-3.91,9.668,9.668,0,0,0,.9-8.8C243.448,502.7,243.109,502.425,240.268,501.474Z" transform="translate(-72.158 -210.155)"/>
    <path id="Path_966" data-name="Path 966" class="cls-4" d="M471.892,250.468a4,4,0,0,0-2.175.564,10.9,10.9,0,0,1-3.7.886c-2.884.1-3.024.951-.242,1.783,1.891.569,2.476,1.042,2.745,2.245.414,1.842-.73,5.328-2.148,6.445-1.042.806-4.99.843-11.472.14-2.8-.3-4.732.843-4.544,2.739a14.608,14.608,0,0,1-1.316,4.517c-1.848,4.329-2.052,7.519-.569,7.686,2.825.344,3.6.65,4.866,1.95,1.348,1.391,1.375,1.4,2.148.242.612-.875,1.4-1.171,3.223-1.208a11.757,11.757,0,0,0,3.808-.7c2.4-1.117,5.022-3.464,5.167-4.614s2.685-4.592,3.405-4.6a9.668,9.668,0,0,0,2.352-1.337,7.821,7.821,0,0,1,2.685-1.337c.537,0,.747-.4.607-1.241-.258-1.611,1.735-2.524,4.667-2.148,2.207.279,4.436-.317,7.487-1.982,2.03-1.074,3.319-.752,4.334,1.187.929,1.8,5,5.371,6.16,5.371,3.11-.048,6.671,3.47,6.032,6.053-.134.537-.274,1.074-.408,1.611l1.472-1.214c1.273-1.042,1.386-1.4.849-2.546-.763-1.611-.054-2.105,2.412-1.654,2.771.537,2.148-.118-1.751-1.831-3.76-1.665-10.865-7.492-10.7-8.7.038-.381.607-.924,1.268-1.2.945-.408,1.337-.328,1.891.387a7.268,7.268,0,0,0,2.782,1.611,7.3,7.3,0,0,1,2.847,1.7,7.357,7.357,0,0,0,3.282,1.611c2.685.655,4.785,2.884,4.694,4.99-.124,2.685,1.826,4.453,5.623,4.968,1.66.226,1.525,1.2-.2,1.423-1.375.177-1.386.209-.4,1.767,1.423,2.25,2.412,2.39,3.507.489.881-1.5.838-1.821-.446-4.034-1.182-2.036-1.246-2.465-.489-3a2.294,2.294,0,0,1,1.8-.328c.5.166.918.081.924-.188,0-.924,2.293-1.558,4.066-1.144a13.873,13.873,0,0,0,4.469-.081l2.685-.478-1.472-.951c-1.413-.908-1.434-1.047-.666-3.405,1.66-5.033,6.982-9.668,8.7-7.863a4.833,4.833,0,0,0,1.756,1.01c.886.263.977.473.43,1.01s-.392.838.811,1.477c1.407.747,1.654.736,3.76-.177,1.735-.747,1.955-.972.978-.994a3.475,3.475,0,0,1-2.014-.73c-.623-.591-.22-.892,2.476-1.837l1.826-.628a144.289,144.289,0,0,0-29.427-31.984,48.385,48.385,0,0,0-6.139.408c-1.407.2-3.674.537-5.033.72a9.765,9.765,0,0,0-2.54.537,11.741,11.741,0,0,1-2.379.988,17.139,17.139,0,0,0-3.2,1.439,38.991,38.991,0,0,1-9.045,2.954c-2.573.419-5.3,1.611-5.038,2.3a3.319,3.319,0,0,1,.064,1.4c-.161.994,1.525,2.116,3.223,2.1a13.343,13.343,0,0,0,3.126-.747l2.03-.72,1.241,1.074a4.474,4.474,0,0,1,1.418,2.03,2.825,2.825,0,0,0,1.16,1.611c.983.639,1.074.628,3.169-.145a6.536,6.536,0,0,0,3.222-2.24,6.783,6.783,0,0,1,2.476-1.971c2.524-1,2.916-1.568,1.321-1.853a3.911,3.911,0,0,1-1.751-.892c-.623-.623-.591-.784.269-1.541a6.88,6.88,0,0,1,2.578-1.165,24.231,24.231,0,0,0,4.146-1.611c2.61-1.262,3.631-1.413,4.592-.859.639.4.15.854-2.616,2.685-2.148,1.434-1.966,2.3.875,3.029a10.042,10.042,0,0,0,4.974.172c2.8-.365,6.053-.231,6.585.274s-3,1.251-5.876,1.074a13.385,13.385,0,0,0-3.668.156c-.7.274-.644.446.414,1.165s1.16.924.414,1.375-1.149.446-2.61.1c-2.148-.5-3.035,0-2.739,1.719.2,1.165-.537,1.826-3.153,2.734a3.76,3.76,0,0,1-2.557.043c-1-.312-1.928-.231-4.356.4-2.771.73-3.255.763-4.576.285a4.859,4.859,0,0,0-3.362-.075c-1.756.435-1.982.381-2.986-.618-.6-.591-.929-1.149-.757-1.257s.483,0,.682.3c.268.36.494.371.843.048a.811.811,0,0,1,1.112-.048c.827.5,2.315-.51,1.977-1.311-.193-.473-.446-.489-1.558-.1a13.667,13.667,0,0,1-2.331.6c-.859.113-.908-.091-.338-1.375.22-.489.435-.972.655-1.445l-1.52.6a6.171,6.171,0,0,0-1.966,1.16c-.51.628-.312,2.417.312,2.723,1,.467-1.563,1.831-3.926,2.068-1.9.193-3.131.65-5.618,2.148a22.3,22.3,0,0,1-4.5,2.245,5.828,5.828,0,0,0-2.385,1.294C475.941,249.4,472.617,250.833,471.892,250.468Z" transform="translate(-207.148 -102.853)"/>
    <path id="Path_967" data-name="Path 967" class="cls-4" d="M646.387,288.44c-.183.3-.36.607-.537.913l1.558.72C647.069,289.525,646.731,288.982,646.387,288.44Z" transform="translate(-298.969 -133.521)"/>
    <path id="Path_968" data-name="Path 968" class="cls-4" d="M525.851,336.089l2.2,2.61.29-1.772c.414-2.476,1.4-1.939,2.61,1.461.918,2.578,2.685,5.027,8.717,12.219a18.677,18.677,0,0,1,2.685,5.462,14.69,14.69,0,0,0,3.727,6.246,12.787,12.787,0,0,1,2.637,3.282,9.1,9.1,0,0,0,1.891,2.75,8.7,8.7,0,0,1,1.762,2.954,142.829,142.829,0,0,0-16.005-65.66,15.769,15.769,0,0,1-7.014-1.477c-3.588-1.531-8.126-1.853-10.119-.73a10.447,10.447,0,0,1-3.867,1.069,6.1,6.1,0,0,0-3.8,1.482,3.429,3.429,0,0,1-3.008,1.112,3.9,3.9,0,0,0-2.31.242c-.789.446-.725.65.446,1.37a2.766,2.766,0,0,1,1.364,1.88,5.622,5.622,0,0,0,2.363,4.216c1.719.961,4.9,1.423,5.371.768.6-.875,2.685-.714,4.748.376a3.544,3.544,0,0,0,3.829.226c3.679-1.353,5.215-1.375,6.021-.091.478.773.51,1.187.091,1.182s-.628.945-.618,2.148c.032,3.62-.145,5.339-.537,5.328-.209,0-.537.918-.7,2.057-.537,3.421-2.761,4.426-7.154,3.147a8.094,8.094,0,0,0-4.34,0c-3.18.822-12.181-.773-16.854-2.965-4.3-2-7.041-2.148-8.056-.457a3.222,3.222,0,0,0-.387,2.25c.209.661-.247,1.558-1.219,2.412-1.456,1.273-1.681,1.305-3.368.478a18.212,18.212,0,0,0-4.136-1.289,4.311,4.311,0,0,1-3.351-2.116c-.978-1.649-2.39-2.25-7.364-3.142a7.708,7.708,0,0,1-3.464-1.917c-1.337-1.353-1.434-1.767-.779-3.147.537-1.1.569-1.8.161-2.283a1.558,1.558,0,0,1-.167-1.568c.779-1.611-1.643-2.148-4.571-1.1-1.987.725-3.8.892-7.761.725-6-.247-9.286.435-14.8,3.12-3.223,1.568-4.205,1.821-6.209,1.541a10.269,10.269,0,0,1-3.48-1.074c-1.536-1.042-1.74-.978-3.432,1.219a19.449,19.449,0,0,1-4.641,3.813c-3.223,1.9-5.371,4.9-5.7,7.927-.14,1.327-4.673,5.784-5.94,5.817-1.149,0-5.86,5.092-8.056,8.787-1.257,2.105-2.97,4.726-3.824,5.811-2.272,2.873-3.061,5.634-2.191,7.621,1.8,4.162.983,10.908-1.772,14.056-.9,1.031-.892,1.3.226,3.362.8,1.461.972,2.245.494,2.25s-.4.242.167.628c.768.537.741.618-.161.628-1.472,0-1.332,1.327.188,1.746.961.263,1.074.473.451.892s-.494.639.5.929c1.558.451,6.225,6.778,7.036,9.5,1.01,3.507,8.03,9.952,12.1,11.123,1.939.537,3.223.462,6.778-.537,3.448-.951,4.888-1.074,6.606-.537,1.821.537,3.056.371,7.192-1,2.75-.913,5.586-1.9,6.279-2.186,3.051-1.257,4.13-1.246,6.665.059,1.95,1,2.739,1.853,3.051,3.287.408,1.869.51,1.917,3.131,1.531,6.751-1,9.592,4.227,7.278,12.89-1.122,4.254-.537,5.779,3.631,9.668a13.6,13.6,0,0,1,4.066,6.1,26.18,26.18,0,0,0,2.422,5.247,4.494,4.494,0,0,1,.956,3.394,9.886,9.886,0,0,0,.854,4.426c.392.972.789,1.944,1.182,2.906l-1.665,3.266c-2.487,4.871-3.373,8.706-2.685,11.247a23.525,23.525,0,0,0,3.174,5.779A39.824,39.824,0,0,1,481.9,484.7c.564,2.487,1.074,3.223,3.142,5.108a26.315,26.315,0,0,1,2.148,2.1A143.452,143.452,0,0,0,552.04,381.462a29.786,29.786,0,0,0-5.161-5.167c-2.685-2.148-3.964-3.674-4.3-5.108a13.948,13.948,0,0,0-2.567-4.619c-2.895-3.534-3.641-5.043-3.668-7.46a7.713,7.713,0,0,0-1.558-4.028,65.852,65.852,0,0,1-4.168-7.02c-1.445-2.766-3.867-6.934-5.371-9.26C522.086,333.881,522.484,332.1,525.851,336.089Z" transform="translate(-182.902 -140.152)"/>
    <path id="Path_969" data-name="Path 969" class="cls-4" d="M739.216,620.17a.677.677,0,0,0-.661.5c-.043.269.183.483.5.473a.677.677,0,0,0,.661-.5C739.769,620.374,739.538,620.159,739.216,620.17Z" transform="translate(-341.881 -287.081)"/>
    <path id="Path_970" data-name="Path 970" class="cls-4" d="M747.42,616.682c-.349.177-.65.419-.671.537s.226.209.537.2a.7.7,0,0,0,.671-.537C747.99,616.6,747.742,616.5,747.42,616.682Z" transform="translate(-345.675 -285.425)"/>
    <path id="Path_971" data-name="Path 971" class="cls-4" d="M691.724,584.515c-.354,0-.494.258-.306.564s.467.537.618.537.285-.258.306-.564a.537.537,0,0,0-.618-.537Z" transform="translate(-320.024 -270.573)"/>
    <path id="Path_972" data-name="Path 972" class="cls-4" d="M751.793,546.719a.682.682,0,0,0-.666.612.537.537,0,0,0,.58.6.682.682,0,0,0,.661-.612.537.537,0,0,0-.575-.6Z" transform="translate(-347.701 -253.079)"/>
    <path id="Path_973" data-name="Path 973" class="cls-4" d="M511.078,515.286c-.344.209-.623.537-.618.661s.3.285.645.285a.628.628,0,0,0,.618-.666C511.711,515.2,511.421,515.088,511.078,515.286Z" transform="translate(-236.296 -238.485)"/>
    <path id="Path_974" data-name="Path 974" class="cls-4" d="M517.828,501.088c-.349.22-.628.537-.628.677s.3.285.65.285a.644.644,0,0,0,.623-.671C518.462,500.992,518.167,500.874,517.828,501.088Z" transform="translate(-239.416 -231.908)"/>
    <path id="Path_975" data-name="Path 975" class="cls-4" d="M209.732,463.991a1.278,1.278,0,0,0,1.112-1.16c.167-.892,0-1.171-.7-1.171-.51,0-.79.172-.628.381a1.232,1.232,0,0,1-.188,1.166C208.948,463.792,209.05,463.991,209.732,463.991Z" transform="translate(-96.798 -213.706)"/>
    <path id="Path_976" data-name="Path 976" class="cls-4" d="M187.31,451.358a1.95,1.95,0,0,0,.269.972c.145.209.365.247.483.086s0-.6-.263-.972S187.315,451,187.31,451.358Z" transform="translate(-86.707 -208.829)"/>
    <path id="Path_977" data-name="Path 977" class="cls-4" d="M183.7,450.91c-.1,0-.183.258-.188.569a.537.537,0,0,0,.424.569c.236,0,.322-.258.183-.569S183.772,450.91,183.7,450.91Z" transform="translate(-84.947 -208.73)"/>
    <path id="Path_978" data-name="Path 978" class="cls-4" d="M221.613,448.51c-.113,0-.209.263-.215.591a.537.537,0,0,0,.478.585c.269,0,.365-.269.215-.591S221.72,448.51,221.613,448.51Z" transform="translate(-102.486 -207.619)"/>
    <path id="Path_979" data-name="Path 979" class="cls-4" d="M216.933,441.362a1.273,1.273,0,0,0-.473.623c0,.145.2.258.446.252a.587.587,0,0,0,.473-.623C217.389,441.271,217.19,441.158,216.933,441.362Z" transform="translate(-100.201 -204.263)"/>
    <path id="Path_980" data-name="Path 980" class="cls-4" d="M371.026,436.12a.634.634,0,0,0-.607.628.6.6,0,0,0,.575.628.628.628,0,0,0,.6-.634.585.585,0,0,0-.569-.623Z" transform="translate(-171.469 -201.883)"/>
    <path id="Path_981" data-name="Path 981" class="cls-4" d="M214.68,433.9a1.488,1.488,0,0,0,.494-.951c0-.322-.183-.419-.44-.215a1.461,1.461,0,0,0-.494.951C214.229,433.984,214.428,434.086,214.68,433.9Z" transform="translate(-99.173 -200.268)"/>
    <path id="Path_982" data-name="Path 982" class="cls-4" d="M207.831,429.729c-.381-.188-.537-.086-.43.236a.87.87,0,0,0,.655.537C208.7,430.513,208.572,430.1,207.831,429.729Z" transform="translate(-95.992 -198.881)"/>
    <path id="Path_983" data-name="Path 983" class="cls-4" d="M360.593,426.86c-.338,0-.467.29-.285.628s.451.623.6.623.263-.285.279-.628a.591.591,0,0,0-.591-.623Z" transform="translate(-166.751 -197.597)"/>
    <path id="Path_984" data-name="Path 984" class="cls-4" d="M211.232,428.075c.107,0,.209-.263.231-.585a.494.494,0,0,0-.44-.569c-.258,0-.36.269-.231.585S211.125,428.08,211.232,428.075Z" transform="translate(-97.551 -197.625)"/>
    <path id="Path_985" data-name="Path 985" class="cls-4" d="M215.255,427.409c-.134-.317-.333-.575-.44-.569s-.215.263-.231.585a.489.489,0,0,0,.44.569C215.288,428,215.39,427.726,215.255,427.409Z" transform="translate(-99.329 -197.587)"/>
    <path id="Path_986" data-name="Path 986" class="cls-4" d="M161.65,424.7a.9.9,0,0,0,.4.768,3.883,3.883,0,0,0,1.552.252c1.074,0,1.074-.054.446-.806C163.3,424.041,161.7,423.9,161.65,424.7Z" transform="translate(-74.829 -196.352)"/>
    <path id="Path_987" data-name="Path 987" class="cls-4" d="M182.572,420.3c-.4-1.026-3.045-2.148-4.888-2.057s-2.014.156-1.713,1.149c.43,1.407-.177,1.917-2.245,1.917-1.4,0-1.477.059-.677.537a2.879,2.879,0,0,0,2.019.14,2.073,2.073,0,0,1,1.729.113C177.442,422.623,182.808,420.985,182.572,420.3Z" transform="translate(-79.869 -193.607)"/>
    <path id="Path_988" data-name="Path 988" class="cls-4" d="M194.954,424.416c.4.591,1.923.086,2.148-.72.14-.451-.183-.709-.854-.687C195.164,423.041,194.5,423.75,194.954,424.416Z" transform="translate(-90.178 -195.813)"/>
    <path id="Path_989" data-name="Path 989" class="cls-4" d="M202.457,422.374c-.371.193-.677.451-.687.575s.274.215.634.209a.688.688,0,0,0,.688-.575C203.112,422.277,202.828,422.181,202.457,422.374Z" transform="translate(-93.401 -195.474)"/>
    <path id="Path_990" data-name="Path 990" class="cls-4" d="M157.134,410.275c-.328.537-.07.682,1.074.65a3.465,3.465,0,0,1,1.735.269c.236.376,1.106.269,2.406-.3,1.16-.494,1.112-.537-2.019-2.975-3.76-2.97-4.726-3.513-6.671-3.62a5.715,5.715,0,0,0-1.815.231c-1.611.435-3.083,1.4-3.163,2.207-.059.618.048.585,1.708-.494a3.872,3.872,0,0,1,1.348-.585c1.214-.22,2.4.462,4.141,2.24C157.112,409.126,157.44,409.77,157.134,410.275Z" transform="translate(-68.82 -187.151)"/>
    <path id="Path_991" data-name="Path 991" class="cls-4" d="M176.564,407.632c.075-.7-.344-.677-1.171.059-.537.457-.473.537.231.537C176.091,408.2,176.531,407.938,176.564,407.632Z" transform="translate(-81.026 -188.46)"/>
    <path id="Path_992" data-name="Path 992" class="cls-4" d="M181.552,404.644c.537-.075,1.026-.317,1.074-.537.064-.591-1.45-.446-1.778.167C180.671,404.542,181,404.713,181.552,404.644Z" transform="translate(-83.694 -186.89)"/>
    <path id="Path_993" data-name="Path 993" class="cls-4" d="M168.155,391.37c-.661.048-.935,1.364-.473,2.32.247.5.569.757.714.537a.365.365,0,0,0-.134-.537c-.22-.107-.247-.677-.059-1.268S168.37,391.354,168.155,391.37Z" transform="translate(-77.515 -181.168)"/>
    <path id="Path_994" data-name="Path 994" class="cls-4" d="M173.193,385.244a2.057,2.057,0,0,0-.124,1.176c.054.494.209.768.338.612a2.078,2.078,0,0,0,.124-1.182C173.472,385.356,173.322,385.093,173.193,385.244Z" transform="translate(-80.098 -178.313)"/>
    <path id="Path_995" data-name="Path 995" class="cls-4" d="M169.688,386.075c.612-.757.607-.843,0-.795a1.015,1.015,0,0,0-.843.859c-.064.446-.054.806.032.8a4.242,4.242,0,0,0,.811-.865Z" transform="translate(-78.14 -178.344)"/>
    <path id="Path_996" data-name="Path 996" class="cls-4" d="M223.014,354.252c.07-.317-.107-.4-.4-.2a1.563,1.563,0,0,0-.569.6c-.032.129.145.22.392.2a.773.773,0,0,0,.575-.6Z" transform="translate(-102.785 -163.842)"/>
    <path id="Path_997" data-name="Path 997" class="cls-4" d="M634.891,331.506c.354-.886-.634-1.074-1.2-.215a2.149,2.149,0,0,1-1.611.564c-1.182,0-1.574.607-.816,1.294C631.84,333.643,634.526,332.413,634.891,331.506Z" transform="translate(-292.038 -153.1)"/>
    <path id="Path_998" data-name="Path 998" class="cls-4" d="M590.977,331.866l-2.5.043,1.858.779c2.148.892,5.07,1.074,5.575.317S594.082,331.812,590.977,331.866Z" transform="translate(-272.412 -153.621)"/>
    <path id="Path_999" data-name="Path 999" class="cls-4" d="M542.754,320.246c-1.3.312-1.2.451,1.192,1.552s2.685,1.133,3.1.3a6.908,6.908,0,0,0,.537-1.262C547.679,320.289,544.306,319.87,542.754,320.246Z" transform="translate(-250.86 -148.178)"/>
    <path id="Path_1000" data-name="Path 1000" class="cls-4" d="M523.95,307.693c-.736.6-.827,1.074-.424,2.412.671,2.181,2.24,1.713,2.449-.72C526.152,307.338,525.282,306.619,523.95,307.693Z" transform="translate(-242.234 -142.204)"/>
    <path id="Path_1001" data-name="Path 1001" class="cls-4" d="M497.184,313.114c-.322.585-.156.784.537.655a2.057,2.057,0,0,0,1.343-.865C499.568,311.922,497.721,312.121,497.184,313.114Z" transform="translate(-230.077 -144.548)"/>
    <path id="Path_1002" data-name="Path 1002" class="cls-4" d="M527.622,300.777c.091-.913-.129-1.171-.8-.951-.961.311-1.327,1.305-.687,1.891C526.876,302.4,527.526,302,527.622,300.777Z" transform="translate(-243.404 -138.758)"/>
    <path id="Path_1003" data-name="Path 1003" class="cls-4" d="M285.369,292.159c-.156.381-.2.682-.1.677a2.519,2.519,0,0,0,.752-.725c.312-.387.354-.687.1-.671a1.166,1.166,0,0,0-.752.72Z" transform="translate(-132.029 -134.909)"/>
    <path id="Path_1004" data-name="Path 1004" class="cls-4" d="M289.984,282.309a1.418,1.418,0,0,0-1.316-1.208c-1.676-.231-1.826-1.305-.349-2.369.655-.467.9-.784.591-.763a36.553,36.553,0,0,0-5.333,3.3q-2.374,1.654-4.726,3.346l1.692.038a23.755,23.755,0,0,0,7.519-.7C289.914,283.388,290.043,283.276,289.984,282.309Z" transform="translate(-129.082 -128.674)"/>
    <path id="Path_1005" data-name="Path 1005" class="cls-4" d="M488.784,254.543c-.9-2.283-1.96-3.459-3.325-3.808l-1.268-.317,1.488-.886,1.482-.875-1.23-.091c-.671-.054-1.074-.29-.945-.537s.1-.414-.124-.408c-1.477.048-3.7,1.88-3.3,2.788a1.139,1.139,0,0,1-.107,1.074c-.371.457.252.612,1.751.446.644-.075,1.364,1.364,1.122,2.277a3.813,3.813,0,0,1-1.874.843c-.977.252-1.665.639-1.525.87s-.274.671-.913.988c-1.074.537-1.037.6.537.795,2.315.3,2.508.838.467,1.4-.924.258-2.229.671-2.906.918-.94.349-.752.376.806.124,1.122-.177,4.06-.591,6.531-.908,3.357-.435,4.356-.693,3.953-1.042s-.124-.645,1.074-1.192c1.778-.811,1.762-1.611,0-1.278C489.606,255.934,489.22,255.639,488.784,254.543Z" transform="translate(-221.06 -114.625)"/>
    <path id="Path_1006" data-name="Path 1006" class="cls-4" d="M462.282,261.855c.1.424.5.537,1.133.344.537-.177,2.148-.623,3.507-.994,2.122-.564,2.573-.849,2.83-1.74a4.672,4.672,0,0,1,1.418-1.95c.612-.483,1.015-1.042.892-1.246-.328-.537-3.711-.349-4.635.279a7.144,7.144,0,0,1-2.229.832c-1.466.285-2,.827-1.182,1.219.3.145.032.655-.709,1.4A2.978,2.978,0,0,0,462.282,261.855Z" transform="translate(-213.99 -118.483)"/>
    <path id="Path_1007" data-name="Path 1007" class="cls-4" d="M484.479,258.294c.064-.226-.161-.3-.5-.156a1.525,1.525,0,0,0-.671.424c-.027.091.2.167.5.156a.72.72,0,0,0,.666-.424Z" transform="translate(-223.726 -119.461)"/>
    <path id="Path_1008" data-name="Path 1008" class="cls-4" d="M573.331,240.86c.032-.247-.387-.419-.935-.392-1.133.059-1.359.414-.4.639C573.09,241.365,573.283,241.327,573.331,240.86Z" transform="translate(-264.503 -111.313)"/>
    <path id="Path_1009" data-name="Path 1009" class="cls-4" d="M389.2,223.872a32.981,32.981,0,0,1,8.948-1.681c1.466-.054,4.753-.338,7.283-.612,3.835-.414,4.549-.537,4.3-.747s-.849-.2-2.186-.091c-2.116.188-2.959-.15-.978-.376.886-.1,1.074-.177.881-.36-.483-.457,1.52-.5,2.83-.07a4.732,4.732,0,0,0,2.546.252l1.268-.177-.822-.312a18.4,18.4,0,0,0-1.966-.537c-1.327-.29-.854-.451,1.456-.537a59.465,59.465,0,0,0,7.847-.983,21.057,21.057,0,0,1,2.5-.537c1.45-.231,1.891-.328,1.842-.435-.107-.258,3.566-.537,6.628-.6,1.418-.027,3.1-.075,3.733-.107,1.042-.048.859-.048-1.891,0-2.551.027-3.282,0-4.377-.032-1.858-.075-7.552-.1-10.264-.07-1.171,0-3.04.032-4.2,0-1.37,0-4.211,0-8.309.075-4.4.086-7.686.145-11.01.15-10.538.027-10.871,0-16.763.424-3.808.3-6.649.537-9.517.65l-4.3.2a5.236,5.236,0,0,0-1.074.333c-1.144.457-.408.537,4.651.424,3.717-.081,4.114-.064,4.522.242.537.4.236,1.423-.612,1.789-.371.156-.311.333.161.435.918.188.172,1.182-1.375,1.885a41.933,41.933,0,0,1-4.044,1.235c-3.507.918-5.5,1.907-5.527,2.685,0,.381-.36.736-1.311,1.353-2.009,1.294-1.891,2.836.381,3.76a8.835,8.835,0,0,0,2.54.7c1.5-.075,3.545-1.074,7.552-3.255,5-2.685,7.192-3.223,12.53-3.958a44.217,44.217,0,0,0,6.123-1.123Z" transform="translate(-166.025 -99.916)"/>
    <path id="Path_1010" data-name="Path 1010" class="cls-4" d="M313.555,229.208c-.4-.252-.274-.612.435-1.176.94-.752.892-.806-.73-1.037-1.015-.145-1.778-.489-1.848-.822-.1-.473-.3-.537-1.386-.279-1.789.4-1.95.381-3.142-.247a3.886,3.886,0,0,0-2.895-.338,30.691,30.691,0,0,0-4.248.913c-3.1.951-3.137.537-.027-.483.752-.242,1.509-.473,2.267-.7l-1.993.22c-2.514.258-8.2,1.8-9.061,2.481-.473.354,1.611.6,3.223.371a18.9,18.9,0,0,1,3.453-.1,9.163,9.163,0,0,0,3.615-.306c1.713-.408,1.885-.408,2.685,0a1.429,1.429,0,0,1,.671,1.461c-.1.585,0,1.074.193,1.074a1.611,1.611,0,0,1,.806.312c.446.317.4.344-1.214.72a4.819,4.819,0,0,1-2.428.172c-.859-.263-3.636.414-4.914,1.246-.639.414-1.139.494-3.008.467-2.455-.032-5.306.618-4.469,1.026a5.8,5.8,0,0,0,2.224-.2c2.992-.655,3.733-.6,3.76.328a2.148,2.148,0,0,0,1.128,1.5,4.987,4.987,0,0,0,4.034.2c.252-.15.054-.483-.43-.73-1.531-.79.709-1.472,2.471-.768.9.36.988.338,2.1-.387.9-.585,1.187-.94,1.294-1.611.134-.795.209-.849,1.359-1.187a3.394,3.394,0,0,1,2.46.1c1.391.51,2.191.392,4-.537C315.252,230.234,315.241,230.271,313.555,229.208Z" transform="translate(-133.962 -104.173)"/>
    <path id="Path_1011" data-name="Path 1011" class="cls-4" d="M491.83,236.894c.059-.129-.242-.226-.671-.215s-.822.124-.886.252.242.231.666.22S491.771,237.023,491.83,236.894Z" transform="translate(-226.947 -109.56)"/>
    <path id="Path_1012" data-name="Path 1012" class="cls-4" d="M265.8,243.083c-1.794.913-1.353,1.16,1.074.58,1.423-.338,2.068-.365,2.632-.107a1.315,1.315,0,0,0,1.536-.15c1.074-.661.838-1.214-.569-1.488C269.21,241.676,268.114,241.923,265.8,243.083Z" transform="translate(-122.535 -111.947)"/>
    <path id="Path_1013" data-name="Path 1013" class="cls-4" d="M454.966,230.89a15.4,15.4,0,0,1-3.04.231c-1.305-.193-6.284.752-7.02,1.37-.467.4-.392.489.317.36a4.506,4.506,0,0,1,2.084.312,4.4,4.4,0,0,0,1.993.36,64.457,64.457,0,0,0,8.459-1.67l1.525-.537-1.074-.4C457.307,230.594,456.867,230.589,454.966,230.89Z" transform="translate(-205.814 -106.778)"/>
    <path id="Path_1014" data-name="Path 1014" class="cls-4" d="M240.245,232.645c1.482.161,1.923.081,4.619-.671q1.5-.419,3.008-.822l-.838-.365-.827-.36,1.88-.9c1.037-.489,2-.951,2.148-1.074.564-.414-1.439-.064-3.137.585-1.831.709-2.755.843-2.148.285l.634-.58c.2-.177-.242-.113-1.225.183a5.253,5.253,0,0,1-3.2.2l-.424-.054q-2.24,1.966-4.4,4.017A8.275,8.275,0,0,1,240.245,232.645Z" transform="translate(-109.404 -105.671)"/>
    <path id="Path_1015" data-name="Path 1015" class="cls-4" d="M258.357,235.17c.075.44.167.419,2.653-.333,1.96-.58,2.014-.607,1.305-.73a7.852,7.852,0,0,0-2.379.29C258.636,234.73,258.314,234.891,258.357,235.17Z" transform="translate(-119.594 -108.368)"/>
    <path id="Path_1016" data-name="Path 1016" class="cls-4" d="M499.247,223.856c.188-.226-.328-.22-1.461,0-.709.156-.666.193.22.177A2.787,2.787,0,0,0,499.247,223.856Z" transform="translate(-230.201 -103.547)"/>
    <path id="Path_1017" data-name="Path 1017" class="cls-4" d="M270.64,228.134c-.983.757,4.447-.537,6.612-1.472.918-.4,1.52-.7,1.337-.693a29.881,29.881,0,0,0-5.371,1.037,4.834,4.834,0,0,1-2.213.306l-1.386-.059.655.322C270.657,227.726,270.812,227.979,270.64,228.134Z" transform="translate(-124.809 -104.603)"/>
    <path id="Path_1018" data-name="Path 1018" class="cls-4" d="M285.8,226.842c-.038.124.36.134.881,0s1.9-.317,3.056-.457c2.589-.317,4.028-.714,3.024-.859C291.389,225.322,285.938,226.305,285.8,226.842Z" transform="translate(-132.297 -104.385)"/>
    <path id="Path_1019" data-name="Path 1019" class="cls-4" d="M312.016,222.9h5.6a26.5,26.5,0,0,0,2.793-.414c.725-.134,1.445-.269,2.148-.392L321.539,222c-.537-.043-2.508,0-4.34.113-2.712.161-3.513.145-4.345-.107a4.932,4.932,0,0,0-2.648-.054c-1.364.209-3.287.773-3.18.929C307.069,222.893,309.293,222.909,312.016,222.9Z" transform="translate(-142.123 -102.676)"/>
    <path id="Path_1020" data-name="Path 1020" class="cls-4" d="M556.25,216.63a7.88,7.88,0,0,0,1.724-.032,2.148,2.148,0,0,1,.886,0,6.554,6.554,0,0,0,1.225.038c.677-.032.682-.027,0,.043-.424.043-1.343.091-2.041.091-1.772,0-1.665.1.414.317l1.8.2c.6-.124,1.182-.242,1.767-.349.967-.183,1.767-.322,1.8-.354a8.506,8.506,0,0,1,2.229.038c.258.054.3.145.091.2s.134.075,1.321.027h1.074c.376,0,.564,0,.537.054s.263.07.655.043c.612-.043.628-.07.129-.166a6.946,6.946,0,0,0-.961-.15h-.537c-.945-.064-2.465-.215-2.465-.252a3.761,3.761,0,0,1,.811,0c.457,0,.908.032,1.348.038,1.541.038,2.927.038,3.835,0,2.234-.107,1.515-.161-1.7-.156h-2.379a8.439,8.439,0,0,1-1.144-.032c-.36-.038-.478-.032-.537,0a3.029,3.029,0,0,1-.714.054,4.017,4.017,0,0,0-.994.113l-.349.134c-.064-.043-.124-.091-.188-.129a3.556,3.556,0,0,0-1.5-.059c-.043.032-1.536.043-4.3.027a34.917,34.917,0,0,0-4.367.064C553.6,216.5,553.978,216.512,556.25,216.63Z" transform="translate(-256.316 -100.081)"/>
    <path id="Path_1021" data-name="Path 1021" class="cls-4" d="M350.017,216.88c2.224-.038,8.792-.537,13.261-.8q2.385-.161,4.753-.279l-2.31.038c-1.273,0-5.1.075-8.5.124-6.563.075-16.832.349-17.187.414-.537.081,5.908.118,7.09.048,1.686-.1,1.515.1-.242.285-.913.1-2.567.145-4.952.134-3.851,0-5.339.075-4.952.354s-.811.446-2.567.4c-1.343-.038-1.5,0-.913.086,1.23.226-.843.537-4.248.6-2.723.064-2.986.091-2.492.263a12.276,12.276,0,0,0,3.147.043,11.069,11.069,0,0,1,3.2.059l.6.22s1.611-.263,3.593-.537,3.872-.537,4.205-.537,2.175-.231,4.087-.473S349.48,216.885,350.017,216.88Z" transform="translate(-151.164 -99.895)"/>
    <path id="Path_1022" data-name="Path 1022" class="cls-4" d="M332.092,217.783c2.234-.306,2.352-.328,2.046-.483a25.076,25.076,0,0,0-5.983.3c-2.207.285-2.277.349-.537.467a17.966,17.966,0,0,0,4.474-.279Z" transform="translate(-151.092 -100.551)"/>
    <path id="Path_1023" data-name="Path 1023" class="cls-5" d="M150.024,451.326q-10.119,0-15.576-5.409c-6.171-6.187-7.031-17.08-2.621-32.344,4.146-14.281,13.105-32.424,25.909-52.469l1.81,1.155c-26.183,41-34.771,70.939-23.562,82.175s41.163,2.621,82.175-23.557c32.977-21.065,70.638-52.168,106.06-87.584s66.5-73.131,87.557-106.092c26.189-41,34.777-70.939,23.562-82.175s-41.152-2.621-82.143,23.562l-1.16-1.81c20.05-12.8,38.187-21.763,52.463-25.909,15.286-4.436,26.172-3.545,32.36,2.642s7.079,17.074,2.643,32.36c-4.146,14.276-13.105,32.419-25.915,52.469-21.135,33.09-52.34,70.9-87.874,106.414S252.4,401.505,219.3,422.65c-20.05,12.8-38.193,21.758-52.469,25.9A61.381,61.381,0,0,1,150.024,451.326Z" transform="translate(-59.744 -63.926)"/>
    <path id="Path_1024" data-name="Path 1024" class="cls-6" d="M421.3,451.34a61.507,61.507,0,0,1-16.806-2.771c-14.276-4.146-32.419-13.105-52.469-25.9-33.1-21.145-70.9-52.35-106.419-87.879s-66.734-73.324-87.874-106.414c-12.8-20.05-21.763-38.193-25.909-52.469-4.436-15.286-3.55-26.173,2.642-32.36s17.074-7.079,32.36-2.642c14.271,4.146,32.414,13.105,52.463,25.909l-1.16,1.81C177.133,142.436,147.2,133.854,136,145.041s-2.621,41.157,23.562,82.175c21.016,32.961,52.136,70.628,87.557,106.054s73.1,66.524,106.06,87.584c40.991,26.178,70.934,34.766,82.148,23.557s2.626-41.157-23.562-82.175l1.81-1.155c12.81,20.044,21.768,38.187,25.915,52.469,4.436,15.28,3.545,26.172-2.642,32.36C433.24,449.535,428.036,451.34,421.3,451.34Z" transform="translate(-59.736 -63.94)"/>
    <path id="Path_1025" data-name="Path 1025" class="cls-7" d="M236.347,448.81c-50.25,0-99.04-4.657-137.388-13.11-23.229-5.124-42.393-11.617-55.423-18.8-13.964-7.67-21.016-15.995-21.016-24.749s7.074-17.074,21.016-24.744c13.024-7.165,32.188-13.658,55.417-18.8l.462,2.1c-47.5,10.473-74.742,25.571-74.747,41.426s27.247,30.958,74.753,41.431c38.2,8.422,86.826,13.062,136.926,13.062s98.718-4.64,136.921-13.062c47.5-10.473,74.747-25.576,74.747-41.431s-27.252-30.926-74.753-41.4l.467-2.1c23.229,5.124,42.393,11.617,55.417,18.8,13.964,7.67,21.016,15.995,21.016,24.749s-7.074,17.08-21.016,24.749c-13.024,7.165-32.188,13.658-55.417,18.8C335.366,444.153,286.587,448.81,236.347,448.81Z" transform="translate(-10.425 -161.374)"/>
    <path id="Path_1026" data-name="Path 1026" class="cls-8" d="M371.8,459.244c-8.749,0-17.074-7.068-24.744-21.016-7.165-13.025-13.664-32.188-18.8-55.423-8.459-38.343-13.116-87.138-13.116-137.383s4.657-99.034,13.116-137.388c5.118-23.229,11.617-42.387,18.8-55.417C354.724,38.652,363.049,31.6,371.8,31.6s17.074,7.074,24.744,21.016c7.165,13.024,13.658,32.193,18.8,55.423l-2.1.462C402.756,61,387.658,33.748,371.8,33.748S340.845,61,330.367,108.5C321.945,146.7,317.3,195.333,317.3,245.422s4.641,98.723,13.062,136.921C340.845,429.849,355.943,457.1,371.8,457.1s30.958-27.247,41.431-74.742l2.095.462c-5.118,23.229-11.612,42.387-18.8,55.412C388.877,452.17,380.552,459.244,371.8,459.244Z" transform="translate(-145.881 -14.628)"/>
    <circle id="Ellipse_34" data-name="Ellipse 34" class="cls-9" cx="18.046" cy="18.046" r="18.046" transform="translate(207.876)"/>
    <circle id="Ellipse_35" data-name="Ellipse 35" class="cls-10" cx="18.412" cy="18.412" r="18.412" transform="translate(259.373 238.754)"/>
    <circle id="Ellipse_36" data-name="Ellipse 36" class="cls-11" cx="12.289" cy="12.289" r="12.289" transform="translate(265.496 244.877)"/>
    <circle id="Ellipse_37" data-name="Ellipse 37" class="cls-9" cx="9.297" cy="9.297" r="9.297" transform="translate(371.593 75.279)"/>
    <g id="bubble_1" data-name="bubble 1">
      <circle id="Ellipse_38" data-name="Ellipse 38" class="cls-12" cx="8.411" cy="8.411" r="8.411" transform="translate(447.908 199.503)"/>
      <circle id="Ellipse_39" data-name="Ellipse 39" class="cls-13" cx="5.661" cy="5.661" r="5.661" transform="translate(450.658 202.253)"/>
    </g>
    <circle id="Ellipse_40" data-name="Ellipse 40" class="cls-14" cx="8.411" cy="8.411" r="8.411" transform="translate(0 284.482)"/>
    <circle id="Ellipse_41" data-name="Ellipse 41" class="cls-4" cx="5.661" cy="5.661" r="5.661" transform="translate(2.75 287.232)"/>
    <circle id="Ellipse_42" data-name="Ellipse 42" class="cls-9" cx="9.297" cy="9.297" r="9.297" transform="translate(124.627 365.051)"/>
    <circle id="Ellipse_43" data-name="Ellipse 43" class="cls-15" cx="13.212" cy="13.212" r="13.212" transform="translate(63.227 109.325)"/>
    <circle id="Ellipse_44" data-name="Ellipse 44" class="cls-9" cx="18.046" cy="18.046" r="18.046" transform="translate(207.876 425.495)"/>
    <path id="Path_1027" data-name="Path 1027" class="cls-16" d="M481.949,903.06a9.228,9.228,0,0,0,3.341,3.647,10.366,10.366,0,0,0,5.747,1.445,9.367,9.367,0,0,0,5.854-1.789,6.121,6.121,0,0,0,2.342-5.161,6.27,6.27,0,0,0-1.724-4.753,16.565,16.565,0,0,0-4.887-3.029l-1.235-.537a10.741,10.741,0,0,1-2.309-1.273,2.25,2.25,0,0,1-.1-3.223,2.326,2.326,0,0,1,1.719-.623,3.384,3.384,0,0,1,1.858.483,4.254,4.254,0,0,1,1.38,1.654l3.856-2.551a7.52,7.52,0,0,0-2.965-3.029,8.846,8.846,0,0,0-4.13-.892,7.336,7.336,0,0,0-5.263,1.858,6.161,6.161,0,0,0-1.966,4.678,6.434,6.434,0,0,0,1.611,4.683,13.428,13.428,0,0,0,4.3,2.82l1.241.537a14.328,14.328,0,0,1,2.685,1.343,2.207,2.207,0,0,1,.967,1.96,2.084,2.084,0,0,1-.929,1.724,4.028,4.028,0,0,1-2.444.688,4.834,4.834,0,0,1-3-.859A7.25,7.25,0,0,1,486,900.713ZM464.4,903.6a8.669,8.669,0,0,0,2.685,3.223,7.708,7.708,0,0,0,4.748,1.343,7.82,7.82,0,0,0,5.371-1.821q2.062-1.826,2.068-5.682V883.714h-4.957v16.865a3.349,3.349,0,0,1-.725,2.514,2.815,2.815,0,0,1-1.96.655,2.47,2.47,0,0,1-1.928-.757,8.842,8.842,0,0,1-1.241-1.789Zm-2.111-44.2h29.288a11.816,11.816,0,0,1,11.816,11.816v29.272A11.816,11.816,0,0,1,491.574,912.3H462.286a11.816,11.816,0,0,1-11.816-11.816V871.205a11.816,11.816,0,0,1,11.816-11.795Z" transform="translate(-208.526 -397.823)"/>
    <path id="Path_1028" data-name="Path 1028" class="cls-17" d="M231.582,89.135l.129-1.439h-24.6l.129,1.439,1.176,13.481h17.015l-.537,6.413-5.494,1.439-5.494-1.439-.4-3.926h-4.834l.655,7.718,10.076,2.75,10.076-2.75v-.913l1.176-12.826.134-1.439H212.859l-.392-4.973h18.841V91.595ZM199.77,79.58h39.261L235.5,119.626l-16.113,4.452-16.113-4.452Z" transform="translate(-92.475 -36.838)"/>
    <path id="Path_1029" data-name="Path 1029" class="cls-18" d="M512.182,471.368a2.331,2.331,0,1,1,1.649-.682,2.24,2.24,0,0,1-1.649.682Zm0-8.148a5.838,5.838,0,0,0-2.277.451,5.908,5.908,0,0,0-3.094,3.094,5.822,5.822,0,0,0-.451,2.277,8.057,8.057,0,0,0,.489,2.621,26.074,26.074,0,0,0,1.332,3.029c.537,1.074,1.16,2.2,1.853,3.394s1.418,2.455,2.148,3.76c.725-1.31,1.439-2.567,2.148-3.76s1.332-2.32,1.874-3.394a24.04,24.04,0,0,0,1.311-3.029,7.864,7.864,0,0,0,.51-2.621,5.731,5.731,0,0,0-.457-2.277,5.811,5.811,0,0,0-1.246-1.848,5.908,5.908,0,0,0-1.848-1.246,5.8,5.8,0,0,0-2.293-.451Z" transform="translate(-234.398 -214.428)"/>
  </g>
</svg>
