<svg xmlns="http://www.w3.org/2000/svg" xmlns:xlink="http://www.w3.org/1999/xlink" width="320" height="534" viewBox="0 0 320 534"><defs><clipPath id="a"><rect width="320" height="534" fill="#fff"/></clipPath><linearGradient id="b" x1="1" y1="0.235" x2="-0.226" y2="1.293" gradientUnits="objectBoundingBox"><stop offset="0" stop-color="#ffc09f"/><stop offset="1" stop-color="#fef3e1"/></linearGradient><linearGradient id="c" x1="1" y1="0.235" x2="-0.226" y2="1.293" gradientUnits="objectBoundingBox"><stop offset="0" stop-color="#fff7ea"/><stop offset="1" stop-color="#fef3e1"/></linearGradient><linearGradient id="d" x1="0.991" y1="-0.173" x2="0.268" y2="0.967" gradientUnits="objectBoundingBox"><stop offset="0" stop-color="#ffbdff"/><stop offset="0.1" stop-color="#f5bfff"/><stop offset="0.26" stop-color="#dbc4ff"/><stop offset="0.47" stop-color="#b0ccff"/><stop offset="0.72" stop-color="#75d8ff"/><stop offset="0.99" stop-color="#2ae6ff"/><stop offset="1" stop-color="#29e6ff"/></linearGradient><linearGradient id="e" x1="1.394" y1="0.198" x2="-2.101" y2="1.766" xlink:href="#d"/><linearGradient id="f" x1="1" y1="0.235" x2="-0.226" y2="1.293" gradientUnits="objectBoundingBox"><stop offset="0" stop-color="#ffebcb"/><stop offset="1" stop-color="#fef3e1"/></linearGradient><radialGradient id="g" cx="0.5" cy="0.5" r="0.5" gradientUnits="objectBoundingBox"><stop offset="0" stop-color="#ffb15c"/><stop offset="1" stop-color="#ffd896"/></radialGradient><linearGradient id="h" y1="0.5" x2="1" y2="0.5" gradientUnits="objectBoundingBox"><stop offset="0" stop-color="#ffe8ff"/><stop offset="0.1" stop-color="#f9d1f1"/><stop offset="0.27" stop-color="#f1afdc"/><stop offset="0.44" stop-color="#eb94cb"/><stop offset="0.62" stop-color="#e781bf"/><stop offset="0.8" stop-color="#e476b8"/><stop offset="1" stop-color="#e372b6"/></linearGradient><linearGradient id="i" x1="0.062" y1="0.778" x2="1.513" y2="-0.076" gradientUnits="objectBoundingBox"><stop offset="0" stop-color="#ffe8ff"/><stop offset="0.06" stop-color="#e3e8ff"/><stop offset="0.19" stop-color="#b2e7ff"/><stop offset="0.32" stop-color="#88e7ff"/><stop offset="0.45" stop-color="#66e7ff"/><stop offset="0.58" stop-color="#4be6ff"/><stop offset="0.71" stop-color="#38e6ff"/><stop offset="0.85" stop-color="#2de6ff"/><stop offset="1" stop-color="#29e6ff"/></linearGradient></defs><g clip-path="url(#a)"><path d="M591.982,30.3c-2.48,1.342-1.934,2.072-3.363,4.123a38.468,38.468,0,0,0-1.028,41.391c10.356,16.546,32.828,24.112,39.364,42.5,1.866,5.251,2.2,10.9,3.161,16.391s2.729,11.13,6.765,14.972c4.1,3.9,10.085,5.391,15.717,4.883s10.961-2.829,15.828-5.711c11.322-6.708,20.813-16.876,25.47-29.18s4.124-26.759-2.588-38.078c-6.162-10.39-16.707-17.323-27.2-23.311-8.614-4.918-18.314-10.523-20.7-20.149-2.048-8.249,2.008-17.407-1.239-25.263A18.789,18.789,0,0,0,636.025,5.3a26.248,26.248,0,0,0-42.011,18.13C593.7,26.4,594.724,29.112,591.982,30.3Z" transform="translate(-355.015 331.76)" fill="url(#b)"/><path d="M616.02,103.6c-8.483,4.59-6.614,7.088-11.5,14.1-28.594,41.01-30.04,99.18-3.515,141.559,35.417,56.588,112.272,82.464,134.625,145.367,6.38,17.96,7.516,37.291,10.81,56.057s9.335,38.066,23.137,51.207c14.012,13.338,34.49,18.436,53.754,16.7s37.488-9.674,54.132-19.531c38.72-22.942,71.182-57.717,87.109-99.8s14.106-91.517-8.851-130.227C934.646,243.5,898.58,219.794,862.7,199.312c-29.46-16.819-62.634-35.989-70.812-68.911-7-28.211,6.869-59.533-4.237-86.4-4.294-10.389-12.053-19.076-21-25.887C741.457-1.084,705.761-5.454,676.684,7.1S626.3,48.6,622.97,80.118C621.9,90.264,625.4,99.555,616.02,103.6Z" transform="translate(-427.049 36.877)" fill="url(#c)"/><g transform="translate(236.87 76.492)"><g transform="translate(0 0)"><path d="M55.96,149.91V106.249h-.475c-.236.028-.562-.126-.646.261a12.434,12.434,0,0,0-.623,2.844v11.311c0,.219.079.5-.3.517s-.382-.256-.39-.528a11.282,11.282,0,0,0-.233-3.37c.079-3.42-.048-6.835-.236-10.249-.1-1.82.132-1.373-.7-3.12a.531.531,0,0,1-.022-.233,4.005,4.005,0,0,0-.643-1.671,1.152,1.152,0,0,0-1.2-.23c-.124.112-.056.244-.014.365.1.295.227.59.326.887.174.528.143.562-.435.587-.34,0-.685.017-1.025,0-.393-.025-.623.1-.562.531a5.037,5.037,0,0,1-.14,1.123c0,.124,0,.174-.126.222-.393.154-.5.365-.449.842a4.406,4.406,0,0,1,0,.472,27.471,27.471,0,0,1-.233,3.6c-.039,1.345-.02,2.69,0,4.035,0,.373-.084.632-.522.581l-.23-.025h0l-3.207-5.908H32.292l-4.19,7.761a.66.66,0,0,0-.343.154c-.382.351-.087,1-.146,1.511-.022.174.07.461-.118.5-.505.093-.345.458-.348.736v3.243c0,.09.045.239-.084.253s-.118-.149-.129-.236c-.017-.185,0-.373-.025-.562s-.073-.258-.241-.247c-.121,0-.168.1-.2.2-.1.281.126.626-.188.842-.124-.281-.028-.562-.07-.842-.02-.154-.1-.239-.253-.227s-.211.132-.216.281c0,.208,0,.418-.017.632s-.149.244-.323.244-.317-.039-.337-.244a4.39,4.39,0,0,1-.017-.472v-2.291c0-.281,0-.531-.373-.562-.329-.028-.755.154-.963-.16s-.059-.719-.079-1.084a3.105,3.105,0,0,1,0-.4c0-.309-.07-.534-.435-.483-.441.062-.542-.154-.531-.545s.146-.952-.584-.924c-.037,0-.1-.115-.115-.183-.115-.432-.446-.3-.6-.138-.306.331-.786.59-.635,1.2a3.782,3.782,0,0,1,0,.943c0,1.306,0,1.306-1.289,1.3-.977,0-.817,0-.82-.8q0-5.186-.017-10.361c0-.685,0-.694-.691-.694H13.4c-.719,0-.727,0-.73.753v6.725a1.384,1.384,0,0,1-.034.623,3.386,3.386,0,0,0-.452,1.935c.014.247-.107.407-.376.385-.536-.039-.584.281-.562.7v2.451c0,.306-.118.416-.34.418V103.1h.076V99.231c0-.542-.014-.562-.494-.247-.736.461-1.457.943-2.2,1.4-.562.343-.629.312-.629-.3,0-4.282.1-8.567-.2-12.847-.022-.281-.025-.562-.051-.862,0-.07-.022-.18-.124-.168-.025,0-.056.129-.056.2,0,.764.022,1.528,0,2.291-.07,1.834.244,3.687-.281,5.5a2.384,2.384,0,0,0-.025.562c-.09,2.078-.194,4.153-.261,6.231a.9.9,0,0,1-.514.876c-.809.444-1.6.921-2.387,1.39a.724.724,0,0,1-.663.149c-.441-.18-.562,0-.562.432.02.747.037,11.066.037,17.367H1.48c-.677,0-.682.014-.688.724v2.611c0,.334-.143.463-.475.466A.534.534,0,0,1,0,124.9v25.334H55.185a2.2,2.2,0,0,1,.472,0C55.991,150.325,55.977,150.129,55.96,149.91ZM39.272,109.941v5.467H36.891v-5.467Zm-7.629,4.6,1.7-4.6h1.62l-1.216,4.619a.929.929,0,0,0-.25-.028H31.643Zm10.951.688h0l-1.39-5.285h1.62l1.89,5.1h0c-.716.056-1.421.138-2.128.183Z" transform="translate(0 -62)" fill="url(#d)"/><path d="M126.569,45.731h-.508v-3.74h.508l-1.514-4.251h-.7V28.56s0-2.721-2.207-2.721V2.331A1.191,1.191,0,0,0,121.809,0V.941c-.34,0-.34.59-.34.59V2.889h-.511V.508h-.168V2.889h-.511V1.261a.845.845,0,1,0-.68,1.547V25.833c-2.378,0-2.21,2.721-2.21,2.721v9.185h-.868L115,41.991h.511v3.74H115v.842h11.569Zm-2.718-1.022h-1.362V41.991h1.362Zm-1.362-15.129v8.16h-1.53V20.568h.5v6.972S122.489,27.541,122.489,29.579Zm-2.21-22.439h.511v6.119h-.511Zm1.179,6.119h-.511V7.141h.511Zm-1.191.34h.511v6.618h-.5Zm.68,0h.511v6.618h-.511Zm1.1-12.636a.34.34,0,1,1,.261.559.348.348,0,0,1-.211-.073.334.334,0,0,1-.051-.486Zm-.59,2.246V6.8h-.511V3.229Zm-.68,0V6.8h-.5V3.229ZM119.774,1.87a.168.168,0,0,1,.168.168.171.171,0,0,1-.169.171.174.174,0,0,1-.171-.171.171.171,0,0,1,.171-.168Zm-.514,35.869v-8.16c0-2.039,1.019-2.039,1.019-2.039V20.568h.511V37.739Zm-.511,4.251v2.718H117.39V41.991Z" transform="translate(-82.708 0)" fill="url(#e)"/></g></g><path d="M605.732,72.227c-5.914,3.2-4.611,4.941-8.019,9.83-19.934,28.59-20.942,69.143-2.451,98.688,24.691,39.451,78.271,57.49,93.854,101.343,4.448,12.521,5.24,26,7.536,39.08s6.508,26.538,16.13,35.7c9.768,9.3,24.045,12.853,37.475,11.642s26.135-6.744,37.738-13.616c26.994-15.994,49.625-40.237,60.728-69.572s9.834-63.8-6.171-90.788c-14.691-24.773-39.835-41.3-64.851-55.581-20.538-11.726-43.666-25.09-49.367-48.042-4.882-19.667,4.789-41.5-2.954-60.234-2.994-7.242-8.4-13.3-14.637-18.047A62.584,62.584,0,0,0,610.577,55.856C609.831,62.929,612.271,69.406,605.732,72.227Z" transform="translate(-339.518 117.678)" fill="url(#f)"/><path d="M310.511,1035.516a188.544,188.544,0,0,1,71.276,12.2c13.427,5.1,27.328,12.871,32.513,26.265,6.5,16.764-3.553,35.948-17.563,47.2-26.113,20.965-63.034,22.252-95.994,16.254s-64.756-18.251-98.126-21.035C149.977,1112,98.4,1131.416,45.755,1135.7c-14.642,1.2-31.541.26-40.789-11.158C.926,1119.558-1.049,1112.7.647,1106.5a20.963,20.963,0,0,1,8.279-11.243c13.651-9.674,32.219-4.386,48.748-1.785,37.789,5.945,76.184-4.586,112.065-17.842s71.117-29.453,108.89-35.513c14.274-2.293,17.438-4.227,31.892-4.6" transform="translate(-53.708 -842.465)" fill="#ffe1e1"/><circle cx="34.772" cy="34.772" r="34.772" transform="translate(203.535 119.104)" fill="url(#g)"/><path d="M1238.709,736.1c-8.329-6.919-17.286-13.634-27.79-16.261-11.38-2.849-23.669-.52-34.079,4.891s-19.083,13.713-26.366,22.916c-3.3,4.165-6.5,8.661-11.113,11.274-9.758,5.517-23.012,1.133-32.513,7.078-7.434,4.653-10.078,15.554-5.6,23.1,1.569,2.646,3.828,4.812,5.425,7.441,5.257,8.63,2.283,19.925-2.517,28.818s-11.368,17.127-13.417,27.023c-.962,4.617-.481,10.23,3.438,12.869,3.3,2.223,7.73,1.46,11.493.178a52.689,52.689,0,0,0,29.486-25.416c5.48-10.622,7.939-23.914,18.013-30.364,8.916-5.712,22.671-5.182,27.271-14.721,3.323-6.891-.433-14.895-1.352-22.49-1.906-15.787,9.33-30.773,23.27-38.424,5.618-3.084,11.938-5.312,18.333-4.86a19.046,19.046,0,0,1,13.543,6.823,2.923,2.923,0,0,0,4.477.132Z" transform="translate(-881.677 -601.846)" fill="url(#h)"/><path d="M1118.214,867.458c9.368-8.483,16.389-19.093,22.209-30.235,6.015-11.507,10.867-23.578,16.4-35.3,5.656-12.005,12.121-23.614,20.811-33.716a114.977,114.977,0,0,1,32.306-26.077c6.809-3.688,14.288-6.965,22.18-6.876,7.119.082,13.5,4.571,19.338,8.161,1.684,1.035,3.368,2.062,5.052,3.055a.6.6,0,0,0,.606-1.039c-6.315-3.681-12.453-8.392-19.531-10.526-6.953-2.093-14.531-.091-21.013,2.646-12.992,5.5-24.881,14.233-34.722,24.27-9.532,9.722-16.913,21.049-23.012,33.174-5.926,11.789-10.826,24.044-16.6,35.9-5.661,11.635-12.253,23-21.357,32.306q-1.718,1.754-3.542,3.4c-.575.52.279,1.369.852.849Z" transform="translate(-902.055 -613.556)" fill="#ffe1e1"/><path d="M1218.6,1093.929a122.07,122.07,0,0,0-4.831,18.816,43.894,43.894,0,0,0-.743,8.87c.135,3.368.722,7.3-1.684,10.047-.508.58.342,1.443.852.852,2.233-2.557,2.281-5.962,2.122-9.181a46.239,46.239,0,0,1,.5-9.561,119.214,119.214,0,0,1,4.944-19.524c.241-.736-.914-1.051-1.16-.32Z" transform="translate(-973.466 -886.549)" fill="#ffe1e1"/><path d="M1298.062,942.544c-3.628,5.228-5.2,12.241-5.182,18.537.024,7.713,3.676,15.973.4,23.438-.308.7.722,1.316,1.039.606,3.183-7.263.214-15.015-.195-22.5-.359-6.558,1.2-14.021,4.973-19.471.443-.638-.6-1.241-1.039-.609Z" transform="translate(-1035.509 -771.697)" fill="#ffe1e1"/><path d="M1205.751,904.572c-3.522,2.517-7.129,5.108-11.231,6.59-4.458,1.609-9.092.974-13.673,1.8-7.59,1.369-13.28,7.328-17.519,13.379-.445.635.6,1.237,1.039.609,4.54-6.5,10.605-12.4,18.876-13.09,4.331-.358,8.442-.241,12.547-1.908a52.945,52.945,0,0,0,10.567-6.342c.625-.445.024-1.489-.606-1.039Z" transform="translate(-937.044 -742.98)" fill="#ffe1e1"/><path d="M1192.016,1043.535a23.6,23.6,0,0,1-21.8,17.265.6.6,0,0,0,0,1.2,24.824,24.824,0,0,0,22.957-18.147A.6.6,0,0,0,1192.016,1043.535Z" transform="translate(-941.918 -848.271)" fill="#ffe1e1"/><path d="M1345.4,814.105c-11.332-1.655-23.2,3.424-30.531,12.222s-10.218,20.907-8.558,32.239c.4,2.752,1.059,5.534.693,8.281-.8,6.048-6.133,10.319-11.067,13.923l-12.886,9.436c-2.887,2.105-5.967,4.542-6.631,8.045-.9,4.737,3.166,9.063,7.542,11.091s9.332,2.7,13.487,5.146c9.25,5.444,11.712,17.969,10.052,28.572-.779,4.985-2.247,9.864-2.7,14.883s.241,10.41,3.325,14.4,9.044,6.015,13.42,3.5c3.267-1.867,4.922-5.635,5.921-9.263,4.655-16.949.041-37.106,10.992-50.853,4.978-6.255,13.1-11.168,13.526-19.148.3-5.743-3.744-10.8-8.139-14.5s-9.482-6.826-12.636-11.635a19.608,19.608,0,0,1-1.626-18.078c1.482-3.493,4-6.558,4.877-10.249,1.78-7.444-3.474-15.573-.626-22.68,2.57-6.412,11.067-8.781,17.6-6.563s11.365,7.776,15.186,13.531Z" transform="translate(-1022.919 -672.804)" fill="url(#i)"/><path d="M1343.153,1073.958c-6.181,12.766-24.781,11.548-31.154,24.275-.347.688.69,1.3,1.037.606,6.337-12.638,24.93-11.416,31.154-24.275C1344.527,1073.871,1343.49,1073.26,1343.153,1073.958Z" transform="translate(-1049.976 -871.463)" fill="#64caf4"/><path d="M75.323,101.557c-3.646-.348-38.869,13.08-61.53-31.117s-16.783-94.7,13.1-57.518S55.366,70.5,102.13,79.389,78.969,101.9,75.323,101.557Z" transform="matrix(0.978, -0.208, 0.208, 0.978, 257.211, 333.901)" fill="#fff"/><path d="M1495.7,864.553a.6.6,0,0,0,0-1.2A.6.6,0,0,0,1495.7,864.553Z" transform="translate(-1189.089 -711.759)" fill="#b5b5b5"/><path d="M1492.823,881.793a.6.6,0,0,0,0-1.2A.6.6,0,0,0,1492.823,881.793Z" transform="translate(-1186.906 -724.852)" fill="#b5b5b5"/><path d="M1492.823,878.913a.6.6,0,0,0,0-1.2A.6.6,0,0,0,1492.823,878.913Z" transform="translate(-1186.906 -722.665)" fill="#b5b5b5"/><path d="M1492.823,878.913a.6.6,0,0,0,0-1.2A.6.6,0,0,0,1492.823,878.913Z" transform="translate(-1186.906 -722.665)" fill="#b5b5b5"/><path d="M1492.823,876.043a.6.6,0,0,0,0-1.2A.6.6,0,0,0,1492.823,876.043Z" transform="translate(-1186.906 -720.485)" fill="#b5b5b5"/><path d="M1489.943,855.933a.6.6,0,0,0,0-1.2A.6.6,0,0,0,1489.943,855.933Z" transform="translate(-1184.719 -705.213)" fill="#b5b5b5"/><path d="M1489.943,832.953a.6.6,0,0,0,0-1.2A.6.6,0,0,0,1489.943,832.953Z" transform="translate(-1184.719 -687.762)" fill="#b5b5b5"/><path d="M1501.433,821.453a.6.6,0,0,0,0-1.2A.6.6,0,0,0,1501.433,821.453Z" transform="translate(-1193.445 -679.029)" fill="#b5b5b5"/><path d="M1501.433,899.033a.6.6,0,0,0,0-1.2A.6.6,0,0,0,1501.433,899.033Z" transform="translate(-1193.445 -737.944)" fill="#b5b5b5"/><path d="M1447.316,817.516a6.869,6.869,0,0,0-2.165,1.951c-1.075,1.261-2.052,2.608-3,3.962-2.406,3.426-4.639,6.977-6.8,10.564a75.145,75.145,0,0,0-4.145,7.355,76.36,76.36,0,0,0-5.442,18.677c-4.886,28.469,2.745,56.918,3.467,85.382a119.8,119.8,0,0,1-1.593,24.54c-1.307,7.138-3.674,14.252-8.421,19.872-.5.587.351,1.443.852.849,8.42-9.989,9.977-24.222,10.345-36.81.448-14.96-1.554-29.833-3.173-44.677-1.5-13.714-2.646-27.586-1.321-41.381,1.01-10.444,3.368-21.035,8.661-30.179,2.264-3.914,4.646-7.771,7.169-11.529,1.162-1.732,2.351-3.46,3.659-5.088a7.852,7.852,0,0,1,2.488-2.459c.722-.306.1-1.342-.606-1.039Z" transform="translate(-1131.336 -676.904)" fill="#64caf4"/><path d="M1444.828,1130.659c7.278,5.533,16.408,12.941,14.7,23.27-.123.758,1.034,1.083,1.162.32,1.807-10.973-7.475-18.723-15.258-24.629-.618-.467-1.218.577-.609,1.039Z" transform="translate(-1150.708 -913.879)" fill="#64caf4"/><path d="M1475.583,864.553a.6.6,0,0,0,0-1.2A.6.6,0,0,0,1475.583,864.553Z" transform="translate(-1173.814 -711.759)" fill="#b5b5b5"/><path d="M1478.456,887.533a.6.6,0,0,0,0-1.2A.6.6,0,0,0,1478.456,887.533Z" transform="translate(-1175.997 -729.211)" fill="#b5b5b5"/><path d="M1481.323,887.533a.6.6,0,0,0,0-1.2A.6.6,0,0,0,1481.323,887.533Z" transform="translate(-1178.173 -729.211)" fill="#b5b5b5"/><path d="M1481.323,887.533a.6.6,0,0,0,0-1.2A.6.6,0,0,0,1481.323,887.533Z" transform="translate(-1178.173 -729.211)" fill="#b5b5b5"/><path d="M1481.323,896.2a.6.6,0,0,0,0-1.2A.6.6,0,0,0,1481.323,896.2Z" transform="translate(-1178.173 -735.795)" fill="#b5b5b5"/><path d="M1446.853,899.033a.6.6,0,0,0,0-1.2A.6.6,0,0,0,1446.853,899.033Z" transform="translate(-1151.996 -737.944)" fill="#b5b5b5"/><path d="M1459.072,904.307l-3.45-.691c-.755-.152-1.08,1.008-.32,1.16l3.457.693c.755.149,1.078-1.008.32-1.162Z" transform="translate(-1158.525 -742.328)" fill="#b5b5b5"/><path d="M1411.446,909.3l-2.074.691c-.722.241-.416,1.405.32,1.16l2.074-.69C1412.488,910.222,1412.184,909.058,1411.446,909.3Z" transform="translate(-1123.662 -746.631)" fill="#b5b5b5"/><path d="M1432.486,907.643a.6.6,0,0,0,0-1.2A.6.6,0,0,0,1432.486,907.643Z" transform="translate(-1141.086 -744.482)" fill="#b5b5b5"/><path d="M1406.623,922.013a.6.6,0,0,0,0-1.2A.6.6,0,0,0,1406.623,922.013Z" transform="translate(-1121.445 -755.395)" fill="#b5b5b5"/><path d="M1382.023,852.3c-1.511,8.105.623,16.136,1.388,24.2a75.135,75.135,0,0,1-1.73,24.465c-.181.753.979,1.075,1.16.32A76.221,76.221,0,0,0,1384.7,877.4c-.681-8.235-3.053-16.509-1.513-24.78.142-.758-1.018-1.083-1.16-.32Z" transform="translate(-1102.804 -703.035)" fill="#ffe1e1"/><path d="M1431.4,1218.068c.431,2.822-1.429,5.262-3.019,7.388-1.386,1.85-2.726,3.765-3.046,6.108-.1.758,1.056,1.085,1.16.32.722-5.3,6.946-8.365,6.065-14.135C1432.449,1216.985,1431.289,1217.31,1431.4,1218.068Z" transform="translate(-1136.095 -980.564)" fill="#64caf4"/><path d="M1460.816,1359.665a20.559,20.559,0,0,1,4.489,11.192c.065.765,1.268.772,1.2,0a21.964,21.964,0,0,0-4.843-12.044C1461.184,1358.212,1460.333,1359.068,1460.816,1359.665Z" transform="translate(-1162.933 -1087.865)" fill="#64caf4"/><path d="M1425.546,929.03c-2.87,1.525-5.87,2.918-8.608,4.67a9.177,9.177,0,0,0-4.364,5.276.6.6,0,0,0,1.162.32c.611-2.406,2.646-3.912,4.706-5.1,2.519-1.458,5.141-2.757,7.7-4.124.683-.363.077-1.4-.606-1.039Z" transform="translate(-1126.39 -761.58)" fill="#64caf4"/><path d="M1535.916,818.583a.6.6,0,0,0,0-1.2A.6.6,0,0,0,1535.916,818.583Z" transform="translate(-1219.633 -676.849)" fill="#b5b5b5"/><path d="M1510.053,896.2a.6.6,0,0,0,0-1.2A.6.6,0,0,0,1510.053,896.2Z" transform="translate(-1199.991 -735.795)" fill="#b5b5b5"/><path d="M1533.046,893.283a.6.6,0,0,0,0-1.2A.6.6,0,0,0,1533.046,893.283Z" transform="translate(-1217.453 -733.577)" fill="#b5b5b5"/><path d="M1533.046,881.793a.6.6,0,0,0,0-1.2A.6.6,0,0,0,1533.046,881.793Z" transform="translate(-1217.453 -724.852)" fill="#b5b5b5"/><path d="M1527.3,864.553a.6.6,0,0,0,0-1.2A.6.6,0,0,0,1527.3,864.553Z" transform="translate(-1213.086 -711.759)" fill="#b5b5b5"/><path d="M1515.806,861.683a.6.6,0,0,0,0-1.2A.6.6,0,0,0,1515.806,861.683Z" transform="translate(-1204.361 -709.58)" fill="#b5b5b5"/><path d="M3028,181.839c-11.621-10.488-32.187,3.03-27.677,30.582s1.306,25.691-4.8,41.024,6.527,34.549,17.792,39,26.213-13.628,22.741-29.047-20.591-19.128-13.173-36.444S3039.625,192.327,3028,181.839Z" transform="translate(-2677.897 -22.833)" fill="none" stroke="#fff" stroke-width="2"/></g></svg>