<svg xmlns="http://www.w3.org/2000/svg" xmlns:xlink="http://www.w3.org/1999/xlink" width="320" height="348" viewBox="0 0 320 348"><defs><clipPath id="a"><rect width="320" height="348" transform="translate(0 554)" fill="#fff"/></clipPath><linearGradient id="b" x1="1.042" y1="0.075" x2="-1.817" y2="2.815" gradientUnits="objectBoundingBox"><stop offset="0" stop-color="#ffe8ff"/><stop offset="0.06" stop-color="#e3e8ff"/><stop offset="0.19" stop-color="#b2e7ff"/><stop offset="0.32" stop-color="#88e7ff"/><stop offset="0.45" stop-color="#66e7ff"/><stop offset="0.58" stop-color="#4be6ff"/><stop offset="0.71" stop-color="#38e6ff"/><stop offset="0.85" stop-color="#2de6ff"/><stop offset="1" stop-color="#29e6ff"/></linearGradient><linearGradient id="c" x1="0.5" x2="0.5" y2="1" gradientUnits="objectBoundingBox"><stop offset="0" stop-color="#ffbdff"/><stop offset="0.1" stop-color="#f5bfff"/><stop offset="0.26" stop-color="#dbc4ff"/><stop offset="0.47" stop-color="#b0ccff"/><stop offset="0.72" stop-color="#75d8ff"/><stop offset="0.99" stop-color="#2ae6ff"/><stop offset="1" stop-color="#29e6ff"/></linearGradient><linearGradient id="d" x1="0.17" y1="0.022" x2="0.974" y2="1.186" xlink:href="#c"/><linearGradient id="f" x1="-0.037" y1="-0.276" x2="1.194" y2="1.504" xlink:href="#c"/><linearGradient id="g" x1="-0.037" y1="-0.276" x2="1.194" y2="1.504" xlink:href="#c"/><linearGradient id="h" x1="0.107" y1="-1.991" x2="1.009" y2="3.572" xlink:href="#c"/><linearGradient id="i" x1="-1.113" y1="-0.068" x2="2.736" y2="1.235" xlink:href="#c"/><linearGradient id="j" x1="0" y1="0.5" x2="1" y2="0.5" xlink:href="#c"/><linearGradient id="k" x1="0.733" y1="-0.433" x2="0.34" y2="1.141" xlink:href="#c"/><linearGradient id="m" x1="0" y1="0.5" x2="1" y2="0.5" xlink:href="#c"/><linearGradient id="n" x1="0" y1="0.5" x2="1" y2="0.5" xlink:href="#c"/><linearGradient id="q" x1="0.839" y1="-0.135" x2="0.16" y2="1.136" xlink:href="#c"/></defs><g transform="translate(0 -554)" clip-path="url(#a)"><path d="M1655.571,939.2c33.636,10.005-5.1,31.36,70.882,63.354s246.091-2.05,257.407,106.63-313.2,172.654-353,71.022S1621.935,929.191,1655.571,939.2Z" transform="translate(-1741.938 -356.216)" fill="none" stroke="#ebebec" stroke-width="2"/><g transform="translate(-13.298 582.691)"><path d="M2.655,45.645C13.888,28.2,11.109,17.682,31.121,14.726s27.235,0,34.384-8.977,22.181-7.859,13.75,6.315S61.384,27.391,60.993,34.555,74.755,52.424,65.5,58.928s-21.962-.786-34.384,0S-8.578,63.087,2.655,45.645Z" transform="matrix(0.602, -0.799, 0.799, 0.602, 0, 89.502)" fill="url(#b)"/><path d="M2133.494,868.16s-6.969-26.451,0-59.614-2.261-37.54-2.261-37.54" transform="translate(-2080.988 -771.005)" fill="none" stroke="#63c9f3" stroke-width="2"/><path d="M2131.675,955.89s17.233,5.036,29.114-8.845" transform="translate(-2081.744 -875.103)" fill="none" stroke="#63c9f3" stroke-width="2"/><path d="M2116.529,932.172s-5.644,2.833-9.584-4.525" transform="translate(-2067.12 -863.632)" fill="none" stroke="#63c9f3" stroke-width="2"/></g><path d="M1651.975,1111.375c28.815-13.365,164.733-33.364,208.193-20.32s101.067,30.877,65.754,83.3-186.112,53.51-186.112,53.51-108.339,1.813-125.01-39.121S1623.16,1124.74,1651.975,1111.375Z" transform="translate(-1725.604 -397.484)" fill="#fef5e6"/><g transform="translate(28.645 589.9)"><g transform="translate(0 0)"><path d="M442.186,856.466c-8.386-2.431-13.021-10.357-13.216-10.692l.978-.564c.045.079,4.613,7.87,12.553,10.174Z" transform="translate(-308.013 -606.886)" fill="url(#c)"/><circle cx="86.238" cy="86.238" r="86.238" transform="translate(32.367 34.928)" opacity="0.52" fill="url(#d)"/><circle cx="75.365" cy="75.365" r="75.365" transform="translate(43.24 45.801)" fill="url(#d)"/><path d="M182.212,303.026c.477-.144.846-.35.826-.477s-.282-.13-.564-.02a1.438,1.438,0,0,1-1.063-.093c-.479-.282-.587-.257-1.306.169-.087.051-.166.1-.24.135q-1.128,2.112-2.146,4.3c.189-.268.462-.623.846-1.114C180.055,304.081,180.92,303.426,182.212,303.026Z" transform="translate(-127.608 -217.025)" fill="#45ffc0"/><path d="M160.047,270.713a1.621,1.621,0,0,1,.068,1.534c-.333,1.1-.211,3.536.169,3.745.158.085.4-.175.651-.7a8.25,8.25,0,0,0,.589-3.268c.195-2.177.282-2.5.773-3.384a16.723,16.723,0,0,1,4.354-4.1,5.978,5.978,0,0,0,2.82-3.57c.437-1.52,1.1-2.354,1.108-1.525,0,.445.039.429.33-.18a4.4,4.4,0,0,1,1.246-1.314,19.559,19.559,0,0,0,1.723-1.384,7.227,7.227,0,0,1,1.895-1.181c1.915-.764,2.538-1.162,2.952-1.909.341-.606.775-.9,3.22-2.07a34.084,34.084,0,0,1,3.781-1.582c1.275-.33,1.249.149-.037.719-1.441.64-1.974,1.043-1.692,1.255a3.134,3.134,0,0,0,1.531-.508,15.17,15.17,0,0,1,2.118-.891,8.687,8.687,0,0,0,1.731-.79l.936-.564-1.018.237c-1.283.3-2.109-.02-2.132-.815-.014-.53.07-.665.615-1.024a8.105,8.105,0,0,0,1.153-.95c.5-.513.477-.533-.386-.457a11.015,11.015,0,0,0-2.69.891c-1.669.773-2.039.846-1.819.367a15.435,15.435,0,0,1,2.614-1.37,10.716,10.716,0,0,1,4.737-1.351,18.1,18.1,0,0,0,6.511-1.6c2.445-.987,3.463-1.731,3.02-2.256-.3-.347-1.1-.327-2.01.051s-1.1,0-.217-.434c.677-.33.671-.338.6-1.108a1.118,1.118,0,0,1,.372-1.094.95.95,0,0,0,.429-.677.945.945,0,0,1,.313-.615,1.5,1.5,0,0,0,.412-.651l.1-.381-1.2.53c-.66.282-1.692.725-2.321.956l-1.128.423c-.073-.135-.144-.282-.217-.4-.178-.33-.116-.465.355-.809a2.3,2.3,0,0,0,.68-.713c.149-.412-.86-.874-1.974-.925a5.167,5.167,0,0,0-3.556,1.2,13.362,13.362,0,0,1-1.943,1.221c-.846.392-1,.527-1.275,1.083-.417.86-1.692,1.737-3.981,2.763a6.472,6.472,0,0,0-2.837,1.974,5.762,5.762,0,0,1-2.82,1.974c-.152.023-.282-.242-.265-.578.014-.564.1-.711,1.057-1.737,1.128-1.187,1.145-1.2.282-1.3a5.839,5.839,0,0,1-1.506-.524,5.246,5.246,0,0,0-1.441-.5.42.42,0,0,1-.42-.564.808.808,0,0,0-.056-.637c-.485-.378,2.927-2.34,6.35-3.457a5.266,5.266,0,0,0,1.813-.812c.183-.209.477-.327,1.294-.417a20.941,20.941,0,0,0,2.2-.4l1.176-.282-.135-.336c-.158-.392.338-.623.891-.431.3.1.584.065,1.334-.172a11.561,11.561,0,0,1,2.256-.395,10.2,10.2,0,0,0,3.979-1.063c1.5-.626,1.669-.711,1.294-.8a4.866,4.866,0,0,0-2.521.406c-2.363.97-4.593,1.376-2.769.451.663-.327.736-.381.527-.431a1.828,1.828,0,0,0-.657.039c-.632.152-.378-.381.378-.744.445-.217.595-.33.55-.423s-.544,0-1.81.307c-1.692.437-1.731.46-1.506.632.324.242-.533.685-1.861.97a14.054,14.054,0,0,0-1.864.564c-.846.33-.846.333-1.159.079-.234-.2-.53-.22-1.342-.087a6.015,6.015,0,0,1-1.847.028,3.948,3.948,0,0,0-2.064.164,2.743,2.743,0,0,0-.282.079A75.713,75.713,0,0,0,167.8,249.232c.282-.082.677-.22,1.055-.367,1.6-.626,2.23-.64,2.369-.059a1.506,1.506,0,0,1-.192,1.007c-.474.742-.023,1.351.7.933,1.009-.586,1.644.4.846,1.339a.8.8,0,0,1-.818.361c-.33-.065-.519.037-.756.4a2.961,2.961,0,0,1-.922.826c-.491.282-.663.262-.888-.039l-.282-.372.677-.7c.871-.885.914-1,.316-.922-.832.1-2.256,1.229-3.293,2.682a12,12,0,0,1-1.511,1.79c-.488.383-.564.386-.7.034a.921.921,0,0,1-.045-.161,74.618,74.618,0,0,0-4.726,14.3A.846.846,0,0,1,160.047,270.713Z" transform="translate(-114.619 -165.109)" fill="#45ffc0"/><path d="M200.183,478.919a7.241,7.241,0,0,1-2.882-1.779c-1.128-1.128-1.438-1.275-3.536-1.658-1.974-.364-2.343-.355-2.859.045-.643.5-.919.237-.953-.928,0-.42-.389-.829-1.263-1.382-1.342-.846-1.669-.792-2.9.462-.468.482-.725.536-1.26.282-.392-.186-.5-.321-.268-.324s.626-.321.9-.708c.46-.654.462-.747.02-1.221-.725-.784-1.145-.649-2.256.694-.759.922-1.083,1.128-1.334.863s-.116-.64.564-1.5c1.066-1.345,1.537-2.442,1.128-2.732a4.909,4.909,0,0,1-.7-1.6c-.778-2.6-3.271-4.771-4.932-4.269-.815.24-2.718-.863-3.327-1.929-1.314-2.256-4.433-4.726-5.521-4.354a5.538,5.538,0,0,1-3.683-1.365c-.623-.922-1.173-.993-1.875-.259s-.773,1.128-.406,1.644c.155.214.1.527-.164,1.009-.372.677-.386.68-.612.11a6.322,6.322,0,0,1,.333-3.544c.477-.812-.493-.536-1.035.282-.265.409-.668.744-.9.747-.564,0-1.2.806-1.562,1.934a4.037,4.037,0,0,1-.73,1.345c-.406.409-.485.389-1.029-.262-.44-.53-.809-.742-1.26-.663.028.2.056.4.087.606a.976.976,0,0,1,.612.175c.423.3.471.437.313.931-.1.319-.107.581-.017.581s.18.169.2.369.158.953.313,1.675a7.7,7.7,0,0,1,0,3.5,75.509,75.509,0,0,0,38.34,48.631.372.372,0,0,0,.056-.282c-.065-.333-.282-.544-1.193-1.21a9.41,9.41,0,0,0-1.816-1.077,2.408,2.408,0,0,1-.846-.443c-.2-.282.513-.18,2.058.282,1.791.524,2.219.355,2.3-1.024a7.752,7.752,0,0,1,.282-1.633,1.573,1.573,0,0,0-.082-1.108,1.486,1.486,0,0,1-.147-.976,3.013,3.013,0,0,0-.761-2.662c-.62-.781-.629-.846-.087-1.438a4.818,4.818,0,0,1,1.466-.987,2.114,2.114,0,0,0,.973-.634c.042-.149.46-.189,1.083-.065.761.149,1.128.093,1.441-.237.942-.953.68-6.279-.369-9.5-.564-1.616-.564-1.793-.045-2.448a5.742,5.742,0,0,0,.812-1.613,10.554,10.554,0,0,1,.956-2.053,5.075,5.075,0,0,0,.471-4.621C201.853,479.562,201.675,479.418,200.183,478.919Z" transform="translate(-111.926 -325.978)" fill="#45ffc0"/><path d="M460.3,237.036a2.1,2.1,0,0,0-1.142.3,5.723,5.723,0,0,1-1.94.465c-1.514.051-1.587.5-.127.936.993.3,1.3.547,1.441,1.179a4.3,4.3,0,0,1-1.128,3.384c-.547.423-2.62.443-6.023.073-1.472-.155-2.484.443-2.385,1.438a7.668,7.668,0,0,1-.691,2.371c-.97,2.273-1.077,3.948-.3,4.035,1.483.18,1.892.341,2.555,1.024.708.73.722.733,1.128.127.321-.46.733-.615,1.692-.634a6.172,6.172,0,0,0,2-.367c1.258-.587,2.636-1.819,2.713-2.422s1.41-2.411,1.788-2.414a5.075,5.075,0,0,0,1.235-.7,4.106,4.106,0,0,1,1.41-.7c.282,0,.392-.209.319-.651-.135-.846.911-1.325,2.45-1.128a6.376,6.376,0,0,0,3.931-1.04c1.066-.564,1.743-.395,2.276.623.488.945,2.625,2.82,3.234,2.82,1.633-.025,3.5,1.822,3.167,3.178-.07.282-.144.564-.214.846l.773-.637c.668-.547.727-.733.445-1.337-.4-.846-.028-1.105,1.266-.868,1.455.282,1.128-.062-.919-.962-1.974-.874-5.7-3.933-5.617-4.568.02-.2.319-.485.665-.632.5-.214.7-.172.992.2a3.816,3.816,0,0,0,1.461.846,3.832,3.832,0,0,1,1.494.891,3.862,3.862,0,0,0,1.723.846,3,3,0,0,1,2.464,2.62c-.065,1.41.959,2.338,2.952,2.608.871.118.8.629-.107.747-.722.093-.727.11-.209.928.747,1.181,1.266,1.255,1.841.257.462-.789.44-.956-.234-2.118-.62-1.069-.654-1.294-.257-1.576a1.2,1.2,0,0,1,.947-.172c.262.087.482.042.485-.1,0-.485,1.2-.818,2.135-.6a7.283,7.283,0,0,0,2.346-.042l1.41-.251-.773-.5c-.742-.477-.753-.55-.35-1.788.871-2.642,3.666-5.076,4.565-4.128a2.537,2.537,0,0,0,.922.53c.465.138.513.248.226.53s-.206.44.426.775c.739.392.868.386,1.974-.093.911-.392,1.026-.51.513-.522a1.824,1.824,0,0,1-1.057-.383c-.327-.31-.116-.468,1.3-.964l.959-.33A75.751,75.751,0,0,0,487,222.19a25.4,25.4,0,0,0-3.223.214c-.739.107-1.929.282-2.642.378a5.127,5.127,0,0,0-1.334.282,6.163,6.163,0,0,1-1.249.519,9,9,0,0,0-1.678.756,20.47,20.47,0,0,1-4.748,1.551c-1.351.22-2.78.846-2.645,1.21a1.743,1.743,0,0,1,.034.736c-.085.522.8,1.111,1.692,1.1a7,7,0,0,0,1.641-.392l1.066-.378.651.564a2.349,2.349,0,0,1,.744,1.066,1.483,1.483,0,0,0,.609.846c.516.336.564.33,1.664-.076a3.431,3.431,0,0,0,1.692-1.176,3.561,3.561,0,0,1,1.3-1.035c1.325-.527,1.531-.823.694-.973a2.053,2.053,0,0,1-.919-.468c-.327-.327-.31-.412.141-.809a3.612,3.612,0,0,1,1.353-.612,12.722,12.722,0,0,0,2.177-.846c1.37-.663,1.906-.742,2.411-.451.336.209.079.448-1.373,1.41-1.128.753-1.032,1.21.46,1.59a5.271,5.271,0,0,0,2.611.09,7.489,7.489,0,0,1,3.457.144c.279.265-1.576.657-3.085.564a7.026,7.026,0,0,0-1.926.082c-.367.144-.338.234.217.612s.609.485.217.722-.6.234-1.37.051c-1.128-.262-1.593,0-1.438.9.1.612-.282.959-1.655,1.435a1.974,1.974,0,0,1-1.342.023,3.949,3.949,0,0,0-2.287.211c-1.455.383-1.709.4-2.4.149a2.551,2.551,0,0,0-1.765-.039c-.922.228-1.04.2-1.568-.324-.313-.31-.488-.6-.4-.66s.254,0,.358.155c.141.189.259.195.443.025a.426.426,0,0,1,.584-.025c.434.262,1.215-.268,1.038-.688-.1-.248-.234-.257-.818-.051a7.174,7.174,0,0,1-1.224.313c-.451.059-.477-.048-.178-.722.116-.257.228-.51.344-.758l-.8.316a3.239,3.239,0,0,0-1.032.609c-.268.33-.164,1.269.164,1.43.524.245-.82.962-2.061,1.086a6.271,6.271,0,0,0-2.949,1.128,11.7,11.7,0,0,1-2.36,1.179,3.059,3.059,0,0,0-1.252.68C462.429,236.475,460.683,237.228,460.3,237.036Z" transform="translate(-321.314 -159.539)" fill="#45ffc0"/><path d="M646.132,288.44c-.1.158-.189.319-.282.479l.818.378C646.49,289.01,646.312,288.725,646.132,288.44Z" transform="translate(-463.739 -207.108)" fill="#45ffc0"/><path d="M463.751,320.26l1.153,1.37.152-.93c.217-1.3.733-1.018,1.37.767.482,1.353,1.41,2.639,4.576,6.415a9.806,9.806,0,0,1,1.41,2.868,7.712,7.712,0,0,0,1.957,3.279,6.713,6.713,0,0,1,1.385,1.723,4.775,4.775,0,0,0,.993,1.444,4.568,4.568,0,0,1,.925,1.551,74.984,74.984,0,0,0-8.4-34.471,8.278,8.278,0,0,1-3.682-.775c-1.884-.8-4.266-.973-5.312-.383a5.485,5.485,0,0,1-2.03.561,3.2,3.2,0,0,0-1.994.778,1.8,1.8,0,0,1-1.579.584,2.047,2.047,0,0,0-1.212.127c-.414.234-.381.341.234.719a1.452,1.452,0,0,1,.716.987,2.951,2.951,0,0,0,1.241,2.213c.9.5,2.574.747,2.82.4.316-.46,1.41-.375,2.493.2a1.86,1.86,0,0,0,2.01.118c1.932-.711,2.738-.722,3.161-.048.251.406.268.623.048.62s-.33.5-.324,1.128c.017,1.9-.076,2.8-.282,2.8-.11,0-.282.482-.369,1.08-.282,1.8-1.449,2.323-3.756,1.652a4.25,4.25,0,0,0-2.278,0c-1.669.431-6.4-.406-8.848-1.556-2.256-1.052-3.7-1.128-4.23-.24a1.692,1.692,0,0,0-.2,1.181c.11.347-.13.818-.64,1.266-.764.668-.883.685-1.768.251a9.56,9.56,0,0,0-2.171-.677,2.263,2.263,0,0,1-1.759-1.111c-.513-.866-1.255-1.181-3.866-1.649a4.047,4.047,0,0,1-1.819-1.007c-.7-.711-.753-.928-.409-1.652.282-.578.3-.945.085-1.2a.818.818,0,0,1-.087-.823c.409-.846-.863-1.128-2.4-.578a9.715,9.715,0,0,1-4.074.381,13.78,13.78,0,0,0-7.771,1.638c-1.692.823-2.208.956-3.26.809a5.392,5.392,0,0,1-1.827-.564c-.806-.547-.914-.513-1.8.64a10.212,10.212,0,0,1-2.436,2,5.834,5.834,0,0,0-2.995,4.162c-.073.7-2.453,3.037-3.119,3.054-.6,0-3.076,2.673-4.23,4.613-.66,1.105-1.559,2.481-2.008,3.051-1.193,1.509-1.607,2.958-1.15,4,.947,2.185.516,5.727-.931,7.379-.474.541-.468.682.118,1.765.42.767.51,1.179.259,1.181s-.211.127.087.33c.4.282.389.324-.085.33-.773,0-.7.7.1.916.5.138.564.248.237.468s-.259.336.265.488c.818.237,3.268,3.558,3.694,4.985.53,1.841,4.215,5.225,6.353,5.84,1.018.282,1.692.242,3.558-.282,1.81-.5,2.566-.564,3.468-.282.956.282,1.6.195,3.776-.527,1.444-.479,2.932-1,3.3-1.148,1.6-.66,2.168-.654,3.5.031,1.024.527,1.438.973,1.6,1.726.214.981.268,1.007,1.644.8,3.544-.527,5.036,2.219,3.821,6.767-.589,2.233-.282,3.034,1.906,5.076a7.14,7.14,0,0,1,2.135,3.2,13.745,13.745,0,0,0,1.272,2.755,2.36,2.36,0,0,1,.5,1.782,5.19,5.19,0,0,0,.448,2.323c.206.51.414,1.021.62,1.525l-.874,1.714c-1.306,2.557-1.771,4.571-1.41,5.9a12.35,12.35,0,0,0,1.666,3.034,20.907,20.907,0,0,1,3.262,7.165,4.1,4.1,0,0,0,1.65,2.682,13.813,13.813,0,0,1,1.128,1.1A75.311,75.311,0,0,0,477.5,344.081a15.636,15.636,0,0,0-2.71-2.713c-1.41-1.128-2.081-1.929-2.256-2.682a7.323,7.323,0,0,0-1.348-2.425c-1.52-1.855-1.912-2.648-1.926-3.917a4.049,4.049,0,0,0-.818-2.115,34.577,34.577,0,0,1-2.188-3.685c-.758-1.452-2.03-3.64-2.82-4.861C461.774,319.1,461.983,318.165,463.751,320.26Z" transform="translate(-283.704 -217.394)" fill="#45ffc0"/><path d="M738.9,620.169a.355.355,0,0,0-.347.265c-.023.141.1.254.265.248a.355.355,0,0,0,.347-.262C739.19,620.277,739.069,620.164,738.9,620.169Z" transform="translate(-530.301 -445.3)" fill="#45ffc0"/><path d="M747.1,616.639c-.183.093-.341.22-.352.282s.118.11.282.107a.369.369,0,0,0,.352-.282C747.4,616.594,747.27,616.546,747.1,616.639Z" transform="translate(-536.187 -442.731)" fill="#45ffc0"/><path d="M691.539,584.512c-.186,0-.259.135-.161.3s.245.282.324.282.149-.135.161-.3a.282.282,0,0,0-.324-.282Z" transform="translate(-496.398 -419.694)" fill="#45ffc0"/><path d="M751.475,546.718a.358.358,0,0,0-.35.321.282.282,0,0,0,.3.313.358.358,0,0,0,.347-.321.282.282,0,0,0-.3-.313Z" transform="translate(-539.329 -392.559)" fill="#45ffc0"/><path d="M510.784,515.24c-.18.11-.327.282-.324.347s.155.149.338.149a.33.33,0,0,0,.324-.35C511.117,515.2,510.965,515.136,510.784,515.24Z" transform="translate(-366.525 -369.921)" fill="#45ffc0"/><path d="M517.53,501.038c-.183.116-.33.282-.33.355s.155.149.341.149a.338.338,0,0,0,.327-.352C517.863,500.987,517.708,500.925,517.53,501.038Z" transform="translate(-371.365 -359.72)" fill="#45ffc0"/><path d="M209.436,462.884a.671.671,0,0,0,.584-.609c.087-.468,0-.615-.369-.615-.268,0-.414.09-.33.2a.647.647,0,0,1-.1.612C209.024,462.779,209.078,462.884,209.436,462.884Z" transform="translate(-150.146 -331.485)" fill="#45ffc0"/><path d="M187.31,451.247a1.024,1.024,0,0,0,.141.51c.076.11.192.13.254.045s0-.316-.138-.51S187.313,451.058,187.31,451.247Z" transform="translate(-134.494 -323.92)" fill="#45ffc0"/><path d="M183.606,450.91c-.054,0-.1.135-.1.3a.282.282,0,0,0,.223.3c.124,0,.169-.135.1-.3S183.646,450.91,183.606,450.91Z" transform="translate(-131.763 -323.767)" fill="#45ffc0"/><path d="M221.509,448.51c-.059,0-.11.138-.113.31a.282.282,0,0,0,.251.307c.141,0,.192-.141.113-.31S221.566,448.51,221.509,448.51Z" transform="translate(-158.968 -322.043)" fill="#45ffc0"/><path d="M216.708,441.314a.669.669,0,0,0-.248.327c0,.076.1.135.234.133a.308.308,0,0,0,.248-.327C216.948,441.266,216.843,441.207,216.708,441.314Z" transform="translate(-155.425 -316.838)" fill="#45ffc0"/><path d="M370.737,436.12a.333.333,0,0,0-.319.33.313.313,0,0,0,.3.33.33.33,0,0,0,.316-.333.307.307,0,0,0-.3-.327Z" transform="translate(-265.971 -313.147)" fill="#45ffc0"/><path d="M214.471,433.3a.781.781,0,0,0,.259-.5c0-.169-.1-.22-.231-.113a.767.767,0,0,0-.259.5C214.234,433.341,214.338,433.395,214.471,433.3Z" transform="translate(-153.83 -310.642)" fill="#45ffc0"/><path d="M207.611,429.684c-.2-.1-.282-.045-.226.124a.457.457,0,0,0,.344.282C208.065,430.1,208,429.879,207.611,429.684Z" transform="translate(-148.896 -308.491)" fill="#45ffc0"/><path d="M360.418,426.86c-.178,0-.245.152-.149.33s.237.327.313.327.138-.149.147-.33a.31.31,0,0,0-.31-.327Z" transform="translate(-258.652 -306.498)" fill="#45ffc0"/><path d="M211,427.526c.056,0,.11-.138.121-.307a.259.259,0,0,0-.231-.3c-.135,0-.189.141-.121.307S210.94,427.529,211,427.526Z" transform="translate(-151.315 -306.541)" fill="#45ffc0"/><path d="M214.933,427.139c-.07-.166-.175-.3-.231-.3s-.113.138-.121.307a.257.257,0,0,0,.231.3C214.95,427.449,215,427.305,214.933,427.139Z" transform="translate(-154.073 -306.483)" fill="#45ffc0"/><path d="M161.65,424.447a.474.474,0,0,0,.211.4,2.039,2.039,0,0,0,.815.133c.564,0,.564-.028.234-.423C162.518,424.1,161.675,424.026,161.65,424.447Z" transform="translate(-116.069 -304.567)" fill="#45ffc0"/><path d="M177.805,419.323a3.206,3.206,0,0,0-2.566-1.08c-.967.048-1.057.082-.9.6.226.739-.093,1.007-1.179,1.007-.736,0-.775.031-.355.282a1.511,1.511,0,0,0,1.06.073,1.088,1.088,0,0,1,.908.059C175.112,420.541,177.929,419.681,177.805,419.323Z" transform="translate(-123.887 -300.309)" fill="#45ffc0"/><path d="M194.885,423.747c.211.31,1.009.045,1.128-.378.073-.237-.1-.372-.448-.361C195,423.025,194.645,423.4,194.885,423.747Z" transform="translate(-139.878 -303.732)" fill="#45ffc0"/><path d="M202.131,422.326c-.195.1-.355.237-.361.3s.144.113.333.11a.361.361,0,0,0,.361-.3C202.475,422.276,202.325,422.225,202.131,422.326Z" transform="translate(-144.876 -303.205)" fill="#45ffc0"/><path d="M153.113,407.434c-.172.282-.037.358.564.341a1.819,1.819,0,0,1,.911.141c.124.2.581.141,1.263-.158.609-.259.584-.282-1.06-1.562-1.974-1.559-2.481-1.844-3.5-1.9a3,3,0,0,0-.953.121c-.846.228-1.619.736-1.661,1.159-.031.324.025.307.9-.259a2.033,2.033,0,0,1,.708-.307c.637-.116,1.26.242,2.174,1.176C153.1,406.83,153.273,407.169,153.113,407.434Z" transform="translate(-106.748 -290.295)" fill="#45ffc0"/><path d="M175.838,407.39c.039-.367-.18-.355-.615.031-.282.24-.248.282.121.282C175.59,407.689,175.821,407.551,175.838,407.39Z" transform="translate(-125.681 -292.326)" fill="#45ffc0"/><path d="M181.195,404.21c.282-.039.539-.166.564-.282.034-.31-.761-.234-.933.087C180.732,404.157,180.9,404.247,181.195,404.21Z" transform="translate(-129.82 -289.891)" fill="#45ffc0"/><path d="M167.821,391.369c-.347.025-.491.716-.248,1.218.13.265.3.4.375.282a.192.192,0,0,0-.07-.282c-.116-.056-.13-.355-.031-.665S167.934,391.361,167.821,391.369Z" transform="translate(-120.236 -281.015)" fill="#45ffc0"/><path d="M173.117,385.224a1.08,1.08,0,0,0-.065.617c.028.259.11.4.178.321a1.091,1.091,0,0,0,.065-.62C173.264,385.283,173.185,385.145,173.117,385.224Z" transform="translate(-124.243 -276.586)" fill="#45ffc0"/><path d="M169.267,385.693c.321-.4.319-.443,0-.417a.533.533,0,0,0-.443.451c-.034.234-.028.423.017.42a2.227,2.227,0,0,0,.426-.454Z" transform="translate(-121.205 -276.635)" fill="#45ffc0"/><path d="M222.552,354.1c.037-.166-.056-.211-.209-.107a.82.82,0,0,0-.3.316c-.017.068.076.116.206.107A.406.406,0,0,0,222.552,354.1Z" transform="translate(-159.433 -254.141)" fill="#45ffc0"/><path d="M632.984,331.14c.186-.465-.333-.564-.629-.113a1.128,1.128,0,0,1-.846.3c-.62,0-.826.319-.429.68C631.383,332.262,632.793,331.616,632.984,331.14Z" transform="translate(-452.988 -237.478)" fill="#45ffc0"/><path d="M589.791,331.864l-1.311.023.976.409c1.128.468,2.662.564,2.927.166S591.421,331.836,589.791,331.864Z" transform="translate(-422.546 -238.286)" fill="#45ffc0"/><path d="M542.359,320.178c-.682.164-.629.237.626.815s1.41.595,1.63.158a3.628,3.628,0,0,0,.282-.663C544.945,320.2,543.174,319.98,542.359,320.178Z" transform="translate(-389.117 -229.843)" fill="#45ffc0"/><path d="M523.636,307.457c-.386.316-.434.564-.223,1.266.352,1.145,1.176.9,1.286-.378C524.792,307.271,524.335,306.893,523.636,307.457Z" transform="translate(-375.737 -220.576)" fill="#45ffc0"/><path d="M497.109,312.709c-.169.307-.082.412.282.344a1.08,1.08,0,0,0,.7-.454C498.361,312.083,497.391,312.187,497.109,312.709Z" transform="translate(-356.879 -224.212)" fill="#45ffc0"/><path d="M526.764,300.29c.048-.479-.068-.615-.42-.5-.5.164-.7.685-.361.993C526.372,301.144,526.713,300.933,526.764,300.29Z" transform="translate(-377.55 -215.231)" fill="#45ffc0"/><path d="M285.3,291.817c-.082.2-.1.358-.051.355a1.322,1.322,0,0,0,.395-.381c.164-.2.186-.361.051-.352A.612.612,0,0,0,285.3,291.817Z" transform="translate(-204.794 -209.262)" fill="#45ffc0"/><path d="M284.7,280.247a.744.744,0,0,0-.691-.634c-.88-.121-.959-.685-.183-1.243.344-.245.474-.412.31-.4a19.19,19.19,0,0,0-2.8,1.731q-1.246.868-2.481,1.757l.888.02a12.47,12.47,0,0,0,3.948-.369C284.659,280.814,284.726,280.754,284.7,280.247Z" transform="translate(-200.222 -199.589)" fill="#45ffc0"/><path d="M483.447,251.254c-.474-1.2-1.029-1.816-1.745-2l-.665-.166.781-.465.778-.46-.646-.048c-.352-.028-.564-.152-.5-.282s.051-.217-.065-.214c-.775.025-1.943.987-1.731,1.463a.6.6,0,0,1-.056.564c-.195.24.133.321.919.234.338-.039.716.716.589,1.2a2,2,0,0,1-.984.443c-.513.133-.874.336-.8.457s-.144.352-.479.519c-.564.282-.544.313.282.417,1.215.155,1.317.44.245.736-.485.135-1.17.352-1.526.482-.493.183-.395.2.423.065.589-.093,2.132-.31,3.429-.477,1.762-.228,2.287-.364,2.075-.547s-.065-.338.564-.626c.933-.426.925-.846,0-.671C483.878,251.985,483.675,251.83,483.447,251.254Z" transform="translate(-342.893 -177.798)" fill="#45ffc0"/><path d="M462.278,259.052c.051.223.262.282.595.18.282-.093,1.128-.327,1.841-.522,1.114-.3,1.351-.445,1.486-.914a2.453,2.453,0,0,1,.744-1.024c.321-.254.533-.547.468-.654-.172-.282-1.948-.183-2.433.147a3.75,3.75,0,0,1-1.17.437c-.77.149-1.049.434-.62.64.155.076.017.344-.372.736A1.563,1.563,0,0,0,462.278,259.052Z" transform="translate(-331.926 -183.783)" fill="#45ffc0"/><path d="M483.922,258.186c.034-.118-.085-.155-.262-.082a.8.8,0,0,0-.352.223c-.014.048.1.087.265.082A.378.378,0,0,0,483.922,258.186Z" transform="translate(-347.028 -185.299)" fill="#45ffc0"/><path d="M572.412,240.672c.017-.13-.2-.22-.491-.206-.595.031-.713.217-.209.336C572.285,240.937,572.386,240.917,572.412,240.672Z" transform="translate(-410.279 -172.661)" fill="#45ffc0"/><path d="M374.693,220.059a17.315,17.315,0,0,1,4.7-.883c.77-.028,2.5-.178,3.824-.321,2.013-.217,2.388-.282,2.256-.392s-.446-.107-1.148-.048c-1.111.1-1.554-.079-.513-.2.465-.054.564-.093.462-.189-.254-.24.8-.262,1.486-.037a2.484,2.484,0,0,0,1.337.133l.665-.093-.431-.164a9.662,9.662,0,0,0-1.032-.282c-.7-.152-.448-.237.764-.282a31.217,31.217,0,0,0,4.12-.516,11.053,11.053,0,0,1,1.314-.282c.761-.121.992-.172.967-.228a14.216,14.216,0,0,1,3.479-.316c.744-.014,1.627-.039,1.96-.056.547-.025.451-.025-.993,0-1.339.014-1.723,0-2.3-.017-.976-.039-3.965-.054-5.388-.037-.615,0-1.6.017-2.205,0-.719,0-2.211,0-4.362.039-2.309.045-4.035.076-5.78.079-5.532.014-5.707,0-8.8.223-2,.158-3.491.282-5,.341l-2.256.107a2.748,2.748,0,0,0-.564.175c-.6.24-.214.282,2.442.223,1.951-.042,2.16-.034,2.374.127.282.211.124.747-.321.939-.195.082-.164.175.085.228.482.1.09.62-.722.99a22.014,22.014,0,0,1-2.123.649c-1.841.482-2.887,1-2.9,1.41,0,.2-.189.386-.688.711-1.055.68-.993,1.489.2,1.974a4.637,4.637,0,0,0,1.334.369c.789-.039,1.861-.564,3.964-1.709a15.6,15.6,0,0,1,6.578-2.078,23.211,23.211,0,0,0,3.214-.589Z" transform="translate(-257.526 -154.983)" fill="#45ffc0"/><path d="M302.077,227.228c-.209-.133-.144-.321.228-.618.493-.395.468-.423-.383-.544-.533-.076-.933-.257-.97-.431-.054-.248-.158-.282-.728-.147-.939.209-1.024.2-1.65-.13a2.04,2.04,0,0,0-1.52-.178,16.117,16.117,0,0,0-2.23.479c-1.63.5-1.647.282-.014-.254.395-.127.792-.248,1.19-.367l-1.046.116a18.082,18.082,0,0,0-4.757,1.3c-.248.186.846.313,1.692.195a9.925,9.925,0,0,1,1.813-.051,4.81,4.81,0,0,0,1.9-.161c.9-.214.99-.214,1.41,0a.75.75,0,0,1,.352.767c-.051.307,0,.564.1.564a.846.846,0,0,1,.423.164c.234.166.211.18-.637.378a2.53,2.53,0,0,1-1.274.09,4.74,4.74,0,0,0-2.58.654c-.336.217-.6.259-1.579.245-1.289-.017-2.786.324-2.346.539a3.046,3.046,0,0,0,1.167-.1c1.571-.344,1.96-.313,1.974.172a1.128,1.128,0,0,0,.592.79,2.618,2.618,0,0,0,2.118.107c.133-.079.028-.254-.226-.383-.8-.414.372-.773,1.3-.4.474.189.519.178,1.1-.2.474-.307.623-.493.68-.846.07-.417.11-.446.713-.623a1.782,1.782,0,0,1,1.291.054,2.192,2.192,0,0,0,2.1-.282C302.968,227.767,302.963,227.786,302.077,227.228Z" transform="translate(-207.792 -161.585)" fill="#45ffc0"/><path d="M491.086,236.792c.031-.068-.127-.118-.352-.113s-.431.065-.465.133.127.121.35.116S491.055,236.859,491.086,236.792Z" transform="translate(-352.024 -169.942)" fill="#45ffc0"/><path d="M265.284,242.489c-.942.479-.711.609.564.3a2.091,2.091,0,0,1,1.382-.056.69.69,0,0,0,.806-.079c.564-.347.44-.637-.3-.781A3.62,3.62,0,0,0,265.284,242.489Z" transform="translate(-190.068 -173.643)" fill="#45ffc0"/><path d="M450.047,230.785a8.087,8.087,0,0,1-1.6.121,9.963,9.963,0,0,0-3.685.719c-.245.209-.206.257.166.189a2.366,2.366,0,0,1,1.094.164,2.312,2.312,0,0,0,1.046.189,33.838,33.838,0,0,0,4.441-.877l.8-.282-.564-.211A2.863,2.863,0,0,0,450.047,230.785Z" transform="translate(-319.244 -165.627)" fill="#45ffc0"/><path d="M238.39,230.57a5.069,5.069,0,0,0,2.425-.352q.787-.22,1.579-.431l-.44-.192-.434-.189.987-.471c.544-.257,1.052-.5,1.128-.564.3-.217-.756-.034-1.647.307-.962.372-1.447.443-1.128.149l.333-.3c.1-.093-.127-.059-.643.1a2.758,2.758,0,0,1-1.678.107l-.223-.028q-1.176,1.032-2.309,2.109A4.344,4.344,0,0,1,238.39,230.57Z" transform="translate(-169.699 -163.91)" fill="#45ffc0"/><path d="M258.355,234.663c.039.231.087.22,1.393-.175,1.029-.3,1.057-.319.685-.383a4.122,4.122,0,0,0-1.249.152C258.5,234.432,258.333,234.516,258.355,234.663Z" transform="translate(-185.505 -168.092)" fill="#45ffc0"/><path d="M498.319,223.777c.1-.118-.172-.116-.767,0-.372.082-.35.1.116.093A1.464,1.464,0,0,0,498.319,223.777Z" transform="translate(-357.071 -160.615)" fill="#45ffc0"/><path d="M270.156,227.106c-.516.4,2.335-.282,3.471-.773.482-.209.8-.367.7-.364a15.686,15.686,0,0,0-2.82.544,2.538,2.538,0,0,1-1.162.161l-.727-.031.344.169C270.164,226.892,270.246,227.024,270.156,227.106Z" transform="translate(-193.595 -162.253)" fill="#45ffc0"/><path d="M285.8,226.2c-.02.065.189.07.462,0s1-.166,1.6-.24c1.359-.166,2.115-.375,1.587-.451C288.732,225.406,285.87,225.922,285.8,226.2Z" transform="translate(-205.209 -161.915)" fill="#45ffc0"/><path d="M309.644,222.379h2.938a13.908,13.908,0,0,0,1.466-.217c.381-.07.759-.141,1.128-.206l-.533-.048c-.282-.023-1.317,0-2.278.059a6.5,6.5,0,0,1-2.281-.056,2.589,2.589,0,0,0-1.39-.028,4.8,4.8,0,0,0-1.669.488C307.047,222.377,308.214,222.385,309.644,222.379Z" transform="translate(-220.451 -159.263)" fill="#45ffc0"/><path d="M555.043,216.426a4.137,4.137,0,0,0,.905-.017,1.127,1.127,0,0,1,.465,0,3.44,3.44,0,0,0,.643.02c.355-.017.358-.014,0,.023-.223.023-.7.048-1.071.048-.931,0-.874.051.217.166l.947.107c.313-.065.62-.127.928-.183.508-.1.928-.169.945-.186a4.466,4.466,0,0,1,1.17.02c.135.028.158.076.048.1s.07.039.694.014h.564c.2,0,.3,0,.282.028s.138.037.344.023c.321-.023.33-.037.068-.087a3.644,3.644,0,0,0-.5-.079H561.4c-.5-.034-1.294-.113-1.294-.133a1.974,1.974,0,0,1,.426,0c.24,0,.477.017.708.02.809.02,1.537.02,2.013,0,1.173-.056.8-.085-.891-.082h-1.249a4.434,4.434,0,0,1-.6-.017c-.189-.02-.251-.017-.282,0a1.591,1.591,0,0,1-.375.028,2.108,2.108,0,0,0-.522.059l-.183.07c-.034-.023-.065-.048-.1-.068a1.867,1.867,0,0,0-.787-.031c-.023.017-.806.023-2.256.014a18.329,18.329,0,0,0-2.292.034C553.653,216.356,553.85,216.364,555.043,216.426Z" transform="translate(-397.579 -155.239)" fill="#45ffc0"/><path d="M338.872,216.367c1.167-.02,4.616-.282,6.962-.42q1.252-.085,2.5-.147l-1.212.02c-.668,0-2.676.039-4.464.065-3.446.039-8.837.183-9.023.217-.282.042,3.1.062,3.722.025.885-.051.8.051-.127.149-.479.051-1.348.076-2.6.07-2.022,0-2.8.039-2.6.186s-.426.234-1.348.209c-.7-.02-.787,0-.479.045.646.118-.443.282-2.23.316-1.43.034-1.568.048-1.308.138a6.445,6.445,0,0,0,1.652.023,5.811,5.811,0,0,1,1.678.031l.316.116s.846-.138,1.886-.282,2.033-.282,2.208-.282,1.142-.121,2.146-.248S338.59,216.37,338.872,216.367Z" transform="translate(-234.475 -154.951)" fill="#45ffc0"/><path d="M329.387,217.514c1.173-.161,1.235-.172,1.074-.254a13.165,13.165,0,0,0-3.141.155c-1.159.149-1.2.183-.282.245a9.431,9.431,0,0,0,2.349-.147Z" transform="translate(-234.363 -155.968)" fill="#45ffc0"/><path d="M140.067,302.541q-5.312,0-8.177-2.839c-3.24-3.248-3.691-8.967-1.376-16.98,2.177-7.5,6.88-17.023,13.6-27.546l.95.606c-13.746,21.523-18.255,37.243-12.37,43.142s21.61,1.376,43.142-12.367c17.313-11.059,37.085-27.388,55.681-45.981s34.914-38.393,45.967-55.7c13.749-21.523,18.258-37.243,12.37-43.142s-21.6-1.376-43.125,12.37l-.609-.95c10.526-6.722,20.048-11.425,27.543-13.6,8.025-2.329,13.74-1.861,16.989,1.387s3.716,8.964,1.387,16.989c-2.177,7.495-6.88,17.02-13.605,27.546-11.1,17.372-27.478,37.22-46.133,55.867s-38.489,35.043-55.867,46.145c-10.526,6.719-20.051,11.423-27.546,13.6A32.225,32.225,0,0,1,140.067,302.541Z" transform="translate(-92.671 -99.158)" fill="url(#f)"/><path d="M282.475,302.562a32.291,32.291,0,0,1-8.823-1.455c-7.495-2.177-17.02-6.88-27.546-13.6-17.375-11.1-37.22-27.484-55.87-46.136S155.2,202.877,144.1,185.5c-6.722-10.526-11.425-20.051-13.6-27.546-2.329-8.025-1.864-13.74,1.387-16.989s8.964-3.716,16.989-1.387c7.492,2.177,17.017,6.88,27.543,13.6l-.609.95c-21.52-13.746-37.237-18.252-43.113-12.379s-1.376,21.607,12.37,43.142c11.034,17.3,27.371,37.079,45.967,55.678s38.379,34.925,55.681,45.981c21.52,13.743,37.24,18.252,43.127,12.367s1.379-21.607-12.37-43.142l.95-.606c6.725,10.523,11.428,20.048,13.605,27.546,2.329,8.022,1.861,13.74-1.387,16.989C288.746,301.615,286.013,302.562,282.475,302.562Z" transform="translate(-92.658 -99.179)" fill="url(#g)"/><path d="M134.778,401.214c-26.381,0-52-2.445-72.128-6.883-12.2-2.69-22.256-6.1-29.1-9.869-7.331-4.027-11.034-8.4-11.034-12.993s3.714-8.964,11.034-12.99c6.838-3.762,16.9-7.171,29.094-9.869l.242,1.1c-24.937,5.5-39.239,13.425-39.242,21.748s14.3,16.253,39.245,21.751c20.054,4.421,45.583,6.858,71.886,6.858s51.826-2.436,71.883-6.858c24.937-5.5,39.242-13.427,39.242-21.751s-14.307-16.236-39.245-21.734l.245-1.1c12.2,2.69,22.256,6.1,29.094,9.869,7.331,4.027,11.034,8.4,11.034,12.993s-3.714,8.967-11.034,12.993c-6.838,3.762-16.9,7.171-29.094,9.869C186.762,398.77,161.154,401.214,134.778,401.214Z" transform="translate(-16.17 -250.312)" fill="url(#h)"/><path d="M344.885,256.111c-4.593,0-8.964-3.711-12.99-11.033-3.761-6.838-7.173-16.9-9.869-29.1-4.441-20.13-6.886-45.747-6.886-72.125s2.445-51.993,6.886-72.128c2.687-12.2,6.1-22.253,9.869-29.094,4.027-7.331,8.4-11.034,12.993-11.034s8.964,3.714,12.99,11.034c3.761,6.838,7.171,16.9,9.869,29.1l-1.1.242c-5.507-24.94-13.433-39.245-21.757-39.245s-16.253,14.3-21.754,39.242c-4.421,20.059-6.858,45.589-6.858,71.886s2.436,51.829,6.858,71.883c5.5,24.94,13.427,39.245,21.751,39.245s16.253-14.3,21.751-39.239l1.1.242c-2.687,12.2-6.1,22.253-9.869,29.091C353.852,252.4,349.481,256.111,344.885,256.111Z" transform="translate(-226.28 -22.69)" fill="url(#i)"/><circle cx="9.474" cy="9.474" r="9.474" transform="translate(109.134)" fill="url(#j)"/><circle cx="9.666" cy="9.666" r="9.666" transform="translate(136.169 125.344)" fill="#fff" opacity="0.62"/><circle cx="6.451" cy="6.451" r="6.451" transform="translate(139.384 128.559)" fill="url(#k)"/><circle cx="4.881" cy="4.881" r="4.881" transform="translate(195.084 39.521)" fill="url(#j)"/><circle cx="4.416" cy="4.416" r="4.416" transform="translate(235.15 104.738)" opacity="0.52" fill="url(#m)"/><circle cx="2.972" cy="2.972" r="2.972" transform="translate(236.593 106.182)" fill="url(#n)"/><circle cx="4.416" cy="4.416" r="4.416" transform="translate(0 149.351)" opacity="0.52" fill="url(#j)"/><circle cx="2.972" cy="2.972" r="2.972" transform="translate(1.444 150.795)" fill="#45ffc0"/><circle cx="4.881" cy="4.881" r="4.881" transform="translate(65.428 191.65)" fill="url(#j)"/><circle cx="6.936" cy="6.936" r="6.936" transform="translate(33.194 57.395)" fill="url(#q)"/><circle cx="9.474" cy="9.474" r="9.474" transform="translate(109.134 223.383)" fill="url(#j)"/><path d="M467,882.321a4.844,4.844,0,0,0,1.754,1.915,5.442,5.442,0,0,0,3.017.758,4.918,4.918,0,0,0,3.073-.939,3.214,3.214,0,0,0,1.229-2.71,3.292,3.292,0,0,0-.905-2.5,8.7,8.7,0,0,0-2.566-1.59l-.649-.282a5.638,5.638,0,0,1-1.212-.668,1.181,1.181,0,0,1-.054-1.692,1.221,1.221,0,0,1,.9-.327,1.777,1.777,0,0,1,.976.254,2.233,2.233,0,0,1,.725.868l2.025-1.339a3.948,3.948,0,0,0-1.556-1.59,4.645,4.645,0,0,0-2.168-.468,3.851,3.851,0,0,0-2.763.976,3.234,3.234,0,0,0-1.032,2.456,3.378,3.378,0,0,0,.846,2.459,7.049,7.049,0,0,0,2.256,1.48l.651.282a7.526,7.526,0,0,1,1.41.7,1.159,1.159,0,0,1,.508,1.029,1.094,1.094,0,0,1-.488.905,2.114,2.114,0,0,1-1.283.361,2.538,2.538,0,0,1-1.573-.451,3.806,3.806,0,0,1-.993-1.128Zm-9.215.282a4.552,4.552,0,0,0,1.41,1.692,4.047,4.047,0,0,0,2.493.7,4.106,4.106,0,0,0,2.82-.956,3.793,3.793,0,0,0,1.086-2.983v-8.9h-2.6v8.854a1.758,1.758,0,0,1-.381,1.32,1.478,1.478,0,0,1-1.029.344,1.3,1.3,0,0,1-1.012-.4,4.64,4.64,0,0,1-.651-.939Zm-1.108-23.2h15.376a6.2,6.2,0,0,1,6.2,6.2v15.367a6.2,6.2,0,0,1-6.2,6.2H456.673a6.2,6.2,0,0,1-6.2-6.2V865.6a6.2,6.2,0,0,1,6.2-6.192Z" transform="translate(-323.451 -617.074)" fill="#47c2f7"/><path d="M216.471,84.6l.068-.756H203.625l.068.756.618,7.077h8.933l-.282,3.367-2.885.756-2.885-.756-.209-2.061h-2.538l.344,4.052,5.29,1.444,5.29-1.444v-.479l.618-6.733.07-.756h-9.415l-.206-2.611h9.892v-.564Zm-16.7-5.016h20.612L218.527,100.6l-8.459,2.338-8.459-2.338Z" transform="translate(-143.441 -57.141)" fill="#ffb15c"/><path d="M509.416,467.5a1.224,1.224,0,1,1,.866-.358,1.176,1.176,0,0,1-.866.358Zm0-4.277a3.064,3.064,0,0,0-1.2.237,3.1,3.1,0,0,0-1.624,1.624,3.056,3.056,0,0,0-.237,1.2,4.229,4.229,0,0,0,.257,1.376,13.688,13.688,0,0,0,.7,1.59c.282.564.609,1.156.973,1.782s.744,1.289,1.128,1.974c.381-.688.756-1.348,1.128-1.974s.7-1.218.984-1.782a12.614,12.614,0,0,0,.688-1.59,4.129,4.129,0,0,0,.268-1.376,3.009,3.009,0,0,0-.24-1.2,3.05,3.05,0,0,0-.654-.97,3.1,3.1,0,0,0-.97-.654A3.043,3.043,0,0,0,509.416,463.22Z" transform="translate(-363.581 -332.605)" fill="#fff"/></g></g></g></svg>