<svg xmlns="http://www.w3.org/2000/svg" viewBox="0 0 33.019 23.068">
  <defs>
    <style>
      .cls-1 {
        fill: #45ffc0;
      }

      .cls-2 {
        fill: #999;
      }
    </style>
  </defs>
  <g id="leaf_3" data-name="leaf 3" transform="translate(-683.926 -258.667)">
    <path id="Path_525" data-name="Path 525" class="cls-1" d="M488.493,945.066c-.063-2.342-1.424-4.451-2.98-6.213a15.883,15.883,0,0,0-3.481-3.054,13.3,13.3,0,0,0-9.958-1.419,18.866,18.866,0,0,0-8.813,5.116c-.116.116-.243.274-.19.427s.374.09.29-.053v-.649c-.965,2.806-.67,5.881-.169,8.8.411,2.373,1.055,4.889,2.838,6.482s4.446,1.92,6.883,2.057a19.563,19.563,0,0,0,8.476-.886C484.062,954.6,488.582,948.283,488.493,945.066Z" transform="translate(222.759 -674.913)"/>
    <path id="Path_526" data-name="Path 526" class="cls-2" d="M459.8,934.877c1.287,6.973,7.242,11.957,14.1,13.08,6.45,1.055,14.942-.633,18.681-6.5.918-1.435-1.366-2.764-2.273-1.334-3.217,5.037-11.171,6.25-16.6,5.127-5.67-1.176-10.3-5.274-11.361-11.076C462.033,932.509,459.491,933.211,459.8,934.877Z" transform="translate(224.154 -674.556)"/>
  </g>
</svg>
