<svg xmlns="http://www.w3.org/2000/svg" viewBox="0 0 32.098 32.012">
  <defs>
    <style>
      .cls-1 {
        fill: #45ffc0;
      }

      .cls-2 {
        fill: #999;
      }
    </style>
  </defs>
  <g id="leaf_4" data-name="leaf 4" transform="translate(-856.403 -433.812)">
    <path id="Path_527" data-name="Path 527" class="cls-1" d="M789.938,1289.692c1.841,1.746,4.494,2.315,7.025,2.474a17.48,17.48,0,0,0,5-.327,14.383,14.383,0,0,0,8.7-6.524,20.4,20.4,0,0,0,2.827-10.654c0-.179,0-.4-.185-.475s-.348.222-.174.269l.485.5c-1.408-2.88-3.982-5.005-6.6-6.857-2.11-1.5-4.525-2.943-7.126-2.785s-4.868,1.93-6.857,3.692c-2.31,2.062-4.594,4.309-5.8,7.157S787.427,1287.292,789.938,1289.692Z" transform="translate(69.616 -831.486)"/>
    <path id="Path_528" data-name="Path 528" class="cls-2" d="M819.431,1283.826c-6.213-4.288-14.51-3.634-20.543.665-5.8,4.13-11.007,11.878-9.409,19.256.359,1.656,2.9.955,2.542-.7-1.382-6.376,3.782-13.36,8.845-16.725a15.322,15.322,0,0,1,17.231-.216c1.4.965,2.722-1.319,1.334-2.278Z" transform="translate(68.482 -838.868)"/>
  </g>
</svg>
