<svg xmlns="http://www.w3.org/2000/svg" viewBox="0 0 28.836 25.221">
  <defs>
    <style>
      .cls-1 {
        fill: #ffc174;
      }

      .cls-2 {
        fill: #999;
      }
    </style>
  </defs>
  <g id="leaf_1" data-name="leaf 1" transform="translate(-491.426 -416.827)">
    <path id="Path_547" data-name="Path 547" class="cls-1" d="M18.853,8.112a7.471,7.471,0,0,0-2.18-4.546,11.622,11.622,0,0,0-2.547-2.234A9.728,9.728,0,0,0,6.84.294,13.8,13.8,0,0,0,.391,4.037c-.085.085-.178.2-.139.313s.274.066.212-.039V3.836a13.077,13.077,0,0,0-.123,6.441c.3,1.737.772,3.577,2.076,4.743s3.253,1.4,5.036,1.505a14.314,14.314,0,0,0,6.2-.648C15.611,15.089,18.918,10.466,18.853,8.112Z" transform="matrix(-0.848, -0.53, 0.53, -0.848, 511.473, 440.884)"/>
    <path id="Path_546" data-name="Path 546" class="cls-2" d="M.019,1.245c.968,5.246,5.448,9,10.606,9.841,4.853.794,11.241-.476,14.055-4.888.69-1.079-1.028-2.079-1.71-1-2.42,3.789-8.4,4.7-12.491,3.857A10.594,10.594,0,0,1,1.932.717C1.7-.537-.211-.009.019,1.245Z" transform="matrix(-0.848, -0.53, 0.53, -0.848, 512.492, 442.048)"/>
  </g>
</svg>
