<svg xmlns="http://www.w3.org/2000/svg" viewBox="0 0 19.213 19.213">
  <defs>
    <style>
      .cls-1 {
        fill: rgba(255, 255, 255, 1);
      }
    </style>
  </defs>
  <path id="linked_in" data-name="linked in" class="cls-1" d="M0,9.606A9.409,9.409,0,0,1,.761,5.874,9.418,9.418,0,0,1,5.874.761a9.54,9.54,0,0,1,7.465,0,9.418,9.418,0,0,1,5.113,5.113,9.54,9.54,0,0,1,0,7.465,9.418,9.418,0,0,1-5.113,5.113,9.54,9.54,0,0,1-7.465,0A9.418,9.418,0,0,1,.761,13.339,9.409,9.409,0,0,1,0,9.606ZM4.653,12.7A1.777,1.777,0,0,0,5.2,14.009a1.8,1.8,0,0,0,1.316.54h6.194a1.8,1.8,0,0,0,1.316-.54A1.777,1.777,0,0,0,14.57,12.7V6.5a1.777,1.777,0,0,0-.545-1.311,1.8,1.8,0,0,0-1.316-.54H6.514a1.8,1.8,0,0,0-1.316.54A1.777,1.777,0,0,0,4.653,6.5Zm1.661,0V8.576a.209.209,0,0,1,.06-.145.185.185,0,0,1,.14-.065H7.755a.185.185,0,0,1,.14.065.209.209,0,0,1,.06.145V12.7a.209.209,0,0,1-.06.145.185.185,0,0,1-.14.065H6.514a.185.185,0,0,1-.14-.065A.209.209,0,0,1,6.314,12.7Zm0-5.6a.776.776,0,0,1,.235-.56.752.752,0,0,1,.555-.24.8.8,0,0,1,.8.8.763.763,0,0,1-.23.56.779.779,0,0,1-.57.24.794.794,0,0,1-.791-.8Zm2.061,5.6V8.546a.148.148,0,0,1,.1-.13.4.4,0,0,1,.185-.05H9.8a.2.2,0,0,1,.23.23q0-.03.08-.08a1.893,1.893,0,0,1,1.031-.29,1.865,1.865,0,0,1,1.306.425A1.6,1.6,0,0,1,12.909,9.9v2.8a.209.209,0,0,1-.06.145.185.185,0,0,1-.14.065h-1.2a.247.247,0,0,1-.165-.065.19.19,0,0,1-.075-.145V10.167a.825.825,0,0,0-.105-.48.482.482,0,0,0-.405-.14q-.73,0-.73.9V12.7a.209.209,0,0,1-.06.145.176.176,0,0,1-.13.065H8.656a.329.329,0,0,1-.185-.065A.18.18,0,0,1,8.376,12.7Zm10.837,4.223" transform="translate(0 0)"/>
</svg>
