<svg xmlns="http://www.w3.org/2000/svg" viewBox="0 0 13.771 13.77">
  <defs>
    <style>
      .cls-1 {
        fill: #fff;
      }
    </style>
  </defs>
  <path id="IG_white" data-name="IG white" class="cls-1" d="M6.885,0A6.634,6.634,0,0,0,2.017,2.017,6.634,6.634,0,0,0,0,6.885a6.634,6.634,0,0,0,2.017,4.868A6.634,6.634,0,0,0,6.885,13.77a6.634,6.634,0,0,0,4.868-2.017A6.634,6.634,0,0,0,13.77,6.885a6.634,6.634,0,0,0-2.017-4.868A6.634,6.634,0,0,0,6.885,0Zm4.3,8.633a2.526,2.526,0,0,1-2.555,2.555h-3.5a2.415,2.415,0,0,1-1.775-.726,2.615,2.615,0,0,1-.78-1.775v-3.6a2.465,2.465,0,0,1,.78-1.775,2.473,2.473,0,0,1,1.775-.726h3.5a2.526,2.526,0,0,1,2.555,2.555ZM8.633,3.443h-3.5A1.7,1.7,0,0,0,3.443,5.137v3.5a1.7,1.7,0,0,0,1.694,1.694h3.5a1.7,1.7,0,0,0,1.694-1.694v-3.5a1.624,1.624,0,0,0-.511-1.183A1.624,1.624,0,0,0,8.633,3.443ZM6.993,9.252A2.17,2.17,0,0,1,5.406,8.58a2.209,2.209,0,0,1,0-3.174,2.209,2.209,0,0,1,3.174,0,2.209,2.209,0,0,1,0,3.174A2.17,2.17,0,0,1,6.993,9.252ZM9.144,5.164A.552.552,0,1,1,9.521,5,.516.516,0,0,1,9.144,5.164Zm-.78,1.829a1.369,1.369,0,0,0-2.34-.968A1.369,1.369,0,1,0,7.961,7.961,1.32,1.32,0,0,0,8.364,6.993ZM13.77,13.77"/>
</svg>
