<svg xmlns="http://www.w3.org/2000/svg" xmlns:xlink="http://www.w3.org/1999/xlink" width="99.417" height="99.417" viewBox="0 0 99.417 99.417">
  <defs>
    <linearGradient id="linear-gradient" x1="0.5" x2="0.5" y2="1" gradientUnits="objectBoundingBox">
      <stop offset="0" stop-color="#ffbdff"/>
      <stop offset="0.1" stop-color="#f5bfff"/>
      <stop offset="0.26" stop-color="#dbc4ff"/>
      <stop offset="0.47" stop-color="#b0ccff"/>
      <stop offset="0.72" stop-color="#75d8ff"/>
      <stop offset="0.99" stop-color="#2ae6ff"/>
      <stop offset="1" stop-color="#29e6ff"/>
    </linearGradient>
  </defs>
  <path id="branding_icon" data-name="branding icon" d="M49.709,15.534a21.291,21.291,0,0,0-8.447,1.7,21.665,21.665,0,0,0-11.6,11.6,21.845,21.845,0,0,0,0,16.893,21.665,21.665,0,0,0,11.6,11.6,21.845,21.845,0,0,0,16.893,0,21.665,21.665,0,0,0,11.6-11.6,21.845,21.845,0,0,0,0-16.893,21.665,21.665,0,0,0-11.6-11.6A21.291,21.291,0,0,0,49.709,15.534Zm0,37.282A15.58,15.58,0,0,1,34.175,37.282,15.58,15.58,0,0,1,49.709,21.748,15.58,15.58,0,0,1,65.243,37.282,15.58,15.58,0,0,1,49.709,52.816Zm34.272,1.359a39.532,39.532,0,0,0,2.864-7.961,36.3,36.3,0,0,0,1.019-8.641,35.9,35.9,0,0,0-3.01-14.612,37.888,37.888,0,0,0-20.291-20,38.738,38.738,0,0,0-29.709,0,37.888,37.888,0,0,0-20.291,20,35.9,35.9,0,0,0-3.01,14.612,36.3,36.3,0,0,0,1.019,8.641,39.531,39.531,0,0,0,2.864,7.961L0,80.583l6.165,1.262q6.165,1.262,13.641,2.816l9.078,10.146,4.126,4.612L47.282,75.146q.583,0,1.214.049t1.214.049q.583,0,1.214-.049t1.214-.049L66.408,99.417l4.126-4.612L79.612,84.66q7.476-1.553,13.641-2.816l6.165-1.262ZM32.33,88.155,29.369,85.34q-2.961-2.816-6.359-6.117-4.757-1.359-8.738-2.476l-3.981-1.117,8.932-15.437a39.021,39.021,0,0,0,9.417,8.738,37.122,37.122,0,0,0,11.942,5.146ZM49.709,68.35a30.817,30.817,0,0,1-21.942-9.078,32.288,32.288,0,0,1-6.65-9.9,30.745,30.745,0,0,1,0-24.175,32.288,32.288,0,0,1,6.65-9.9,30.991,30.991,0,0,1,43.884,0,32.288,32.288,0,0,1,6.65,9.9,30.745,30.745,0,0,1,0,24.175,32.288,32.288,0,0,1-6.65,9.9A30.817,30.817,0,0,1,49.709,68.35Zm26.7,10.874q-3.4,3.3-6.359,6.117l-2.961,2.816L58.932,74.078a37.806,37.806,0,0,0,11.893-5.146,37.1,37.1,0,0,0,9.369-8.738l8.932,15.437-3.981,1.117Q81.165,77.864,76.408,79.223ZM99.417,93.2" fill="url(#linear-gradient)"/>
</svg>
