<svg xmlns="http://www.w3.org/2000/svg" xmlns:xlink="http://www.w3.org/1999/xlink" width="170.25" height="225.312" viewBox="0 0 170.25 225.312">
  <defs>
    <linearGradient id="linear-gradient" y1="0.5" x2="1" y2="0.5" gradientUnits="objectBoundingBox">
      <stop offset="0" stop-color="#ffdeff"/>
      <stop offset="0.06" stop-color="#e3dfff"/>
      <stop offset="0.19" stop-color="#b2e1ff"/>
      <stop offset="0.32" stop-color="#88e2ff"/>
      <stop offset="0.45" stop-color="#66e4ff"/>
      <stop offset="0.58" stop-color="#4be5ff"/>
      <stop offset="0.71" stop-color="#38e5ff"/>
      <stop offset="0.85" stop-color="#2de6ff"/>
      <stop offset="1" stop-color="#29e6ff"/>
    </linearGradient>
    <linearGradient id="linear-gradient-2" x1="1.325" y1="-0.189" x2="0.166" y2="0.892" xlink:href="#linear-gradient"/>
  </defs>
  <g id="callout_DESIGN" data-name="callout DESIGN" transform="translate(-971.75 -984.875)">
    <path id="Path_1415" data-name="Path 1415" d="M440.25,188.175V328.823A18.349,18.349,0,0,1,421.9,347.172H288.341A18.349,18.349,0,0,1,270,328.823V188.175a18.349,18.349,0,0,1,18.349-18.349h15.53l-.565-47.966,30.374,47.966H421.9A18.349,18.349,0,0,1,440.25,188.175Z" transform="translate(701.75 863.015)" fill="#eaf7ff"/>
    <g id="Group_218" data-name="Group 218">
      <path id="Path_1416" data-name="Path 1416" d="M336.623,306.082a6.61,6.61,0,1,0,2.012,4.748,6.467,6.467,0,0,0-2.012-4.748Zm2.4,9.32-.226.377,6.03,6.09-1.884,1.884-6.03-6.09-.377.279a8.641,8.641,0,0,1-4.639,1.394,8.136,8.136,0,0,1-6.015-2.472,8.291,8.291,0,0,1-2.487-6.03,8.494,8.494,0,1,1,15.628,4.567Z" transform="translate(668.475 750.549)" fill="#80d4ff"/>
      <path id="Path_1417" data-name="Path 1417" d="M440.25,515v58.789A18.349,18.349,0,0,1,421.9,592.138H288.341A18.349,18.349,0,0,1,270,573.808V515Z" transform="translate(701.75 618.031)" fill="url(#linear-gradient)"/>
      <path id="Path_1418" data-name="Path 1418" d="M471.285,601.754a5.434,5.434,0,0,0,1.971,2.152,6.154,6.154,0,0,0,3.392.855A5.513,5.513,0,0,0,480.1,603.7a3.6,3.6,0,0,0,1.383-3.049,3.712,3.712,0,0,0-1.017-2.8,9.754,9.754,0,0,0-2.883-1.786l-.754-.328a6.281,6.281,0,0,1-1.36-.754,1.33,1.33,0,0,1-.06-1.884,1.375,1.375,0,0,1,1.018-.377,1.977,1.977,0,0,1,1.1.286,2.513,2.513,0,0,1,.814.972l2.261-1.507a4.436,4.436,0,0,0-1.749-1.786,5.208,5.208,0,0,0-2.438-.531,4.341,4.341,0,0,0-3.113,1.1,3.64,3.64,0,0,0-1.157,2.762,3.789,3.789,0,0,0,.953,2.766,7.967,7.967,0,0,0,2.544,1.666l.731.324a8.26,8.26,0,0,1,1.583.8,1.3,1.3,0,0,1,.569,1.157,1.221,1.221,0,0,1-.546,1.017,2.366,2.366,0,0,1-1.444.407,2.845,2.845,0,0,1-1.767-.509,4.235,4.235,0,0,1-1.131-1.281Zm-10.367.324a5.193,5.193,0,0,0,1.587,1.884,5.276,5.276,0,0,0,5.973-.286,4.256,4.256,0,0,0,1.221-3.354v-10h-2.936v9.956a1.968,1.968,0,0,1-.426,1.485,1.666,1.666,0,0,1-1.157.377,1.459,1.459,0,0,1-1.131-.449,5.274,5.274,0,0,1-.735-1.059ZM459.674,576h17.29a6.964,6.964,0,0,1,6.964,6.964v17.29a6.964,6.964,0,0,1-6.964,6.964h-17.29a6.964,6.964,0,0,1-6.964-6.964V582.945A6.964,6.964,0,0,1,459.674,576Z" transform="translate(587.894 580.019)" fill="#fff"/>
      <path id="Path_1419" data-name="Path 1419" d="M360.49,582.685l.094-1.01H343.32l.09,1.01.829,9.455h11.935l-.377,4.5-3.859,1.01-3.855-1.01-.275-2.755h-3.392l.479,5.419,7.055,1.945,7.074-1.926v-.644l.825-9,.09-1.01H347.36l-.275-3.49h13.224v-.735ZM338.18,576h27.544l-2.48,28.1-11.306,3.12-11.306-3.12Z" transform="translate(659.264 580.019)" fill="#fff"/>
      <path id="Path_1420" data-name="Path 1420" d="M590.753,581.1h26.086l-2.37,12.436q-.038.32-2.208,11.939l-13.985,4.9-12.1-4.9,1.187-6.5h5.11l-.49,2.74,7.318,2.9,8.506-2.9,1.187-6.135H588.051l1.025-5.472H610.01l.7-3.557H589.769Z" transform="translate(504.729 576.841)" fill="#fff"/>
      <rect id="Rectangle_180" data-name="Rectangle 180" width="127.922" height="3.004" transform="translate(993.645 1100.459)" fill="#80d4ff"/>
      <rect id="Rectangle_181" data-name="Rectangle 181" width="127.922" height="3.004" transform="translate(993.645 1107.985)" fill="#80d4ff"/>
      <rect id="Rectangle_182" data-name="Rectangle 182" width="96.003" height="3.004" transform="translate(993.645 1115.511)" fill="#80d4ff"/>
      <path id="Path_1421" data-name="Path 1421" d="M630.41,312.237a11.23,11.23,0,0,1-19.69,7.39h0a11.23,11.23,0,1,1,19.69-7.386Z" transform="translate(491.157 751.378)" fill="#fff"/>
      <path id="Path_1422" data-name="Path 1422" d="M630.23,321.59a8.589,8.589,0,0,0-2.921-1.828,10.416,10.416,0,0,0-7.16,0,8.43,8.43,0,0,0-4.9,4.718h0a11.226,11.226,0,0,0,16.917,0A8.613,8.613,0,0,0,630.23,321.59Zm-3.241-11.441a4.609,4.609,0,1,0,1.357,3.252,4.435,4.435,0,0,0-1.364-3.252Z" transform="translate(486.608 746.52)" fill="url(#linear-gradient-2)"/>
    </g>
  </g>
</svg>
