<svg xmlns="http://www.w3.org/2000/svg" xmlns:xlink="http://www.w3.org/1999/xlink" width="183.864" height="419.12" viewBox="0 0 183.864 419.12">
  <defs>
    <linearGradient id="linear-gradient" x1="0.265" y1="0.802" x2="1.25" y2="-0.138" gradientUnits="objectBoundingBox">
      <stop offset="0" stop-color="#ffdbff"/>
      <stop offset="0.06" stop-color="#e3dcff"/>
      <stop offset="0.19" stop-color="#b2dfff"/>
      <stop offset="0.32" stop-color="#88e1ff"/>
      <stop offset="0.45" stop-color="#66e3ff"/>
      <stop offset="0.58" stop-color="#4be4ff"/>
      <stop offset="0.71" stop-color="#38e5ff"/>
      <stop offset="0.85" stop-color="#2de6ff"/>
      <stop offset="1" stop-color="#29e6ff"/>
    </linearGradient>
    <linearGradient id="linear-gradient-2" x1="0" y1="0.5" x2="1" y2="0.5" xlink:href="#linear-gradient"/>
    <linearGradient id="linear-gradient-3" x1="0" y1="0.5" x2="1" y2="0.5" xlink:href="#linear-gradient"/>
    <linearGradient id="linear-gradient-4" y1="0.501" x2="1" y2="0.501" gradientUnits="objectBoundingBox">
      <stop offset="0" stop-color="#ffdbff"/>
      <stop offset="0.1" stop-color="#ffc5e8"/>
      <stop offset="0.27" stop-color="#ffa4c6"/>
      <stop offset="0.44" stop-color="#ff8bab"/>
      <stop offset="0.62" stop-color="#ff7898"/>
      <stop offset="0.8" stop-color="#ff6e8d"/>
      <stop offset="1" stop-color="#ff6a89"/>
    </linearGradient>
    <linearGradient id="linear-gradient-5" x1="0.002" y1="0.5" x2="0.998" y2="0.5" xlink:href="#linear-gradient"/>
    <linearGradient id="linear-gradient-6" x1="0" y1="0.5" x2="1" y2="0.5" xlink:href="#linear-gradient"/>
    <linearGradient id="linear-gradient-7" x1="0" y1="0.5" x2="1" y2="0.5" xlink:href="#linear-gradient"/>
    <linearGradient id="linear-gradient-8" x1="0.8" y1="0.048" x2="-0.043" y2="1.319" xlink:href="#linear-gradient"/>
    <radialGradient id="radial-gradient" cx="23.533" cy="20.765" r="25.157" gradientTransform="matrix(0.596, 0.651, -0.651, 0.596, 23.023, -6.922)" gradientUnits="userSpaceOnUse">
      <stop offset="0" stop-color="#ff6a89"/>
      <stop offset="0.2" stop-color="#ff6e8d"/>
      <stop offset="0.38" stop-color="#ff7898"/>
      <stop offset="0.56" stop-color="#ff8bab"/>
      <stop offset="0.73" stop-color="#ffa4c6"/>
      <stop offset="0.9" stop-color="#ffc5e8"/>
      <stop offset="1" stop-color="#ffdbff"/>
    </radialGradient>
    <radialGradient id="radial-gradient-2" cx="16.725" cy="14.025" r="18.409" gradientTransform="matrix(0.566, 0.618, -0.618, 0.566, 15.927, -4.262)" xlink:href="#radial-gradient"/>
    <radialGradient id="radial-gradient-3" cx="7.316" cy="6.139" r="8.054" gradientTransform="matrix(0.567, 0.619, -0.619, 0.567, 6.97, -1.868)" xlink:href="#radial-gradient"/>
    <linearGradient id="linear-gradient-10" x1="1.175" y1="0.156" x2="-1.84" y2="1.691" xlink:href="#linear-gradient"/>
    <linearGradient id="linear-gradient-11" x1="1.151" y1="-0.039" x2="0.077" y2="0.85" xlink:href="#linear-gradient"/>
    <linearGradient id="linear-gradient-12" x1="0.892" y1="-0.076" x2="-0.064" y2="1.573" xlink:href="#linear-gradient"/>
    <linearGradient id="linear-gradient-13" x1="0.594" y1="0.366" x2="-1.665" y2="2.167" xlink:href="#linear-gradient"/>
    <linearGradient id="linear-gradient-14" x1="0" y1="0.5" x2="1.001" y2="0.5" xlink:href="#linear-gradient"/>
    <linearGradient id="linear-gradient-15" x1="0.27" y1="0.584" x2="1.168" y2="0.244" xlink:href="#linear-gradient"/>
    <linearGradient id="linear-gradient-16" x1="0" y1="0.5" x2="1" y2="0.5" xlink:href="#linear-gradient"/>
    <linearGradient id="linear-gradient-17" x1="0.599" y1="-0.11" x2="0.362" y2="0.976" xlink:href="#linear-gradient-4"/>
    <linearGradient id="linear-gradient-18" x1="0.599" y1="-0.009" x2="0.069" y2="2.214" xlink:href="#linear-gradient-4"/>
  </defs>
  <g id="design_AUDIO_VISUAL" data-name="design AUDIO VISUAL" transform="translate(-962.141 -2722.414)">
    <g id="camera" transform="translate(962.145 2722.444)">
      <g id="Layer_1" data-name="Layer 1" transform="translate(-0.004 -0.029)">
        <rect id="Rectangle_231" data-name="Rectangle 231" width="61.255" height="34.313" transform="matrix(0.993, 0.117, -0.117, 0.993, 60.303, 37.622)" fill="#44a5df"/>
        <path id="Path_1870" data-name="Path 1870" d="M177.193,463.462s19.082-3.984,25.552-3.776,13.431,1.454,16.149,3.845-12,23.985-12,23.985l-31.178-6.149Z" transform="translate(-65.126 -170.357)" fill="#44a5df"/>
        <path id="Path_1871" data-name="Path 1871" d="M65.729,478.19S16.009,482.847,9.4,488.228.9,494.239.275,504.938s0,66.083,0,66.083,2.775,12.442,6.684,15.419,48.5-2.517,50.8-10.7S65.729,478.19,65.729,478.19Z" transform="translate(0.004 -177.219)" fill="#44a5df"/>
        <path id="Path_1872" data-name="Path 1872" d="M118.008,4.534S78.8,28.046,77.54,40s7.345,16.149,33.148,13.424S149.6,56.368,149.658,57s25.709-9.352,28.585-11.328,1.674-19.944-6.294-24.545S119.462,2.614,118.008,4.534Z" transform="translate(-28.693 -1.595)" fill="url(#linear-gradient)"/>
        <path id="Path_1873" data-name="Path 1873" d="M229.28,261.134s17.515,1.982,18.981,13.733,0,182.243,0,182.243l-.548,19.126s10.164-8.251,10.164-24.614,4.072-176.636-2.9-184.068S243.126,259.038,229.28,261.134Z" transform="translate(-84.978 -96.419)" fill="#44a5df"/>
        <path id="Path_1874" data-name="Path 1874" d="M168.264,491.21l-1.422-8.056,24.174-4.261c12.927-2.278,23.444-14.626,23.444-27.522v-176.7a18.246,18.246,0,0,0-6.25-14.324c-4.141-3.48-9.742-4.8-15.772-3.738l-67.9,11.958-1.422-8.056,67.9-11.958c8.452-1.485,16.426.472,22.449,5.532,5.916,4.959,9.176,12.272,9.176,20.593V451.372c0,16.684-13.55,32.645-30.209,35.584Z" transform="translate(-45.631 -91.927)" fill="url(#linear-gradient-2)"/>
        <path id="Path_1875" data-name="Path 1875" d="M162.452,473.3v76.391a13.846,13.846,0,0,1-11.108,13.065L34.56,583.352l-12.392,2.184c-6.136,1.082-11.108-3.015-11.108-9.145V500a13.846,13.846,0,0,1,11.108-13.065l129.2-22.776C157.48,463.075,162.452,467.172,162.452,473.3Z" transform="translate(-4.096 -171.953)" fill="url(#linear-gradient-3)"/>
        <path id="Path_1876" data-name="Path 1876" d="M51.732,550.83s6.35,6.124,18.006,2.461,10.856-4.3,12.115-7.357,3.147-1.68,3.776,0,3.3,16.313,3.3,16.313-35.873,1.1-37.2-4.72S51.732,550.83,51.732,550.83Z" transform="translate(-18.953 -201.656)" fill="url(#linear-gradient-4)"/>
        <path id="Path_1877" data-name="Path 1877" d="M176.292,504.729v58.8A13.846,13.846,0,0,1,165.184,576.6L48.4,597.188V533.328a10.912,10.912,0,0,1,3.908,3.468c5.035,7.974,31.468,2.1,28.529-6.715a72.824,72.824,0,0,1-2.989-12.7L168.1,501.463A7.853,7.853,0,0,1,176.292,504.729Z" transform="translate(-17.936 -185.79)" fill="#44a5df"/>
        <ellipse id="Ellipse_85" data-name="Ellipse 85" cx="12.165" cy="8.075" rx="12.165" ry="8.075" transform="translate(33.098 334.484) rotate(-6.91)" fill="#44a5df"/>
        <ellipse id="Ellipse_86" data-name="Ellipse 86" cx="5.721" cy="3.795" rx="5.721" ry="3.795" transform="translate(40.011 337.957) rotate(-6.91)" fill="url(#linear-gradient-5)"/>
        <path id="Path_1878" data-name="Path 1878" d="M165,484.236H131.329l-7.168,1.6-19.579,4.374L91.78,481.4s5.878-20.139,21.4-23.079c15.1-2.851,34.923-1.353,47.579,13.745q.554.629,1.1,1.359S165.629,480.775,165,484.236Z" transform="translate(-34.015 -169.419)" fill="url(#linear-gradient-6)"/>
        <path id="Path_1879" data-name="Path 1879" d="M184.061,492.925l-35.357,4.72-5.482-3.115s-1.12-9.157,17.125-12.159c9.245-1.523,15.344-2.1,19.472-1.611q.554.629,1.1,1.359S184.691,489.464,184.061,492.925Z" transform="translate(-53.076 -178.108)" fill="#404040"/>
        <path id="Path_1880" data-name="Path 1880" d="M165.128,597.469l34.678-56.592-26.3-14.129h0a27.067,27.067,0,0,0-18.66-3.034c-16.911,2.983-30.625,19.114-30.625,36.024,0,9.277,4.129,16.854,10.642,21.323h0a23.912,23.912,0,0,0,4.406,2.4Z" transform="translate(-46.038 -193.912)" fill="url(#linear-gradient-7)"/>
        <path id="Path_1881" data-name="Path 1881" d="M184.061,492.925l-35.357,4.72-5.482-3.115s-1.12-9.157,17.125-12.159c9.245-1.523,15.344-2.1,19.472-1.611q.554.629,1.1,1.359S184.691,489.464,184.061,492.925Z" transform="translate(-53.076 -178.108)" fill="#44a5df"/>
        <ellipse id="Ellipse_87" data-name="Ellipse 87" cx="33.45" cy="28.044" rx="33.45" ry="28.044" transform="matrix(0.675, -0.738, 0.738, 0.675, 93.646, 381.242)" fill="url(#linear-gradient-8)"/>
        <ellipse id="Ellipse_88" data-name="Ellipse 88" cx="28.812" cy="24.161" rx="28.812" ry="24.161" transform="matrix(0.675, -0.738, 0.738, 0.675, 100.342, 381.079)" fill="#44a5df"/>
        <ellipse id="Ellipse_89" data-name="Ellipse 89" cx="23.538" cy="20.769" rx="23.538" ry="20.769" transform="matrix(0.675, -0.738, 0.738, 0.675, 105.575, 380.39)" fill="url(#radial-gradient)"/>
        <ellipse id="Ellipse_90" data-name="Ellipse 90" cx="16.728" cy="14.028" rx="16.728" ry="14.028" transform="matrix(0.675, -0.738, 0.738, 0.675, 115.975, 379.01)" fill="url(#radial-gradient-2)"/>
        <ellipse id="Ellipse_91" data-name="Ellipse 91" cx="7.319" cy="6.143" rx="7.319" ry="6.143" transform="matrix(0.675, -0.738, 0.738, 0.675, 128.145, 377.396)" fill="url(#radial-gradient-3)"/>
        <rect id="Rectangle_232" data-name="Rectangle 232" width="27.459" height="72.773" rx="10.26" transform="translate(156.405 215.366)" fill="#44a5df"/>
        <rect id="Rectangle_233" data-name="Rectangle 233" width="35.735" height="8.811" transform="translate(64.795 167.025)" fill="url(#linear-gradient-3)"/>
        <rect id="Rectangle_234" data-name="Rectangle 234" width="13.217" height="4.406" transform="translate(76.054 175.836)" fill="#44a5df"/>
        <rect id="Rectangle_235" data-name="Rectangle 235" width="23.066" height="4.406" transform="translate(71.133 162.62)" fill="url(#linear-gradient-10)"/>
        <rect id="Rectangle_236" data-name="Rectangle 236" width="35.735" height="29.397" rx="5.06" transform="translate(64.795 133.222)" fill="#44a5df"/>
        <rect id="Rectangle_237" data-name="Rectangle 237" width="17.867" height="29.397" rx="5.06" transform="translate(82.663 133.222)" fill="url(#linear-gradient-11)"/>
        <path id="Path_1882" data-name="Path 1882" d="M133.646,454.644H116.263a2.82,2.82,0,0,1-2.813-2.82V434.4a2.813,2.813,0,0,1,2.813-2.813l16.3-3.021c-1.46.359-1.259,4.8-1.259,6.294v17.4a2.278,2.278,0,0,0,2.341,2.379Z" transform="translate(-42.046 -158.827)" fill="url(#linear-gradient-12)"/>
        <path id="Path_1883" data-name="Path 1883" d="M159.7,431.675v17.4a3.512,3.512,0,0,1-2.82,3.317l-12.235,2.159a2.561,2.561,0,0,1-.485.044,2.278,2.278,0,0,1-2.329-2.366v-17.4c0-1.485-.214-5.929,1.259-6.294l.2-.044,13.6.862a2.3,2.3,0,0,1,2.807,2.322Z" transform="translate(-52.563 -158.798)" fill="url(#linear-gradient-13)"/>
        <ellipse id="Ellipse_92" data-name="Ellipse 92" cx="6.942" cy="8.062" rx="6.942" ry="8.062" transform="translate(83.003 139.856)" fill="#44a5df"/>
        <ellipse id="Ellipse_93" data-name="Ellipse 93" cx="4.745" cy="5.513" rx="4.745" ry="5.513" transform="translate(85.199 142.405)" fill="url(#linear-gradient-14)"/>
        <path id="Path_1884" data-name="Path 1884" d="M184.829,355.045a9.232,9.232,0,0,0-3.008-.522,3.776,3.776,0,0,1-1.592-.264,2.832,2.832,0,0,1-.378-1.372A3.776,3.776,0,0,0,182.192,351c.6-1.416,2.517-3.3,0-7.08s-.919-2.045-.132-5.507-2.146-5.035-3.09-6.394-2.939-4.513-2.624-6.294.107-4.406-1.573-5.979-3.776-2.832-3.147-6.608a10.321,10.321,0,0,0-2.939-8.5c-1.259-1.045-2.618-1.573-2.725-3.688s-1.366-3.55-3.808-5.337a5.96,5.96,0,0,1-2.694-5.664c.1-1.888-2.939-2.2-3.883-3.248-.51-.573.271-1.724-.094-2.694a65.926,65.926,0,0,0,10.976-26.6c.963-6.1-.271-11.385-3.663-15.734-7.282-9.3-21.933-10.642-22.55-10.7l-.428,5.035c.132,0,13.072,1.2,19.013,8.78,2.517,3.235,3.4,7.105,2.65,11.826a61.411,61.411,0,0,1-10.447,24.872,20.681,20.681,0,0,0-1.888-1.857c-2.027-1.7-3.921-2.285-5.664-1.724a11.782,11.782,0,0,0-8.282,10.1c-.359,3.644,1.051,6.923,3.587,8.333,1.3.73,2.882.629,4.708-.239l.151-.082v.038a2.618,2.618,0,0,0,4.406,2.045c1.768-1.68,3.147-4.16,3.329-3.279.315,1.573.472,5.35,4.406,7.817s3.3,2.882,3.147,6.344a12.825,12.825,0,0,0,3.222,8.748c1.964,2.454,2.914,2.9,2.285,7.143s1.259,4.878,4.72,6.608,0,3.619.787,8.5,2.36,4.406,2.2,6.451-1.1,4.405-.315,5.979c.283.56,1.5.938,3.021,1.057a7.3,7.3,0,0,0,1.485,3.971c1.555,1.888,3.776,2.02,5.211,2.1a7.257,7.257,0,0,1,1.309.138,7.183,7.183,0,0,1,.957,6.092c-.724,2.19-2.838,3.361-6.294,3.48-6.1.2-8.182-1.636-10.6-3.776-2.152-1.888-4.588-4.034-9.359-4.664-3.531-.466-5.935.315-7.15,2.31-2.045,3.367.894,8.075,1.844,9.44l4.135-2.876a9.421,9.421,0,0,1-1.661-3.864,5.488,5.488,0,0,1,2.171,0c3.26.428,4.777,1.762,6.7,3.449,2.687,2.366,5.715,5.035,13.028,5.035h1.064c8.905-.3,10.863-5.985,11.284-8.421C189.757,361.383,187.787,356.235,184.829,355.045Zm-43.835-63.3a4.28,4.28,0,0,1-.768-3.235,6.734,6.734,0,0,1,4.62-5.733,6.351,6.351,0,0,1,1.932,1.523,12.833,12.833,0,0,0-2.171,4.846A11.415,11.415,0,0,1,140.994,291.745Z" transform="translate(-50.087 -85.592)" fill="url(#linear-gradient-15)"/>
        <path id="Path_1885" data-name="Path 1885" d="M141.954,155.734c-2.517,4.827-7.269,9.862-31.638,9.233-1.051,0-2.083-.05-3.1-.063-22.43-.371-34.936,1.353-35.54-16.514-.5-14.664.692-43.822,1.259-55.66A6.64,6.64,0,0,1,78.6,86.435a53.494,53.494,0,0,1,9.063-.573h.919c2.517.076,6.923.239,12.2.466,15.589.68,38.586,1.976,41.009,3.493a6.5,6.5,0,0,0,.755.409c2.857,1.359,4.33-.264,4.909,6.294C148.04,103.7,144.472,150.907,141.954,155.734Z" transform="translate(-26.521 -31.801)" fill="url(#linear-gradient-16)"/>
        <path id="Path_1886" data-name="Path 1886" d="M107.22,164.9c-22.43-.371-34.936,1.353-35.54-16.514-.5-14.664.692-43.822,1.259-55.66A6.64,6.64,0,0,1,78.6,86.435a53.5,53.5,0,0,1,9.063-.573h.919c-2.725,20.234-7.993,68.669,3.147,74.894C96,163.154,101.486,164.381,107.22,164.9Z" transform="translate(-26.521 -31.801)" fill="#44a5df"/>
        <path id="Path_1887" data-name="Path 1887" d="M157.413,105.751c-.308,6.526-.768,14.33-1.3,21.3-.4,5.312-.843,10.139-1.259,13.556a20.744,20.744,0,0,1-.95,4.94c-1.775,3.411-5.129,6.967-22.342,6.526-.743,0-1.473-.038-2.19-.044-4.047-.371-8.144-.894-10.951-2.92-6.224-4.5-6.784-19.806-5.733-34.911.189-2.832.447-5.664.73-8.408.774-7.445,1.762-14.312,2.436-19.145l4.827.22c15.1.717,33.985,1.888,36.182,3.273a6.5,6.5,0,0,0,.755.409c.057.365.1.78.145,1.259C157.866,93.39,157.715,98.866,157.413,105.751Z" transform="translate(-41.608 -32.098)" fill="#80d1ff"/>
        <path id="Path_1888" data-name="Path 1888" d="M157.275,117.719c-.4,5.312-1.2,25.942-2.473,32.953a33.032,33.032,0,0,1-.95,4.94c-1.775,3.411-5.129,6.967-22.342,6.526-.743,0-1.473-.038-2.19-.044-4.047-.371-8.144-.894-10.951-2.92-7.395-5.343-6.8-25.923-5.035-43.319l5.929-2.1s13.034,4.8,13.846,7.162c.327.976,7.615-3.707,14.179-5.664l8.717.466a.3.3,0,0,1,.063.063A4.846,4.846,0,0,1,157.275,117.719Z" transform="translate(-41.584 -42.146)" fill="url(#linear-gradient-17)"/>
        <path id="Path_1889" data-name="Path 1889" d="M159.974,115.754v.057c-.459,9.805-.334,22.512-.906,30.939a5.457,5.457,0,0,1-4.544,5.035,65.782,65.782,0,0,1-12.505.629c-.743,0-1.473-.038-2.19-.044-4.047-.371-8.144-.894-10.951-2.92-6.331-4.575-6.8-20.309-5.664-35.659l28,1.51,8.717.466Z" transform="translate(-45.485 -42.157)" fill="url(#linear-gradient-18)"/>
        <path id="Path_1890" data-name="Path 1890" d="M120.873,86.87,119.539,103.7l-6.659,10.5c.189-2.832.447-5.664.73-8.408.774-7.445,1.762-14.312,2.436-19.145Z" transform="translate(-41.835 -32.098)" fill="#44a5df"/>
        <path id="Path_1891" data-name="Path 1891" d="M196.02,44.806,148.188,40.62A11.328,11.328,0,0,1,138,29.569V9.322a9.182,9.182,0,0,1,10.2-9.3l47.831,4.185a11.328,11.328,0,0,1,10.189,11.077V35.51a9.189,9.189,0,0,1-10.2,9.3Z" transform="translate(-51.145 0.029)" fill="#44a5df"/>
        <path id="Path_1892" data-name="Path 1892" d="M198.036,45.809a7.205,7.205,0,0,1-.736,0l-47.831-3.883c-4.664-.378-8.459-4.2-8.459-8.534v-18.8c0-3.94,3.147-6.923,7.395-6.923h.736l47.831,3.883c4.664.378,8.465,4.21,8.465,8.534V38.9C205.437,42.839,202.253,45.809,198.036,45.809Z" transform="translate(-52.261 -2.824)" fill="#fff"/>
        <path id="Path_1893" data-name="Path 1893" d="M200.855,8.444,154.371,4.378a.931.931,0,0,1-.831-.906h0a.743.743,0,0,1,.831-.755l46.484,4.066a.919.919,0,0,1,.806.9h0a.755.755,0,0,1-.806.762Z" transform="translate(-56.905 -0.987)" fill="#80d1ff"/>
        <ellipse id="Ellipse_94" data-name="Ellipse 94" cx="9.503" cy="6.18" rx="9.503" ry="6.18" transform="matrix(0.117, -0.993, 0.993, 0.117, 50.097, 48.312)" fill="#44a5df"/>
      </g>
    </g>
  </g>
</svg>
