<svg xmlns="http://www.w3.org/2000/svg" xmlns:xlink="http://www.w3.org/1999/xlink" width="96.732" height="74.438" viewBox="0 0 96.732 74.438">
  <defs>
    <linearGradient id="linear-gradient" x1="0.327" y1="-0.107" x2="0.645" y2="1.157" gradientUnits="objectBoundingBox">
      <stop offset="0" stop-color="#ffbdff"/>
      <stop offset="0.1" stop-color="#f5bfff"/>
      <stop offset="0.26" stop-color="#dbc4ff"/>
      <stop offset="0.47" stop-color="#b0ccff"/>
      <stop offset="0.72" stop-color="#75d8ff"/>
      <stop offset="0.909" stop-color="#2ae6ff"/>
      <stop offset="1" stop-color="#29e6ff"/>
    </linearGradient>
  </defs>
  <path id="digi_marketing_icon" data-name="digi marketing icon" d="M12.847,52.145a3.779,3.779,0,0,1-2.726-1.162L1.053,41.536A3.779,3.779,0,0,1,0,38.919V3.779A3.779,3.779,0,0,1,3.779,0H21.916a3.779,3.779,0,0,1,3.779,3.779V38.919a3.779,3.779,0,0,1-1.053,2.617l-9.069,9.446A3.779,3.779,0,0,1,12.847,52.145ZM7.557,37.4l5.29,5.511,5.29-5.511V7.557H7.557ZM96.732,3.779A3.779,3.779,0,0,0,92.953,0H38.919a3.779,3.779,0,1,0,0,7.557H92.953A3.779,3.779,0,0,0,96.732,3.779Zm0,22.294a3.779,3.779,0,0,0-3.779-3.779H38.919a3.779,3.779,0,1,0,0,7.557H92.953A3.779,3.779,0,0,0,96.732,26.072Zm0,22.294a3.779,3.779,0,0,0-3.779-3.779H38.919a3.779,3.779,0,1,0,0,7.557H92.953A3.779,3.779,0,0,0,96.732,48.366Zm0,22.294a3.779,3.779,0,0,0-3.779-3.779H3.779a3.779,3.779,0,0,0,0,7.557H92.953A3.779,3.779,0,0,0,96.732,70.66Z" transform="translate(0)" fill="url(#linear-gradient)"/>
</svg>
