<svg id="digital_skills" data-name="digital skills" xmlns="http://www.w3.org/2000/svg" width="163.376" height="42.502" viewBox="0 0 163.376 42.502">
  <g id="Layer_1" data-name="Layer 1" transform="translate(0 0)">
    <path id="Path_1898" data-name="Path 1898" d="M36,16.74l-.17-.31.14-.32c.07-.15,1.45-3.39-1.06-4.87l-.54-.32.27-.57a3.19,3.19,0,0,0,0-2.36,5.56,5.56,0,0,0-3.31-2.82L31,5l-.08-.35c0-.13-.74-3.17-4.76-3.57H26L25.91,1Q25.465.792,25,.63a4,4,0,0,0-.76,2.82A2,2,0,0,0,25,4.65l.37.22v.44L25,8.56,23.77,10a1.15,1.15,0,0,1,.06.37,1.28,1.28,0,1,1-1.27-1.28h.17L23.65,8l.27-2.46a3.32,3.32,0,0,1-1-1.76A5,5,0,0,1,23.65.2,4.67,4.67,0,0,0,21,.18a2.18,2.18,0,0,0-1.34,1.3,1.33,1.33,0,0,1-2.53,0A2.2,2.2,0,0,0,15.82.18,6,6,0,0,0,12,.56c0,.39-.36,3.06.82,4.51a2.36,2.36,0,0,0,1.28.82,2.92,2.92,0,0,1,.14-.6,2.41,2.41,0,0,1,1.07-1.24V3.51l-1.59-.59.48-1.29,2.55,1L16.64,5l-.46.13a1.09,1.09,0,0,0-.64.63A3,3,0,0,0,16,7.93h.36a2.2,2.2,0,1,1-1.57.67,7.14,7.14,0,0,1-.49-1.25,3.86,3.86,0,0,1-2.47-1.39A7.35,7.35,0,0,1,10.6,1.12c-4,.44-4.67,3.53-4.68,3.56L5.85,5l-.33.14A5.62,5.62,0,0,0,2.2,8a3.26,3.26,0,0,0,0,2.37l.26.56-.53.32C-.6,12.73.81,16,.87,16.11l.14.32-.18.31A5.44,5.44,0,0,0,1,22.82H5.72l.18-1.61a4.44,4.44,0,0,1-3.3-2.8,5.6,5.6,0,0,1,.53-4.91l1.13.77a4.24,4.24,0,0,0-.38,3.65,3.23,3.23,0,0,0,2.79,2h.74l-.31,2.9h4.76V21.5a2.49,2.49,0,0,1-1.4-1.36,2.28,2.28,0,0,1,.31-2,.15.15,0,0,0,0-.2,5.67,5.67,0,0,1-1.46-1.68l-1.76.88v.06a1.28,1.28,0,1,1-1.28-1.28,1.19,1.19,0,0,1,.47.09l2.17-1.09a5.06,5.06,0,0,1,.77-2.59A6.88,6.88,0,0,0,7.54,14l-.39.43-.49-.31c-1.17-.75-1-2.52-.87-3.42A6.37,6.37,0,0,1,4.13,8.57l.62-.29L5.37,8A3.87,3.87,0,0,0,6.81,9.68l.59.22-.17.61a4.48,4.48,0,0,0-.11,2,6.09,6.09,0,0,1,2.59-1.55,1.2,1.2,0,0,1,1.25.51,1.24,1.24,0,0,1,0,1.37,3.45,3.45,0,0,0-.7,2.37,3.68,3.68,0,0,0,1.31,1.73,1.54,1.54,0,0,1,.34,2,1,1,0,0,0-.19.8,1.61,1.61,0,0,0,1,.71l.46.16v2.27h4.21A7.38,7.38,0,0,1,18.61,18a3.77,3.77,0,0,1,1.81-1.23,2.18,2.18,0,1,1,.16,1.4,2.32,2.32,0,0,0-.9.69,6.11,6.11,0,0,0-.87,4H29.75L29.43,20h.75a3.31,3.31,0,0,0,2.5-1.45l-4.24-1.87.56-1.3,4.18,1.84a4.37,4.37,0,0,0-.58-3l1.13-.76a5.6,5.6,0,0,1,.53,4.91,4.44,4.44,0,0,1-3.3,2.8l.18,1.61h4.68A5.43,5.43,0,0,0,36,16.74ZM32.1,9.55a1.27,1.27,0,1,1,.9-.368,1.28,1.28,0,0,1-.9.368Z" transform="translate(0.016 0.002)" fill="#2da3dc"/>
    <path id="Path_1899" data-name="Path 1899" d="M32.1,8.18a.09.09,0,0,0-.09.1c0,.1.18.1.18,0a.09.09,0,0,0-.09-.1Z" transform="translate(0.016 0.002)" fill="#2da3dc"/>
    <path id="Path_1900" data-name="Path 1900" d="M23.38,17.22a.82.82,0,1,0-.82.82A.82.82,0,0,0,23.38,17.22Z" transform="translate(0.016 0.002)" fill="#2da3dc"/>
    <path id="Path_1901" data-name="Path 1901" d="M22.46,10.33c0,.08.11.1.16.06l-.13-.11a.05.05,0,0,0-.03.05Z" transform="translate(0.016 0.002)" fill="#2da3dc"/>
    <path id="Path_1902" data-name="Path 1902" d="M17.13,10.09a.82.82,0,1,0-.82.82A.82.82,0,0,0,17.13,10.09Z" transform="translate(0.016 0.002)" fill="#2da3dc"/>
    <path id="Path_1903" data-name="Path 1903" d="M6.16,17.22c0,.1.18.1.18,0a.09.09,0,1,0-.18,0Z" transform="translate(0.016 0.002)" fill="#2da3dc"/>
    <path id="Path_1904" data-name="Path 1904" d="M35.33,25.47v.87a.58.58,0,0,1-.58.58H31.51l-.13.51A13.36,13.36,0,0,1,29.89,31l-.28.46,2.3,2.29a.58.58,0,0,1,.17.41.54.54,0,0,1-.17.4l-3.07,3.07a.58.58,0,0,1-.81,0l-2.29-2.3-.46.28a13.36,13.36,0,0,1-3.6,1.49l-.51.13V40.5a.58.58,0,0,1-.58.58H16.26a.58.58,0,0,1-.58-.58V37.26l-.51-.13a13.36,13.36,0,0,1-3.6-1.49l-.46-.28-2.29,2.3a.58.58,0,0,1-.81,0L4.94,34.59a.58.58,0,0,1,0-.81l2.3-2.29L7,31a13.36,13.36,0,0,1-1.49-3.6l-.13-.51H2.1a.58.58,0,0,1-.58-.58v-.87H.15v.87a2,2,0,0,0,2,1.95H4.28a14.89,14.89,0,0,0,1.24,3L4,32.81a1.94,1.94,0,0,0,0,2.75l3,3.07a1.94,1.94,0,0,0,1.37.57,2,2,0,0,0,1.38-.57l1.54-1.55a14.89,14.89,0,0,0,3,1.24V40.5a2,2,0,0,0,2,2h4.33a2,2,0,0,0,1.95-2V38.32a14.89,14.89,0,0,0,3-1.24l1.54,1.55a2,2,0,0,0,1.38.57,1.94,1.94,0,0,0,1.37-.57l3.07-3.07a2,2,0,0,0,0-2.75l-1.55-1.54a14.89,14.89,0,0,0,1.24-3H34.8a2,2,0,0,0,2-1.95v-.87Z" transform="translate(0.016 0.002)" fill="#fbb540"/>
    <path id="Path_1905" data-name="Path 1905" d="M23.78,25.47H12.11a6.6,6.6,0,0,0,3.14,4,6.48,6.48,0,0,0,8.53-2,6.43,6.43,0,0,0,1-2Z" transform="translate(0.016 0.002)" fill="#2da3dc"/>
    <path id="Path_1906" data-name="Path 1906" d="M50.92,22.82c-.35,0-.46-.2-.46-.57V8.52c0-.39.13-.57.52-.57h4.77c4,0,5.33,1.73,5.33,3.57v7.73c0,1.84-1.38,3.57-5.33,3.57ZM53.41,10.4v10h2.34c1.48,0,2.38-.55,2.38-1.64V12c0-1.09-.9-1.64-2.38-1.64Z" transform="translate(0.016 0.002)" fill="#2da3dc"/>
    <path id="Path_1907" data-name="Path 1907" d="M66.52,10c0,.37-.13.52-.5.52H64.2c-.39,0-.54-.15-.54-.52V8.11c0-.4.15-.57.54-.57H66c.37,0,.5.17.5.57Zm0,12.26c0,.39-.13.57-.5.57H64.2c-.39,0-.54-.18-.54-.57V12.48c0-.4.15-.55.54-.55H66c.37,0,.5.15.5.55Z" transform="translate(0.016 0.002)" fill="#2da3dc"/>
    <path id="Path_1908" data-name="Path 1908" d="M68.9,19.8V15a2.86,2.86,0,0,1,3.17-3.19A5.33,5.33,0,0,1,75.57,13v-.54c0-.4.13-.55.53-.55h1.68c.37,0,.52.15.52.55V24c0,1.94-1.46,3.21-4.67,3.21H70.58c-.39,0-.54-.13-.54-.53V25.42c0-.4.15-.57.54-.57h3.09c1.22,0,1.81-.37,1.81-1.18V21.83A5.57,5.57,0,0,1,72.07,23a2.87,2.87,0,0,1-3.17-3.2Zm2.86-.46c0,.59.18,1.16,1.21,1.16a4.46,4.46,0,0,0,2.51-1V15.25a4.46,4.46,0,0,0-2.51-1c-1,0-1.21.57-1.21,1.13Z" transform="translate(0.016 0.002)" fill="#2da3dc"/>
    <path id="Path_1909" data-name="Path 1909" d="M83.78,10c0,.37-.13.52-.5.52H81.47c-.4,0-.55-.15-.55-.52V8.11c0-.4.15-.57.55-.57h1.81c.37,0,.5.17.5.57Zm0,12.26c0,.39-.13.57-.5.57H81.47c-.4,0-.55-.18-.55-.57V12.48c0-.4.15-.55.55-.55h1.81c.37,0,.5.15.5.55Z" transform="translate(0.016 0.002)" fill="#2da3dc"/>
    <path id="Path_1910" data-name="Path 1910" d="M91.89,12c.37,0,.55.14.55.51V13.7c0,.39-.18.55-.55.55h-2v5c0,.81.53,1.19,1.75,1.19h.48c.4,0,.55.15.55.54v1.27c0,.39-.15.55-.55.55H91.2c-3.2.02-4.2-1.08-4.2-3.22V14.25H86c-.37,0-.53-.16-.53-.55V12.61c0-.37.16-.48.53-.53L87,12h0V9.88c0-.4.15-.55.54-.55h1.82c.39,0,.52.15.52.55V12Z" transform="translate(0.016 0.002)" fill="#2da3dc"/>
    <path id="Path_1911" data-name="Path 1911" d="M94.34,14.9c0-1.94,1.29-3.14,4.41-3.14s4.4,1.2,4.4,3.14v7.35c0,.39-.16.57-.53.57H101c-.39,0-.48-.18-.52-.57v-.46A5,5,0,0,1,97.18,23C95,23,94,21.7,94,20.26v-1c0-1.46,1.12-2.75,3.28-2.75h3v-1.4c0-.79-.37-1.22-1.64-1.22S97,14.25,97,15v.16c0,.39-.16.54-.53.54H94.86c-.39,0-.52-.15-.52-.54Zm6,4.88V18.53H97.88c-.85,0-1,.42-1,1v.34c0,.66.44.86,1.09.86a4.27,4.27,0,0,0,2.36-.95Z" transform="translate(0.016 0.002)" fill="#2da3dc"/>
    <path id="Path_1912" data-name="Path 1912" d="M108.48,22.25c0,.39-.13.57-.5.57h-1.82c-.39,0-.54-.18-.54-.57V8.11c0-.4.15-.57.54-.57H108c.37,0,.5.17.5.57Z" transform="translate(0.016 0.002)" fill="#2da3dc"/>
    <path id="Path_1913" data-name="Path 1913" d="M122.53,11.73c0-1.07-.72-1.57-2.12-1.57s-2.14.5-2.14,1.57v.33a1.21,1.21,0,0,0,.9,1.18L123,14.6a3.33,3.33,0,0,1,2.58,3.14v1.69c0,1.83-1.29,3.56-5.2,3.56s-5.23-1.73-5.23-3.56V18.05c0-.39.15-.57.53-.57h1.83c.4,0,.53.18.53.57v1c0,1.08.83,1.58,2.31,1.58s2.32-.5,2.32-1.58v-.7c0-.89-.87-1.24-1.86-1.61l-3.38-1.27a3.12,3.12,0,0,1-2-2.82V11.34c0-1.84,1.13-3.56,5-3.56s5,1.72,5,3.56v.9c0,.37-.16.54-.55.54H123c-.37,0-.5-.17-.5-.54Z" transform="translate(0.016 0.002)" fill="#2da3dc"/>
    <path id="Path_1914" data-name="Path 1914" d="M137.26,22.27c.18.26.11.55-.26.55h-2a1,1,0,0,1-.79-.55l-3.06-4.46h-.48v4.46c0,.37-.13.55-.5.55h-1.81c-.4,0-.55-.18-.55-.55V8.08c0-.37.15-.54.55-.54h1.81c.37,0,.5.17.5.54v7.57h.48l2.71-3.17a1.26,1.26,0,0,1,.88-.55h2c.37,0,.48.28.26.55l-3.54,4.15Z" transform="translate(0.016 0.002)" fill="#2da3dc"/>
    <path id="Path_1915" data-name="Path 1915" d="M141.5,10c0,.37-.13.52-.5.52h-1.82c-.39,0-.54-.15-.54-.52V8.11c0-.4.15-.57.54-.57H141c.37,0,.5.17.5.57Zm0,12.26c0,.39-.13.57-.5.57h-1.82c-.39,0-.54-.18-.54-.57V12.48c0-.4.15-.55.54-.55H141c.37,0,.5.15.5.55Z" transform="translate(0.016 0.002)" fill="#2da3dc"/>
    <path id="Path_1916" data-name="Path 1916" d="M147,22.25c0,.39-.13.57-.5.57h-1.81c-.4,0-.55-.18-.55-.57V8.11c0-.4.15-.57.55-.57h1.81c.37,0,.5.17.5.57Z" transform="translate(0.016 0.002)" fill="#2da3dc"/>
    <path id="Path_1917" data-name="Path 1917" d="M152.43,22.25c0,.39-.13.57-.5.57h-1.82c-.39,0-.55-.18-.55-.57V8.11c0-.4.16-.57.55-.57h1.82c.37,0,.5.17.5.57Z" transform="translate(0.016 0.002)" fill="#2da3dc"/>
    <path id="Path_1918" data-name="Path 1918" d="M160.6,14.66c0-.68-.65-.89-1.59-.89s-1.58.21-1.58.89v.24a.86.86,0,0,0,.68.77l3.15,1.11c1.35.48,2.1,1.23,2.1,2.28v1.11c0,1.4-1.25,2.82-4.42,2.82s-4.37-1.42-4.37-2.82v-.5c0-.35.13-.5.5-.5h1.62c.37,0,.5.15.5.5V20c0,.68.77.92,1.75.92s1.77-.24,1.77-.92v-.37c0-.37-.28-.57-1-.83l-3.17-1.16a2.7,2.7,0,0,1-1.73-2.32v-.7c0-1.4,1-2.9,4.2-2.9s4.17,1.5,4.17,2.9v.42c0,.37-.11.5-.5.5h-1.62c-.35,0-.48-.13-.48-.5Z" transform="translate(0.016 0.002)" fill="#2da3dc"/>
    <path id="Path_1919" data-name="Path 1919" d="M50.5,36.94c-.08,0-.12,0-.12-.13V27.4c0-.08,0-.13.12-.13h2.36c2.22,0,2.86.81,2.86,1.91v1a1.64,1.64,0,0,1-1.41,1.72c1.27.22,1.76.85,1.76,1.76V35c0,1.09-.63,1.92-2.85,1.92Zm.36-9.25v4h2.19c1.66,0,2.2-.67,2.2-1.55v-1c0-.89-.55-1.53-2.39-1.53Zm0,4.44v4.4h2.36c1.83,0,2.39-.66,2.39-1.57V33.67c0-.88-.56-1.54-2.39-1.54Z" transform="translate(0.016 0.002)" fill="#fff"/>
    <path id="Path_1920" data-name="Path 1920" d="M58.23,31.51c0-1,.59-1.66,2.45-1.66s2.46.68,2.46,1.66v3.88c0,1-.59,1.66-2.46,1.66s-2.45-.7-2.45-1.66Zm4.44,0c0-.74-.46-1.3-2-1.3s-2,.56-2,1.3v3.82c0,.74.46,1.28,2,1.28s2-.54,2-1.28Z" transform="translate(0.016 0.002)" fill="#fff"/>
    <path id="Path_1921" data-name="Path 1921" d="M65.38,31.51c0-1,.58-1.66,2.45-1.66s2.45.68,2.45,1.66v3.88c0,1-.58,1.66-2.45,1.66s-2.45-.7-2.45-1.66Zm4.43,0c0-.74-.45-1.3-2-1.3s-2,.56-2,1.3v3.82c0,.74.45,1.28,2,1.28s2-.54,2-1.28Z" transform="translate(0.016 0.002)" fill="#fff"/>
    <path id="Path_1922" data-name="Path 1922" d="M75.19,30c.08,0,.12.05.12.13v.16c0,.08,0,.13-.12.13H73.41v4.84c0,.76.41,1.3,2,1.3h.19c.09,0,.13,0,.13.12v.16a.12.12,0,0,1-.13.13h-.24c-1.87,0-2.37-.67-2.37-1.67V30.39H72a.12.12,0,0,1-.13-.13v-.13c0-.09,0-.13.13-.13h.95V28.4c0-.09,0-.13.11-.13h.23c.09,0,.13,0,.13.13V30Z" transform="translate(0.016 0.002)" fill="#fff"/>
    <path id="Path_1923" data-name="Path 1923" d="M83.1,35.12c0,1.09-.58,1.93-2.81,1.93s-2.79-.84-2.79-1.93v-6c0-1.09.58-1.93,2.79-1.93s2.81.84,2.81,1.93v.76c0,.08,0,.12-.13.12h-.22c-.09,0-.12,0-.12-.12v-.7c0-.91-.5-1.56-2.33-1.56s-2.3.62-2.3,1.53v5.91c0,.91.5,1.56,2.33,1.56s2.33-.65,2.33-1.56v-.87c0-.08,0-.11.12-.11H83c.09,0,.13,0,.13.11Z" transform="translate(0.016 0.002)" fill="#fff"/>
    <path id="Path_1924" data-name="Path 1924" d="M85,31.51c0-1,.52-1.66,2.39-1.66s2.38.68,2.38,1.66v5.3c0,.08,0,.13-.12.13h-.19a.12.12,0,0,1-.13-.13v-.64a4,4,0,0,1-2.48.88c-1.34,0-1.92-.7-1.92-1.62v-.75a1.52,1.52,0,0,1,1.67-1.61h2.73V31.54c0-.74-.38-1.3-1.91-1.3s-1.94.54-1.94,1.28v.26c0,.1,0,.13-.13.13h-.19c-.09,0-.13,0-.13-.13Zm4.3,4.23V33.47H86.67a1.17,1.17,0,0,0-1.3,1.25v.67c0,.72.47,1.25,1.54,1.25a3.79,3.79,0,0,0,2.41-.9Z" transform="translate(0.016 0.002)" fill="#fff"/>
    <path id="Path_1925" data-name="Path 1925" d="M92.59,30c.09,0,.11,0,.11.13v.64a3.77,3.77,0,0,1,2.44-.88,1.76,1.76,0,0,1,1.82,1,3.75,3.75,0,0,1,2.53-1c1.34,0,1.93.68,1.93,1.63v5.33c0,.08,0,.13-.12.13h-.22c-.1,0-.12,0-.12-.13v-5.3c0-.74-.47-1.28-1.55-1.28a3.45,3.45,0,0,0-2.38.93,1.41,1.41,0,0,1,0,.35v5.26a.12.12,0,0,1-.13.13h-.23c-.09,0-.11,0-.11-.13V31.55c0-.74-.47-1.28-1.55-1.28a3.45,3.45,0,0,0-2.33.9v5.64a.12.12,0,0,1-.13.13h-.23c-.08,0-.11,0-.11-.13V30.09c0-.09,0-.13.11-.13Z" transform="translate(0.016 0.002)" fill="#fff"/>
    <path id="Path_1926" data-name="Path 1926" d="M104.26,30c.08,0,.11,0,.11.13v.65a3.91,3.91,0,0,1,2.51-.89c1.34,0,1.94.68,1.94,1.66v3.88c0,1-.6,1.66-1.94,1.66a4,4,0,0,1-2.5-.87v3.61c0,.09,0,.12-.13.12h-.22c-.09,0-.12,0-.12-.12v-9.7c0-.09,0-.13.12-.13Zm4.12,1.59c0-.71-.47-1.28-1.55-1.28a3.79,3.79,0,0,0-2.42.91v4.55a3.86,3.86,0,0,0,2.42.89c1.08,0,1.55-.56,1.55-1.29Z" transform="translate(0.016 0.002)" fill="#fff"/>
    <path id="Path_1927" data-name="Path 1927" d="M111.46,36.94v-.33L114,33.93c.89-.93,1.44-1.54,1.44-2.51s-.72-1.5-1.84-1.5a12.83,12.83,0,0,0-2.07.29v-.36a11.33,11.33,0,0,1,2.13-.29c1.34,0,2.23.49,2.23,1.86a3.68,3.68,0,0,1-1.44,2.64L112,36.57h4.13v.37Z" transform="translate(0.016 0.002)" fill="#2da3dc"/>
    <path id="Path_1928" data-name="Path 1928" d="M122.42,33.45c0,1.77-.35,3.59-2.48,3.59s-2.49-1.78-2.49-3.58c0-3.15,1-3.9,2.48-3.9S122.42,30.3,122.42,33.45Zm-4.57,0c0,1.35.21,3.19,2.09,3.19S122,35.05,122,33.46c0-2.82-.72-3.54-2.09-3.54s-2.06.69-2.06,3.56Z" transform="translate(0.016 0.002)" fill="#2da3dc"/>
    <path id="Path_1929" data-name="Path 1929" d="M126.75,29.66h.34v7.28h-.4V30.13l-2,1.35-.19-.32Z" transform="translate(0.016 0.002)" fill="#2da3dc"/>
    <path id="Path_1930" data-name="Path 1930" d="M130.14,36.45a9.78,9.78,0,0,0,1.8.21c1.44,0,2.28-.89,2.3-3a8.73,8.73,0,0,1-2.19.46,2,2,0,0,1-2.27-2.21,2.25,2.25,0,0,1,2.39-2.35c1.67,0,2.47,1.38,2.47,3.81,0,2.77-1.06,3.67-2.7,3.67a10.42,10.42,0,0,1-1.86-.23Zm4.11-3.18c0-2.06-.65-3.33-2.08-3.33a1.84,1.84,0,0,0-2,2,1.65,1.65,0,0,0,1.87,1.83A9.32,9.32,0,0,0,134.25,33.27Z" transform="translate(0.016 0.002)" fill="#2da3dc"/>
  </g>
</svg>
