<?xml version="1.0" encoding="utf-8"?>
<!-- Generator: Adobe Illustrator 22.1.0, SVG Export Plug-In . SVG Version: 6.00 Build 0)  -->
<svg version="1.1" id="Layer_1" xmlns="http://www.w3.org/2000/svg" xmlns:xlink="http://www.w3.org/1999/xlink" x="0px" y="0px"
	 viewBox="0 0 320.4 363" style="enable-background:new 0 0 320.4 363;" xml:space="preserve">
<style type="text/css">
	.st0{clip-path:url(#SVGID_2_);}
	.st1{opacity:0.704;enable-background:new    ;}
	.st2{opacity:0.999;enable-background:new    ;}
	.st3{opacity:0.41;fill:#D5DFEB;enable-background:new    ;}
	.st4{fill:#919191;}
	.st5{fill:#555655;}
	.st6{fill:url(#Path_1103_1_);}
	.st7{opacity:0.78;fill:url(#Path_1104_1_);enable-background:new    ;}
	.st8{fill:#666666;}
	.st9{fill:#5B5B5B;}
	.st10{fill:url(#Path_1112_1_);}
	.st11{opacity:0.78;fill:url(#Path_1113_1_);enable-background:new    ;}
	.st12{opacity:0.44;fill:url(#Path_1117_1_);enable-background:new    ;}
	.st13{fill:#FFFFFF;}
	.st14{fill:#45FFBC;}
	.st15{fill:url(#Path_1120_1_);}
	.st16{opacity:0.51;}
	.st17{fill:#B6B6B6;}
	.st18{fill:url(#Path_1123_1_);}
	.st19{fill:#F16161;}
	.st20{fill:#FFDF89;}
	.st21{opacity:0.31;fill:#919191;enable-background:new    ;}
	.st22{opacity:0.31;}
	.st23{fill:url(#Path_1129_1_);}
	.st24{fill:url(#Path_1134_1_);}
	.st25{fill:url(#Path_1136_1_);}
	.st26{enable-background:new    ;}
	.st27{opacity:0.54;fill:#FFFFFF;enable-background:new    ;}
	.st28{fill:url(#Path_1214_1_);}
	.st29{opacity:0.325;fill:url(#Path_1215_1_);enable-background:new    ;}
</style>
<g>
	<defs>
		<rect id="SVGID_1_" width="320.4" height="363"/>
	</defs>
	<clipPath id="SVGID_2_">
		<use xlink:href="#SVGID_1_"  style="overflow:visible;"/>
	</clipPath>
	<g id="imacs_clipped_web" transform="translate(-185)" class="st0">
		<g id="Group_215" transform="translate(-405.981 53.281)">
			<g id="Ellipse_45" class="st1">
				
					<image style="overflow:visible;" width="566" height="94" xlink:href="CD32931F081A429C.png"  transform="matrix(1 0 0 1 463.981 136.719)">
				</image>
			</g>
			<g id="Ellipse_46" class="st2">
				
					<image style="overflow:visible;" width="339" height="94" xlink:href="CD32931F081A429D.png"  transform="matrix(1 0 0 1 577.981 136.719)">
				</image>
			</g>
			<circle id="Ellipse_51" class="st3" cx="737.7" cy="76.2" r="34.5"/>
			<path id="Path_1099" class="st4" d="M677.7,166.7c0,0,3,9.3,2,12.2s-2.3,3.8-11.4,4.6s-18.1,2.3-18.1,2.3s25-0.8,27.7-1.5
				s6.1-2.6,3.4-14.4S677.7,166.7,677.7,166.7z"/>
			<path id="Path_1100" class="st4" d="M707.7,165.7H679l1.8,9.1c0,0,1.6,7.1-3.7,8.6s-26.9,2.4-26.9,2.4l30.6,4.4
				c0,0,12.6-2.2,16.4-2.8s13-1,13.5-5.8S707.7,165.7,707.7,165.7z"/>
			<path id="Path_1101" class="st5" d="M706.5,168.8c0,0,3.8,9,3,11.9s-1.9,4-11,5.5s-17.8,3.9-17.8,3.9s24.8-2.9,27.4-3.9
				s5.9-3.1,2.2-14.6S706.5,168.8,706.5,168.8z"/>
			<path id="Path_1102" class="st5" d="M626.5,79.5v84.8c0,3.1,2.4,5.6,5.5,5.6l108.6,2.4c3.1,0.1,5.7-2.4,5.8-5.5c0,0,0-0.1,0-0.1
				V56.2c0-3.1-2.5-5.6-5.7-5.6c-0.4,0-0.8,0-1.2,0.1L630.9,74C628.3,74.5,626.5,76.8,626.5,79.5z"/>
			
				<linearGradient id="Path_1103_1_" gradientUnits="userSpaceOnUse" x1="255.9753" y1="625.8553" x2="254.3543" y2="624.9713" gradientTransform="matrix(119.3541 0 0 -121.1629 -29789.5742 75910.4922)">
				<stop  offset="0" style="stop-color:#FFB9FF"/>
				<stop  offset="0.1" style="stop-color:#F5BBFF"/>
				<stop  offset="0.26" style="stop-color:#DBC1FF"/>
				<stop  offset="0.47" style="stop-color:#B0CAFF"/>
				<stop  offset="0.72" style="stop-color:#75D6FF"/>
				<stop  offset="0.99" style="stop-color:#2AE6FF"/>
				<stop  offset="1" style="stop-color:#29E6FF"/>
			</linearGradient>
			<path id="Path_1103" class="st6" d="M743.8,56.7v110c0,3.1-2.5,5.6-5.6,5.6c0,0-0.1,0-0.1,0l-94.8-2.1l-13.3-0.3
				c-3-0.1-5.5-2.6-5.5-5.6V79.9c0-2.6,1.8-4.9,4.4-5.5L737,51.2c3-0.7,6,1.3,6.7,4.3C743.7,55.9,743.8,56.3,743.8,56.7z"/>
			
				<linearGradient id="Path_1104_1_" gradientUnits="userSpaceOnUse" x1="255.6458" y1="624.8937" x2="254.4928" y2="624.3787" gradientTransform="matrix(119.333 0 0 -97.6874 -29784.2324 61174.5195)">
				<stop  offset="0" style="stop-color:#FFE4FF"/>
				<stop  offset="6.000000e-02" style="stop-color:#E3E4FF"/>
				<stop  offset="0.19" style="stop-color:#B2E5FF"/>
				<stop  offset="0.32" style="stop-color:#88E5FF"/>
				<stop  offset="0.45" style="stop-color:#66E5FF"/>
				<stop  offset="0.58" style="stop-color:#4BE6FF"/>
				<stop  offset="0.71" style="stop-color:#38E6FF"/>
				<stop  offset="0.85" style="stop-color:#2DE6FF"/>
				<stop  offset="1" style="stop-color:#29E6FF"/>
			</linearGradient>
			<path id="Path_1104" class="st7" d="M743.7,74.6v92.1c0,3.1-2.5,5.6-5.6,5.6c0,0-0.1,0-0.1,0l-94.8-2.1c-8.2-4.2-15-7.9-18.8-10
				v-10.4c4.4-8.7,14.1-21.6,34.4-26.2C688.6,116.7,729,103.9,743.7,74.6z"/>
			<path id="Path_1105" class="st8" d="M624.4,151v13.3c0,3,2.4,5.5,5.5,5.6l108.1,2.4c3.1,0.1,5.7-2.4,5.7-5.5c0,0,0-0.1,0-0.1
				v-22.2L624.4,151z"/>
			<path id="Path_1106" class="st4" d="M683.5,157.1c-1,0.6-1.2,1.9-0.6,2.9c0.2,0.3,0.5,0.6,0.8,0.7c0,0.1-0.1,0.3-0.1,0.4
				c-0.2,0.6-0.5,1.1-0.9,1.6c-0.2,0.3-0.6,0.5-1,0.5c-0.2,0-0.4-0.1-0.6-0.1c-0.4-0.2-0.8-0.2-1.2-0.1c-0.2,0.1-0.3,0.1-0.5,0.2
				c-0.4,0.3-1,0.2-1.3-0.2c0,0,0,0,0,0c-0.9-1.2-1.4-2.6-1.4-4c-0.1-0.8,0.1-1.6,0.5-2.3c0.4-0.6,1.1-1,1.8-0.8
				c0.2,0.1,0.4,0.1,0.6,0.3c0.6,0.3,0.6,0.3,1.2,0.1c0.3-0.1,0.5-0.2,0.8-0.2C682.4,156.1,683.1,156.5,683.5,157.1z"/>
			<path id="Path_1107" class="st4" d="M681.9,153.8c0.1,1.1-0.8,2.2-1.7,2c-0.1-1,0.5-1.8,1.5-2
				C681.7,153.8,681.8,153.8,681.9,153.8z"/>
			<path id="Path_1108" class="st9" d="M817.7,152.9c0,0-3.7,11.5-2.5,15s2.8,4.7,14.1,5.6s22.4,2.9,22.4,2.9s-31-0.9-34.3-1.9
				s-7.6-3.2-4.2-17.8S817.7,152.9,817.7,152.9z"/>
			<path id="Path_1109" class="st9" d="M780.5,151.6h35.6l-2.3,11.2c0,0-2,8.8,4.6,10.7s33.3,3,33.3,3l-37.9,5.4l-20.3-3.5
				c-4.7-0.8-16.1-1.2-16.7-7.1S780.5,151.6,780.5,151.6z"/>
			<path id="Path_1110" class="st4" d="M782,155.5c0,0-4.7,11.1-3.8,14.8s2.4,5,13.6,6.9s22,4.8,22,4.8s-30.8-3.6-34-4.8
				s-7.3-3.8-2.7-18.1S782,155.5,782,155.5z"/>
			<path id="Path_1111" class="st5" d="M881.1,44.9v105c0,3.8-3,6.9-6.8,7l-134.5,2.9c-3.8,0.1-7-3-7.1-6.8c0-0.1,0-0.1,0-0.2V16
				c0-3.9,3.1-7,7-7c0.5,0,1,0.1,1.5,0.2l134.5,28.9C878.8,38.8,881.1,41.6,881.1,44.9z"/>
			
				<linearGradient id="Path_1112_1_" gradientUnits="userSpaceOnUse" x1="255.0792" y1="626.6192" x2="254.3532" y2="625.3992" gradientTransform="matrix(147.748 0 0 -150.0051 -36832.8125 94002.7969)">
				<stop  offset="0" style="stop-color:#FFB9FF"/>
				<stop  offset="0.1" style="stop-color:#F5BBFF"/>
				<stop  offset="0.26" style="stop-color:#DBC1FF"/>
				<stop  offset="0.47" style="stop-color:#B0CAFF"/>
				<stop  offset="0.72" style="stop-color:#75D6FF"/>
				<stop  offset="0.99" style="stop-color:#2AE6FF"/>
				<stop  offset="1" style="stop-color:#29E6FF"/>
			</linearGradient>
			<path id="Path_1112" class="st10" d="M883.6,45.4v104.5c0,3.8-3,6.9-6.8,6.9L743,159.8c-3.8,0.1-7-3-7.1-6.8c0-0.1,0-0.1,0-0.2
				V16.7c0-3.8,3.1-6.9,6.9-6.9c0.5,0,1,0.1,1.4,0.2l133.9,28.7C881.4,39.3,883.6,42.2,883.6,45.4L883.6,45.4z"/>
			
				<linearGradient id="Path_1113_1_" gradientUnits="userSpaceOnUse" x1="254.7698" y1="624.1477" x2="254.6908" y2="626.0357" gradientTransform="matrix(147.7469 0 0 -83.699 -36832.5352 52365.8438)">
				<stop  offset="0" style="stop-color:#FFE4FF"/>
				<stop  offset="6.000000e-02" style="stop-color:#E3E4FF"/>
				<stop  offset="0.19" style="stop-color:#B2E5FF"/>
				<stop  offset="0.32" style="stop-color:#88E5FF"/>
				<stop  offset="0.45" style="stop-color:#66E5FF"/>
				<stop  offset="0.58" style="stop-color:#4BE6FF"/>
				<stop  offset="0.71" style="stop-color:#38E6FF"/>
				<stop  offset="0.85" style="stop-color:#2DE6FF"/>
				<stop  offset="1" style="stop-color:#29E6FF"/>
			</linearGradient>
			<path id="Path_1113" class="st11" d="M883.6,129.8v14.6c-27.3-0.1-96.8-0.5-147.7-0.9V60.7c14.8,16.7,35.4,30.9,62.8,32.6
				C842.9,96.1,869.8,115.7,883.6,129.8z"/>
			<path id="Path_1114" class="st8" d="M883.6,133.5v16.4c0,3.8-3,6.9-6.8,6.9L743,159.8c-3.8,0.1-7-3-7.1-6.8c0-0.1,0-0.1,0-0.2
				v-27.5L883.6,133.5z"/>
			<path id="Path_1115" class="st4" d="M818.7,141c-1.2,0.8-1.5,2.3-0.7,3.5c0.3,0.4,0.6,0.7,1,0.9c-0.1,0.2-0.1,0.3-0.2,0.5
				c-0.3,0.7-0.7,1.4-1.2,2c-0.3,0.4-0.7,0.7-1.2,0.7c-0.2,0-0.5-0.1-0.7-0.2c-0.5-0.2-1-0.3-1.5-0.1c-0.2,0.1-0.4,0.2-0.6,0.3
				c-0.5,0.4-1.3,0.2-1.6-0.3c0,0,0,0,0-0.1c-1.1-1.4-1.7-3.2-1.8-5c-0.1-1,0.1-2,0.7-2.8c0.5-0.8,1.4-1.2,2.3-1
				c0.3,0.1,0.6,0.2,0.8,0.3c0.7,0.4,0.7,0.4,1.5,0.1c0.3-0.1,0.7-0.2,1-0.2C817.4,139.7,818.3,140.2,818.7,141z"/>
			<path id="Path_1116" class="st4" d="M816.8,136.9c0.2,1.4-1,2.7-2.2,2.5c-0.2-1.2,0.7-2.3,1.9-2.4
				C816.6,136.9,816.7,136.9,816.8,136.9z"/>
			<g id="glass_2" transform="translate(763.784 12.18)">
				
					<linearGradient id="Path_1117_1_" gradientUnits="userSpaceOnUse" x1="-508.8231" y1="613.9343" x2="-508.3101" y2="613.3153" gradientTransform="matrix(113.4181 0 0 -120.103 57709.0977 73730.5938)">
					<stop  offset="0" style="stop-color:#838383"/>
					<stop  offset="1" style="stop-color:#3C3C3B"/>
				</linearGradient>
				<path id="Path_1117" class="st12" d="M113.8,27.8v87.4c0,2.9-2.3,5.3-5.2,5.3l-102.8-5c-2.9,0.1-5.4-2.3-5.4-5.2
					c0,0,0-0.1,0-0.1V5.7c0-2.9,2.4-5.3,5.3-5.3c0.4,0,0.8,0,1.1,0.1l102.8,22.1C112,23.1,113.8,25.3,113.8,27.8L113.8,27.8z"/>
				<path id="Path_1118" class="st13" d="M108.6,120.9l-102.8-5c-3.2,0.1-5.8-2.5-5.8-5.6c0,0,0-0.1,0-0.1V5.7C0,2.6,2.6,0,5.7,0
					c0.4,0,0.8,0,1.2,0.1l102.8,22.1c2.6,0.6,4.5,2.9,4.5,5.6v87.4C114.2,118.3,111.7,120.8,108.6,120.9z M5.8,115.1l102.8,5
					c2.7-0.1,4.8-2.3,4.8-4.9V27.8c0-2.3-1.6-4.3-3.9-4.8L6.7,0.9C4.1,0.3,1.5,2,0.9,4.7C0.8,5,0.8,5.4,0.8,5.7v104.5
					c0,2.7,2.2,4.9,4.9,4.9C5.7,115.1,5.8,115.1,5.8,115.1L5.8,115.1z"/>
			</g>
			<path id="glass_1" class="st14" d="M893.9,32v90.5c0,2.9-2.3,5.3-5.2,5.3l-102.8-8.1c-2.9,0.1-5.4-2.3-5.4-5.2c0,0,0-0.1,0-0.1
				V9.9c0-2.9,2.4-5.3,5.3-5.3c0.4,0,0.8,0,1.1,0.1l102.8,22.1C892.1,27.3,893.9,29.4,893.9,32L893.9,32z"/>
			<g id="Group_213" transform="translate(797.037)">
				<g id="Group_211" transform="translate(0 0.17)">
					
						<linearGradient id="Path_1120_1_" gradientUnits="userSpaceOnUse" x1="-541.9539" y1="625.3698" x2="-540.9539" y2="625.3698" gradientTransform="matrix(109.281 0 0 -118.6918 59225.2734 74285.625)">
						<stop  offset="0" style="stop-color:#838383"/>
						<stop  offset="1" style="stop-color:#3C3C3B"/>
					</linearGradient>
					<path id="Path_1120" class="st15" d="M109.3,26.4v87.2c0,2.8-2.2,5.1-5,5.1l-2.9-0.2l-0.4,0l-5.3-0.4l-23.3-1.8l-17.5-1.4
						l-0.4,0l-42-3.3l-7.3-0.6c-2.8,0.1-5.2-2.2-5.2-5c0,0,0-0.1,0-0.1V5.1C0,2.3,2.3,0,5.1,0c0.4,0,0.7,0,1.1,0.1l99,21.2
						C107.6,21.9,109.3,24,109.3,26.4L109.3,26.4z"/>
					<g id="Group_130" transform="translate(28.538 17.223)" class="st16">
						<path id="Path_1121" class="st13" d="M0.2,85.6L0.1,74.9L0,64.2l0-21.4l0-21.4l0.1-10.7L0.2,0l0.1,10.7l0.1,10.7l0,21.4
							l0,21.4L0.3,74.9L0.2,85.6z"/>
					</g>
					<path id="Path_1122" class="st17" d="M27.9,101.9c-6,1.7-11.4,5.2-15.5,9.9l-7.2-0.6c-2.8,0.1-5.2-2.2-5.2-5c0,0,0-0.1,0-0.1
						V59.8c5-4.2,11-7.3,17.4-8.9C47,44.1,58.7,93.1,27.9,101.9z"/>
					
						<linearGradient id="Path_1123_1_" gradientUnits="userSpaceOnUse" x1="-533.2964" y1="620.514" x2="-533.0504" y2="619.882" gradientTransform="matrix(29.553 0 0 -39.367 15782.9922 24482.9023)">
						<stop  offset="0" style="stop-color:#FFE4FF"/>
						<stop  offset="0.11" style="stop-color:#FFC9E7"/>
						<stop  offset="0.28" style="stop-color:#FFA7C8"/>
						<stop  offset="0.45" style="stop-color:#FF8CB0"/>
						<stop  offset="0.63" style="stop-color:#FF799F"/>
						<stop  offset="0.81" style="stop-color:#FF6E95"/>
						<stop  offset="1" style="stop-color:#FF6A92"/>
					</linearGradient>
					<path id="Path_1123" class="st18" d="M43.5,76.5c0.1,4.9-1.4,9.7-4.2,13.7c-2.7,3.7-6.4,6-10.6,6c-8.2,0-14.8-8.8-14.8-19.7
						c0-8.2,3.7-15.2,9-18.1c1.7-1,3.7-1.5,5.7-1.5C36.9,56.8,43.5,65.6,43.5,76.5z"/>
					<path id="Path_1124" class="st4" d="M26.4,29.3c0,1.1-0.3,2.2-0.9,3.1c-0.5,0.8-1.4,1.3-2.4,1.3c-1.8,0-3.3-2-3.3-4.4
						c-0.1-1.6,0.7-3.2,2-4.1c0.4-0.2,0.8-0.3,1.3-0.3C24.9,24.9,26.4,26.8,26.4,29.3z"/>
					<path id="Path_1125" class="st19" d="M8.3,6.9c0,0.3-0.1,0.5-0.2,0.7C7.9,7.8,7.7,7.9,7.4,7.9c-0.5,0-0.9-0.5-0.9-1
						c0-0.4,0.2-0.7,0.5-0.9c0.1-0.1,0.2-0.1,0.3-0.1C8,5.9,8.4,6.4,8.3,6.9L8.3,6.9z"/>
					<path id="Path_1126" class="st20" d="M11,7.3c0,0.3-0.1,0.5-0.2,0.7c-0.2,0.2-0.4,0.3-0.6,0.3c-0.5,0-0.9-0.5-0.9-1
						c0-0.4,0.2-0.7,0.5-0.9c0.1,0,0.2-0.1,0.3-0.1C10.6,6.3,11,6.8,11,7.3z"/>
					<path id="Path_1127" class="st14" d="M13.5,7.9c0,0.3-0.1,0.5-0.2,0.7c-0.2,0.2-0.4,0.3-0.6,0.3c-0.5,0-0.9-0.5-0.9-1
						c0-0.4,0.2-0.7,0.5-0.9c0.1-0.1,0.2-0.1,0.3-0.1C13.1,6.9,13.5,7.4,13.5,7.9z"/>
					<path id="Path_1128" class="st21" d="M95.7,116.7c0,0.4,0,0.9,0,1.3l-23.3-1.8c0.1-6.2,3-11.6,7.1-13.9c1.4-0.8,3-1.2,4.5-1.2
						C90.5,101.1,95.7,108.1,95.7,116.7z"/>
					<g id="Group_131" transform="translate(54.468 84.942)" class="st22">
						<path id="Path_1130" class="st4" d="M23.5,0c-3.2,0-6.4,0.9-9.2,2.5C6,7.2,0.4,17.9,0,29.9l0.4,0C0.8,18,6.3,7.5,14.5,2.8
							c2.7-1.6,5.8-2.4,9-2.4c12.7,0,23.1,13.8,23.1,30.9c0,0.8,0,1.5-0.1,2.2l0.4,0c0-0.7,0.1-1.4,0.1-2.3C47,14,36.4,0,23.5,0z"/>
					</g>
					<path id="Path_1131" class="st8" d="M40.1,83.1c0,2.4-0.3,4.8-0.8,7.1c-2.7,3.7-6.4,6-10.6,6c-8.2,0-14.8-8.8-14.8-19.7
						c0-8.2,3.7-15.2,9-18.1C32.6,59.4,40.1,70.1,40.1,83.1z"/>
					<path id="Path_1135" class="st21" d="M16.9,8.3l84.4,17.3v1L16.9,9.6V8.3z"/>
					<path id="Path_1137" class="st17" d="M29.6,70.1v5.4c0,0.3-0.1,0.5-0.3,0.7c-0.2,0.2-0.4,0.3-0.6,0.3c-0.3,0-0.5-0.2-0.6-0.4
						c-0.2-0.2-0.3-0.5-0.3-0.8V70c0-0.3,0.1-0.5,0.3-0.7c0.2-0.2,0.4-0.3,0.6-0.3c0.3,0,0.5,0.2,0.6,0.4
						C29.6,69.6,29.6,69.9,29.6,70.1z M34.1,77c0,0.8-0.1,1.7-0.4,2.5c-0.3,0.7-0.6,1.4-1.2,2c-0.5,0.5-1.1,0.9-1.7,1.2
						c-0.7,0.3-1.4,0.4-2.1,0.3c-0.7-0.1-1.5-0.3-2.1-0.7c-0.7-0.4-1.2-0.9-1.7-1.5c-1-1.4-1.6-3-1.6-4.7c0-1,0.2-1.9,0.6-2.8
						c0.3-0.8,0.9-1.6,1.6-2.1c0.2-0.2,0.4-0.2,0.7-0.2c0.3,0.1,0.5,0.2,0.6,0.5c0.1,0.2,0.2,0.5,0.2,0.8c0,0.3-0.1,0.5-0.4,0.7
						c-0.5,0.4-0.8,0.9-1.1,1.4c-0.3,0.6-0.4,1.2-0.4,1.9c0,0.6,0.1,1.1,0.3,1.7c0.2,0.5,0.4,1,0.8,1.4c0.3,0.4,0.7,0.8,1.1,1
						c0.4,0.3,0.9,0.4,1.4,0.5c0.5,0,1,0,1.4-0.2c0.4-0.2,0.8-0.5,1.1-0.8c0.3-0.4,0.6-0.8,0.8-1.3c0.2-0.5,0.3-1.1,0.3-1.6
						c0-0.7-0.1-1.3-0.4-2c-0.2-0.6-0.6-1.2-1.1-1.6c-0.2-0.2-0.3-0.5-0.3-0.7c0-0.3,0-0.6,0.2-0.8c0.1-0.2,0.3-0.4,0.6-0.4
						c0.3,0,0.5,0.1,0.7,0.3c0.7,0.7,1.2,1.5,1.6,2.4C33.9,75,34.1,76,34.1,77L34.1,77z"/>
					<path id="Path_1138" class="st4" d="M31.5,28.1c0.5,0.1,0.8,0.5,0.7,1c0,0.6-0.2,0.8-0.7,0.7L31,29.6v-1.7L31.5,28.1z
						 M31.2,29.5l0.3,0.1c0.4,0.1,0.5-0.1,0.5-0.6s-0.2-0.7-0.5-0.7l-0.3-0.1V29.5z"/>
					<path id="Path_1139" class="st4" d="M32.9,30c-0.2,0-0.4-0.2-0.4-0.5c0-0.2,0.2-0.3,0.5-0.3l0.3,0.1v-0.1
						c0-0.2-0.1-0.3-0.3-0.3c-0.2,0-0.3,0-0.3,0.2l-0.2,0c0-0.2,0.2-0.4,0.5-0.3c0.3,0,0.5,0.2,0.5,0.5v0.9l-0.2,0v-0.2l0,0
						C33.2,30,33,30,32.9,30L32.9,30z M33.3,29.6v-0.2l-0.3-0.1c-0.2,0-0.3,0-0.3,0.2c0,0.1,0.1,0.3,0.3,0.3
						C33.1,29.8,33.3,29.8,33.3,29.6L33.3,29.6z"/>
					<path id="Path_1140" class="st4" d="M33.9,28.5l0.2,0v0.3l0.3,0v0.2l-0.3,0v0.8c0,0.2,0.1,0.2,0.2,0.2h0.1v0.2c0,0-0.1,0-0.1,0
						c-0.3-0.1-0.4-0.2-0.4-0.4V29l-0.2,0v-0.2l0.2,0L33.9,28.5z"/>
					<path id="Path_1141" class="st4" d="M35,30.4c-0.2,0-0.4-0.2-0.4-0.5c0-0.2,0.2-0.3,0.5-0.3l0.3,0.1v-0.1
						c0-0.2-0.1-0.3-0.3-0.3c-0.2,0-0.3,0-0.3,0.2l-0.2,0c0-0.2,0.2-0.4,0.5-0.3c0.3,0,0.5,0.2,0.5,0.5v0.9l-0.2,0v-0.2l0,0
						C35.3,30.4,35.2,30.4,35,30.4L35,30.4z M35.4,30v-0.2l-0.3-0.1c-0.2,0-0.3,0-0.3,0.2c0,0.1,0.1,0.3,0.3,0.3
						C35.3,30.2,35.4,30.1,35.4,30L35.4,30z"/>
					<path id="Path_1142" class="st4" d="M37,29c0.5,0.1,0.8,0.5,0.7,1c0,0,0,0,0,0c0,0.5-0.2,0.8-0.7,0.7l-0.5-0.1v-1.7L37,29z
						 M36.7,30.4l0.3,0.1c0.3,0.1,0.5-0.1,0.5-0.6s-0.2-0.7-0.5-0.7l-0.3-0.1V30.4z"/>
					<path id="Path_1143" class="st4" d="M38.1,29.6l0.2,0v0.2l0,0c0.1-0.1,0.2-0.2,0.3-0.1h0.1v0.2h-0.1c-0.2,0-0.3,0.1-0.3,0.3
						v0.8l-0.2,0L38.1,29.6z"/>
					<path id="Path_1144" class="st4" d="M39.1,29.3c0.1,0,0.1,0.1,0.1,0.2c0,0.1,0,0.1-0.1,0.1c0,0,0,0,0,0c-0.1,0-0.1-0.1-0.1-0.2
						C38.9,29.4,39,29.3,39.1,29.3C39.1,29.3,39.1,29.3,39.1,29.3z M39,29.7l0.2,0v1.3L39,31V29.7z"/>
					<path id="Path_1145" class="st4" d="M39.4,29.8l0.2,0L40,31l0,0l0.4-1l0.2,0l-0.5,1.2l-0.2,0L39.4,29.8z"/>
					<path id="Path_1146" class="st4" d="M40.7,30.8v-0.1c0-0.3,0.2-0.6,0.5-0.5c0.3,0.1,0.6,0.4,0.5,0.7v0.1l-0.9-0.1v0
						c0,0.2,0.1,0.4,0.3,0.5c0.1,0,0.2,0,0.3-0.1l0.2,0c-0.1,0.2-0.3,0.3-0.5,0.3c0,0,0,0,0,0C40.9,31.4,40.7,31.1,40.7,30.8
						L40.7,30.8z M41.6,30.7L41.6,30.7c0-0.2-0.1-0.4-0.3-0.4c-0.2,0-0.3,0.1-0.3,0.3l0,0L41.6,30.7z"/>
					<path id="Path_1147" class="st4" d="M42.1,30.3l0.2,0v0.2l0,0c0.1-0.1,0.2-0.2,0.4-0.1c0.3,0,0.5,0.3,0.5,0.6v0.8l-0.2,0v-0.8
						c0-0.2-0.1-0.4-0.3-0.4c-0.1,0-0.3,0-0.3,0.2c0,0,0,0.1,0,0.1v0.8l-0.2,0L42.1,30.3z"/>
					<path id="Path_1148" class="st4" d="M45.2,32.1l-0.2,0l-0.3-1l0,0L44.4,32l-0.2,0l-0.3-1.3l0.2,0l0.2,1.1l0,0l0.3-1l0.2,0
						l0.3,1.1l0,0l0.2-1l0.2,0L45.2,32.1z"/>
					<path id="Path_1149" class="st4" d="M46.9,31.7v0.1c0,0.4-0.2,0.6-0.6,0.5c-0.3-0.1-0.6-0.4-0.6-0.7v-0.1
						c0-0.3,0.2-0.6,0.6-0.5C46.7,31.1,46.9,31.4,46.9,31.7z M46,31.6v0.1c0,0.2,0.1,0.4,0.3,0.5c0.2,0,0.3-0.1,0.3-0.4v-0.1
						c0-0.2-0.1-0.4-0.3-0.5C46.1,31.2,46,31.3,46,31.6L46,31.6z"/>
					<path id="Path_1150" class="st4" d="M47.2,31.2l0.2,0v0.2l0,0c0.1-0.1,0.2-0.2,0.3-0.1h0.1v0.2c0,0-0.1,0-0.1,0
						c-0.2,0-0.3,0.1-0.3,0.3v0.8l-0.2,0L47.2,31.2z"/>
					<path id="Path_1151" class="st4" d="M48.1,30.9l0.2,0v1.8l-0.2,0V30.9z"/>
					<path id="Path_1152" class="st4" d="M49.5,31.8L49.5,31.8v-0.7l0.2,0v1.8l-0.2,0v-0.2l0,0c-0.1,0.1-0.2,0.2-0.4,0.1
						c-0.3-0.1-0.6-0.4-0.5-0.7V32c0-0.4,0.2-0.6,0.5-0.5C49.3,31.5,49.4,31.6,49.5,31.8L49.5,31.8z M48.8,32.1L48.8,32.1
						c0,0.4,0.1,0.6,0.3,0.6s0.4-0.1,0.4-0.4v-0.1c0-0.2-0.1-0.4-0.4-0.5C49,31.7,48.9,31.8,48.8,32.1L48.8,32.1z"/>
					<path id="Path_1153" class="st4" d="M31.3,32.7v-1.5l-0.5-0.1v-0.2l1.2,0.2v0.2l-0.5-0.1v1.5L31.3,32.7z"/>
					<path id="Path_1154" class="st4" d="M32.2,31.1l0.2,0v0.6l0,0c0.1-0.1,0.2-0.2,0.4-0.1c0.3,0,0.5,0.3,0.5,0.6V33l-0.2,0v-0.8
						c0-0.2-0.1-0.4-0.3-0.4c0,0,0,0,0,0c-0.2,0-0.3,0.1-0.3,0.3v0.8l-0.2,0L32.2,31.1z"/>
					<path id="Path_1155" class="st4" d="M33.6,32.5v-0.1c0-0.3,0.2-0.5,0.5-0.5c0.3,0.1,0.6,0.4,0.5,0.7v0.1l-0.9-0.2v0
						c0,0.2,0.1,0.4,0.3,0.5c0.1,0,0.2,0,0.3-0.1l0.2,0c-0.1,0.2-0.3,0.3-0.5,0.3c0,0,0,0,0,0C33.8,33.2,33.6,32.9,33.6,32.5
						L33.6,32.5z M34.4,32.5L34.4,32.5c0-0.2-0.1-0.4-0.3-0.4c-0.2,0-0.3,0.1-0.3,0.3l0,0L34.4,32.5z"/>
					<path id="Path_1156" class="st4" d="M35.4,32.2L35.4,32.2c0-0.2,0.2-0.4,0.4-0.4c0.1,0,0.1,0,0.2,0c0.3,0,0.5,0.3,0.5,0.6
						c0,0.2-0.1,0.3-0.3,0.5l-0.5,0.4l0,0l0.8,0.1v0.2l-1.1-0.2v-0.1l0.6-0.6c0.1-0.1,0.2-0.2,0.2-0.3c0-0.2-0.1-0.3-0.3-0.3
						c-0.1,0-0.3,0-0.3,0.2c0,0,0,0.1,0,0.1l0,0L35.4,32.2z"/>
					<path id="Path_1157" class="st4" d="M37.2,33.7v-1.5l0,0c-0.1,0-0.3,0.1-0.4,0.2v-0.2c0.1-0.1,0.3-0.1,0.4-0.2l0.2,0v1.7
						L37.2,33.7z"/>
					<path id="Path_1158" class="st4" d="M38.3,32.6c0.2,0,0.4,0.2,0.5,0.5l-0.2,0c0-0.1-0.1-0.3-0.3-0.3c-0.2,0-0.3,0-0.3,0.1
						s0.2,0.2,0.3,0.3c0.2,0.1,0.4,0.2,0.4,0.4s-0.2,0.4-0.5,0.3s-0.5-0.2-0.5-0.5l0.2,0c0,0.1,0.2,0.2,0.3,0.2c0.2,0,0.3,0,0.3-0.1
						s-0.1-0.2-0.3-0.3c-0.2-0.1-0.4-0.2-0.4-0.4S38,32.6,38.3,32.6z"/>
					<path id="Path_1159" class="st4" d="M39.1,32.5l0.2,0v0.3l0.3,0v0.2l-0.3,0v0.8c0,0.2,0,0.2,0.2,0.2h0.1v0.2h-0.1
						c-0.3-0.1-0.4-0.2-0.4-0.4V33l-0.2,0v-0.2l0.2,0L39.1,32.5z"/>
					<path id="Path_1160" class="st4" d="M40.4,33.6c0-0.3,0.2-0.6,0.5-0.5c0.3,0,0.5,0.2,0.5,0.5l-0.2,0c0-0.1-0.1-0.2-0.3-0.3
						c-0.2,0-0.3,0.1-0.3,0.4v0.1c0,0.2,0.1,0.4,0.3,0.5c0.2,0,0.3,0,0.3-0.1l0.2,0c0,0.2-0.2,0.3-0.5,0.3c-0.3-0.1-0.6-0.4-0.5-0.7
						V33.6z"/>
					<path id="Path_1161" class="st4" d="M41.6,33.9v-0.1c0-0.3,0.2-0.5,0.5-0.5c0.3,0.1,0.6,0.4,0.5,0.7v0.1l-0.9-0.1v0
						c0,0.2,0.1,0.4,0.3,0.5c0.1,0,0.2,0,0.3-0.1l0.2,0c-0.1,0.2-0.3,0.3-0.5,0.3c0,0,0,0,0,0C41.9,34.6,41.6,34.3,41.6,33.9
						L41.6,33.9z M42.5,33.9L42.5,33.9c0-0.2-0.1-0.4-0.3-0.4c-0.2,0-0.3,0.1-0.3,0.3l0,0L42.5,33.9z"/>
					<path id="Path_1162" class="st4" d="M43,33.5l0.2,0v0.2l0,0c0.1-0.1,0.2-0.2,0.4-0.1c0.3,0,0.5,0.3,0.5,0.6V35l-0.2,0v-0.8
						c0-0.2-0.1-0.4-0.3-0.4c-0.1,0-0.3,0-0.3,0.2c0,0,0,0.1,0,0.1v0.8l-0.2,0L43,33.5z"/>
					<path id="Path_1163" class="st4" d="M44.5,33.4l0.2,0v0.3l0.3,0V34l-0.3,0v0.8c0,0.2,0,0.2,0.2,0.2H45v0.2c0,0-0.1,0-0.1,0
						c-0.3-0.1-0.4-0.2-0.4-0.4v-0.8l-0.2,0v-0.2l0.2,0L44.5,33.4z"/>
					<path id="Path_1164" class="st4" d="M46.3,35.3l-0.2,0v-0.2l0,0c0,0.1-0.2,0.2-0.4,0.1c-0.3,0-0.5-0.3-0.5-0.5v-0.9l0.2,0v0.8
						c0,0.2,0.1,0.4,0.3,0.4c0,0,0,0,0,0c0.1,0,0.3,0,0.3-0.2c0,0,0-0.1,0-0.1V34l0.2,0L46.3,35.3z"/>
					<path id="Path_1165" class="st4" d="M46.7,34.1l0.2,0v0.2l0,0c0.1-0.1,0.2-0.2,0.3-0.1l0.1,0v0.2l-0.1,0
						c-0.2,0-0.3,0.1-0.3,0.3v0.8l-0.2,0L46.7,34.1z"/>
					<path id="Path_1166" class="st4" d="M48.2,35.7L48.2,35.7C48,36,47.9,36.1,47.7,36l-0.1,0v-0.2l0.1,0c0.1,0,0.2,0,0.3-0.1v-0.1
						l-0.5-1.4l0.2,0l0.3,1.1l0,0l0.4-1l0.2,0C48.6,34.5,48.2,35.7,48.2,35.7z"/>
					<path id="Path_1167" class="st4" d="M50.4,35.4v0.1c0,0.4-0.2,0.6-0.6,0.5c-0.3-0.1-0.6-0.4-0.6-0.7v-0.1
						c0-0.3,0.2-0.6,0.6-0.5C50.2,34.7,50.4,35,50.4,35.4z M49.5,35.2L49.5,35.2c0,0.3,0.1,0.5,0.3,0.6c0.2,0,0.3-0.1,0.3-0.4v-0.1
						c0-0.2-0.1-0.4-0.3-0.5C49.6,34.8,49.5,34.9,49.5,35.2L49.5,35.2z"/>
					<path id="Path_1168" class="st4" d="M50.8,35l-0.2,0v-0.2l0.2,0v-0.1c0-0.2,0.1-0.3,0.4-0.3l0.1,0v0.2h-0.1
						c-0.1,0-0.2,0-0.2,0.2v0.1l0.3,0v0.2l-0.2,0v1.1l-0.2,0L50.8,35z"/>
					<path id="Path_1169" class="st4" d="M52,35.1l0.2,0v0.2l0,0c0.1-0.1,0.2-0.2,0.3-0.1c0.2,0,0.3,0.1,0.4,0.3l0,0
						c0.1-0.1,0.3-0.2,0.4-0.1c0.3,0,0.4,0.3,0.4,0.5v0.9l-0.2,0v-0.8c0-0.2-0.1-0.3-0.3-0.3c-0.1,0-0.2,0-0.3,0.2c0,0,0,0.1,0,0.1
						v0.8l-0.2,0v-0.8c0-0.2-0.1-0.3-0.3-0.4c-0.1,0-0.2,0-0.3,0.2c0,0,0,0.1,0,0.1v0.8l-0.2,0L52,35.1z"/>
					<path id="Path_1170" class="st4" d="M55.2,36.2v0.1c0,0.4-0.2,0.6-0.6,0.5c-0.3-0.1-0.6-0.4-0.6-0.7V36c0-0.3,0.2-0.6,0.6-0.5
						C55,35.6,55.3,35.9,55.2,36.2z M54.3,36.1L54.3,36.1c0,0.3,0.1,0.5,0.3,0.6c0.2,0,0.3-0.1,0.3-0.4v-0.1c0-0.2-0.1-0.4-0.3-0.5
						C54.5,35.6,54.3,35.8,54.3,36.1L54.3,36.1z"/>
					<path id="Path_1171" class="st4" d="M55.4,35.7l0.2,0l0.3,1.1l0,0l0.4-1l0.2,0L56,37.1l-0.2,0L55.4,35.7z"/>
					<path id="Path_1172" class="st4" d="M56.7,36.6v-0.1c0-0.3,0.2-0.6,0.5-0.5c0.3,0.1,0.6,0.4,0.5,0.7v0.1l-0.9-0.2v0
						c0,0.2,0.1,0.4,0.3,0.5c0.1,0,0.2,0,0.3-0.1l0.2,0c-0.1,0.2-0.3,0.3-0.5,0.3c0,0,0,0,0,0C56.9,37.2,56.6,36.9,56.7,36.6
						L56.7,36.6z M57.5,36.6L57.5,36.6c0-0.2-0.1-0.4-0.3-0.4c-0.2,0-0.3,0.1-0.3,0.3l0,0L57.5,36.6z"/>
					<path id="Path_1173" class="st4" d="M58,36.1l0.2,0v0.2l0,0c0.1-0.1,0.2-0.2,0.3-0.1c0.2,0,0.3,0.1,0.4,0.3l0,0
						c0.1-0.1,0.3-0.2,0.4-0.1c0.3,0,0.4,0.3,0.4,0.5v0.9l-0.2,0v-0.8c0-0.2-0.1-0.3-0.3-0.3c-0.2,0-0.3,0.1-0.3,0.3v0.8l-0.2,0
						v-0.8c0-0.2-0.1-0.3-0.3-0.4c-0.1,0-0.2,0-0.3,0.2c0,0,0,0.1,0,0.1v0.8l-0.2,0L58,36.1z"/>
					<path id="Path_1174" class="st4" d="M60.1,37.2v-0.1c0-0.3,0.2-0.5,0.5-0.5c0.3,0.1,0.6,0.4,0.5,0.7v0.1l-0.9-0.1v0
						c0,0.2,0.1,0.4,0.3,0.5c0.1,0,0.2,0,0.3-0.1l0.2,0c-0.1,0.2-0.3,0.3-0.5,0.3c0,0,0,0,0,0C60.3,37.8,60.1,37.5,60.1,37.2
						L60.1,37.2z M61,37.2L61,37.2c0-0.2-0.1-0.4-0.3-0.4c-0.2,0-0.3,0.1-0.3,0.3l0,0L61,37.2z"/>
					<path id="Path_1175" class="st4" d="M61.5,36.7l0.2,0v0.2l0,0c0.1-0.1,0.2-0.2,0.4-0.1c0.3,0,0.5,0.3,0.5,0.6v0.8l-0.2,0v-0.8
						c0-0.2-0.1-0.4-0.3-0.4c-0.2,0-0.3,0.1-0.3,0.3v0.8l-0.2,0L61.5,36.7z"/>
					<path id="Path_1176" class="st4" d="M63,36.7l0.2,0V37l0.3,0v0.2l-0.3,0V38c0,0.2,0.1,0.2,0.2,0.2h0.1v0.2c0,0-0.1,0-0.1,0
						c-0.3-0.1-0.4-0.2-0.4-0.4v-0.8l-0.2,0V37l0.2,0L63,36.7z"/>
					<path id="Path_1177" class="st4" d="M31.3,35.7c-0.2,0-0.4-0.2-0.4-0.5c0-0.2,0.2-0.3,0.5-0.3l0.3,0.1v-0.1
						c0-0.2-0.1-0.3-0.3-0.3c-0.2,0-0.3,0-0.3,0.2l-0.2,0c0-0.2,0.2-0.4,0.5-0.3c0.3,0,0.5,0.2,0.5,0.5v0.9l-0.2,0v-0.2l0,0
						C31.6,35.7,31.4,35.8,31.3,35.7L31.3,35.7z M31.7,35.4v-0.1l-0.3-0.1c-0.2,0-0.3,0-0.3,0.2c0,0.1,0.1,0.3,0.3,0.3
						C31.5,35.6,31.7,35.5,31.7,35.4L31.7,35.4z"/>
					<path id="Path_1178" class="st4" d="M32.2,34.6l0.2,0v0.2l0,0c0.1-0.1,0.2-0.2,0.4-0.1c0.3,0,0.5,0.3,0.5,0.6v0.8l-0.2,0v-0.8
						c0-0.2-0.1-0.4-0.3-0.4c-0.1,0-0.3,0-0.3,0.2c0,0,0,0.1,0,0.1v0.8l-0.2,0L32.2,34.6z"/>
					<path id="Path_1179" class="st4" d="M34.5,35.2L34.5,35.2v-0.7l0.2,0v1.8l-0.2,0v-0.2l0,0c-0.1,0.1-0.2,0.2-0.4,0.1
						c-0.3-0.1-0.6-0.4-0.5-0.7v-0.1c0-0.4,0.2-0.6,0.5-0.5C34.3,34.9,34.4,35,34.5,35.2L34.5,35.2z M33.8,35.5L33.8,35.5
						c0,0.3,0.1,0.5,0.3,0.6c0.2,0,0.3-0.1,0.3-0.4v-0.1c0-0.2-0.1-0.4-0.4-0.5C34,35.1,33.8,35.2,33.8,35.5L33.8,35.5z"/>
					<path id="Path_1180" class="st4" d="M35.9,36.6c-0.2,0-0.4-0.2-0.4-0.5c0-0.2,0.2-0.3,0.5-0.3l0.3,0.1v-0.1
						c0-0.2-0.1-0.3-0.3-0.3c-0.2,0-0.3,0-0.3,0.2l-0.2,0c0-0.2,0.2-0.4,0.5-0.3c0.3,0,0.5,0.2,0.5,0.5v0.9l-0.2,0v-0.2l0,0
						C36.2,36.6,36.1,36.6,35.9,36.6L35.9,36.6z M36.3,36.2V36L36,36c-0.2,0-0.3,0-0.3,0.2c0,0.1,0.1,0.3,0.3,0.3
						C36.2,36.4,36.3,36.3,36.3,36.2L36.3,36.2z"/>
					<path id="Path_1181" class="st4" d="M37.7,35.7L37.7,35.7v-0.7l0.2,0v1.8l-0.2,0v-0.2l0,0c-0.1,0.1-0.2,0.2-0.4,0.1
						c-0.3-0.1-0.6-0.4-0.5-0.7V36c0-0.4,0.2-0.6,0.5-0.5C37.5,35.5,37.6,35.6,37.7,35.7L37.7,35.7z M37,36L37,36
						c0,0.3,0.1,0.5,0.3,0.6c0.2,0,0.3-0.1,0.3-0.4v-0.1c0-0.2-0.1-0.4-0.4-0.5C37.2,35.6,37,35.7,37,36z"/>
					<path id="Path_1182" class="st4" d="M38.2,35.6l0.2,0l0.3,1.1l0,0l0.4-1l0.2,0l-0.5,1.2l-0.2,0L38.2,35.6z"/>
					<path id="Path_1183" class="st4" d="M39.8,37.2c-0.2,0-0.4-0.2-0.4-0.5c0-0.2,0.2-0.3,0.5-0.3l0.3,0.1v-0.1
						c0-0.2-0.1-0.3-0.3-0.3c-0.2,0-0.3,0-0.3,0.2l-0.2,0c0-0.2,0.2-0.4,0.5-0.3c0.3,0,0.5,0.2,0.5,0.5v0.9l-0.2,0v-0.2l0,0
						C40.2,37.3,40,37.3,39.8,37.2L39.8,37.2z M40.2,36.8v-0.1l-0.3-0.1c-0.2,0-0.3,0-0.3,0.2c0,0.1,0.1,0.3,0.3,0.3
						C40.1,37.1,40.2,37,40.2,36.8L40.2,36.8z"/>
					<path id="Path_1184" class="st4" d="M40.8,36.1l0.2,0v0.2l0,0c0.1-0.1,0.2-0.2,0.4-0.1c0.3,0,0.5,0.3,0.5,0.6v0.8l-0.2,0v-0.8
						c0-0.2-0.1-0.4-0.3-0.4c-0.2,0-0.3,0.1-0.3,0.3v0.8l-0.2,0L40.8,36.1z"/>
					<path id="Path_1185" class="st4" d="M42.2,36.9c0-0.4,0.2-0.6,0.5-0.5c0.3,0,0.5,0.2,0.5,0.5l-0.2,0c0-0.1-0.1-0.2-0.3-0.3
						c-0.2,0-0.3,0.1-0.3,0.4v0.1c0,0.2,0.1,0.4,0.3,0.5c0.2,0,0.3,0,0.3-0.1l0.2,0c0,0.2-0.2,0.3-0.5,0.3c-0.3-0.1-0.6-0.4-0.5-0.7
						L42.2,36.9z"/>
					<path id="Path_1186" class="st4" d="M43.4,37.3v-0.1c0-0.3,0.2-0.5,0.5-0.5c0.3,0.1,0.6,0.4,0.5,0.7v0.1l-0.8-0.1l0,0
						c0,0.2,0.1,0.4,0.3,0.5c0.1,0,0.2,0,0.3-0.1l0.2,0C44.4,37.9,44.2,38,44,38c0,0,0,0,0,0C43.7,37.9,43.4,37.6,43.4,37.3z
						 M44.3,37.2L44.3,37.2c0-0.2-0.1-0.4-0.3-0.4c-0.2,0-0.3,0.1-0.3,0.3l0,0L44.3,37.2z"/>
					<path id="Path_1187" class="st4" d="M44.8,36.8l0.2,0V37l0,0c0.1-0.1,0.2-0.2,0.3-0.1c0.2,0,0.3,0.1,0.4,0.3l0,0
						C45.8,37,46,37,46.1,37c0.3,0,0.4,0.3,0.4,0.5v0.9l-0.2,0v-0.8c0-0.2-0.1-0.3-0.3-0.3c-0.2,0-0.3,0.1-0.3,0.3v0.8l-0.2,0v-0.8
						c0-0.2-0.1-0.3-0.3-0.4c-0.1,0-0.2,0-0.3,0.2c0,0,0,0.1,0,0.1v0.8l-0.2,0L44.8,36.8z"/>
					<path id="Path_1188" class="st4" d="M46.9,37.9v-0.2c0-0.3,0.2-0.6,0.5-0.5c0.3,0.1,0.6,0.4,0.5,0.7V38l-0.9-0.1v0
						c0,0.2,0.1,0.4,0.3,0.5c0.1,0,0.2,0,0.3-0.1l0.2,0c-0.1,0.2-0.3,0.3-0.5,0.3c0,0,0,0,0,0C47.1,38.5,46.9,38.2,46.9,37.9z
						 M47.7,37.9L47.7,37.9c0-0.2-0.1-0.4-0.3-0.4c-0.2,0-0.3,0.1-0.3,0.3l0,0L47.7,37.9z"/>
					<path id="Path_1189" class="st4" d="M48.3,37.4l0.2,0v0.2l0,0c0.1-0.1,0.2-0.2,0.4-0.1c0.3,0,0.5,0.3,0.5,0.6v0.8l-0.2,0v-0.8
						c0-0.2-0.1-0.4-0.3-0.4c-0.1,0-0.3,0-0.3,0.2c0,0,0,0.1,0,0.1v0.8l-0.2,0L48.3,37.4z"/>
					<path id="Path_1190" class="st4" d="M49.8,37.4l0.2,0v0.3l0.3,0v0.2l-0.3,0v0.8c0,0.2,0.1,0.2,0.2,0.2h0.1v0.2c0,0-0.1,0-0.1,0
						c-0.3-0.1-0.4-0.2-0.4-0.4v-0.8l-0.2,0v-0.2l0.2,0L49.8,37.4z"/>
					<path id="Path_1191" class="st4" d="M51.2,37.5c0.1,0,0.1,0.1,0.1,0.2c0,0.1,0,0.1-0.1,0.1c0,0,0,0,0,0c-0.1,0-0.1-0.1-0.1-0.2
						C51,37.5,51.1,37.5,51.2,37.5C51.1,37.5,51.2,37.5,51.2,37.5z M51.1,37.9l0.2,0v1.3l-0.2,0V37.9z"/>
					<path id="Path_1192" class="st4" d="M51.7,38l0.2,0v0.2l0,0c0.1-0.1,0.2-0.2,0.4-0.1c0.3,0,0.5,0.3,0.5,0.6v0.8l-0.2,0v-0.8
						c0-0.2-0.1-0.4-0.3-0.4c-0.2,0-0.3,0.1-0.3,0.3v0.8l-0.2,0L51.7,38z"/>
					<path id="Path_1193" class="st4" d="M53.9,39.7v-1.5l-0.5-0.1v-0.2l1.2,0.2v0.2l-0.5-0.1v1.5L53.9,39.7z"/>
					<path id="Path_1194" class="st4" d="M54.6,39.2v-0.1c0-0.3,0.2-0.6,0.5-0.5c0.3,0.1,0.6,0.4,0.5,0.7v0.1l-0.9-0.2v0
						c0,0.2,0.1,0.4,0.3,0.5c0.1,0,0.2,0,0.3-0.1l0.2,0c-0.1,0.2-0.3,0.3-0.5,0.3c0,0,0,0,0,0C54.8,39.9,54.5,39.6,54.6,39.2z
						 M55.4,39.2L55.4,39.2c0-0.2-0.1-0.4-0.3-0.4c-0.2,0-0.3,0.1-0.3,0.3l0,0L55.4,39.2z"/>
					<path id="Path_1195" class="st4" d="M55.9,39.3c0-0.3,0.2-0.6,0.5-0.5c0.3,0,0.5,0.2,0.5,0.5l-0.2,0c0-0.1-0.1-0.2-0.3-0.3
						c-0.2,0-0.3,0.1-0.3,0.4v0.1c0,0.2,0.1,0.4,0.3,0.5c0.2,0,0.3,0,0.3-0.1l0.2,0c0,0.2-0.2,0.3-0.5,0.3c-0.3-0.1-0.6-0.4-0.5-0.7
						L55.9,39.3z"/>
					<path id="Path_1196" class="st4" d="M57.2,38.5l0.2,0v0.6l0,0c0.1-0.1,0.2-0.2,0.4-0.1c0.3,0,0.5,0.3,0.5,0.6v0.8l-0.2,0v-0.8
						c0-0.2-0.1-0.4-0.3-0.4c0,0,0,0,0,0c-0.2,0-0.3,0.1-0.3,0.3v0.8l-0.2,0L57.2,38.5z"/>
					<path id="Path_1197" class="st4" d="M58.7,39.2l0.2,0v0.2l0,0c0.1-0.1,0.2-0.2,0.4-0.1c0.3,0,0.5,0.3,0.5,0.6v0.8l-0.2,0v-0.8
						c0-0.2-0.1-0.4-0.3-0.4c-0.2,0-0.3,0.1-0.3,0.3v0.8l-0.2,0L58.7,39.2z"/>
					<path id="Path_1198" class="st4" d="M61.1,40.3v0.1c0,0.4-0.2,0.6-0.6,0.5c-0.3-0.1-0.6-0.4-0.6-0.7v-0.1
						c0-0.3,0.2-0.6,0.6-0.5C60.9,39.6,61.1,39.9,61.1,40.3z M60.2,40.1L60.2,40.1c0,0.3,0.1,0.5,0.3,0.6c0.2,0,0.3-0.1,0.3-0.4
						v-0.1c0-0.2-0.1-0.4-0.3-0.5C60.3,39.7,60.2,39.9,60.2,40.1L60.2,40.1z"/>
					<path id="Path_1199" class="st4" d="M61.5,39.3l0.2,0v1.8l-0.2,0V39.3z"/>
					<path id="Path_1200" class="st4" d="M63.1,40.6v0.1c0,0.4-0.2,0.6-0.6,0.5c-0.3-0.1-0.6-0.4-0.6-0.7v-0.1
						c0-0.3,0.2-0.6,0.6-0.5C62.9,40,63.1,40.3,63.1,40.6z M62.2,40.5L62.2,40.5c0,0.3,0.1,0.5,0.3,0.6c0.2,0,0.3-0.1,0.3-0.4v-0.1
						c0-0.2-0.1-0.4-0.3-0.5C62.3,40.1,62.2,40.2,62.2,40.5L62.2,40.5z"/>
					<path id="Path_1201" class="st4" d="M64.3,41.5v-0.2l0,0c-0.1,0.1-0.2,0.2-0.4,0.1c-0.3-0.1-0.5-0.4-0.5-0.7v-0.1
						c0-0.4,0.2-0.6,0.5-0.5c0.2,0,0.3,0.1,0.4,0.3l0,0v-0.2l0.2,0v1.3c0,0.3-0.3,0.4-0.5,0.4c-0.3,0-0.5-0.2-0.5-0.5l0.2,0
						c0,0.1,0.2,0.2,0.3,0.3C64.1,41.8,64.3,41.7,64.3,41.5z M63.6,40.7L63.6,40.7c0,0.3,0.1,0.5,0.3,0.6c0.2,0,0.3-0.1,0.3-0.4
						v-0.1c0-0.2-0.1-0.4-0.3-0.5C63.7,40.3,63.6,40.4,63.6,40.7L63.6,40.7z"/>
					<path id="Path_1202" class="st4" d="M65.4,41.8L65.4,41.8c-0.1,0.3-0.3,0.4-0.5,0.4c0,0-0.1,0-0.1,0v-0.2h0.1
						c0.1,0,0.2,0,0.3-0.1v-0.1l-0.5-1.4l0.2,0l0.4,1.1l0,0l0.4-1l0.2,0C65.9,40.6,65.4,41.8,65.4,41.8z"/>
					<path id="Path_1203" class="st17" d="M30.9,25.2v-1.7l0.3,0.1l0.5,1.2l0,0l0.5-1l0.3,0.1v1.7l-0.3-0.1v-1.1l0,0l-0.4,0.8
						l-0.2,0l-0.4-1l0,0v1.1L30.9,25.2z"/>
					<path id="Path_1204" class="st17" d="M34,25.7l-1.1-0.2v-1.7L34,24v0.3l-0.8-0.1v0.4l0.7,0.1V25l-0.7-0.1v0.5l0.8,0.1V25.7z"/>
					<path id="Path_1205" class="st17" d="M34.3,25.8v-1.7l0.3,0.1l0.7,1.2l0,0v-1.1l0.3,0.1V26l-0.3,0l-0.7-1.3l0,0v1.1L34.3,25.8z
						"/>
					<path id="Path_1206" class="st17" d="M36.3,25.5c0,0.2,0.1,0.4,0.3,0.4c0.1,0,0.3,0,0.3-0.2c0,0,0-0.1,0-0.1v-1.1l0.3,0.1v1.1
						c0,0.4-0.3,0.6-0.7,0.5c-0.4,0-0.7-0.3-0.7-0.7v-1.1l0.3,0.1L36.3,25.5z"/>
				</g>
				<g id="Group_212" transform="translate(80.854)">
					
						<linearGradient id="Path_1129_1_" gradientUnits="userSpaceOnUse" x1="-589.9151" y1="581.6461" x2="-588.9131" y2="581.6461" gradientTransform="matrix(9.4175 0 0 -6.828 5555.5117 4085.8003)">
						<stop  offset="0" style="stop-color:#FFB9FF"/>
						<stop  offset="0.1" style="stop-color:#F5BBFF"/>
						<stop  offset="0.26" style="stop-color:#DBC1FF"/>
						<stop  offset="0.47" style="stop-color:#B0CAFF"/>
						<stop  offset="0.72" style="stop-color:#75D6FF"/>
						<stop  offset="0.99" style="stop-color:#2AE6FF"/>
						<stop  offset="1" style="stop-color:#29E6FF"/>
					</linearGradient>
					<path id="Path_1129" class="st23" d="M9.4,117.2v0.5L0,117c-0.1-2.2,1-4.3,2.9-5.6c0.6-0.3,1.2-0.5,1.8-0.5
						C7.3,110.9,9.4,113.7,9.4,117.2z"/>
					
						<linearGradient id="Path_1134_1_" gradientUnits="userSpaceOnUse" x1="-625.3229" y1="626.163" x2="-624.3229" y2="626.163" gradientTransform="matrix(577.457 0 0 -154.6674 361097.125 96941.7266)">
						<stop  offset="0" style="stop-color:#FFB9FF"/>
						<stop  offset="0.1" style="stop-color:#F5BBFF"/>
						<stop  offset="0.26" style="stop-color:#DBC1FF"/>
						<stop  offset="0.47" style="stop-color:#B0CAFF"/>
						<stop  offset="0.72" style="stop-color:#75D6FF"/>
						<stop  offset="0.99" style="stop-color:#2AE6FF"/>
						<stop  offset="1" style="stop-color:#29E6FF"/>
					</linearGradient>
					<path id="Path_1134" class="st24" d="M0,117c0,0,74.9-69.9,137.6-81.3c55.1-10,105.5-2,187.7,45.5S475.5,12,528.4,17.6
						s81.9,114.4-13.2,142.2s-200.7,8.3-289.1-57.9S9.4,117.7,9.4,117.7L0,117z"/>
					
						<linearGradient id="Path_1136_1_" gradientUnits="userSpaceOnUse" x1="-624.917" y1="625.5397" x2="-624.127" y2="626.5017" gradientTransform="matrix(490.5308 0 0 -145.7151 306689.0938 91295.875)">
						<stop  offset="0" style="stop-color:#FFE4FF"/>
						<stop  offset="8.000000e-02" style="stop-color:#FAD1F2"/>
						<stop  offset="0.26" style="stop-color:#F0AFDB"/>
						<stop  offset="0.43" style="stop-color:#E994C9"/>
						<stop  offset="0.61" style="stop-color:#E381BC"/>
						<stop  offset="0.8" style="stop-color:#E076B5"/>
						<stop  offset="1" style="stop-color:#DF72B2"/>
					</linearGradient>
					<path id="Path_1136" class="st25" d="M0,117c0,0,72.2-50,139.6-58.1C232.5,47.7,324.1,80.4,392.4,32c0,0,37.3-34.7,59.9-31.8
						s73.3,63.7,0,125.1s-234.6-36.1-321.6-30S9.4,117.7,9.4,117.7L0,117z"/>
				</g>
			</g>
			
				<text transform="matrix(1 0 0 1 1060.667 23.051)" class="st17" style="font-family:'SFCompactDisplay-Semibold'; font-size:1px;">MENU</text>
			<ellipse id="Ellipse_47" class="st27" cx="676.6" cy="111.4" rx="11.4" ry="17.7"/>
			<ellipse id="Ellipse_48" class="st13" cx="676.6" cy="111.4" rx="5.7" ry="8.8"/>
			<path id="Path_1213" class="st13" d="M676.6,138.6c-9.8,0-17.8-12.2-17.8-27.2s8-27.2,17.8-27.2s17.8,12.2,17.8,27.2
				S686.4,138.6,676.6,138.6z M676.6,85.4c-9.2,0-16.6,11.7-16.6,26s7.5,26,16.6,26s16.6-11.7,16.6-26S685.8,85.4,676.6,85.4
				L676.6,85.4z"/>
			<g id="Group_214" transform="translate(0 41.039)">
				
					<linearGradient id="Path_1214_1_" gradientUnits="userSpaceOnUse" x1="252.9622" y1="585.3032" x2="253.9622" y2="585.3032" gradientTransform="matrix(345.4848 0 0 -169.4389 -87059.8672 99257.8281)">
					<stop  offset="0" style="stop-color:#FFB9FF"/>
					<stop  offset="0.1" style="stop-color:#F5BBFF"/>
					<stop  offset="0.26" style="stop-color:#DBC1FF"/>
					<stop  offset="0.47" style="stop-color:#B0CAFF"/>
					<stop  offset="0.72" style="stop-color:#75D6FF"/>
					<stop  offset="0.99" style="stop-color:#2AE6FF"/>
					<stop  offset="1" style="stop-color:#29E6FF"/>
				</linearGradient>
				<path id="Path_1214" class="st28" d="M676.6,61.5c0,0-92.8-71.8-234.6-60.3s-124.1,149.8-54.8,166.1s264.3-67.7,289.5-88.2
					C676.6,79.2,684.7,70.8,676.6,61.5z"/>
				
					<linearGradient id="Path_1215_1_" gradientUnits="userSpaceOnUse" x1="253.405" y1="586.4312" x2="253.072" y2="585.9102" gradientTransform="matrix(679.663 0 0 -208.706 -171601.1562 122360.3203)">
					<stop  offset="0" style="stop-color:#FFE4FF"/>
					<stop  offset="8.000000e-02" style="stop-color:#FAD1F2"/>
					<stop  offset="0.26" style="stop-color:#F0AFDB"/>
					<stop  offset="0.43" style="stop-color:#E994C9"/>
					<stop  offset="0.61" style="stop-color:#E381BC"/>
					<stop  offset="0.8" style="stop-color:#E076B5"/>
					<stop  offset="1" style="stop-color:#DF72B2"/>
				</linearGradient>
				<path id="Path_1215" class="st29" d="M677.1,78.6c4-5.1,3.1-12.5-2-16.6c-1.2-1-2.6-1.7-4.1-2.1
					c-40.7-11.5-297.1-77.5-533.8,13.4c-257.9,99.1-105.4,248.7,74.2,96.1C284,107.8,393.6,52.9,491.9,62.6s144.6,34.6,184.7,16.5
					C676.8,79,677,78.8,677.1,78.6z"/>
			</g>
		</g>
	</g>
</g>
</svg>
