<?xml version="1.0" encoding="utf-8"?>
<!-- Generator: Adobe Illustrator 22.1.0, SVG Export Plug-In . SVG Version: 6.00 Build 0)  -->
<svg version="1.1" id="Layer_1" xmlns="http://www.w3.org/2000/svg" xmlns:xlink="http://www.w3.org/1999/xlink" x="0px" y="0px"
	 viewBox="0 0 1280 673" style="enable-background:new 0 0 1280 673;" xml:space="preserve">
<style type="text/css">
	.st0{clip-path:url(#SVGID_2_);}
	.st1{opacity:0.704;enable-background:new    ;}
	.st2{opacity:0.999;enable-background:new    ;}
	.st3{opacity:0.41;fill:#D5DFEB;enable-background:new    ;}
	.st4{fill:#919191;}
	.st5{fill:#555655;}
	.st6{fill:url(#Path_1103_1_);}
	.st7{opacity:0.78;fill:url(#Path_1104_1_);enable-background:new    ;}
	.st8{fill:#666666;}
	.st9{fill:#5B5B5B;}
	.st10{fill:url(#Path_1112_1_);}
	.st11{opacity:0.78;fill:url(#Path_1113_1_);enable-background:new    ;}
	.st12{opacity:0.44;fill:url(#Path_1117_1_);enable-background:new    ;}
	.st13{fill:#FFFFFF;}
	.st14{fill:#45FFBC;}
	.st15{fill:url(#Path_1120_1_);}
	.st16{opacity:0.51;}
	.st17{fill:#B6B6B6;}
	.st18{fill:url(#Path_1123_1_);}
	.st19{fill:#F16161;}
	.st20{fill:#FFDF89;}
	.st21{opacity:0.31;fill:#919191;enable-background:new    ;}
	.st22{opacity:0.31;}
	.st23{fill:url(#Path_1129_1_);}
	.st24{fill:url(#Path_1134_1_);}
	.st25{fill:url(#Path_1136_1_);}
	.st26{font-family:'SFCompactDisplay-Semibold';}
	.st27{font-size:3px;}
	.st28{opacity:0.54;fill:#FFFFFF;enable-background:new    ;}
	.st29{fill:url(#Path_1214_1_);}
	.st30{opacity:0.325;fill:url(#Path_1215_1_);enable-background:new    ;}
</style>
<g>
	<defs>
		<rect id="SVGID_1_" width="1280" height="673"/>
	</defs>
	<clipPath id="SVGID_2_">
		<use xlink:href="#SVGID_1_"  style="overflow:visible;"/>
	</clipPath>
	<g id="imacs_clipped_web" transform="translate(0 -42)" class="st0">
		<g id="Group_215">
			<g id="Ellipse_45" class="st1">
				
					<image style="overflow:visible;" width="985" height="111" xlink:href="EEA5FD603A5C4E46.png"  transform="matrix(1 0 0 1 140 426)">
				</image>
			</g>
			<g id="Ellipse_46" class="st2">
				
					<image style="overflow:visible;" width="565" height="111" xlink:href="EEA5FD603A5C4E41.png"  transform="matrix(1 0 0 1 350 426)">
				</image>
			</g>
			<circle id="Ellipse_51" class="st3" cx="615" cy="282" r="64"/>
			<path id="Path_1099" class="st4" d="M503.7,449.9c0,0,5.6,17.2,3.7,22.5c-1.9,5.3-4.3,7.1-21.1,8.5c-16.9,1.4-33.5,4.3-33.5,4.3
				s46.4-1.4,51.3-2.8c5-1.4,11.3-4.8,6.4-26.6C505.5,433.9,503.7,449.9,503.7,449.9z"/>
			<path id="Path_1100" class="st4" d="M559.4,447.9h-53.3l3.4,16.8c0,0,3,13.2-6.8,16s-49.9,4.5-49.9,4.5l56.7,8.2
				c0,0,23.3-4,30.4-5.2s24.1-1.8,24.9-10.7S559.4,447.9,559.4,447.9z"/>
			<path id="Path_1101" class="st5" d="M557.2,453.7c0,0,7,16.7,5.6,22.1s-3.6,7.5-20.3,10.3s-33,7.2-33,7.2s46.1-5.4,50.9-7.2
				s10.9-5.7,4-27.1S557.2,453.7,557.2,453.7z"/>
			<path id="Path_1102" class="st5" d="M408.8,288.1v157.2c0,5.7,4.5,10.3,10.2,10.5l201.4,4.4c5.8,0.1,10.5-4.5,10.7-10.3
				c0-0.1,0-0.1,0-0.2V244.9c0-5.8-4.7-10.4-10.5-10.4c-0.7,0-1.4,0.1-2.1,0.2L417,277.9C412.2,279,408.8,283.2,408.8,288.1
				L408.8,288.1z"/>
			
				<linearGradient id="Path_1103_1_" gradientUnits="userSpaceOnUse" x1="140.5214" y1="878.0353" x2="138.9004" y2="877.1512" gradientTransform="matrix(221.283 0 0 -224.6288 -30434.6738 197521.2188)">
				<stop  offset="0" style="stop-color:#FFB9FF"/>
				<stop  offset="0.1" style="stop-color:#F5BBFF"/>
				<stop  offset="0.26" style="stop-color:#DBC1FF"/>
				<stop  offset="0.47" style="stop-color:#B0CAFF"/>
				<stop  offset="0.72" style="stop-color:#75D6FF"/>
				<stop  offset="0.99" style="stop-color:#2AE6FF"/>
				<stop  offset="1" style="stop-color:#29E6FF"/>
			</linearGradient>
			<path id="Path_1103" class="st6" d="M626.2,245.9v203.9c0,5.7-4.7,10.4-10.4,10.4c-0.1,0-0.2,0-0.2,0l-175.8-3.8l-24.7-0.5
				c-5.6-0.1-10.2-4.7-10.2-10.4V288.9c0-4.9,3.4-9.1,8.2-10.1l200.5-43c5.6-1.2,11.1,2.3,12.3,8
				C626.1,244.4,626.2,245.2,626.2,245.9L626.2,245.9z"/>
			
				<linearGradient id="Path_1104_1_" gradientUnits="userSpaceOnUse" x1="140.1912" y1="877.53" x2="139.0382" y2="877.015" gradientTransform="matrix(221.2439 0 0 -181.1076 -30429.168 159309.5938)">
				<stop  offset="0" style="stop-color:#FFE4FF"/>
				<stop  offset="6.000000e-02" style="stop-color:#E3E4FF"/>
				<stop  offset="0.19" style="stop-color:#B2E5FF"/>
				<stop  offset="0.32" style="stop-color:#88E5FF"/>
				<stop  offset="0.45" style="stop-color:#66E5FF"/>
				<stop  offset="0.58" style="stop-color:#4BE6FF"/>
				<stop  offset="0.71" style="stop-color:#38E6FF"/>
				<stop  offset="0.85" style="stop-color:#2DE6FF"/>
				<stop  offset="1" style="stop-color:#29E6FF"/>
			</linearGradient>
			<path id="Path_1104" class="st7" d="M626.2,279v170.7c0,5.7-4.7,10.4-10.4,10.4c-0.1,0-0.2,0-0.2,0l-175.8-3.8
				c-15.3-7.8-27.8-14.7-34.8-18.6v-19.4c8.1-16.2,26.1-40.1,63.7-48.6C524,357.2,598.8,333.4,626.2,279z"/>
			<path id="Path_1105" class="st8" d="M405,420.8v24.6c0,5.6,4.5,10.3,10.2,10.4l200.5,4.4c5.7,0.1,10.5-4.4,10.6-10.1
				c0-0.1,0-0.2,0-0.2v-41.2L405,420.8z"/>
			<path id="Path_1106" class="st4" d="M514.5,432.1c-1.8,1.1-2.3,3.5-1.1,5.3c0.4,0.6,0.9,1.1,1.5,1.4c-0.1,0.2-0.2,0.5-0.3,0.7
				c-0.4,1.1-1,2.1-1.7,2.9c-0.4,0.6-1.1,1-1.8,1c-0.4,0-0.7-0.1-1-0.2c-0.7-0.4-1.6-0.4-2.3-0.1c-0.3,0.1-0.6,0.3-0.8,0.4
				c-0.8,0.6-1.9,0.4-2.5-0.4c0,0,0-0.1-0.1-0.1c-1.7-2.1-2.6-4.8-2.7-7.5c-0.1-1.5,0.2-3,1-4.2c0.7-1.2,2-1.8,3.4-1.5
				c0.4,0.1,0.8,0.3,1.2,0.5c1.1,0.6,1.1,0.6,2.2,0.2c0.5-0.2,1-0.3,1.5-0.3C512.4,430.2,513.7,430.9,514.5,432.1z"/>
			<path id="Path_1107" class="st4" d="M511.5,425.9c0.2,2.1-1.5,4.1-3.2,3.7c-0.2-1.8,1-3.4,2.8-3.7
				C511.2,425.9,511.4,425.9,511.5,425.9z"/>
			<path id="Path_1108" class="st9" d="M763.3,424.3c0,0-6.9,21.3-4.6,27.9s5.2,8.8,26.2,10.5s41.5,5.4,41.5,5.4s-57.4-1.7-63.5-3.5
				s-14-5.9-7.9-33S763.3,424.3,763.3,424.3z"/>
			<path id="Path_1109" class="st9" d="M694.3,421.9h66l-4.2,20.8c0,0-3.7,16.3,8.5,19.8s61.8,5.6,61.8,5.6l-70.2,10.1l-37.6-6.5
				c-8.7-1.5-29.9-2.2-30.9-13.2S694.3,421.9,694.3,421.9z"/>
			<path id="Path_1110" class="st4" d="M697.1,429c0,0-8.7,20.7-7,27.4s4.5,9.2,25.2,12.7s40.8,9,40.8,9s-57-6.7-63-9
				s-13.4-7.1-5-33.5S697.1,429,697.1,429z"/>
			<path id="Path_1111" class="st5" d="M880.9,224v194.6c0,7-5.6,12.8-12.6,12.9L618.9,437c-7.1,0.2-13-5.5-13.2-12.6
				c0-0.1,0-0.2,0-0.3V170.5c0-7.1,5.8-12.9,12.9-12.9c0.9,0,1.8,0.1,2.7,0.3l249.4,53.5C876.6,212.7,880.9,217.9,880.9,224z"/>
			
				<linearGradient id="Path_1112_1_" gradientUnits="userSpaceOnUse" x1="140.2926" y1="878.434" x2="139.5667" y2="877.2141" gradientTransform="matrix(273.9208 0 0 -278.1091 -37597.2656 244453.7344)">
				<stop  offset="0" style="stop-color:#FFB9FF"/>
				<stop  offset="0.1" style="stop-color:#F5BBFF"/>
				<stop  offset="0.26" style="stop-color:#DBC1FF"/>
				<stop  offset="0.47" style="stop-color:#B0CAFF"/>
				<stop  offset="0.72" style="stop-color:#75D6FF"/>
				<stop  offset="0.99" style="stop-color:#2AE6FF"/>
				<stop  offset="1" style="stop-color:#29E6FF"/>
			</linearGradient>
			<path id="Path_1112" class="st10" d="M885.6,225v193.7c0,7-5.6,12.7-12.6,12.9L624.8,437c-7.1,0.2-13-5.5-13.1-12.6
				c0-0.1,0-0.2,0-0.3V171.7c0-7.1,5.8-12.9,12.9-12.9c0.9,0,1.8,0.1,2.7,0.3l248.2,53.3C881.4,213.7,885.6,218.9,885.6,225z"/>
			
				<linearGradient id="Path_1113_1_" gradientUnits="userSpaceOnUse" x1="139.9832" y1="877.1776" x2="139.9042" y2="879.0656" gradientTransform="matrix(273.921 0 0 -155.178 -37597.3008 136491.7656)">
				<stop  offset="0" style="stop-color:#FFE4FF"/>
				<stop  offset="6.000000e-02" style="stop-color:#E3E4FF"/>
				<stop  offset="0.19" style="stop-color:#B2E5FF"/>
				<stop  offset="0.32" style="stop-color:#88E5FF"/>
				<stop  offset="0.45" style="stop-color:#66E5FF"/>
				<stop  offset="0.58" style="stop-color:#4BE6FF"/>
				<stop  offset="0.71" style="stop-color:#38E6FF"/>
				<stop  offset="0.85" style="stop-color:#2DE6FF"/>
				<stop  offset="1" style="stop-color:#29E6FF"/>
			</linearGradient>
			<path id="Path_1113" class="st11" d="M885.6,381.5v27c-50.6-0.2-179.4-0.9-273.9-1.7V253.3c27.5,30.9,65.6,57.2,116.4,60.4
				C810,318.9,859.9,355.3,885.6,381.5z"/>
			<path id="Path_1114" class="st8" d="M885.6,388.3v30.4c0,7-5.6,12.7-12.6,12.9L624.8,437c-7.1,0.2-13-5.5-13.1-12.6
				c0-0.1,0-0.2,0-0.3v-51L885.6,388.3z"/>
			<path id="Path_1115" class="st4" d="M765.3,402.2c-2.2,1.4-2.8,4.3-1.4,6.5c0.5,0.7,1.1,1.3,1.9,1.7c-0.1,0.3-0.2,0.6-0.3,0.9
				c-0.5,1.3-1.2,2.5-2.1,3.6c-0.5,0.7-1.3,1.2-2.2,1.2c-0.4,0-0.9-0.1-1.3-0.3c-0.9-0.4-1.9-0.5-2.9-0.1c-0.4,0.2-0.7,0.3-1,0.5
				c-1,0.7-2.3,0.5-3-0.5c0,0,0-0.1-0.1-0.1c-2.1-2.7-3.2-5.9-3.3-9.3c-0.2-1.8,0.3-3.7,1.2-5.2c0.8-1.5,2.5-2.2,4.2-1.9
				c0.5,0.1,1,0.3,1.5,0.6c1.4,0.7,1.4,0.7,2.8,0.2c0.6-0.2,1.2-0.3,1.9-0.4C762.8,399.8,764.4,400.7,765.3,402.2L765.3,402.2z"/>
			<path id="Path_1116" class="st4" d="M761.6,394.6c0.3,2.6-1.9,5.1-4,4.6C757.4,396.9,759.2,394.4,761.6,394.6z"/>
			<g id="glass_2">
				
					<linearGradient id="Path_1117_1_" gradientUnits="userSpaceOnUse" x1="139.3252" y1="878.311" x2="139.8382" y2="877.692" gradientTransform="matrix(210.2761 0 0 -222.6717 -28634.5977 195729.5625)">
					<stop  offset="0" style="stop-color:#838383"/>
					<stop  offset="1" style="stop-color:#3C3C3B"/>
				</linearGradient>
				<path id="Path_1117" class="st12" d="M874.3,214.9v162.1c0,5.4-4.3,9.7-9.7,9.9l-190.5-9.2c-5.4,0.1-10-4.2-10.1-9.6
					c0-0.1,0-0.2,0-0.2V174c0-5.5,4.4-9.9,9.9-9.9c0.7,0,1.4,0.1,2.1,0.2l190.5,40.9C871.1,206.2,874.3,210.2,874.3,214.9
					L874.3,214.9z"/>
				<path id="Path_1118" class="st13" d="M864.7,387.5l-190.5-9.2c-5.9,0.1-10.7-4.5-10.8-10.4c0-0.1,0-0.1,0-0.2V174
					c0-5.9,4.8-10.6,10.6-10.6c0.7,0,1.5,0.1,2.2,0.2l190.5,40.9c4.9,1.1,8.4,5.4,8.4,10.4v162.1
					C875.1,382.7,870.5,387.4,864.7,387.5z M674.2,376.8l190.5,9.2c4.9-0.1,8.9-4.2,8.9-9.1V214.9c0-4.3-3-8-7.2-8.9l-190.5-40.9
					c-4.9-1.1-9.8,2.1-10.8,7c-0.1,0.6-0.2,1.3-0.2,1.9v193.7c0,5,4.1,9.1,9.1,9.1C674,376.8,674.1,376.8,674.2,376.8L674.2,376.8z"
					/>
			</g>
			<path id="glass_1" class="st14" d="M904.5,200v167.8c0,5.4-4.3,9.7-9.6,9.9l-190.5-14.9c-5.4,0.1-10-4.2-10.1-9.7
				c0-0.1,0-0.1,0-0.2V159.1c0-5.5,4.4-9.9,9.9-9.9c0.7,0,1.4,0.1,2.1,0.2l190.5,40.9C901.3,191.4,904.5,195.4,904.5,200L904.5,200z
				"/>
			<g id="Group_213">
				<g id="Group_211">
					
						<linearGradient id="Path_1120_1_" gradientUnits="userSpaceOnUse" x1="139.309" y1="877.7593" x2="140.309" y2="877.7593" gradientTransform="matrix(202.6173 0 0 -220.0594 -27501.4082 193410.2969)">
						<stop  offset="0" style="stop-color:#838383"/>
						<stop  offset="1" style="stop-color:#3C3C3B"/>
					</linearGradient>
					<path id="Path_1120" class="st15" d="M927.6,190v161.7c0,5.2-4.1,9.4-9.3,9.5l-5.3-0.4l-0.7-0.1l-9.8-0.7l-43.3-3.4l-32.4-2.5
						l-0.7-0.1l-77.8-6.1l-13.4-1.1c-5.2,0.1-9.6-4-9.7-9.3c0-0.1,0-0.1,0-0.2V150.6c0-5.3,4.3-9.5,9.5-9.5c0.7,0,1.4,0.1,2,0.2
						l183.6,39.4C924.5,181.6,927.6,185.5,927.6,190L927.6,190z"/>
					<g id="Group_130" transform="translate(777.924 173.028)" class="st16">
						<path id="Path_1121" class="st13" d="M0.4,158.7l-0.2-19.8L0.1,119L0,79.4l0.1-39.7l0.1-19.8L0.4,0l0.2,19.8l0.1,19.8
							l0.1,39.7L0.7,119l-0.1,19.8L0.4,158.7z"/>
					</g>
					<path id="Path_1122" class="st17" d="M776.8,330c-11.1,3.2-21.1,9.6-28.7,18.3l-13.3-1c-5.2,0.1-9.6-4-9.7-9.2
						c0-0.1,0-0.1,0-0.2v-85.8c9.6-7.7,20.3-13.7,32.2-16.5C812.1,222.9,833.8,313.7,776.8,330z"/>
					
						<linearGradient id="Path_1123_1_" gradientUnits="userSpaceOnUse" x1="137.7333" y1="876.8096" x2="137.9793" y2="876.1776" gradientTransform="matrix(54.785 0 0 -72.986 -6779.0049 64238.1406)">
						<stop  offset="0" style="stop-color:#FFE4FF"/>
						<stop  offset="0.11" style="stop-color:#FFC9E7"/>
						<stop  offset="0.28" style="stop-color:#FFA7C8"/>
						<stop  offset="0.45" style="stop-color:#FF8CB0"/>
						<stop  offset="0.63" style="stop-color:#FF799F"/>
						<stop  offset="0.81" style="stop-color:#FF6E95"/>
						<stop  offset="1" style="stop-color:#FF6A92"/>
					</linearGradient>
					<path id="Path_1123" class="st18" d="M805.7,282.9c0,9.9-2.9,18.8-7.7,25.4c-5,6.8-12,11.1-19.7,11.1
						c-15.1,0-27.4-16.3-27.4-36.5c0-15.1,6.9-28.1,16.7-33.6c3.2-1.9,6.9-2.8,10.6-2.9C793.4,246.4,805.7,262.8,805.7,282.9z"/>
					<path id="Path_1124" class="st4" d="M773.9,195.4c0,2-0.6,4-1.7,5.7c-1,1.5-2.6,2.4-4.4,2.5c-3.4,0-6.2-3.7-6.2-8.2
						c0-3.4,1.6-6.3,3.7-7.6c0.7-0.4,1.6-0.6,2.4-0.6C771.1,187.2,773.9,190.9,773.9,195.4z"/>
					<path id="Path_1125" class="st19" d="M740.4,153.8c0,0.5-0.2,0.9-0.5,1.3c-0.3,0.4-0.7,0.6-1.2,0.6c-1-0.1-1.7-0.9-1.6-1.9
						c0-0.7,0.4-1.4,1-1.7c0.2-0.1,0.4-0.1,0.6-0.1C739.8,152,740.5,152.9,740.4,153.8z"/>
					<path id="Path_1126" class="st20" d="M745.3,154.6c0,0.5-0.2,0.9-0.5,1.3c-0.3,0.4-0.7,0.6-1.2,0.6c-1-0.1-1.7-0.9-1.6-1.9
						c0-0.7,0.4-1.4,1-1.7c0.2-0.1,0.4-0.1,0.6-0.1C744.7,152.8,745.4,153.7,745.3,154.6C745.3,154.6,745.3,154.6,745.3,154.6z"/>
					<path id="Path_1127" class="st14" d="M750,155.7c0,0.5-0.2,0.9-0.5,1.3c-0.3,0.4-0.7,0.6-1.2,0.6c-1-0.1-1.7-0.9-1.6-1.9
						c0-0.7,0.4-1.4,1-1.7c0.2-0.1,0.4-0.1,0.6-0.1C749.4,153.9,750.1,154.7,750,155.7C750,155.7,750,155.7,750,155.7z"/>
					<path id="Path_1128" class="st21" d="M902.5,357.5c0,0.8,0,1.6-0.1,2.5l-43.3-3.4c0.3-11.6,5.6-21.4,13.2-25.7
						c2.6-1.5,5.5-2.2,8.4-2.2C892.8,328.6,902.5,341.5,902.5,357.5z"/>
					<g id="Group_131" transform="translate(825.998 298.579)" class="st22">
						<path id="Path_1130" class="st4" d="M43.5,0c-6,0-11.8,1.6-17,4.6C11.1,13.3,0.7,33.1,0,55.4l0.7,0.1
							c0.7-22,10.9-41.6,26.2-50.2C32,2.3,37.7,0.8,43.5,0.8c23.6,0,42.8,25.7,42.8,57.2c0,1.5,0,2.9-0.1,4.1l0.7,0.1
							c0.1-1.3,0.1-2.7,0.1-4.2C87.1,26,67.6,0,43.5,0z"/>
					</g>
					<path id="Path_1131" class="st8" d="M799.4,295.2c0,4.4-0.5,8.8-1.4,13.1c-5,6.8-12,11.1-19.7,11.1
						c-15.1,0-27.4-16.3-27.4-36.5c0-15.1,6.9-28.1,16.7-33.6C785.4,251.2,799.4,271.1,799.4,295.2z"/>
					<path id="Path_1135" class="st21" d="M756.4,156.5l156.4,32v1.8l-156.4-31.4V156.5z"/>
					<path id="Path_1137" class="st17" d="M780,271.1v10c0,0.5-0.2,1-0.5,1.4c-0.3,0.3-0.7,0.5-1.2,0.5c-0.5-0.1-0.9-0.3-1.2-0.7
						c-0.3-0.4-0.5-0.9-0.5-1.5v-10c0-0.5,0.2-1,0.5-1.4c0.3-0.3,0.7-0.5,1.2-0.5c0.5,0,0.9,0.3,1.2,0.7
						C779.8,270.1,780,270.6,780,271.1z M788.3,283.8c0,1.6-0.3,3.1-0.8,4.6c-0.5,1.3-1.2,2.6-2.1,3.6c-0.9,1-2,1.8-3.2,2.3
						c-1.2,0.5-2.6,0.7-3.9,0.6c-1.4-0.1-2.7-0.6-3.9-1.3c-1.2-0.7-2.3-1.7-3.2-2.8c-1.9-2.5-2.9-5.6-2.9-8.7c0-1.8,0.3-3.6,1.1-5.2
						c0.6-1.5,1.7-2.9,2.9-4c0.3-0.3,0.8-0.4,1.2-0.3c0.5,0.1,0.9,0.4,1.1,0.9c0.3,0.4,0.4,1,0.3,1.5c0,0.5-0.3,0.9-0.7,1.3
						c-0.9,0.7-1.5,1.6-2,2.6c-0.5,1.1-0.7,2.3-0.7,3.5c0,1.1,0.2,2.1,0.5,3.1c0.3,1,0.8,1.9,1.4,2.7c0.6,0.8,1.3,1.4,2.1,1.9
						c0.8,0.5,1.7,0.8,2.6,0.9c0.9,0.1,1.8-0.1,2.6-0.4c0.8-0.3,1.5-0.8,2.1-1.5c0.6-0.7,1.1-1.5,1.4-2.4c0.4-1,0.5-2,0.5-3
						c0-1.2-0.2-2.5-0.7-3.6c-0.4-1.1-1.1-2.1-2-3c-0.4-0.4-0.6-0.9-0.6-1.4c-0.1-0.5,0-1,0.3-1.5c0.2-0.4,0.6-0.7,1.1-0.7
						c0.5,0,0.9,0.2,1.2,0.5c1.3,1.3,2.3,2.8,3,4.5C787.9,280.2,788.3,282,788.3,283.8L788.3,283.8z"/>
					<path id="Path_1138" class="st4" d="M783.4,193.1c0.9,0.1,1.5,0.9,1.4,1.8c0,1-0.5,1.5-1.4,1.3l-1-0.2v-3.1L783.4,193.1z
						 M782.8,195.8l0.6,0.1c0.6,0.1,1-0.2,1-1s-0.3-1.3-1-1.4l-0.6-0.1V195.8z"/>
					<path id="Path_1139" class="st4" d="M786,196.7c-0.4-0.1-0.7-0.4-0.7-0.9c0-0.4,0.3-0.6,0.8-0.5l0.6,0.1v-0.2
						c0-0.3-0.2-0.5-0.5-0.6c-0.3-0.1-0.5,0.1-0.5,0.3l-0.4-0.1c0-0.4,0.3-0.7,0.9-0.6c0.5,0,0.9,0.4,0.9,0.9v1.7l-0.4-0.1v-0.3l0,0
						C786.5,196.7,786.2,196.8,786,196.7L786,196.7z M786.7,195.9v-0.3l-0.6-0.1c-0.3-0.1-0.5,0.1-0.5,0.3c0,0.3,0.2,0.5,0.5,0.5
						C786.4,196.4,786.7,196.3,786.7,195.9L786.7,195.9z"/>
					<path id="Path_1140" class="st4" d="M787.9,194l0.4,0.1v0.6l0.5,0.1v0.3l-0.5-0.1v1.4c0,0.3,0.1,0.4,0.4,0.4h0.1v0.3
						c-0.1,0-0.1,0-0.2,0c-0.6-0.1-0.7-0.3-0.7-0.8v-1.4l-0.3-0.1v-0.3l0.3,0.1L787.9,194z"/>
					<path id="Path_1141" class="st4" d="M789.9,197.4c-0.4-0.1-0.8-0.4-0.8-0.9c0-0.4,0.3-0.6,0.8-0.5l0.6,0.1v-0.2
						c0-0.3-0.2-0.5-0.5-0.6c-0.3-0.1-0.5,0.1-0.5,0.3l-0.4-0.1c0-0.4,0.3-0.7,0.9-0.6c0.5,0,0.9,0.4,0.9,0.9v1.7l-0.4-0.1v-0.3l0,0
						C790.5,197.4,790.2,197.5,789.9,197.4L789.9,197.4z M790.6,196.6v-0.3l-0.6-0.1c-0.3-0.1-0.5,0.1-0.5,0.3
						c0,0.3,0.2,0.5,0.5,0.5C790.4,197.1,790.6,197,790.6,196.6L790.6,196.6z"/>
					<path id="Path_1142" class="st4" d="M793.7,194.9c0.9,0.1,1.5,0.9,1.4,1.8c0,0,0,0,0,0c0,1-0.5,1.5-1.4,1.3l-1-0.2v-3.1
						L793.7,194.9z M793.1,197.5l0.6,0.1c0.6,0.1,1-0.2,1-1s-0.3-1.3-1-1.4l-0.6-0.1V197.5z"/>
					<path id="Path_1143" class="st4" d="M795.6,195.9l0.4,0.1v0.3l0,0c0.1-0.2,0.4-0.3,0.6-0.2h0.1v0.4h-0.2
						c-0.4-0.1-0.6,0.2-0.6,0.5v1.5l-0.4-0.1L795.6,195.9z"/>
					<path id="Path_1144" class="st4" d="M797.5,195.4c0.1,0,0.2,0.2,0.3,0.3c0,0.1-0.1,0.2-0.2,0.2c0,0,0,0-0.1,0
						c-0.1,0-0.2-0.1-0.3-0.3C797.2,195.5,797.3,195.4,797.5,195.4C797.4,195.4,797.4,195.4,797.5,195.4z M797.3,196.2l0.4,0.1v2.4
						l-0.4-0.1V196.2z"/>
					<path id="Path_1145" class="st4" d="M798.1,196.4l0.4,0.1l0.6,2l0,0l0.7-1.8l0.4,0.1l-0.9,2.2l-0.4-0.1L798.1,196.4z"/>
					<path id="Path_1146" class="st4" d="M800.5,198.1v-0.3c0-0.6,0.4-1,1-0.9c0.6,0.1,1,0.7,1,1.3v0.2l-1.6-0.3v0
						c0,0.4,0.2,0.8,0.6,0.9c0.2,0.1,0.5,0,0.5-0.3l0.4,0.1c-0.1,0.4-0.5,0.6-0.9,0.5c0,0,0,0,0,0
						C800.9,199.3,800.4,198.7,800.5,198.1L800.5,198.1z M802.1,198.1L802.1,198.1c0-0.4-0.2-0.7-0.6-0.8c-0.4-0.1-0.6,0.2-0.6,0.6
						l0,0L802.1,198.1z"/>
					<path id="Path_1147" class="st4" d="M803,197.3l0.4,0.1v0.3l0,0c0.2-0.2,0.4-0.3,0.7-0.2c0.5,0.1,0.9,0.5,0.9,1.1v1.5l-0.4-0.1
						v-1.5c0-0.4-0.2-0.7-0.6-0.7c-0.2-0.1-0.5,0.1-0.6,0.3c0,0.1,0,0.1,0,0.2v1.5l-0.4-0.1L803,197.3z"/>
					<path id="Path_1148" class="st4" d="M808.9,200.7l-0.4-0.1l-0.5-1.9l0,0l-0.5,1.8l-0.4-0.1l-0.6-2.5l0.4,0.1l0.4,2l0,0l0.5-1.8
						l0.4,0.1l0.5,2l0,0l0.4-1.8l0.4,0.1L808.9,200.7z"/>
					<path id="Path_1149" class="st4" d="M811.9,199.9v0.2c0,0.7-0.4,1.1-1,1c-0.6-0.1-1.1-0.7-1-1.3v-0.2c0-0.6,0.4-1.1,1-0.9
						C811.5,198.7,812,199.3,811.9,199.9z M810.3,199.6v0.2c-0.1,0.4,0.2,0.8,0.6,0.9c0.4,0.1,0.6-0.2,0.6-0.7v-0.2
						c0.1-0.4-0.2-0.8-0.6-0.9C810.4,198.9,810.2,199.1,810.3,199.6L810.3,199.6z"/>
					<path id="Path_1150" class="st4" d="M812.5,198.9l0.4,0.1v0.3l0,0c0.1-0.2,0.4-0.3,0.6-0.2h0.1v0.4c-0.1,0-0.1,0-0.2,0
						c-0.4-0.1-0.6,0.2-0.6,0.5v1.5l-0.4-0.1L812.5,198.9z"/>
					<path id="Path_1151" class="st4" d="M814.2,198.3l0.4,0.1v3.3l-0.4-0.1V198.3z"/>
					<path id="Path_1152" class="st4" d="M816.8,200L816.8,200v-1.2l0.4,0.1v3.3l-0.4-0.1v-0.4l0,0c-0.2,0.2-0.4,0.3-0.7,0.3
						c-0.6-0.1-1-0.7-1-1.3v-0.2c0-0.7,0.4-1.1,1-1C816.4,199.6,816.7,199.8,816.8,200L816.8,200z M815.6,200.6v0.2
						c0,0.5,0.3,0.8,0.6,0.9s0.6-0.2,0.6-0.7v-0.2c0-0.4-0.2-0.8-0.7-0.9C815.8,199.8,815.6,200,815.6,200.6L815.6,200.6z"/>
					<path id="Path_1153" class="st4" d="M783,201.7V199l-0.9-0.2v-0.4l2.3,0.4v0.4l-0.9-0.2v2.8L783,201.7z"/>
					<path id="Path_1154" class="st4" d="M784.8,198.7l0.4,0.1v1.2l0,0c0.2-0.2,0.4-0.3,0.7-0.2c0.5,0.1,0.9,0.5,0.9,1v1.5l-0.4-0.1
						v-1.5c0-0.4-0.2-0.7-0.6-0.7c0,0,0,0,0,0c-0.4-0.1-0.6,0.2-0.6,0.5v1.5l-0.4-0.1L784.8,198.7z"/>
					<path id="Path_1155" class="st4" d="M787.3,201.4v-0.3c0-0.6,0.4-1,1-0.9c0.6,0.1,1,0.7,1,1.3v0.2l-1.6-0.3v0
						c0,0.4,0.2,0.8,0.6,0.9c0.2,0.1,0.5,0,0.5-0.3l0.4,0.1c-0.1,0.4-0.5,0.6-0.9,0.5c0,0,0,0,0,0
						C787.7,202.6,787.2,202,787.3,201.4L787.3,201.4z M788.9,201.3L788.9,201.3c0-0.4-0.2-0.7-0.6-0.7c-0.4-0.1-0.6,0.2-0.6,0.6
						l0,0L788.9,201.3z"/>
					<path id="Path_1156" class="st4" d="M790.7,200.8L790.7,200.8c0-0.4,0.3-0.8,0.7-0.8c0.1,0,0.2,0,0.3,0c0.5,0.1,0.9,0.5,1,1
						c0,0.4-0.2,0.6-0.5,0.9l-0.8,0.8l0,0l1.4,0.3v0.3l-2-0.4v-0.2l1.2-1.1c0.2-0.2,0.3-0.4,0.4-0.6c0-0.3-0.2-0.6-0.6-0.6
						c-0.2-0.1-0.5,0.1-0.6,0.3c0,0,0,0.1,0,0.2l0,0L790.7,200.8z"/>
					<path id="Path_1157" class="st4" d="M794,203.6V201l0,0c-0.1,0.1-0.5,0.2-0.7,0.3v-0.4c0.2-0.1,0.5-0.2,0.7-0.3l0.4,0.1v3.1
						L794,203.6z"/>
					<path id="Path_1158" class="st4" d="M795.9,201.6c0.5,0,0.8,0.4,0.9,0.9l-0.4-0.1c0-0.3-0.2-0.5-0.5-0.5
						c-0.3-0.1-0.5,0-0.5,0.3s0.3,0.4,0.6,0.5c0.4,0.2,0.8,0.4,0.8,0.8c0,0.5-0.4,0.7-0.9,0.6s-0.9-0.4-0.9-0.8l0.4,0.1
						c0.1,0.3,0.3,0.4,0.5,0.5c0.4,0.1,0.5-0.1,0.5-0.3s-0.3-0.4-0.6-0.5c-0.4-0.2-0.8-0.4-0.8-0.8S795.5,201.5,795.9,201.6z"/>
					<path id="Path_1159" class="st4" d="M797.6,201.3l0.4,0.1v0.6l0.5,0.1v0.3l-0.5-0.1v1.4c0,0.3,0.1,0.4,0.4,0.4h0.1v0.3h-0.2
						c-0.6-0.1-0.7-0.3-0.7-0.8v-1.4l-0.3-0.1v-0.3l0.3,0.1L797.6,201.3z"/>
					<path id="Path_1160" class="st4" d="M799.8,203.3c0-0.6,0.4-1,1-0.9c0.5,0.1,0.8,0.4,0.9,0.9l-0.4-0.1
						c-0.1-0.2-0.3-0.4-0.5-0.5c-0.4-0.1-0.6,0.2-0.6,0.7v0.2c0,0.4,0.2,0.8,0.6,0.9c0.3,0.1,0.5-0.1,0.5-0.3l0.4,0.1
						c-0.1,0.4-0.4,0.6-0.9,0.5c-0.6-0.1-1-0.7-1-1.3L799.8,203.3z"/>
					<path id="Path_1161" class="st4" d="M802.2,204v-0.3c0-0.6,0.4-1,1-0.9c0.6,0.1,1,0.7,1,1.3v0.2l-1.6-0.3v0
						c0,0.4,0.2,0.8,0.6,0.9c0.2,0.1,0.5,0,0.5-0.3l0.4,0.1c-0.1,0.4-0.5,0.6-0.9,0.5c0,0,0,0,0,0
						C802.6,205.2,802.2,204.6,802.2,204z M803.8,204L803.8,204c0-0.4-0.2-0.7-0.6-0.8c-0.4-0.1-0.6,0.2-0.6,0.6l0,0L803.8,204z"/>
					<path id="Path_1162" class="st4" d="M804.8,203.2l0.4,0.1v0.3l0,0c0.2-0.2,0.4-0.3,0.7-0.2c0.5,0.1,0.9,0.5,0.9,1v1.5l-0.4-0.1
						v-1.5c0-0.4-0.2-0.7-0.6-0.7c-0.3-0.1-0.5,0.1-0.6,0.3c0,0.1,0,0.1,0,0.2v1.5l-0.4-0.1L804.8,203.2z"/>
					<path id="Path_1163" class="st4" d="M807.5,203l0.4,0.1v0.6l0.5,0.1v0.3l-0.5-0.1v1.4c0,0.3,0.1,0.4,0.4,0.4h0.1v0.3
						c-0.1,0-0.1,0-0.2,0c-0.6-0.1-0.7-0.3-0.7-0.8V204l-0.3-0.1v-0.3l0.3,0.1L807.5,203z"/>
					<path id="Path_1164" class="st4" d="M810.9,206.6l-0.4-0.1v-0.3l0,0c-0.1,0.2-0.3,0.3-0.7,0.2c-0.5-0.1-0.9-0.5-0.8-1v-1.6
						l0.4,0.1v1.5c0,0.3,0.2,0.7,0.6,0.7c0,0,0,0,0,0c0.2,0.1,0.5-0.1,0.6-0.3c0-0.1,0-0.1,0-0.2v-1.5l0.4,0.1L810.9,206.6z"/>
					<path id="Path_1165" class="st4" d="M811.6,204.4l0.4,0.1v0.3l0,0c0.1-0.2,0.4-0.3,0.6-0.2l0.1,0v0.4l-0.2,0
						c-0.4-0.1-0.6,0.2-0.6,0.5v1.5l-0.4-0.1L811.6,204.4z"/>
					<path id="Path_1166" class="st4" d="M814.3,207.2l-0.1,0.1c-0.2,0.5-0.4,0.6-0.8,0.5l-0.2-0.1v-0.3l0.2,0
						c0.3,0.1,0.4,0,0.5-0.3v-0.1l-0.9-2.6l0.4,0.1l0.6,2.1l0,0l0.6-1.8l0.4,0.1C815.1,205.1,814.3,207.2,814.3,207.2z"/>
					<path id="Path_1167" class="st4" d="M818.4,206.7v0.2c0,0.7-0.4,1.1-1,1c-0.6-0.1-1.1-0.7-1-1.3v-0.2c0-0.6,0.4-1.1,1-0.9
						C818,205.5,818.5,206,818.4,206.7z M816.8,206.4v0.2c-0.1,0.4,0.2,0.8,0.6,0.9c0.4,0.1,0.6-0.2,0.6-0.7v-0.2
						c0.1-0.4-0.2-0.8-0.6-0.9C817,205.6,816.8,205.9,816.8,206.4L816.8,206.4z"/>
					<path id="Path_1168" class="st4" d="M819.2,206l-0.3-0.1v-0.3l0.3,0.1v-0.2c0-0.5,0.2-0.6,0.7-0.5l0.2,0v0.3H820
						c-0.3,0-0.4,0-0.4,0.3v0.2l0.5,0.1v0.3l-0.5-0.1v2.1l-0.4-0.1L819.2,206z"/>
					<path id="Path_1169" class="st4" d="M821.5,206.1l0.4,0.1v0.3l0,0c0.1-0.2,0.4-0.3,0.6-0.2c0.3,0,0.6,0.2,0.7,0.5l0,0
						c0.2-0.2,0.5-0.4,0.7-0.3c0.5,0.1,0.8,0.5,0.8,0.9v1.6l-0.4-0.1v-1.6c0-0.3-0.2-0.6-0.5-0.6c-0.2-0.1-0.5,0.1-0.5,0.3
						c0,0.1,0,0.1,0,0.2v1.5l-0.4-0.1v-1.5c0-0.3-0.2-0.6-0.5-0.7c-0.2-0.1-0.5,0.1-0.5,0.3c0,0.1,0,0.1,0,0.2v1.5l-0.4-0.1
						L821.5,206.1z"/>
					<path id="Path_1170" class="st4" d="M827.4,208.2v0.2c0,0.7-0.4,1.1-1,0.9c-0.6-0.1-1.1-0.7-1-1.3v-0.2c0-0.6,0.4-1.1,1-0.9
						C827,207,827.5,207.6,827.4,208.2L827.4,208.2z M825.8,208v0.2c-0.1,0.4,0.2,0.8,0.6,0.9c0.4,0.1,0.6-0.2,0.6-0.7v-0.2
						c0.1-0.4-0.2-0.8-0.6-0.9C826,207.2,825.8,207.5,825.8,208z"/>
					<path id="Path_1171" class="st4" d="M827.7,207.2l0.4,0.1l0.6,2l0,0l0.7-1.8l0.4,0.1l-0.9,2.2l-0.4-0.1L827.7,207.2z"/>
					<path id="Path_1172" class="st4" d="M830.1,208.9v-0.3c0-0.6,0.4-1,1-0.9c0.6,0.1,1,0.7,1,1.3v0.2l-1.6-0.3v0
						c0,0.4,0.2,0.8,0.6,0.9c0.2,0.1,0.5,0,0.5-0.3l0.4,0.1c-0.1,0.4-0.5,0.6-0.9,0.5c0,0,0,0,0,0
						C830.5,210.1,830,209.6,830.1,208.9L830.1,208.9z M831.6,208.9L831.6,208.9c0-0.4-0.2-0.7-0.6-0.7c-0.4-0.1-0.6,0.2-0.6,0.6
						l0,0L831.6,208.9z"/>
					<path id="Path_1173" class="st4" d="M832.6,208l0.4,0.1v0.3l0,0c0.1-0.2,0.4-0.3,0.6-0.2c0.3,0,0.6,0.2,0.7,0.5l0,0
						c0.2-0.2,0.5-0.4,0.7-0.3c0.5,0.1,0.8,0.5,0.8,0.9v1.6l-0.4-0.1v-1.6c0-0.3-0.2-0.6-0.5-0.6c-0.3-0.1-0.5,0.1-0.5,0.5v1.5
						l-0.4-0.1v-1.5c0-0.3-0.2-0.6-0.5-0.7c-0.2-0.1-0.5,0.1-0.5,0.3c0,0.1,0,0.1,0,0.2v1.5l-0.4-0.1L832.6,208z"/>
					<path id="Path_1174" class="st4" d="M836.5,210.1v-0.3c0-0.6,0.4-1,1-0.9c0.6,0.1,1,0.7,1,1.3v0.2l-1.6-0.3v0
						c0,0.4,0.2,0.8,0.6,0.9c0.2,0.1,0.5,0,0.5-0.3l0.4,0.1c-0.1,0.4-0.5,0.6-0.9,0.5c0,0,0,0,0,0
						C836.9,211.2,836.4,210.7,836.5,210.1L836.5,210.1z M838.1,210L838.1,210c0-0.4-0.2-0.7-0.6-0.8c-0.4-0.1-0.6,0.2-0.6,0.6l0,0
						L838.1,210z"/>
					<path id="Path_1175" class="st4" d="M839,209.2l0.4,0.1v0.3l0,0c0.2-0.2,0.4-0.3,0.7-0.2c0.5,0.1,0.9,0.5,0.9,1v1.5l-0.4-0.1
						v-1.5c0-0.4-0.2-0.7-0.6-0.7c-0.4-0.1-0.6,0.2-0.6,0.5v1.5l-0.4-0.1L839,209.2z"/>
					<path id="Path_1176" class="st4" d="M841.8,209.1l0.4,0.1v0.6l0.5,0.1v0.3l-0.5-0.1v1.4c0,0.3,0.1,0.4,0.4,0.4h0.1v0.3
						c-0.1,0-0.1,0-0.2,0c-0.6-0.1-0.7-0.3-0.7-0.8V210l-0.3-0.1v-0.3l0.3,0.1L841.8,209.1z"/>
					<path id="Path_1177" class="st4" d="M783,207.4c-0.4-0.1-0.8-0.4-0.8-0.9c0-0.4,0.3-0.6,0.8-0.5l0.6,0.1v-0.3
						c0-0.3-0.2-0.6-0.5-0.6c-0.3-0.1-0.5,0.1-0.5,0.3l-0.4-0.1c0-0.4,0.3-0.7,0.9-0.6c0.5,0,0.9,0.4,0.9,0.9v1.7l-0.4-0.1v-0.3l0,0
						C783.6,207.3,783.3,207.4,783,207.4L783,207.4z M783.7,206.6v-0.3l-0.6-0.1c-0.3-0.1-0.5,0.1-0.5,0.3c0,0.3,0.2,0.5,0.5,0.5
						C783.5,207.1,783.7,206.9,783.7,206.6L783.7,206.6z"/>
					<path id="Path_1178" class="st4" d="M784.8,205.2l0.4,0.1v0.3l0,0c0.2-0.2,0.4-0.3,0.7-0.2c0.5,0.1,0.9,0.5,0.9,1v1.5l-0.4-0.1
						v-1.5c0-0.4-0.2-0.7-0.6-0.7c-0.3-0.1-0.5,0.1-0.6,0.3c0,0.1,0,0.1,0,0.2v1.5l-0.4-0.1L784.8,205.2z"/>
					<path id="Path_1179" class="st4" d="M789,206.3L789,206.3v-1.2l0.4,0.1v3.3l-0.4-0.1V208l0,0c-0.1,0.2-0.4,0.3-0.7,0.3
						c-0.6-0.1-1-0.7-1-1.3v-0.2c0-0.7,0.4-1.1,1-1C788.6,205.8,788.8,206,789,206.3L789,206.3z M787.7,206.8v0.2
						c-0.1,0.4,0.2,0.8,0.6,0.9c0.4,0.1,0.6-0.2,0.6-0.7v-0.2c0-0.4-0.2-0.8-0.6-0.9C788,206.1,787.7,206.3,787.7,206.8L787.7,206.8
						z"/>
					<path id="Path_1180" class="st4" d="M791.6,208.9c-0.4-0.1-0.7-0.4-0.7-0.9c0-0.4,0.3-0.6,0.8-0.5l0.6,0.1v-0.2
						c0-0.3-0.2-0.6-0.5-0.6c-0.3-0.1-0.5,0.1-0.5,0.3L791,207c0-0.4,0.3-0.7,0.9-0.6c0.5,0,0.9,0.4,0.9,0.9v1.7l-0.4-0.1v-0.3l0,0
						C792.2,208.9,791.9,209,791.6,208.9L791.6,208.9z M792.3,208.2v-0.3l-0.6-0.1c-0.3-0.1-0.5,0.1-0.5,0.3c0,0.3,0.2,0.5,0.5,0.5
						C792.1,208.6,792.3,208.5,792.3,208.2z"/>
					<path id="Path_1181" class="st4" d="M795,207.4L795,207.4v-1.2l0.4,0.1v3.3l-0.4-0.1v-0.4l0,0c-0.1,0.2-0.4,0.3-0.7,0.3
						c-0.6-0.1-1-0.7-1-1.3v-0.2c0-0.7,0.4-1.1,1-1C794.6,206.9,794.8,207.1,795,207.4L795,207.4z M793.7,207.9v0.2
						c-0.1,0.4,0.2,0.8,0.6,0.9c0.4,0.1,0.6-0.2,0.6-0.7v-0.2c0-0.4-0.2-0.8-0.6-0.9C794,207.2,793.7,207.4,793.7,207.9z"/>
					<path id="Path_1182" class="st4" d="M795.8,207.2l0.4,0.1l0.6,2l0,0l0.7-1.8l0.4,0.1l-0.9,2.2l-0.4-0.1L795.8,207.2z"/>
					<path id="Path_1183" class="st4" d="M798.9,210.2c-0.4-0.1-0.7-0.4-0.7-0.9c0-0.4,0.3-0.6,0.8-0.5l0.6,0.1v-0.2
						c0-0.3-0.2-0.6-0.5-0.6c-0.3-0.1-0.5,0.1-0.5,0.3l-0.4-0.1c0-0.4,0.3-0.7,0.9-0.6c0.5,0,0.9,0.4,0.9,0.9v1.6l-0.4-0.1v-0.3l0,0
						C799.5,210.2,799.2,210.2,798.9,210.2L798.9,210.2z M799.6,209.4v-0.3L799,209c-0.3-0.1-0.5,0.1-0.5,0.3c0,0.3,0.2,0.5,0.5,0.5
						C799.3,209.9,799.6,209.7,799.6,209.4L799.6,209.4z"/>
					<path id="Path_1184" class="st4" d="M800.6,208l0.4,0.1v0.3l0,0c0.2-0.2,0.4-0.3,0.7-0.2c0.5,0.1,0.9,0.5,0.9,1v1.5l-0.4-0.1
						v-1.5c0-0.4-0.2-0.7-0.6-0.7c-0.4-0.1-0.6,0.2-0.6,0.5v1.5l-0.4-0.1L800.6,208z"/>
					<path id="Path_1185" class="st4" d="M803.2,209.5c0-0.7,0.4-1,1-0.9c0.5,0.1,0.8,0.4,0.9,0.9l-0.4-0.1
						c-0.1-0.2-0.3-0.4-0.5-0.5c-0.4-0.1-0.6,0.2-0.6,0.7v0.2c0,0.4,0.2,0.8,0.6,0.9c0.3,0.1,0.5-0.1,0.5-0.3l0.4,0.1
						c-0.1,0.4-0.4,0.6-0.9,0.5c-0.6-0.1-1-0.7-1-1.3L803.2,209.5z"/>
					<path id="Path_1186" class="st4" d="M805.5,210.2v-0.3c0-0.6,0.4-1,1-0.9c0.6,0.1,1,0.7,1,1.3v0.2l-1.6-0.2l0,0
						c0,0.4,0.2,0.8,0.6,0.9c0.2,0.1,0.5,0,0.5-0.3l0.4,0.1c-0.1,0.4-0.5,0.6-0.9,0.5c0,0,0,0,0,0
						C805.9,211.4,805.5,210.8,805.5,210.2L805.5,210.2z M807.1,210.1L807.1,210.1c0-0.4-0.2-0.7-0.6-0.7c-0.4-0.1-0.6,0.2-0.6,0.6
						l0,0L807.1,210.1z"/>
					<path id="Path_1187" class="st4" d="M808.1,209.3l0.4,0.1v0.3l0,0c0.1-0.2,0.4-0.3,0.6-0.2c0.3,0,0.6,0.2,0.7,0.5l0,0
						c0.2-0.2,0.5-0.4,0.7-0.3c0.5,0.1,0.8,0.5,0.8,0.9v1.6l-0.4-0.1v-1.6c0-0.3-0.2-0.6-0.5-0.6c-0.3-0.1-0.5,0.1-0.5,0.5v1.5
						l-0.4-0.1v-1.5c0-0.3-0.2-0.6-0.5-0.7c-0.2-0.1-0.5,0.1-0.5,0.3c0,0.1,0,0.1,0,0.2v1.5l-0.4-0.1L808.1,209.3z"/>
					<path id="Path_1188" class="st4" d="M811.9,211.3V211c0-0.6,0.4-1,1-0.9c0.6,0.1,1,0.7,1,1.3v0.2l-1.6-0.3v0
						c0,0.4,0.2,0.8,0.6,0.9c0.2,0.1,0.5,0,0.5-0.3l0.4,0.1c-0.1,0.4-0.5,0.6-0.9,0.5c0,0,0,0,0,0
						C812.3,212.5,811.9,212,811.9,211.3z M813.5,211.3L813.5,211.3c0-0.4-0.2-0.7-0.6-0.7c-0.4-0.1-0.6,0.2-0.6,0.6l0,0
						L813.5,211.3z"/>
					<path id="Path_1189" class="st4" d="M814.5,210.5l0.4,0.1v0.3l0,0c0.2-0.2,0.4-0.3,0.7-0.2c0.5,0.1,0.9,0.5,0.9,1.1v1.5
						l-0.4-0.1v-1.5c0-0.4-0.2-0.7-0.6-0.7c-0.2-0.1-0.5,0.1-0.6,0.3c0,0.1,0,0.1,0,0.2v1.5l-0.4-0.1L814.5,210.5z"/>
					<path id="Path_1190" class="st4" d="M817.3,210.4l0.4,0.1v0.6l0.5,0.1v0.3l-0.5-0.1v1.4c0,0.3,0.1,0.4,0.4,0.4h0.1v0.3
						c-0.1,0-0.1,0-0.2,0c-0.6-0.1-0.7-0.3-0.7-0.8v-1.4l-0.3-0.1v-0.3l0.3,0.1L817.3,210.4z"/>
					<path id="Path_1191" class="st4" d="M819.9,210.6c0.1,0,0.2,0.1,0.2,0.3c0,0.1-0.1,0.2-0.2,0.2c0,0,0,0-0.1,0
						c-0.1,0-0.2-0.1-0.3-0.3C819.6,210.7,819.7,210.6,819.9,210.6C819.8,210.6,819.9,210.6,819.9,210.6z M819.7,211.4l0.4,0.1v2.4
						l-0.4-0.1V211.4z"/>
					<path id="Path_1192" class="st4" d="M820.8,211.6l0.4,0.1v0.3l0,0c0.2-0.2,0.4-0.3,0.7-0.2c0.5,0.1,0.9,0.5,0.9,1.1v1.5
						l-0.4-0.1v-1.5c0-0.4-0.2-0.7-0.6-0.7c-0.4-0.1-0.6,0.2-0.6,0.5v1.5l-0.4-0.1L820.8,211.6z"/>
					<path id="Path_1193" class="st4" d="M825,214.7V212l-0.9-0.2v-0.4l2.3,0.4v0.4l-0.9-0.2v2.8L825,214.7z"/>
					<path id="Path_1194" class="st4" d="M826.2,213.8v-0.3c0-0.6,0.4-1,1-0.9c0.6,0.1,1,0.7,1,1.3v0.2l-1.6-0.3v0
						c0,0.4,0.2,0.8,0.6,0.9c0.2,0.1,0.5-0.1,0.5-0.3l0.4,0.1c-0.1,0.4-0.5,0.6-0.9,0.5c0,0,0,0,0,0
						C826.6,215,826.1,214.5,826.2,213.8z M827.8,213.8L827.8,213.8c0-0.4-0.2-0.7-0.6-0.7c-0.4-0.1-0.6,0.2-0.6,0.6l0,0
						L827.8,213.8z"/>
					<path id="Path_1195" class="st4" d="M828.7,214c0-0.6,0.4-1,1-0.9c0.5,0.1,0.8,0.4,0.9,0.9l-0.4-0.1c-0.1-0.2-0.3-0.4-0.5-0.5
						c-0.4-0.1-0.6,0.2-0.6,0.7v0.2c0,0.4,0.2,0.8,0.6,0.9c0.3,0.1,0.5-0.1,0.5-0.3l0.4,0.1c-0.1,0.4-0.4,0.6-0.9,0.5
						c-0.6-0.1-1-0.7-1-1.3L828.7,214z"/>
					<path id="Path_1196" class="st4" d="M831.1,212.5l0.4,0.1v1.2l0,0c0.2-0.2,0.4-0.3,0.7-0.2c0.5,0.1,0.9,0.5,0.9,1.1v1.5
						l-0.4-0.1v-1.5c0-0.4-0.2-0.7-0.6-0.7c0,0,0,0,0,0c-0.4-0.1-0.6,0.2-0.6,0.5v1.5l-0.4-0.1L831.1,212.5z"/>
					<path id="Path_1197" class="st4" d="M833.8,213.9l0.4,0.1v0.3l0,0c0.2-0.2,0.4-0.3,0.7-0.2c0.5,0.1,0.9,0.5,0.9,1.1v1.5
						l-0.4-0.1V215c0-0.4-0.2-0.7-0.6-0.7c0,0,0,0,0,0c-0.4-0.1-0.6,0.2-0.6,0.5v1.5l-0.4-0.1L833.8,213.9z"/>
					<path id="Path_1198" class="st4" d="M838.3,215.8v0.2c0,0.7-0.4,1.1-1,0.9c-0.6-0.1-1.1-0.7-1-1.3v-0.2c0-0.6,0.4-1.1,1-0.9
						C837.9,214.6,838.4,215.1,838.3,215.8L838.3,215.8z M836.7,215.5v0.2c-0.1,0.4,0.2,0.8,0.6,0.9c0.4,0.1,0.6-0.2,0.6-0.7v-0.2
						c0.1-0.4-0.2-0.8-0.6-0.9C836.9,214.7,836.7,215,836.7,215.5L836.7,215.5z"/>
					<path id="Path_1199" class="st4" d="M839,213.9l0.4,0.1v3.3l-0.4-0.1V213.9z"/>
					<path id="Path_1200" class="st4" d="M842,216.4v0.2c0,0.7-0.4,1.1-1,1c-0.6-0.1-1.1-0.7-1-1.3V216c0-0.6,0.4-1.1,1-0.9
						C841.6,215.2,842.1,215.8,842,216.4z M840.4,216.1v0.2c-0.1,0.4,0.2,0.8,0.6,0.9c0.4,0.1,0.6-0.2,0.6-0.7v-0.2
						c0.1-0.4-0.2-0.8-0.6-0.9C840.6,215.4,840.3,215.6,840.4,216.1L840.4,216.1z"/>
					<path id="Path_1201" class="st4" d="M844.2,218.1v-0.4l0,0c-0.1,0.2-0.4,0.3-0.7,0.3c-0.6-0.1-1-0.7-1-1.3v-0.2
						c0-0.7,0.4-1,1-0.9c0.3,0.1,0.6,0.2,0.7,0.5l0,0v-0.3l0.4,0.1v2.4c0,0.6-0.5,0.8-1,0.7c-0.5,0-0.9-0.4-1-0.9l0.4,0.1
						c0.1,0.3,0.3,0.4,0.6,0.5C843.9,218.6,844.2,218.4,844.2,218.1z M842.9,216.6v0.1c-0.1,0.4,0.2,0.8,0.6,0.9
						c0.4,0.1,0.6-0.2,0.6-0.7v-0.1c0-0.4-0.2-0.8-0.6-0.9C843.2,215.8,842.9,216.1,842.9,216.6L842.9,216.6z"/>
					<path id="Path_1202" class="st4" d="M846.3,218.5l-0.1,0.2c-0.2,0.5-0.4,0.6-0.8,0.5c-0.1,0-0.1,0-0.2-0.1v-0.3h0.2
						c0.3,0,0.4,0,0.5-0.3v-0.1l-0.9-2.6l0.4,0.1l0.6,2.1l0,0l0.6-1.8l0.4,0.1C847.2,216.3,846.3,218.5,846.3,218.5z"/>
					<path id="Path_1203" class="st17" d="M782.4,187.8v-3.1l0.6,0.1l0.9,2.2l0,0l0.9-1.9l0.6,0.1v3.1l-0.6-0.1v-2l0,0l-0.7,1.5
						l-0.4-0.1l-0.7-1.8l0,0v2L782.4,187.8z"/>
					<path id="Path_1204" class="st17" d="M788.1,188.8l-2-0.4v-3.1l2,0.4v0.5l-1.4-0.2v0.8l1.3,0.2v0.5l-1.3-0.2v0.8l1.4,0.2V188.8
						z"/>
					<path id="Path_1205" class="st17" d="M788.7,188.9v-3.1l0.5,0.1l1.4,2.3l0,0v-2.1l0.6,0.1v3.1l-0.5-0.1l-1.4-2.3l0,0v2.1
						L788.7,188.9z"/>
					<path id="Path_1206" class="st17" d="M792.4,188.4c0,0.4,0.3,0.7,0.6,0.8c0.3,0.1,0.5-0.1,0.6-0.3c0-0.1,0-0.2,0-0.2v-2
						l0.6,0.1v2.1c0,0.7-0.5,1-1.3,0.9c-0.7-0.1-1.2-0.6-1.3-1.3v-2.1l0.6,0.1V188.4z"/>
				</g>
				<g id="Group_212">
					
						<linearGradient id="Path_1129_1_" gradientUnits="userSpaceOnUse" x1="131.9774" y1="865.6146" x2="132.9794" y2="865.6146" gradientTransform="matrix(17.4551 0 0 -12.65 -1428.7571 11302.7852)">
						<stop  offset="0" style="stop-color:#FFB9FF"/>
						<stop  offset="0.1" style="stop-color:#F5BBFF"/>
						<stop  offset="0.26" style="stop-color:#DBC1FF"/>
						<stop  offset="0.47" style="stop-color:#B0CAFF"/>
						<stop  offset="0.72" style="stop-color:#75D6FF"/>
						<stop  offset="0.99" style="stop-color:#2AE6FF"/>
						<stop  offset="1" style="stop-color:#29E6FF"/>
					</linearGradient>
					<path id="Path_1129" class="st23" d="M892.4,358.1v1l-17.5-1.4c0.1-4.7,2.3-8.6,5.3-10.4c1-0.6,2.2-0.9,3.4-0.9
						C888.5,346.4,892.4,351.6,892.4,358.1z"/>
					
						<linearGradient id="Path_1134_1_" gradientUnits="userSpaceOnUse" x1="139.8692" y1="877.9316" x2="140.8692" y2="877.9316" gradientTransform="matrix(1070.5989 0 0 -286.7513 -148868.9219 252064.4375)">
						<stop  offset="0" style="stop-color:#FFB9FF"/>
						<stop  offset="0.1" style="stop-color:#F5BBFF"/>
						<stop  offset="0.26" style="stop-color:#DBC1FF"/>
						<stop  offset="0.47" style="stop-color:#B0CAFF"/>
						<stop  offset="0.72" style="stop-color:#75D6FF"/>
						<stop  offset="0.99" style="stop-color:#2AE6FF"/>
						<stop  offset="1" style="stop-color:#29E6FF"/>
					</linearGradient>
					<path id="Path_1134" class="st24" d="M874.9,357.7c0,0,138.9-129.7,255.2-150.8c102.2-18.6,195.5-3.7,348,84.4
						s278.4-128.3,376.5-118s151.9,212-24.5,263.6s-372,15.4-536-107.3s-401.7,29.4-401.7,29.4L874.9,357.7z"/>
					
						<linearGradient id="Path_1136_1_" gradientUnits="userSpaceOnUse" x1="140.148" y1="877.3997" x2="140.938" y2="878.3617" gradientTransform="matrix(909.4465 0 0 -270.1562 -126307.5938 237445.0469)">
						<stop  offset="0" style="stop-color:#FFE4FF"/>
						<stop  offset="8.000000e-02" style="stop-color:#FAD1F2"/>
						<stop  offset="0.26" style="stop-color:#F0AFDB"/>
						<stop  offset="0.43" style="stop-color:#E994C9"/>
						<stop  offset="0.61" style="stop-color:#E381BC"/>
						<stop  offset="0.8" style="stop-color:#E076B5"/>
						<stop  offset="1" style="stop-color:#DF72B2"/>
					</linearGradient>
					<path id="Path_1136" class="st25" d="M874.9,357.7c0,0,133.8-92.8,258.8-107.8c172.2-20.7,342.1,39.8,468.8-49.8
						c0,0,69.2-64.3,111-59c41.8,5.2,136,118.1,0,232s-434.9-66.9-596.3-55.7S892.3,359,892.3,359L874.9,357.7z"/>
				</g>
			</g>
			<text transform="matrix(1 0 0 1 1213.7841 184.666)" class="st17 st26 st27">MENU</text>
			<ellipse id="Ellipse_47" class="st28" cx="501.7" cy="347.3" rx="21.2" ry="32.8"/>
			<ellipse id="Ellipse_48" class="st13" cx="501.7" cy="347.3" rx="10.6" ry="16.4"/>
			<path id="Path_1213" class="st13" d="M501.7,397.8c-18.2,0-33-22.7-33-50.5s14.8-50.5,33-50.5s33,22.6,33,50.5
				S519.9,397.8,501.7,397.8z M501.7,299.1c-17,0-30.8,21.7-30.8,48.3s13.8,48.3,30.8,48.3s30.8-21.7,30.8-48.3
				S518.7,299,501.7,299.1L501.7,299.1z"/>
			<g id="Group_214">
				
					<linearGradient id="Path_1214_1_" gradientUnits="userSpaceOnUse" x1="139.7814" y1="877.9811" x2="140.7814" y2="877.9811" gradientTransform="matrix(640.5274 0 0 -314.1385 -89665.9219 276181.5938)">
					<stop  offset="0" style="stop-color:#FFB9FF"/>
					<stop  offset="0.1" style="stop-color:#F5BBFF"/>
					<stop  offset="0.26" style="stop-color:#DBC1FF"/>
					<stop  offset="0.47" style="stop-color:#B0CAFF"/>
					<stop  offset="0.72" style="stop-color:#75D6FF"/>
					<stop  offset="0.99" style="stop-color:#2AE6FF"/>
					<stop  offset="1" style="stop-color:#29E6FF"/>
				</linearGradient>
				<path id="Path_1214" class="st29" d="M501.7,330.9c0,0-172-133.1-435-111.8c-263,21.3-230.1,277.8-101.6,308
					s490-125.5,536.6-163.5C501.7,363.7,516.8,348.2,501.7,330.9z"/>
				
					<linearGradient id="Path_1215_1_" gradientUnits="userSpaceOnUse" x1="140.8141" y1="878.8536" x2="140.4811" y2="878.3326" gradientTransform="matrix(1260.1355 0 0 -386.9419 -177031.6562 340223.9688)">
					<stop  offset="0" style="stop-color:#FFE4FF"/>
					<stop  offset="8.000000e-02" style="stop-color:#FAD1F2"/>
					<stop  offset="0.26" style="stop-color:#F0AFDB"/>
					<stop  offset="0.43" style="stop-color:#E994C9"/>
					<stop  offset="0.61" style="stop-color:#E381BC"/>
					<stop  offset="0.8" style="stop-color:#E076B5"/>
					<stop  offset="1" style="stop-color:#DF72B2"/>
				</linearGradient>
				<path id="Path_1215" class="st30" d="M502.7,362.5c9.7-12.2,3.7-30.3-11.3-34.6C416,306.6-59.4,184.2-498.2,352.7
					C-976.4,536.4-693.6,813.8-360.7,531c134.5-114.3,337.7-216,520-198c182.3,18,268.2,64.2,342.4,30.6
					C502.1,363.3,502.4,362.9,502.7,362.5z"/>
			</g>
		</g>
	</g>
</g>
</svg>
