<svg xmlns="http://www.w3.org/2000/svg" xmlns:xlink="http://www.w3.org/1999/xlink" width="181.14" height="253.834" viewBox="0 0 181.14 253.834">
  <defs>
    <linearGradient id="linear-gradient" x1="0.098" y1="0.485" x2="0.935" y2="0.485" gradientUnits="objectBoundingBox">
      <stop offset="0" stop-color="#ffe2ff"/>
      <stop offset="0.08" stop-color="#fad1f3"/>
      <stop offset="0.25" stop-color="#efafdb"/>
      <stop offset="0.43" stop-color="#e794c8"/>
      <stop offset="0.61" stop-color="#e281bb"/>
      <stop offset="0.8" stop-color="#de76b3"/>
      <stop offset="1" stop-color="#dd72b0"/>
    </linearGradient>
    <linearGradient id="linear-gradient-2" x1="1.106" y1="0.267" x2="-0.552" y2="0.852" gradientUnits="objectBoundingBox">
      <stop offset="0" stop-color="#ffe2ff"/>
      <stop offset="0.06" stop-color="#e3e3ff"/>
      <stop offset="0.19" stop-color="#b2e3ff"/>
      <stop offset="0.32" stop-color="#88e4ff"/>
      <stop offset="0.45" stop-color="#66e5ff"/>
      <stop offset="0.58" stop-color="#4be5ff"/>
      <stop offset="0.71" stop-color="#38e6ff"/>
      <stop offset="0.85" stop-color="#2de6ff"/>
      <stop offset="1" stop-color="#29e6ff"/>
    </linearGradient>
    <linearGradient id="linear-gradient-3" x1="0.5" x2="0.5" y2="1" gradientUnits="objectBoundingBox">
      <stop offset="0" stop-color="#ffbdff"/>
      <stop offset="0.1" stop-color="#f5bfff"/>
      <stop offset="0.26" stop-color="#dbc4ff"/>
      <stop offset="0.47" stop-color="#b0ccff"/>
      <stop offset="0.72" stop-color="#75d8ff"/>
      <stop offset="0.99" stop-color="#2ae6ff"/>
      <stop offset="1" stop-color="#29e6ff"/>
    </linearGradient>
  </defs>
  <g id="ink_pack_DIGI_MARKETING" data-name="ink pack DIGI MARKETING" transform="translate(-250.402 -1453.166)">
    <path id="Path_1402" data-name="Path 1402" d="M410.5,403.044c3.981-2.711,3.792-10.534,3.781-10.906h0c0-7.59-19.893-13.739-44.437-13.739s-44.437,6.149-44.437,13.739v.039c0,.588-.127,8.217,3.781,10.883,4.064,2.772,6.282,6.1,3.881,9.242s-4.53,4.064-4.53,18.479v37.623s.832,8.394,22.454,10.889a145.984,145.984,0,0,0,17.1,1.408,201.056,201.056,0,0,0,20.6-1.408c21.622-2.495,22.454-10.889,22.454-10.889v-37.64c0-14.415-2.123-15.341-4.53-18.479S406.439,405.816,410.5,403.044Z" transform="translate(-75.007 1226.298)" fill="#ade3ff" opacity="0.77"/>
    <path id="Path_1403" data-name="Path 1403" d="M413.07,392.016c0,6.531-17.126,11.826-38.255,11.826-13.14,0-24.733-2.046-31.6-5.167-4.186-1.9-6.653-4.191-6.653-6.653,0-6.537,17.126-11.831,38.255-11.831,17.049,0,31.486,3.449,36.431,8.211A5.076,5.076,0,0,1,413.07,392.016Z" transform="translate(-79.976 1225.5)" fill="#fff" opacity="0.42"/>
    <path id="Path_1404" data-name="Path 1404" d="M411.233,388.405c-24.611-7.845-59.589,3.044-65.538,5.882a4.08,4.08,0,0,0-2.512,4.4c-4.186-1.9-6.653-4.191-6.653-6.653,0-6.537,17.126-11.831,38.255-11.831C391.85,380.189,406.288,383.637,411.233,388.405Z" transform="translate(-79.963 1225.496)" fill="#ade3ff"/>
    <path id="Path_1405" data-name="Path 1405" d="M525.679,58.431,501.8,50.264s17.5,11.911,20.19,15.169c0,0-17.284,36.153-22.19,42.632l-10.893-3.457,8.73,6.459s-12.861,30.84-38.868,45.442l-3.453,2.611-.152.116-4.319,36.481a4.535,4.535,0,0,1-2.475-3.449c-.355-2.539.455-10.578.455-10.578a280.416,280.416,0,0,1,15.4-77.3C478.632,63.581,506.471,18.27,560.184,0,560.184,0,535.954,45.438,525.679,58.431Z" transform="translate(-128.642 1453.166)" fill="url(#linear-gradient)"/>
    <path id="Path_1406" data-name="Path 1406" d="M455.32,316.243l-.152.116-4.319,36.481a4.535,4.535,0,0,1-2.475-3.449c-.355-2.539.455-10.578.455-10.578a280.445,280.445,0,0,1,15.4-77.312c-1.557,7.936-3.912,19.029-6.918,30.6C454.159,304.212,454.406,311.776,455.32,316.243Z" transform="translate(-128.642 1296.051)" fill="#555554"/>
    <path id="Path_1407" data-name="Path 1407" d="M517.71,123.68l18.59,15.169-14.985,30.641-26.573-5.169S485.133,179.6,481.9,197.691C481.9,197.691,487.636,155.534,517.71,123.68Z" transform="translate(-148.839 1378.856)" fill="#fff" opacity="0.32"/>
    <path id="Path_1408" data-name="Path 1408" d="M398.362,507.44c-18.107,4.069-43.982,0-49.344-1.663s-4.8-8.316-4.8-8.316V462.9c26.241-15.341,68.56,10.163,68.56,10.163V495.8S416.475,503.376,398.362,507.44Z" transform="translate(-83.38 1190.833)" fill="url(#linear-gradient-2)"/>
    <path id="Path_1409" data-name="Path 1409" d="M412.79,473.066c-33.077,10.168-68.56-10.163-68.56-10.163C370.471,447.563,412.79,473.066,412.79,473.066Z" transform="translate(-83.394 1190.833)" fill="#fff" opacity="0.68"/>
    <path id="Path_1410" data-name="Path 1410" d="M415.211,420.231s17.464-2.678,23.1-7.113,4.9.643.926,3.554-14.786,8.455-31.785,9.1S399.87,420.592,415.211,420.231Z" transform="translate(-107.526 1211.606)" fill="#fff" opacity="0.7"/>
    <circle id="Ellipse_61" data-name="Ellipse 61" cx="14" cy="14" r="14" transform="translate(261 1585)" fill="url(#linear-gradient-3)"/>
  </g>
</svg>
