<svg id="kids_bootcamp" data-name="kids bootcamp" xmlns="http://www.w3.org/2000/svg" width="154.72" height="44.74" viewBox="0 0 154.72 44.74">
  <g id="Layer_1" data-name="Layer 1">
    <rect id="Rectangle_245" data-name="Rectangle 245" width="134.68" height="22.37" transform="translate(3.76 22.37)" fill="#f27d82"/>
    <rect id="Rectangle_246" data-name="Rectangle 246" width="51.9" height="22.37" transform="translate(3.76)" fill="#fab540"/>
    <rect id="Rectangle_247" data-name="Rectangle 247" width="8.14" height="11.19" transform="translate(138.44 11.19)" fill="#f27c83"/>
    <rect id="Rectangle_248" data-name="Rectangle 248" width="8.14" height="3.94" transform="translate(146.58 22.37)" fill="#f27c83"/>
    <rect id="Rectangle_249" data-name="Rectangle 249" width="8.14" height="1.97" transform="translate(146.58 27.92)" fill="#f27c83"/>
    <rect id="Rectangle_250" data-name="Rectangle 250" width="8.14" height="1.25" transform="translate(146.58 31.5)" fill="#f27c83"/>
    <rect id="Rectangle_251" data-name="Rectangle 251" width="8.14" height="0.63" transform="translate(146.58 34.18)" fill="#f27c83"/>
    <rect id="Rectangle_252" data-name="Rectangle 252" width="3.76" height="35.71" transform="translate(0 5.1)" fill="#ebebeb"/>
    <path id="Path_1931" data-name="Path 1931" d="M17.87,17.07c.19.28.12.56-.27.56H15a.94.94,0,0,1-.78-.56l-2.94-4.55h-.2v4.55c0,.39-.13.56-.52.56h-2c-.39,0-.54-.17-.54-.56V5.55c0-.39.15-.56.54-.56h2c.39,0,.52.17.52.56v4.74h.18l2.85-4.74A1,1,0,0,1,15,5h2.14c.39,0,.45.26.26.56L13.88,11.2Z" fill="#fff"/>
    <path id="Path_1932" data-name="Path 1932" d="M22.26,17.07c0,.39-.13.56-.52.56h-2c-.39,0-.54-.17-.54-.56V5.55c0-.39.15-.56.54-.56h2c.39,0,.52.17.52.56Z" fill="#fff"/>
    <path id="Path_1933" data-name="Path 1933" d="M25,17.63c-.33,0-.46-.18-.46-.56V5.55c0-.39.15-.56.54-.56h4.2C32.73,5,34,6.57,34,8.17v6.28c0,1.6-1.26,3.18-4.76,3.18ZM27.56,7.5v7.62h1.67c.91,0,1.69-.35,1.69-1.21V8.71c0-.86-.78-1.21-1.69-1.21Z" fill="#fff"/>
    <path id="Path_1934" data-name="Path 1934" d="M36.4,4c0-.39.15-.55.54-.55h2c.39,0,.52.16.52.55V5.47c0,1.51-1,2.51-3.06,3-.38.09-.56,0-.69-.37l-.45-1.27c-.13-.37,0-.58.37-.69.64-.18.8-.41.8-.81Z" fill="#fff"/>
    <path id="Path_1935" data-name="Path 1935" d="M46.91,8.43c0-.86-.6-1.17-1.45-1.17S44,7.57,44,8.43v.18a.84.84,0,0,0,.59.8l3.13,1.06A3,3,0,0,1,50,13.28V14.6c0,1.6-1.13,3.18-4.63,3.18S40.7,16.2,40.7,14.6V13.36c0-.39.15-.56.54-.56h1.94c.39,0,.52.17.52.56v.83c0,.86.72,1.17,1.64,1.17S47,15.05,47,14.19v-.37c0-.67-.89-1-1.6-1.25l-2.68-1A2.77,2.77,0,0,1,41,9.1V8c0-1.6,1-3.18,4.41-3.18S49.9,6.42,49.9,8v.69c0,.39-.15.56-.54.56H47.43c-.39,0-.52-.17-.52-.56Z" fill="#fff"/>
    <path id="Path_1936" data-name="Path 1936" d="M8.58,39.83c-.39,0-.54-.17-.54-.56V27.74c0-.39.15-.56.54-.56h3.49c3.5,0,4.73,1.3,4.73,2.9v1a2.28,2.28,0,0,1-1.27,2.07,2.54,2.54,0,0,1,1.88,2.23v1.38c0,1.59-1.23,3-4.72,3ZM11.11,29.6v2.68h1c.91,0,1.69-.36,1.69-1.23v-.48c0-.86-.78-1-1.69-1Zm0,4.94v2.87h1.58c.91,0,1.69-.34,1.69-1.19v-.6c0-.7-.78-1.08-1.69-1.08Z" transform="translate(0 0)" fill="#fff"/>
    <path id="Path_1937" data-name="Path 1937" d="M19,30.21c0-1.6,1.24-3.18,4.74-3.18s4.76,1.58,4.76,3.18v6.58c0,1.6-1.27,3.18-4.76,3.18S19,38.39,19,36.79Zm6.43.54c0-.85-.78-1.21-1.69-1.21s-1.67.36-1.67,1.21v5.51c0,.85.76,1.2,1.67,1.2s1.69-.35,1.69-1.2Z" transform="translate(0 0)" fill="#fff"/>
    <path id="Path_1938" data-name="Path 1938" d="M30.34,30.21c0-1.6,1.25-3.18,4.75-3.18s4.76,1.58,4.76,3.18v6.58c0,1.6-1.27,3.18-4.76,3.18s-4.75-1.58-4.75-3.18Zm6.44.54c0-.85-.78-1.21-1.69-1.21s-1.68.36-1.68,1.21v5.51c0,.85.76,1.2,1.68,1.2s1.69-.35,1.69-1.2Z" transform="translate(0 0)" fill="#fff"/>
    <path id="Path_1939" data-name="Path 1939" d="M49.29,27.18c.39,0,.56.13.56.52v1.45c0,.39-.17.54-.56.54H46.91v9.58c0,.39-.13.56-.52.56h-2c-.39,0-.54-.17-.54-.56V29.69H41.46c-.39,0-.56-.15-.56-.54V27.7c0-.39.17-.52.56-.52Z" transform="translate(0 0)" fill="#fff"/>
    <path id="Path_1940" data-name="Path 1940" d="M60,36.79c0,1.6-1.1,3.21-4.6,3.21s-4.57-1.58-4.57-3.18V30.21c0-1.6,1.08-3.18,4.57-3.18S60,28.61,60,30.21v.86c0,.39-.13.56-.52.56H57.54c-.39,0-.54-.17-.54-.56v-.32c0-.85-.65-1.21-1.56-1.21s-1.54.36-1.54,1.21v5.51c0,.85.63,1.2,1.54,1.2S57,37.11,57,36.26v-.6c0-.39.15-.56.54-.56h1.92c.39,0,.52.17.52.56Z" transform="translate(0 0)" fill="#fff"/>
    <path id="Path_1941" data-name="Path 1941" d="M67.58,27.74l3.36,11.53c.12.35,0,.56-.4.56H68.47c-.39,0-.56-.21-.65-.56l-.48-1.79H64.25l-.48,1.79c-.1.35-.26.56-.65.56H61.24c-.39,0-.52-.21-.41-.56L64.2,27.74a.64.64,0,0,1,.68-.56h2a.65.65,0,0,1,.7.56Zm-1.17,6.32a36.757,36.757,0,0,1-.58-3.89,30.287,30.287,0,0,1-.63,3.89l-.28,1h1.75Z" transform="translate(0 0)" fill="#fff"/>
    <path id="Path_1942" data-name="Path 1942" d="M84.09,39.27c0,.39-.13.56-.52.56H81.65c-.39,0-.54-.17-.54-.56v-5.9c0,.06-.37,1.36-.59,2l-.82,2a.73.73,0,0,1-.73.56H77.36c-.38,0-.56-.22-.71-.56l-1-2.36a13.7,13.7,0,0,1-.49-1.56v5.84c0,.39-.13.56-.52.56H72.8c-.39,0-.54-.17-.54-.56V27.74c0-.39.15-.56.54-.56h1.82a.48.48,0,0,1,.49.3l2.53,5.69c.26.63.5,1.39.53,1.47a11.662,11.662,0,0,1,.54-1.43l2.44-5.77c.07-.18.22-.26.5-.26h1.92c.39,0,.52.17.52.56Z" transform="translate(0 0)" fill="#fff"/>
    <path id="Path_1943" data-name="Path 1943" d="M89.38,35.53v3.74c0,.39-.13.56-.52.56h-2c-.39,0-.53-.17-.53-.56V27.74c0-.39.14-.56.53-.56h4c3.5,0,4.72,1.58,4.72,3.18v2c0,1.6-1.22,3.18-4.72,3.18Zm0-5.84V33h1.49c.91,0,1.69-.35,1.69-1.21V30.9c0-.86-.78-1.21-1.69-1.21Z" transform="translate(0 0)" fill="#fff"/>
    <path id="Path_1944" data-name="Path 1944" d="M104.44,39.55a.1.1,0,0,1,.11.11v.05c0,.08,0,.12-.11.12H98a.11.11,0,0,1-.12-.12V36c0-1.21,1.36-1.61,1.77-1.71l3.18-.74c.35-.09,1.36-.47,1.36-1.49v-2.6c0-1.23-.47-2.16-3.07-2.16s-3.05.93-3.05,2.16v1a.1.1,0,0,1-.11.11h-.08a.1.1,0,0,1-.11-.11v-1c0-1.41.54-2.44,3.35-2.44s3.36,1,3.36,2.44v2.6a2,2,0,0,1-1.58,1.79l-3.18.74c-.35.09-1.54.43-1.54,1.41v3.54Z" transform="translate(0 0)" fill="#fff"/>
    <path id="Path_1945" data-name="Path 1945" d="M107.32,29.47c0-1.41.59-2.44,3.4-2.44s3.42,1,3.42,2.44v8.07c0,1.41-.59,2.43-3.42,2.43s-3.4-1-3.4-2.43Zm6.53,0c0-1.23-.52-2.16-3.13-2.16s-3.1.93-3.1,2.16v8.07c0,1.23.52,2.15,3.1,2.15s3.13-.92,3.13-2.15Z" transform="translate(0 0)" fill="#fff"/>
    <path id="Path_1946" data-name="Path 1946" d="M120.74,27.18a.08.08,0,0,1,.11.08V39.55h3.37a.1.1,0,0,1,.11.11v.05c0,.08,0,.12-.11.12h-7c-.08,0-.11,0-.11-.12v-.05c0-.08,0-.11.11-.11h3.35v-12l-3.33,1c-.06,0-.11,0-.11-.08v-.05a.13.13,0,0,1,.11-.15Z" transform="translate(0 0)" fill="#fff"/>
    <path id="Path_1947" data-name="Path 1947" d="M127,29.47c0-1.41.44-2.44,3.25-2.44s3.27,1,3.27,2.44v1.19a2,2,0,0,1-1.95,2.3c1.67.28,2.05,1.14,2.05,2.29v2.29c0,1.41-.54,2.43-3.37,2.43s-3.35-1-3.35-2.43V35.25c0-1.15.36-2,2-2.29a2,2,0,0,1-1.91-2.3Zm6.32,5.78c0-1.23-.47-2.16-3.07-2.16s-3.05.93-3.05,2.16v2.29c0,1.23.47,2.15,3.05,2.15s3.07-.92,3.07-2.15Zm-.09-5.78c0-1.23-.38-2.16-3-2.16s-3,.93-3,2.16v1.19c0,1.23.38,2.16,3,2.16s3-.93,3-2.16Z" transform="translate(0 0)" fill="#fff"/>
  </g>
</svg>
