<svg id="masterclass" xmlns="http://www.w3.org/2000/svg" xmlns:xlink="http://www.w3.org/1999/xlink" width="146.751" height="39.5" viewBox="0 0 146.751 39.5">
  <defs>
    <linearGradient id="linear-gradient" x1="-0.126" y1="0.562" x2="0.26" y2="0.373" gradientUnits="objectBoundingBox">
      <stop offset="0" stop-color="#26beca"/>
      <stop offset="0.09" stop-color="#26b7c8"/>
      <stop offset="0.38" stop-color="#26a4c3"/>
      <stop offset="0.68" stop-color="#2699c0"/>
      <stop offset="1" stop-color="#2695bf"/>
    </linearGradient>
  </defs>
  <g id="Layer_1" data-name="Layer 1">
    <path id="Path_1948" data-name="Path 1948" d="M27.35,12.33V27.11l-7.39-7.39Z" transform="translate(0 0)" fill="#4c95d0"/>
    <path id="Path_1949" data-name="Path 1949" d="M14.51,14.27,11.79,17,7.12,21.66V6.88Z" transform="translate(0 0)" fill="url(#linear-gradient)"/>
    <path id="Path_1950" data-name="Path 1950" d="M7.12,6.88v5.45L11.79,17l2.72-2.73Z" transform="translate(0 0)" fill="#fff"/>
    <path id="Path_1951" data-name="Path 1951" d="M27.35,6.88,17.23,17l-2.72,2.72L7.12,27.11v5.45L17.23,22.44,27.35,32.56V27.11l-7.39-7.39,7.39-7.39Z" transform="translate(0 0)" fill="#fff"/>
    <path id="Path_1952" data-name="Path 1952" d="M30.9,13.82v.44l.58-.58,2.99-2.99V5.25L30.9,8.82Z" fill="#fff"/>
    <path id="Path_1953" data-name="Path 1953" d="M41.12,23.21v-5.6c0-2.75-1.07-4.15-3.66-4.46l-3,3H35.9c1.08,0,1.6.3,1.6,1.46v.83l-2.89.22h-.15a5.67,5.67,0,0,0-3.57,1.21,3.79,3.79,0,0,0-1,2.9,4.74,4.74,0,0,0,1,3.25v9.9H3.57V3.57H30.69L34.26,0H0V39.5H34.47V27.19A10.52,10.52,0,0,0,38,26.26a6,6,0,0,0,3.86.94L42,24.48C41.28,24.35,41.17,24,41.12,23.21Zm-3.61.62a11.41,11.41,0,0,1-2.65.44,1.6,1.6,0,0,1-.39-.05c-.68-.16-.93-.74-.93-1.54a1.33,1.33,0,0,1,.93-1.4,2.48,2.48,0,0,1,.58-.12L37.51,21Z" fill="#fff"/>
    <path id="Path_1954" data-name="Path 1954" d="M50.45,18.63c-2.49-.46-3-.59-3-1.21s.33-1.08,1.89-1.08,4.91.43,4.91.43v-3a34.349,34.349,0,0,0-5.23-.68c-2.83,0-5.2,1.27-5.2,4.4,0,3,1.53,3.66,4.45,4.15,2.48.41,2.77.67,2.77,1.27s-.46,1-2.18,1c-1.38,0-4.72-.43-4.72-.43l-.11,3a34.07,34.07,0,0,0,5.18.64c3.37,0,5.42-1.21,5.42-4.36C54.68,20.11,53.57,19.2,50.45,18.63Z" transform="translate(0 0)" fill="#fff"/>
    <path id="Path_1955" data-name="Path 1955" d="M62.58,24c-1.14,0-1.14-.62-1.14-2V16.47h3.32V13.4H61.44V9.65H57.83V13.4H56.24v3.07h1.59v5.61c0,3.88,1,5.12,4.21,5.12a17.85,17.85,0,0,0,2.75-.4l-.16-2.88S63.33,24,62.58,24Z" transform="translate(0 0)" fill="#fff"/>
    <path id="Path_1956" data-name="Path 1956" d="M72.39,13.08c-3.94,0-6,2.45-6,7.25s1.73,6.87,5.8,6.87a28.69,28.69,0,0,0,5.61-.75l-.06-2.67S75,24,72.79,24c-1.94,0-2.69-.73-2.72-2.34H78l.27-2.51C78.27,15.1,76.35,13.08,72.39,13.08Zm-2.34,5.85c0-2.05.61-2.89,2.34-2.89s2.32.7,2.32,2.89Z" transform="translate(0 0)" fill="#fff"/>
    <path id="Path_1957" data-name="Path 1957" d="M84.44,13.4H80.86V26.88h3.61v-9a32,32,0,0,1,4.29-1.13V13.08a16.27,16.27,0,0,0-4.32,1.75Z" transform="translate(0 0)" fill="#fff"/>
    <path id="Path_1958" data-name="Path 1958" d="M97,16.31c1,0,3.15.22,3.15.22l.11-2.86a27.74,27.74,0,0,0-4.31-.59c-4,0-5.69,2.15-5.69,6.93,0,5.06,1.59,7.19,5.6,7.19a32,32,0,0,0,4.4-.56l-.11-2.89S98,24,97,24c-2.58,0-3.1-.94-3.1-4C93.9,17.31,94.39,16.31,97,16.31Z" transform="translate(0 0)" fill="#fff"/>
    <rect id="Rectangle_253" data-name="Rectangle 253" width="3.61" height="18.87" transform="translate(103.07 8.01)" fill="#fff"/>
    <path id="Path_1959" data-name="Path 1959" d="M120.51,23.21v-5.6c0-3.16-1.4-4.53-4.9-4.53a24.69,24.69,0,0,0-5.48.78l.11,2.51s3.29-.22,5.07-.22c1.08,0,1.59.3,1.59,1.46v.83l-2.88.22c-3,.21-4.72,1.08-4.72,4.12,0,2.86,1.35,4.42,4.18,4.42a10.4,10.4,0,0,0,4-.94,6,6,0,0,0,3.85.94l.11-2.72C120.67,24.35,120.57,24,120.51,23.21Zm-3.61.62a11.28,11.28,0,0,1-2.64.44c-1,0-1.32-.65-1.32-1.59s.56-1.43,1.51-1.52L116.9,21Z" transform="translate(0 0)" fill="#fff"/>
    <path id="Path_1960" data-name="Path 1960" d="M129.84,18.63c-2.48-.46-3-.59-3-1.21s.32-1.08,1.89-1.08,4.9.43,4.9.43l.06-3a34.35,34.35,0,0,0-5.23-.68c-2.83,0-5.21,1.27-5.21,4.4,0,3,1.54,3.66,4.45,4.15,2.48.41,2.78.67,2.78,1.27s-.46,1-2.19,1c-1.37,0-4.71-.43-4.71-.43l-.11,3a34.06,34.06,0,0,0,5.17.64c3.37,0,5.42-1.21,5.42-4.36C134.07,20.11,133,19.2,129.84,18.63Z" transform="translate(0 0)" fill="#fff"/>
    <path id="Path_1961" data-name="Path 1961" d="M142.57,18.63c-2.48-.46-3-.59-3-1.21s.33-1.08,1.89-1.08,4.91.43,4.91.43v-3a34.35,34.35,0,0,0-5.23-.68c-2.83,0-5.2,1.27-5.2,4.4,0,3,1.53,3.66,4.45,4.15,2.48.41,2.77.67,2.77,1.27s-.46,1-2.18,1c-1.38,0-4.72-.43-4.72-.43l-.11,3a34.07,34.07,0,0,0,5.18.64c3.37,0,5.42-1.21,5.42-4.36C146.8,20.11,145.69,19.2,142.57,18.63Z" transform="translate(0 0)" fill="#fff"/>
  </g>
</svg>
