<svg xmlns="http://www.w3.org/2000/svg" xmlns:xlink="http://www.w3.org/1999/xlink" width="101.376" height="59.24" viewBox="0 0 101.376 59.24">
  <defs>
    <linearGradient id="linear-gradient" x1="0.643" y1="-0.031" x2="0.265" y2="0.919" gradientUnits="objectBoundingBox">
      <stop offset="0" stop-color="#ffd8ff"/>
      <stop offset="0.06" stop-color="#e3daff"/>
      <stop offset="0.19" stop-color="#b2ddff"/>
      <stop offset="0.32" stop-color="#88e0ff"/>
      <stop offset="0.45" stop-color="#66e2ff"/>
      <stop offset="0.58" stop-color="#4be4ff"/>
      <stop offset="0.71" stop-color="#38e5ff"/>
      <stop offset="0.85" stop-color="#2de6ff"/>
      <stop offset="1" stop-color="#29e6ff"/>
    </linearGradient>
  </defs>
  <g id="offline_book" data-name="offline book" transform="translate(-728.213 -3686)">
    <path id="Path_2020" data-name="Path 2020" d="M84.06,24.7s-4.22,1.21-3.82,1.81S110,52.61,110.76,53.22s2.21,3.41,4.82,2.41,8.84-4,14.66-5.22,18.57,6.82,20.38,8.83L156,57.73s1.61-15.46,9.24-20.68A118.241,118.241,0,0,1,181.59,28s-3.31-4.37-6.17-5.58-32.53-7.83-34-7.83S119.1,30.53,119.1,31,102.18,25.66,84.06,24.7Z" transform="translate(648 3686)" fill="#339ddb"/>
    <path id="Path_2021" data-name="Path 2021" d="M89,24.73s-2.79-1.51-3-.9a3,3,0,0,0,0,1.5l-1.91-.63s-1.48-.41-1.78-.19,30.79,25.37,31.32,25.67,16.49-3.51,27.33,1.52,10.24,6.69,10.24,6.69l3.92-2.11s-2-8.74,5.87-18.07,13.71-14.46,14.46-15.82,0-4.06,0-4.06-1.58-1.21-2-1.51-.23-1.13-.76-1.43-1.53-.83-1.53-.83V11.78s-3.89.3-4.34,0-44.12,5.37-44,9.61-3.69,11.85-3.69,11.85-19.88-6.63-22.79-7S89,24.73,89,24.73Z" transform="translate(648 3686)" fill="#ebeced"/>
    <path id="Path_2022" data-name="Path 2022" d="M171.1,10.14S160.66,25,157.45,36.05s-4.32,18.47-5.52,19-4.55-4.12-7.2-5.84S120.1,31.43,119.09,31c0,0-4.11-20.74,7.13-29l3-2,2.09.51,37.53,9.08Z" transform="translate(648 3686)" fill="#fff"/>
    <path id="Path_2023" data-name="Path 2023" d="M84.56,21.39s7,5,9.84,8.33,17.07,11.65,17.37,11.65,14.08-8.26,35.85,10.33L119.1,31s-8.84-5.47-13-6.18-10-.4-12.45-.9S84.56,21.39,84.56,21.39Z" transform="translate(648 3686)" fill="#fff"/>
    <path id="Path_2024" data-name="Path 2024" d="M125,30.94s-3.38-15.26,4-23.83l2.69.94s-7.53,8.72-3.73,25Z" transform="translate(648 3686)" fill="#ebeced"/>
    <path id="Path_2025" data-name="Path 2025" d="M133.37,8.64l1.94.7s-4.67,6.72-4.4,12.34l-1.9-1S129.47,13.45,133.37,8.64Z" transform="translate(648 3686)" fill="#ebeced"/>
    <path id="Path_2026" data-name="Path 2026" d="M137.8,10.75s-5.75,7.27-4.46,16.78l10.57,5.52s-2-16.43,9.74-23.12L142,7.11a13.14,13.14,0,0,0-4.2,3.64Z" transform="translate(648 3686)" fill="url(#linear-gradient)"/>
  </g>
</svg>
