<svg xmlns="http://www.w3.org/2000/svg" xmlns:xlink="http://www.w3.org/1999/xlink" width="324" height="80" viewBox="0 0 324 80">
  <defs>
    <clipPath id="clip-path">
      <path id="Rectangle_242" data-name="Rectangle 242" d="M8,0H316a8,8,0,0,1,8,8V80a0,0,0,0,1,0,0H0a0,0,0,0,1,0,0V8A8,8,0,0,1,8,0Z" transform="translate(308 3634)" fill="#64caf4"/>
    </clipPath>
    <radialGradient id="radial-gradient" cx="97.813" cy="30.249" r="23.92" gradientTransform="translate(-43.19 -12.333) scale(0.454 0.454)" gradientUnits="userSpaceOnUse">
      <stop offset="0" stop-color="#ff6a87"/>
      <stop offset="0.2" stop-color="#ff6d8b"/>
      <stop offset="0.38" stop-color="#ff7896"/>
      <stop offset="0.55" stop-color="#ff8aa9"/>
      <stop offset="0.73" stop-color="#ffa2c4"/>
      <stop offset="0.89" stop-color="#ffc2e6"/>
      <stop offset="1" stop-color="#ffd9ff"/>
    </radialGradient>
    <linearGradient id="linear-gradient" y1="0.502" x2="1" y2="0.502" gradientUnits="objectBoundingBox">
      <stop offset="0" stop-color="#ffd9ff"/>
      <stop offset="0.06" stop-color="#e3dbff"/>
      <stop offset="0.19" stop-color="#b2deff"/>
      <stop offset="0.32" stop-color="#88e0ff"/>
      <stop offset="0.45" stop-color="#66e2ff"/>
      <stop offset="0.58" stop-color="#4be4ff"/>
      <stop offset="0.71" stop-color="#38e5ff"/>
      <stop offset="0.85" stop-color="#2de6ff"/>
      <stop offset="1" stop-color="#29e6ff"/>
    </linearGradient>
  </defs>
  <g id="online_banner" data-name="online banner" transform="translate(-308 -3634)" clip-path="url(#clip-path)">
    <g id="onine_courses" data-name="onine courses" transform="translate(308 3634)">
      <g id="Layer_1" data-name="Layer 1">
        <path id="Path_1981" data-name="Path 1981" d="M324,8V80H0V8A8,8,0,0,1,8,0H316A8,8,0,0,1,324,8Z" fill="#64c8f2"/>
        <path id="Path_1982" data-name="Path 1982" d="M324,16.14V80H16.57C81.1,50,180.79,19.67,324,16.14Z" fill="#fff" opacity="0.35"/>
        <path id="Path_1983" data-name="Path 1983" d="M324,26.92V80H55.45C92.32,55.94,175.51,17.77,324,26.92Z" fill="#fff"/>
        <path id="Path_1984" data-name="Path 1984" d="M324,39V80H115.61C155.87,62.92,232.75,36.91,324,39Z" fill="#f3ebe5"/>
        <path id="Path_1985" data-name="Path 1985" d="M198.54,65c-9.78,1.15-18.52.26-23.23-2-2.15-1-3.46-2.36-3.64-3.91-.58-4.93,10.51-10.29,24.77-12,13.95-1.63,25.78.87,26.82,5.6a.717.717,0,0,0,.05.32C223.89,57.92,212.8,63.28,198.54,65Z" fill="#f3ebe5"/>
        <path id="Path_1986" data-name="Path 1986" d="M212.78,61.74A65.46,65.46,0,0,1,198.54,65a66.62,66.62,0,0,1-13.72.26,29,29,0,0,1-9.51-2.27,2.868,2.868,0,0,1-.05-.31c-.58-4.94,10.51-10.3,24.77-12,9.79-1.15,18.52-.26,23.23,2a.717.717,0,0,0,.05.32C223.67,56.07,219.47,59.33,212.78,61.74Z" fill="#d2c1b7"/>
        <path id="Path_1987" data-name="Path 1987" d="M255.62,43.56c-4.18.08-7.84-.66-9.73-1.82a2.34,2.34,0,0,1-1.38-1.8c0-2.11,4.87-3.92,11-4s10.86,1.44,11.11,3.49a.572.572,0,0,1,0,.13C266.63,41.64,261.72,43.45,255.62,43.56Z" fill="#f3ebe5"/>
        <path id="Path_1988" data-name="Path 1988" d="M266.59,39.4a.572.572,0,0,1,0,.13c0,1.46-2.31,2.77-5.77,3.48a28.22,28.22,0,0,1-5.2.55h-1.81a19.139,19.139,0,0,1-2.46-.2,14.59,14.59,0,0,1-5.46-1.61.531.531,0,0,1,0-.13c0-2.11,4.87-3.92,11-4C261,37.5,264.69,38.24,266.59,39.4Z" fill="#d2c1b7"/>
        <path id="Path_1989" data-name="Path 1989" d="M307.7,58.45A13.84,13.84,0,0,1,301.1,57c-.58-.37-.91-.79-.91-1.23,0-1.4,3.41-2.48,7.57-2.41s7.37,1.23,7.5,2.59V56C315.24,57.44,311.86,58.52,307.7,58.45Z" fill="#fff"/>
        <path id="Path_1990" data-name="Path 1990" d="M307.7,58.45A13.84,13.84,0,0,1,301.1,57a.249.249,0,0,1,0-.09c0-1.4,3.4-2.48,7.56-2.4a14,14,0,0,1,6.6,1.49h0C315.24,57.44,311.86,58.52,307.7,58.45Z" fill="#d2c1b7"/>
        <path id="Path_1991" data-name="Path 1991" d="M173.93,62.16,119.74,80h-31c.72-2.92,3.61-8.86,15.31-11.32,15.8-3.34,27.13,5.33,37.13,1.66s7.12-7.15,15.23-9.24S173.93,62.16,173.93,62.16Z" fill="#f3ebe5"/>
        <path id="Path_1992" data-name="Path 1992" d="M212.78,61.74A65.46,65.46,0,0,1,198.54,65c-2.22.26-4.4.42-6.48.47a58.331,58.331,0,0,1-7.24-.21,14.63,14.63,0,0,1,14.47-12.44,14.46,14.46,0,0,1,5.4,1,14.69,14.69,0,0,1,8.09,7.92Z" fill="url(#radial-gradient)"/>
        <path id="Path_1993" data-name="Path 1993" d="M204.69,53.8c-9.73.69-12.08,7.72-12.63,11.62a58.331,58.331,0,0,1-7.24-.21,14.63,14.63,0,0,1,14.47-12.44,14.46,14.46,0,0,1,5.4,1.03Z" fill="#fff" opacity="0.31"/>
        <path id="Path_1994" data-name="Path 1994" d="M260.82,43a28.22,28.22,0,0,1-5.2.55h-1.81a19.139,19.139,0,0,1-2.46-.2,5,5,0,0,1,5.1-3.61,4.85,4.85,0,0,1,1.82.47A5,5,0,0,1,260.82,43Z" fill="url(#linear-gradient)"/>
        <path id="Path_1995" data-name="Path 1995" d="M258.27,40.21a4.28,4.28,0,0,0-4.46,3.34,19.139,19.139,0,0,1-2.46-.2,5,5,0,0,1,5.1-3.61,4.85,4.85,0,0,1,1.82.47Z" fill="#fff" opacity="0.31"/>
        <path id="Path_1996" data-name="Path 1996" d="M116.7,27.14V28.4a.31.31,0,0,1-.31.3l-9.12-.24a.3.3,0,0,1-.29-.31V26.89a.31.31,0,0,1,.3-.3h0l9.12.24a.29.29,0,0,1,.29.27Z" fill="#e0e4e6"/>
        <path id="Path_1997" data-name="Path 1997" d="M104.58,34.44l.13-2.24,4.62.25-.14,2.28Z" fill="#666"/>
        <rect id="Rectangle_258" data-name="Rectangle 258" width="4.06" height="2.15" transform="translate(115.92 32.59)" fill="#666"/>
        <path id="Path_1998" data-name="Path 1998" d="M90.74,30.45l40.71.87v1.47L90.74,31.62Z" fill="#e0e4e6"/>
        <path id="Path_1999" data-name="Path 1999" d="M90.74,30.92l40.71.88v1.47L90.74,32.09Z" fill="#fff"/>
        <circle id="Ellipse_98" data-name="Ellipse 98" cx="1" cy="1" r="1" transform="translate(111.48 25.78)" fill="#e0e4e6"/>
        <path id="Path_2000" data-name="Path 2000" d="M116.7,27.1v.31l-9.72-.2v-.32a.31.31,0,0,1,.3-.3h0l9.12.24A.29.29,0,0,1,116.7,27.1Z" fill="#cacdce"/>
        <path id="Path_2001" data-name="Path 2001" d="M113.47,26.78h-2l.51,11.4v.16a.47.47,0,0,0,.92.15h0Z" fill="#e0e4e6"/>
        <circle id="Ellipse_99" data-name="Ellipse 99" cx="0.86" cy="0.86" r="0.86" transform="translate(111.62 25.92)" fill="#fff"/>
        <path id="Path_2002" data-name="Path 2002" d="M104.58,34.44l4.61.29v1.5l-4.32-.18Z" fill="#e0e4e6"/>
        <path id="Path_2003" data-name="Path 2003" d="M115.67,35.63l.25-.9h4.06l-.34,1.01Z" fill="#e0e4e6"/>
        <path id="Path_2004" data-name="Path 2004" d="M90.53,29.79l1.28.16-3.08-.38,1.6-12.7,1.8.22Z" fill="#fff"/>
        <rect id="Rectangle_259" data-name="Rectangle 259" width="12.8" height="1.81" transform="matrix(0.125, -0.992, 0.992, 0.125, 91.808, 29.952)" fill="#fff"/>
        <path id="Path_2005" data-name="Path 2005" d="M90.23,32.88,88.43,47.6l-1.52.17,1.8-14.73Z" fill="#fff"/>
        <path id="Path_2006" data-name="Path 2006" d="M92.83,32.61l-1.8,14.72-1.51.16,1.79-14.72Z" fill="#fff"/>
        <path id="Path_2007" data-name="Path 2007" d="M97.59,32.88,95.79,47.6l-1.52.17,1.8-14.73Z" fill="#fff"/>
        <path id="Path_2008" data-name="Path 2008" d="M100.19,32.61l-1.8,14.72-1.52.16,1.8-14.72Z" fill="#fff"/>
        <path id="Path_2009" data-name="Path 2009" d="M97.29,29.79l1.27.16-3.07-.38,1.59-12.7,1.8.22Z" fill="#fff"/>
        <rect id="Rectangle_260" data-name="Rectangle 260" width="12.8" height="1.81" transform="matrix(0.125, -0.992, 0.992, 0.125, 98.561, 29.945)" fill="#fff"/>
        <rect id="Rectangle_261" data-name="Rectangle 261" width="1.81" height="12.8" transform="translate(123.577 34.518) rotate(-5.9)" fill="#fff"/>
        <rect id="Rectangle_262" data-name="Rectangle 262" width="1.81" height="12.8" transform="translate(126.659 34.185) rotate(-5.93)" fill="#fff"/>
        <rect id="Rectangle_263" data-name="Rectangle 263" width="1.81" height="12.8" transform="translate(129.415 34.066) rotate(-9.3)" fill="#fff"/>
        <rect id="Rectangle_264" data-name="Rectangle 264" width="1.81" height="12.8" transform="matrix(0.987, -0.161, 0.161, 0.987, 132.471, 33.573)" fill="#fff"/>
        <path id="Path_2010" data-name="Path 2010" d="M132.47,33.57l-1.27.21h0Z" fill="#64c8f2"/>
        <path id="Path_2011" data-name="Path 2011" d="M130.87,30.83l.96.01-2.31-.03-1.57-9.84,1.35.02Z" fill="#fff"/>
        <path id="Path_2012" data-name="Path 2012" d="M133.18,30.86l-1.35-.02L130.26,21l-.96-.01,2.32.03Z" fill="#fff"/>
        <path id="Path_2013" data-name="Path 2013" d="M125.46,30.83l.96.01-2.31-.03-1.57-9.84,1.35.02Z" fill="#fff"/>
        <path id="Path_2014" data-name="Path 2014" d="M127.77,30.86l-1.35-.02L124.85,21l-.96-.01,2.31.03Z" fill="#fff"/>
      </g>
    </g>
  </g>
</svg>
