<svg xmlns="http://www.w3.org/2000/svg" width="184.351" height="149.001" viewBox="0 0 184.351 149.001">
  <g id="paper_DIGI_MARKETING" data-name="paper DIGI MARKETING" transform="translate(-69.987 -1506.831)">
    <rect id="Rectangle_153" data-name="Rectangle 153" width="101.642" height="6.038" transform="translate(69.987 1553.17)" fill="#4b4b4a"/>
    <path id="Path_1399" data-name="Path 1399" d="M50.293,201.88h73.184v49.554H27.6V224.567A22.687,22.687,0,0,1,50.293,201.88Z" transform="translate(57.689 1304.951)" fill="#82d8ff"/>
    <rect id="Rectangle_154" data-name="Rectangle 154" width="54.095" height="2.595" transform="translate(79.407 1554.888)" fill="#6c6c6c"/>
    <path id="Path_1400" data-name="Path 1400" d="M160.149,201.88H67.3q-.776,0-1.53.05a22.692,22.692,0,0,1,21.162,22.6v103.71a22.637,22.637,0,0,0,22.637,22.637H182.8V224.512A22.632,22.632,0,0,0,160.149,201.88Z" transform="translate(40.682 1304.951)" fill="#eefbff"/>
    <path id="Path_1401" data-name="Path 1401" d="M255.465,413.53v9.253a22.4,22.4,0,0,1-22.4,22.4H159.6a22.637,22.637,0,0,0,22.437-22.637v-9.02Z" transform="translate(-1.127 1210.645)" fill="#82d8ff"/>
    <rect id="Rectangle_155" data-name="Rectangle 155" width="29.745" height="3.443" transform="translate(142.8 1528.16)" fill="#82d8ff"/>
    <rect id="Rectangle_156" data-name="Rectangle 156" width="29.745" height="3.443" transform="translate(142.8 1535.922)" fill="#82d8ff"/>
    <rect id="Rectangle_157" data-name="Rectangle 157" width="29.745" height="3.443" transform="translate(142.8 1543.684)" fill="#82d8ff"/>
    <rect id="Rectangle_158" data-name="Rectangle 158" width="29.745" height="3.443" transform="translate(142.8 1551.446)" fill="#82d8ff"/>
    <rect id="Rectangle_159" data-name="Rectangle 159" width="29.745" height="3.443" transform="translate(142.8 1559.208)" fill="#82d8ff"/>
    <rect id="Rectangle_160" data-name="Rectangle 160" width="29.745" height="3.443" transform="translate(142.8 1566.969)" fill="#82d8ff"/>
    <rect id="Rectangle_161" data-name="Rectangle 161" width="29.745" height="3.443" transform="translate(142.8 1574.731)" fill="#82d8ff"/>
    <rect id="Rectangle_162" data-name="Rectangle 162" width="29.745" height="3.443" transform="translate(142.8 1582.493)" fill="#82d8ff"/>
    <rect id="Rectangle_163" data-name="Rectangle 163" width="29.745" height="3.443" transform="translate(142.8 1590.255)" fill="#82d8ff"/>
    <rect id="Rectangle_164" data-name="Rectangle 164" width="29.745" height="3.443" transform="translate(178.044 1528.16)" fill="#82d8ff"/>
    <rect id="Rectangle_165" data-name="Rectangle 165" width="29.745" height="3.443" transform="translate(178.044 1535.922)" fill="#82d8ff"/>
    <rect id="Rectangle_166" data-name="Rectangle 166" width="29.745" height="3.443" transform="translate(178.044 1543.684)" fill="#82d8ff"/>
    <rect id="Rectangle_167" data-name="Rectangle 167" width="29.745" height="3.443" transform="translate(178.044 1551.446)" fill="#82d8ff"/>
    <rect id="Rectangle_168" data-name="Rectangle 168" width="29.745" height="3.443" transform="translate(178.044 1559.208)" fill="#82d8ff"/>
    <rect id="Rectangle_169" data-name="Rectangle 169" width="29.745" height="3.443" transform="translate(178.044 1566.969)" fill="#82d8ff"/>
    <rect id="Rectangle_170" data-name="Rectangle 170" width="29.745" height="3.443" transform="translate(178.044 1574.731)" fill="#82d8ff"/>
    <rect id="Rectangle_171" data-name="Rectangle 171" width="29.745" height="3.443" transform="translate(178.044 1582.493)" fill="#82d8ff"/>
    <rect id="Rectangle_172" data-name="Rectangle 172" width="29.745" height="3.443" transform="translate(178.044 1590.255)" fill="#82d8ff"/>
  </g>
</svg>
