<svg xmlns="http://www.w3.org/2000/svg" xmlns:xlink="http://www.w3.org/1999/xlink" width="274.885" height="161.876" viewBox="0 0 274.885 161.876">
  <defs>
    <linearGradient id="linear-gradient" y1="0.5" x2="1" y2="0.5" gradientUnits="objectBoundingBox">
      <stop offset="0" stop-color="#ffdaff"/>
      <stop offset="0.06" stop-color="#e3dcff"/>
      <stop offset="0.19" stop-color="#b2deff"/>
      <stop offset="0.32" stop-color="#88e1ff"/>
      <stop offset="0.45" stop-color="#66e3ff"/>
      <stop offset="0.58" stop-color="#4be4ff"/>
      <stop offset="0.71" stop-color="#38e5ff"/>
      <stop offset="0.85" stop-color="#2de6ff"/>
      <stop offset="1" stop-color="#29e6ff"/>
    </linearGradient>
  </defs>
  <g id="star" transform="translate(0 43.211)">
    <g id="Layer_1" data-name="Layer 1" transform="translate(0 0.04)">
      <path id="Path_1975" data-name="Path 1975" d="M16.458,6.062c.144,1.451.248,2.908.445,4.353a23.643,23.643,0,0,0,.613,3.021A5.214,5.214,0,0,0,21.5,17.319a30.739,30.739,0,0,0,3.426.629c1.2.166,2.417.239,3.623.356a.34.34,0,0,1,.2.08c-1.031.092-2.064.169-3.092.276a20.245,20.245,0,0,0-4.751.92,5.241,5.241,0,0,0-3.35,3.555,21.327,21.327,0,0,0-.807,4.408c-.1,1.037-.184,2.077-.331,3.123-.043-.537-.083-1.074-.132-1.61a29.671,29.671,0,0,0-.822-5.521,5.323,5.323,0,0,0-3.227-3.853,14.128,14.128,0,0,0-3.6-.85c-1.5-.163-3-.307-4.506-.5.531-.043,1.061-.064,1.589-.135,1.709-.227,3.429-.408,5.122-.727a5.7,5.7,0,0,0,4.785-4.908A47.237,47.237,0,0,0,16.359,6.7c0-.215.037-.429.055-.647Z" transform="translate(246.137 0.793)" fill="#fff"/>
      <path id="Path_1976" data-name="Path 1976" d="M59.017,19.833c-.064-.457-.117-.9-.193-1.34a1.494,1.494,0,0,0-1.285-1.331c-.469-.086-.942-.147-1.4-.218.423-.061.871-.1,1.31-.19a1.5,1.5,0,0,0,1.38-1.4c.077-.42.123-.847.187-1.291.064.445.12.874.187,1.3a1.534,1.534,0,0,0,1.353,1.39c.454.08.92.132,1.362.2-.454.064-.92.117-1.374.2a1.506,1.506,0,0,0-1.328,1.331C59.14,18.922,59.085,19.37,59.017,19.833Z" transform="translate(22.08 -10.76)" fill="url(#linear-gradient)"/>
      <path id="Path_1979" data-name="Path 1979" d="M62.557,26.936c-.144-1.019-.26-2.011-.431-2.99a3.332,3.332,0,0,0-2.867-2.969c-1.047-.192-2.1-.328-3.12-.486.944-.137,1.943-.233,2.921-.424A3.345,3.345,0,0,0,62.14,16.94c.171-.937.274-1.888.417-2.88.144.992.267,1.95.417,2.9a3.421,3.421,0,0,0,3.017,3.1c1.013.178,2.052.294,3.038.438-1.013.144-2.052.26-3.065.445A3.359,3.359,0,0,0,63,23.912C62.831,24.9,62.708,25.9,62.557,26.936Z" transform="translate(69.525 -57.311)" fill="url(#linear-gradient)"/>
      <path id="Path_1980" data-name="Path 1980" d="M62.557,26.936c-.144-1.019-.26-2.011-.431-2.99a3.332,3.332,0,0,0-2.867-2.969c-1.047-.192-2.1-.328-3.12-.486.944-.137,1.943-.233,2.921-.424A3.345,3.345,0,0,0,62.14,16.94c.171-.937.274-1.888.417-2.88.144.992.267,1.95.417,2.9a3.421,3.421,0,0,0,3.017,3.1c1.013.178,2.052.294,3.038.438-1.013.144-2.052.26-3.065.445A3.359,3.359,0,0,0,63,23.912C62.831,24.9,62.708,25.9,62.557,26.936Z" transform="translate(135.525 91.689)" fill="url(#linear-gradient)"/>
      <path id="Path_1977" data-name="Path 1977" d="M53.742,2.546c.018-.84-.368-1.291-1.172-1.291a2.721,2.721,0,0,0,.868-.417,2.245,2.245,0,0,0,.307-.8,2.147,2.147,0,0,0,.307.782,2.785,2.785,0,0,0,.859.432C54.116,1.255,53.785,1.752,53.742,2.546Z" transform="translate(-36.445 -0.04)" fill="#fff"/>
      <path id="Path_1978" data-name="Path 1978" d="M1.255,93.62c.206,1.018.273,1.086,1.282,1.276a1.105,1.105,0,0,0-1.245,1.27c-.236-1.077-.285-1.129-1.291-1.3A1.1,1.1,0,0,0,1.255,93.62Z" transform="translate(0 -64.916)" fill="#fff"/>
    </g>
  </g>
</svg>
